# Blender 4.2.9 LTS
# www.blender.org
mtllib 1001-34.mtl
o Plane
v 0.569413 -0.000000 0.000000
v 0.625000 -0.000000 0.055522
v 0.578109 -0.000000 0.000684
v 0.586590 -0.000000 0.002717
v 0.594649 -0.000000 0.006052
v 0.602086 -0.000000 0.010604
v 0.608719 -0.000000 0.016262
v 0.614384 -0.000000 0.022887
v 0.618941 -0.000000 0.030315
v 0.622279 -0.000000 0.038365
v 0.624316 -0.000000 0.046836
v -0.625000 -0.000000 0.055522
v -0.569658 -0.000000 0.000000
v -0.624319 -0.000000 0.046836
v -0.622291 -0.000000 0.038365
v -0.618968 -0.000000 0.030315
v -0.614431 -0.000000 0.022887
v -0.608791 -0.000000 0.016262
v -0.602187 -0.000000 0.010604
v -0.594783 -0.000000 0.006052
v -0.586760 -0.000000 0.002717
v -0.578315 -0.000000 0.000684
v 0.625000 0.000000 0.444478
v 0.569413 0.000000 0.500000
v 0.624316 0.000000 0.453164
v 0.622279 0.000000 0.461635
v 0.618941 0.000000 0.469685
v 0.614384 0.000000 0.477113
v 0.608719 0.000000 0.483738
v 0.602086 0.000000 0.489396
v 0.594649 0.000000 0.493948
v 0.586590 0.000000 0.497283
v 0.578109 0.000000 0.499316
v -0.569658 0.000000 0.500000
v -0.625000 0.000000 0.444478
v -0.578315 0.000000 0.499316
v -0.586760 0.000000 0.497283
v -0.594783 0.000000 0.493948
v -0.602187 0.000000 0.489396
v -0.608791 0.000000 0.483738
v -0.614431 0.000000 0.477113
v -0.618968 0.000000 0.469685
v -0.622291 0.000000 0.461635
v -0.624319 0.000000 0.453164
v 0.569413 0.002000 0.500000
v 0.625000 0.002000 0.444478
v 0.578109 0.002000 0.499316
v 0.586590 0.002000 0.497283
v 0.594649 0.002000 0.493948
v 0.602086 0.002000 0.489396
v 0.608719 0.002000 0.483738
v 0.614384 0.002000 0.477113
v 0.618941 0.002000 0.469685
v 0.622279 0.002000 0.461635
v 0.624316 0.002000 0.453164
v 0.625000 0.002000 0.055522
v 0.569413 0.002000 -0.000000
v 0.624316 0.002000 0.046836
v 0.622279 0.002000 0.038365
v 0.618941 0.002000 0.030315
v 0.614384 0.002000 0.022887
v 0.608719 0.002000 0.016262
v 0.602086 0.002000 0.010604
v 0.594649 0.002000 0.006051
v 0.586590 0.002000 0.002717
v 0.578109 0.002000 0.000684
v -0.569658 0.002000 -0.000000
v -0.625000 0.002000 0.055522
v -0.578315 0.002000 0.000684
v -0.586760 0.002000 0.002717
v -0.594783 0.002000 0.006051
v -0.602187 0.002000 0.010604
v -0.608791 0.002000 0.016262
v -0.614431 0.002000 0.022887
v -0.618968 0.002000 0.030315
v -0.622291 0.002000 0.038365
v -0.624319 0.002000 0.046836
v -0.625000 0.002000 0.444478
v -0.569658 0.002000 0.500000
v -0.624319 0.002000 0.453164
v -0.622291 0.002000 0.461635
v -0.618968 0.002000 0.469685
v -0.614431 0.002000 0.477113
v -0.608791 0.002000 0.483738
v -0.602187 0.002000 0.489396
v -0.594783 0.002000 0.493948
v -0.586760 0.002000 0.497283
v -0.578315 0.002000 0.499316
vn -1.0000 -0.0000 -0.0000
vn -0.0000 1.0000 -0.0000
vn -0.0000 -0.0000 1.0000
vn 1.0000 -0.0000 -0.0000
vn -0.0000 -1.0000 -0.0000
vn -0.0787 -0.0000 0.9969
vn -0.2342 -0.0000 0.9722
vn -0.3837 -0.0000 0.9234
vn -0.5237 -0.0000 0.8519
vn -0.6507 -0.0000 0.7594
vn -0.7614 -0.0000 0.6482
vn -0.8534 -0.0000 0.5213
vn -0.9243 -0.0000 0.3816
vn -0.9725 -0.0000 0.2327
vn -0.9969 -0.0000 0.0782
vn -0.0787 -0.0000 -0.9969
vn -0.2342 -0.0000 -0.9722
vn -0.3837 -0.0000 -0.9234
vn -0.5237 -0.0000 -0.8519
vn -0.6507 -0.0000 -0.7594
vn -0.7614 -0.0000 -0.6482
vn -0.8534 -0.0000 -0.5213
vn -0.9243 -0.0000 -0.3816
vn -0.9725 -0.0000 -0.2327
vn -0.9969 -0.0000 -0.0782
vn 0.0784 -0.0000 -0.9969
vn 0.2332 -0.0000 -0.9724
vn 0.3823 -0.0000 -0.9240
vn 0.5221 -0.0000 -0.8529
vn 0.6490 -0.0000 -0.7608
vn 0.7600 -0.0000 -0.6499
vn 0.8524 -0.0000 -0.5229
vn 0.9237 -0.0000 -0.3831
vn 0.9723 -0.0000 -0.2337
vn 0.9969 -0.0000 -0.0786
vn 0.0784 -0.0000 0.9969
vn 0.2332 -0.0000 0.9724
vn 0.3823 -0.0000 0.9240
vn 0.5220 -0.0000 0.8529
vn 0.6490 -0.0000 0.7608
vn 0.7600 -0.0000 0.6499
vn 0.8524 -0.0000 0.5229
vn 0.9237 -0.0000 0.3831
vn 0.9723 -0.0000 0.2337
vn 0.9969 -0.0000 0.0786
vn -0.0000 -0.0000 -1.0000
vt 1.000000 0.111043
vt 1.000000 0.888957
vt 1.000000 0.888957
vt 1.000000 0.111043
vt 0.953258 0.004603
vt 0.960146 0.005957
vt 0.966865 0.009988
vt 0.973249 0.016594
vt 0.979140 0.025615
vt 0.984395 0.036827
vt 0.988882 0.049955
vt 0.992492 0.064675
vt 0.995136 0.080625
vt 0.996750 0.097413
vt 0.997292 0.114624
vt 0.997292 0.885376
vt 0.996750 0.902587
vt 0.995136 0.919374
vt 0.992492 0.935325
vt 0.988882 0.950045
vt 0.984395 0.963173
vt 0.979140 0.974385
vt 0.973249 0.983405
vt 0.966865 0.990012
vt 0.960146 0.994043
vt 0.953258 0.995397
vt 0.046937 0.995397
vt 0.040018 0.994043
vt 0.033270 0.990012
vt 0.026858 0.983405
vt 0.020940 0.974385
vt 0.015663 0.963173
vt 0.011155 0.950045
vt 0.007529 0.935325
vt 0.004873 0.919374
vt 0.003253 0.902587
vt 0.002708 0.885376
vt 0.002708 0.114624
vt 0.003253 0.097413
vt 0.004873 0.080625
vt 0.007529 0.064675
vt 0.011155 0.049955
vt 0.015663 0.036827
vt 0.020940 0.025615
vt 0.026858 0.016594
vt 0.033270 0.009988
vt 0.040018 0.005957
vt 0.046937 0.004603
vt 0.955727 1.000000
vt 0.044470 1.000000
vt 0.044470 1.000000
vt 0.000000 0.888957
vt 0.000000 0.111043
vt 0.000000 0.111043
vt 0.000000 0.888957
vt 0.962652 0.999544
vt 0.969408 0.998188
vt 0.975826 0.995966
vt 0.981750 0.992931
vt 0.995678 0.989159
vt 0.997182 0.954226
vt 0.998392 0.939369
vt 0.999278 0.923271
vt 0.999818 0.906328
vt 0.999818 0.093672
vt 0.999278 0.076729
vt 0.998392 0.060631
vt 0.997182 0.045774
vt 0.995678 0.010841
vt 0.981750 0.007069
vt 0.975826 0.004034
vt 0.969408 0.001812
vt 0.962652 0.000456
vt 0.955727 0.000000
vt 0.044470 0.000000
vt 0.037513 0.000456
vt 0.030728 0.001812
vt 0.024281 0.004034
vt 0.018331 0.007069
vt 0.004342 0.010841
vt 0.002831 0.045774
vt 0.001616 0.060631
vt 0.000726 0.076729
vt 0.000183 0.093672
vt 0.000183 0.906328
vt 0.000726 0.923271
vt 0.001616 0.939369
vt 0.002831 0.954226
vt 0.004342 0.989159
vt 0.018331 0.992931
vt 0.024281 0.995966
vt 0.030728 0.998188
vt 0.037513 0.999544
vt 0.969408 0.998188
vt 0.975826 0.995966
vt 0.981750 0.992931
vt 0.995678 0.989159
vt 0.997182 0.954226
vt 0.998392 0.939369
vt 0.999278 0.923271
vt 0.999818 0.906328
vt 0.962652 0.000456
vt 0.969408 0.001812
vt 0.975826 0.004034
vt 0.981750 0.007069
vt 0.997182 0.045774
vt 0.998392 0.060631
vt 0.999818 0.093672
vt 0.044470 0.000000
vt 0.037513 0.000456
vt 0.030728 0.001812
vt 0.024281 0.004034
vt 0.018331 0.007069
vt 0.004342 0.010841
vt 0.002831 0.045774
vt 0.001616 0.060631
vt 0.037513 0.999544
vt 0.030728 0.998188
vt 0.024281 0.995966
vt 0.018331 0.992931
vt 0.004342 0.989159
vt 0.002831 0.954226
vt 0.001616 0.939369
vt 0.000726 0.923271
vt 0.000183 0.906328
s 0
usemtl Material
f 67/5/2 69/6/2 70/7/2 71/8/2 72/9/2 73/10/2 74/11/2 75/12/2 76/13/2 77/14/2 68/15/2 78/16/2 80/17/2 81/18/2 82/19/2 83/20/2 84/21/2 85/22/2 86/23/2 87/24/2 88/25/2 79/26/2 45/27/2 47/28/2 48/29/2 49/30/2 50/31/2 51/32/2 52/33/2 53/34/2 54/35/2 55/36/2 46/37/2 56/38/2 58/39/2 59/40/2 60/41/2 61/42/2 62/43/2 63/44/2 64/45/2 65/46/2 66/47/2 57/48/2
usemtl Material.001
f 12/1/1 35/2/1 78/3/1 68/4/1
f 34/49/3 24/50/3 45/51/3 79/49/3
f 23/52/4 2/53/4 56/54/4 46/55/4
f 34/49/5 36/56/5 37/57/5 38/58/5 39/59/5 40/60/5 41/61/5 42/62/5 43/63/5 44/64/5 35/2/5 12/4/5 14/65/5 15/66/5 16/67/5 17/68/5 18/69/5 19/70/5 20/71/5 21/72/5 22/73/5 13/74/5 1/75/5 3/76/5 4/77/5 5/78/5 6/79/5 7/80/5 8/81/5 9/82/5 10/83/5 11/84/5 2/54/5 23/52/5 25/85/5 26/86/5 27/87/5 28/88/5 29/89/5 30/90/5 31/91/5 32/92/5 33/93/5 24/51/5
f 34/49/6 79/49/6 88/56/6 36/56/6
f 36/56/7 88/56/7 87/94/7 37/57/7
f 37/57/8 87/94/8 86/95/8 38/58/8
f 38/58/9 86/95/9 85/96/9 39/59/9
f 39/59/10 85/96/10 84/97/10 40/60/10
f 40/60/11 84/97/11 83/98/11 41/61/11
f 41/61/12 83/98/12 82/99/12 42/62/12
f 42/62/13 82/99/13 81/100/13 43/63/13
f 43/63/14 81/100/14 80/101/14 44/64/14
f 44/64/15 80/101/15 78/3/15 35/2/15
f 67/74/16 13/74/16 22/73/16 69/102/16
f 69/102/17 22/73/17 21/72/17 70/103/17
f 70/103/18 21/72/18 20/71/18 71/104/18
f 71/104/19 20/71/19 19/70/19 72/105/19
f 72/105/20 19/70/20 18/69/20 73/69/20
f 73/69/21 18/69/21 17/68/21 74/106/21
f 74/106/22 17/68/22 16/67/22 75/107/22
f 75/107/23 16/67/23 15/66/23 76/66/23
f 76/66/24 15/66/24 14/65/24 77/108/24
f 77/108/25 14/65/25 12/1/25 68/4/25
f 1/109/26 57/75/26 66/110/26 3/76/26
f 3/76/27 66/110/27 65/111/27 4/77/27
f 4/77/28 65/111/28 64/112/28 5/78/28
f 5/78/29 64/112/29 63/113/29 6/79/29
f 6/79/30 63/113/30 62/114/30 7/80/30
f 7/80/31 62/114/31 61/115/31 8/81/31
f 8/81/32 61/115/32 60/116/32 9/82/32
f 9/82/33 60/116/33 59/83/33 10/83/33
f 10/83/34 59/83/34 58/84/34 11/84/34
f 11/84/35 58/84/35 56/54/35 2/53/35
f 45/51/36 24/50/36 33/93/36 47/117/36
f 47/117/37 33/93/37 32/92/37 48/118/37
f 48/118/38 32/92/38 31/91/38 49/119/38
f 49/119/39 31/91/39 30/90/39 50/120/39
f 50/120/40 30/90/40 29/89/40 51/121/40
f 51/121/41 29/89/41 28/88/41 52/122/41
f 52/122/42 28/88/42 27/87/42 53/123/42
f 53/123/43 27/87/43 26/86/43 54/124/43
f 54/124/44 26/86/44 25/85/44 55/125/44
f 55/125/45 25/85/45 23/52/45 46/55/45
f 1/109/46 13/74/46 67/74/46 57/75/46
