# Blender 4.2.9 LTS
# www.blender.org
mtllib 1012-38.mtl
o Plane
v 1.063779 -0.000000 0.000000
v 1.125000 -0.000000 0.054419
v 1.073356 -0.000000 0.000670
v 1.082697 -0.000000 0.002663
v 1.091573 -0.000000 0.005931
v 1.099764 -0.000000 0.010393
v 1.107069 -0.000000 0.015939
v 1.113308 -0.000000 0.022432
v 1.118327 -0.000000 0.029713
v 1.122004 -0.000000 0.037602
v 1.124246 -0.000000 0.045906
v -1.125000 -0.000000 0.054419
v -1.063779 -0.000000 0.000000
v -1.124246 -0.000000 0.045906
v -1.122004 -0.000000 0.037602
v -1.118327 -0.000000 0.029713
v -1.113308 -0.000000 0.022432
v -1.107069 -0.000000 0.015939
v -1.099764 -0.000000 0.010393
v -1.091573 -0.000000 0.005931
v -1.082697 -0.000000 0.002663
v -1.073356 -0.000000 0.000670
v 1.125000 0.000000 0.445581
v 1.063779 0.000000 0.500000
v 1.124246 0.000000 0.454094
v 1.122004 0.000000 0.462398
v 1.118327 0.000000 0.470287
v 1.113308 0.000000 0.477568
v 1.107069 0.000000 0.484061
v 1.099764 0.000000 0.489607
v 1.091573 0.000000 0.494069
v 1.082697 0.000000 0.497337
v 1.073356 0.000000 0.499330
v -1.063779 0.000000 0.500000
v -1.125000 0.000000 0.445581
v -1.073356 0.000000 0.499330
v -1.082697 0.000000 0.497337
v -1.091573 0.000000 0.494069
v -1.099764 0.000000 0.489607
v -1.107069 0.000000 0.484061
v -1.113308 0.000000 0.477568
v -1.118327 0.000000 0.470287
v -1.122004 0.000000 0.462398
v -1.124246 0.000000 0.454094
v 1.063779 0.002000 0.500000
v 1.125000 0.002000 0.445581
v 1.073356 0.002000 0.499330
v 1.082697 0.002000 0.497337
v 1.091573 0.002000 0.494069
v 1.099764 0.002000 0.489607
v 1.107069 0.002000 0.484061
v 1.113308 0.002000 0.477568
v 1.118327 0.002000 0.470287
v 1.122004 0.002000 0.462398
v 1.124246 0.002000 0.454094
v 1.125000 0.002000 0.054419
v 1.063779 0.002000 -0.000000
v 1.124246 0.002000 0.045906
v 1.122004 0.002000 0.037602
v 1.118327 0.002000 0.029713
v 1.113308 0.002000 0.022432
v 1.107069 0.002000 0.015939
v 1.099764 0.002000 0.010393
v 1.091573 0.002000 0.005931
v 1.082697 0.002000 0.002663
v 1.073356 0.002000 0.000670
v -1.063779 0.002000 -0.000000
v -1.125000 0.002000 0.054419
v -1.073356 0.002000 0.000670
v -1.082697 0.002000 0.002663
v -1.091573 0.002000 0.005931
v -1.099764 0.002000 0.010393
v -1.107069 0.002000 0.015939
v -1.113308 0.002000 0.022432
v -1.118327 0.002000 0.029713
v -1.122004 0.002000 0.037602
v -1.124246 0.002000 0.045906
v -1.125000 0.002000 0.445581
v -1.063779 0.002000 0.500000
v -1.124246 0.002000 0.454094
v -1.122004 0.002000 0.462398
v -1.118327 0.002000 0.470287
v -1.113308 0.002000 0.477568
v -1.107069 0.002000 0.484061
v -1.099764 0.002000 0.489607
v -1.091573 0.002000 0.494069
v -1.082697 0.002000 0.497337
v -1.073356 0.002000 0.499330
vn -1.0000 -0.0000 -0.0000
vn -0.0000 1.0000 -0.0000
vn -0.0000 -0.0000 -1.0000
vn 1.0000 -0.0000 -0.0000
vn -0.0000 -1.0000 -0.0000
vn -0.0698 -0.0000 0.9976
vn -0.2087 -0.0000 0.9780
vn -0.3455 -0.0000 0.9384
vn -0.4784 -0.0000 0.8782
vn -0.6047 -0.0000 0.7965
vn -0.7211 -0.0000 0.6928
vn -0.8233 -0.0000 0.5676
vn -0.9064 -0.0000 0.4224
vn -0.9654 -0.0000 0.2607
vn -0.9961 -0.0000 0.0882
vn -0.0698 -0.0000 -0.9976
vn -0.2087 -0.0000 -0.9780
vn -0.3455 -0.0000 -0.9384
vn -0.4783 -0.0000 -0.8782
vn -0.6047 -0.0000 -0.7965
vn -0.7211 -0.0000 -0.6929
vn -0.8233 -0.0000 -0.5676
vn -0.9064 -0.0000 -0.4224
vn -0.9654 -0.0000 -0.2607
vn -0.9961 -0.0000 -0.0882
vn 0.0698 -0.0000 -0.9976
vn 0.2087 -0.0000 -0.9780
vn 0.3455 -0.0000 -0.9384
vn 0.4783 -0.0000 -0.8782
vn 0.6047 -0.0000 -0.7965
vn 0.7211 -0.0000 -0.6929
vn 0.8233 -0.0000 -0.5676
vn 0.9064 -0.0000 -0.4224
vn 0.9654 -0.0000 -0.2607
vn 0.9961 -0.0000 -0.0882
vn 0.0698 -0.0000 0.9976
vn 0.2087 -0.0000 0.9780
vn 0.3455 -0.0000 0.9384
vn 0.4784 -0.0000 0.8782
vn 0.6047 -0.0000 0.7965
vn 0.7211 -0.0000 0.6928
vn 0.8233 -0.0000 0.5676
vn 0.9064 -0.0000 0.4224
vn 0.9654 -0.0000 0.2607
vn 0.9961 -0.0000 0.0882
vn -0.0000 -0.0000 1.0000
vt 1.000000 0.068023
vt 1.000000 0.931977
vt 1.000000 0.931977
vt 1.000000 0.068023
vt 0.970196 0.014139
vt 0.974429 0.015441
vt 0.978558 0.019315
vt 0.982481 0.025666
vt 0.986101 0.034337
vt 0.989330 0.045115
vt 0.992088 0.057734
vt 0.994307 0.071885
vt 0.995932 0.087217
vt 0.996922 0.103354
vt 0.997256 0.119898
vt 0.997256 0.880102
vt 0.996922 0.896646
vt 0.995932 0.912783
vt 0.994307 0.928116
vt 0.992088 0.942265
vt 0.989330 0.954885
vt 0.986101 0.965663
vt 0.982481 0.974334
vt 0.978558 0.980685
vt 0.974429 0.984559
vt 0.970196 0.985861
vt 0.029804 0.985861
vt 0.025571 0.984559
vt 0.021442 0.980685
vt 0.017519 0.974334
vt 0.013899 0.965663
vt 0.010670 0.954885
vt 0.007912 0.942265
vt 0.005693 0.928116
vt 0.004068 0.912783
vt 0.003077 0.896646
vt 0.002744 0.880102
vt 0.002744 0.119898
vt 0.003077 0.103354
vt 0.004068 0.087217
vt 0.005693 0.071885
vt 0.007912 0.057734
vt 0.010670 0.045115
vt 0.013899 0.034337
vt 0.017519 0.025666
vt 0.021442 0.019315
vt 0.025571 0.015441
vt 0.029804 0.014139
vt 0.027209 0.000000
vt 0.972791 0.000000
vt 0.972791 0.000000
vt 0.027209 0.000000
vt 0.000000 0.931977
vt 0.000000 0.068023
vt 0.000000 0.068023
vt 0.000000 0.931977
vt 0.972791 1.000000
vt 0.977047 0.999721
vt 0.981199 0.998890
vt 0.985144 0.997529
vt 0.988784 0.995670
vt 0.997344 0.993359
vt 0.998268 0.971960
vt 0.999011 0.962859
vt 0.999556 0.952997
vt 0.999888 0.942618
vt 0.999888 0.057382
vt 0.999556 0.047003
vt 0.999011 0.037141
vt 0.998268 0.028040
vt 0.997344 0.006641
vt 0.988784 0.004330
vt 0.985144 0.002471
vt 0.981199 0.001110
vt 0.977047 0.000279
vt 0.022953 0.000279
vt 0.018801 0.001110
vt 0.014857 0.002471
vt 0.011216 0.004330
vt 0.002656 0.006641
vt 0.001732 0.028040
vt 0.000989 0.037141
vt 0.000444 0.047003
vt 0.000112 0.057382
vt 0.000112 0.942618
vt 0.000444 0.952997
vt 0.000989 0.962859
vt 0.001732 0.971960
vt 0.002656 0.993359
vt 0.011216 0.995670
vt 0.014857 0.997529
vt 0.018801 0.998890
vt 0.022953 0.999721
vt 0.027209 1.000000
vt 0.977047 0.999721
vt 0.988784 0.995670
vt 0.999556 0.952997
vt 0.999888 0.942618
vt 0.977047 0.000279
vt 0.981199 0.001110
vt 0.985144 0.002471
vt 0.988784 0.004330
vt 0.997344 0.006641
vt 0.998268 0.028040
vt 0.999556 0.047003
vt 0.999888 0.057382
vt 0.022953 0.000279
vt 0.018801 0.001110
vt 0.014857 0.002471
vt 0.011216 0.004330
vt 0.002656 0.006641
vt 0.001732 0.028040
vt 0.000989 0.037141
vt 0.000444 0.047003
vt 0.000112 0.057382
vt 0.027209 1.000000
vt 0.022953 0.999721
vt 0.018801 0.998890
vt 0.014857 0.997529
vt 0.011216 0.995670
vt 0.002656 0.993359
vt 0.000444 0.952997
vt 0.000112 0.942618
s 0
usemtl Material
f 67/5/2 69/6/2 70/7/2 71/8/2 72/9/2 73/10/2 74/11/2 75/12/2 76/13/2 77/14/2 68/15/2 78/16/2 80/17/2 81/18/2 82/19/2 83/20/2 84/21/2 85/22/2 86/23/2 87/24/2 88/25/2 79/26/2 45/27/2 47/28/2 48/29/2 49/30/2 50/31/2 51/32/2 52/33/2 53/34/2 54/35/2 55/36/2 46/37/2 56/38/2 58/39/2 59/40/2 60/41/2 61/42/2 62/43/2 63/44/2 64/45/2 65/46/2 66/47/2 57/48/2
usemtl Material.001
f 12/1/1 35/2/1 78/3/1 68/4/1
f 1/49/3 13/50/3 67/51/3 57/52/3
f 23/53/4 2/54/4 56/55/4 46/56/4
f 34/57/5 36/58/5 37/59/5 38/60/5 39/61/5 40/62/5 41/63/5 42/64/5 43/65/5 44/66/5 35/3/5 12/4/5 14/67/5 15/68/5 16/69/5 17/70/5 18/71/5 19/72/5 20/73/5 21/74/5 22/75/5 13/51/5 1/52/5 3/76/5 4/77/5 5/78/5 6/79/5 7/80/5 8/81/5 9/82/5 10/83/5 11/84/5 2/55/5 23/56/5 25/85/5 26/86/5 27/87/5 28/88/5 29/89/5 30/90/5 31/91/5 32/92/5 33/93/5 24/94/5
f 34/57/6 79/57/6 88/95/6 36/58/6
f 36/58/7 88/95/7 87/59/7 37/59/7
f 37/59/8 87/59/8 86/60/8 38/60/8
f 38/60/9 86/60/9 85/96/9 39/61/9
f 39/61/10 85/96/10 84/62/10 40/62/10
f 40/62/11 84/62/11 83/63/11 41/63/11
f 41/63/12 83/63/12 82/64/12 42/64/12
f 42/64/13 82/64/13 81/97/13 43/65/13
f 43/65/14 81/97/14 80/98/14 44/66/14
f 44/66/15 80/98/15 78/3/15 35/2/15
f 67/51/16 13/50/16 22/75/16 69/99/16
f 69/99/17 22/75/17 21/74/17 70/100/17
f 70/100/18 21/74/18 20/73/18 71/101/18
f 71/101/19 20/73/19 19/72/19 72/102/19
f 72/102/20 19/72/20 18/71/20 73/103/20
f 73/103/21 18/71/21 17/70/21 74/104/21
f 74/104/22 17/70/22 16/69/22 75/69/22
f 75/69/23 16/69/23 15/68/23 76/105/23
f 76/105/24 15/68/24 14/67/24 77/106/24
f 77/106/25 14/67/25 12/1/25 68/4/25
f 1/49/26 57/52/26 66/107/26 3/76/26
f 3/76/27 66/107/27 65/108/27 4/77/27
f 4/77/28 65/108/28 64/109/28 5/78/28
f 5/78/29 64/109/29 63/110/29 6/79/29
f 6/79/30 63/110/30 62/111/30 7/80/30
f 7/80/31 62/111/31 61/112/31 8/81/31
f 8/81/32 61/112/32 60/113/32 9/82/32
f 9/82/33 60/113/33 59/114/33 10/83/33
f 10/83/34 59/114/34 58/115/34 11/84/34
f 11/84/35 58/115/35 56/55/35 2/54/35
f 45/94/36 24/116/36 33/93/36 47/117/36
f 47/117/37 33/93/37 32/92/37 48/118/37
f 48/118/38 32/92/38 31/91/38 49/119/38
f 49/119/39 31/91/39 30/90/39 50/120/39
f 50/120/40 30/90/40 29/89/40 51/121/40
f 51/121/41 29/89/41 28/88/41 52/88/41
f 52/88/42 28/88/42 27/87/42 53/87/42
f 53/87/43 27/87/43 26/86/43 54/122/43
f 54/122/44 26/86/44 25/85/44 55/123/44
f 55/123/45 25/85/45 23/53/45 46/56/45
f 34/57/46 24/116/46 45/94/46 79/57/46
