# Blender 4.2.9 LTS
# www.blender.org
mtllib 157-21.mtl
o Plane
v 0.111574 -0.000000 0.000000
v 0.150000 -0.000000 0.038426
v 0.117585 -0.000000 0.000473
v 0.123448 -0.000000 0.001881
v 0.129019 -0.000000 0.004188
v 0.134160 -0.000000 0.007339
v 0.138745 -0.000000 0.011255
v 0.142661 -0.000000 0.015840
v 0.145812 -0.000000 0.020981
v 0.148119 -0.000000 0.026552
v 0.149527 -0.000000 0.032415
v -0.150000 -0.000000 0.038426
v -0.111574 -0.000000 0.000000
v -0.149527 -0.000000 0.032415
v -0.148119 -0.000000 0.026552
v -0.145812 -0.000000 0.020981
v -0.142661 -0.000000 0.015840
v -0.138745 -0.000000 0.011255
v -0.134160 -0.000000 0.007339
v -0.129019 -0.000000 0.004188
v -0.123448 -0.000000 0.001881
v -0.117585 -0.000000 0.000473
v 0.150000 0.000000 0.961574
v 0.111574 0.000000 1.000000
v 0.149527 0.000000 0.967585
v 0.148119 0.000000 0.973448
v 0.145812 0.000000 0.979019
v 0.142661 0.000000 0.984160
v 0.138745 0.000000 0.988745
v 0.134160 0.000000 0.992661
v 0.129019 0.000000 0.995812
v 0.123448 0.000000 0.998119
v 0.117585 0.000000 0.999527
v -0.111574 0.000000 1.000000
v -0.150000 0.000000 0.961574
v -0.117585 0.000000 0.999527
v -0.123448 0.000000 0.998119
v -0.129019 0.000000 0.995812
v -0.134160 0.000000 0.992661
v -0.138745 0.000000 0.988745
v -0.142661 0.000000 0.984160
v -0.145812 0.000000 0.979019
v -0.148119 0.000000 0.973448
v -0.149527 0.000000 0.967585
v 0.111574 0.002000 1.000000
v 0.150000 0.002000 0.961574
v 0.117585 0.002000 0.999527
v 0.123448 0.002000 0.998119
v 0.129019 0.002000 0.995812
v 0.134160 0.002000 0.992661
v 0.138745 0.002000 0.988745
v 0.142661 0.002000 0.984160
v 0.145812 0.002000 0.979019
v 0.148119 0.002000 0.973448
v 0.149527 0.002000 0.967585
v 0.150000 0.002000 0.038426
v 0.111574 0.002000 -0.000000
v 0.149527 0.002000 0.032415
v 0.148119 0.002000 0.026552
v 0.145812 0.002000 0.020981
v 0.142661 0.002000 0.015840
v 0.138745 0.002000 0.011255
v 0.134160 0.002000 0.007339
v 0.129019 0.002000 0.004188
v 0.123448 0.002000 0.001881
v 0.117585 0.002000 0.000473
v -0.111574 0.002000 -0.000000
v -0.150000 0.002000 0.038426
v -0.117585 0.002000 0.000473
v -0.123448 0.002000 0.001881
v -0.129019 0.002000 0.004188
v -0.134160 0.002000 0.007339
v -0.138745 0.002000 0.011255
v -0.142661 0.002000 0.015840
v -0.145812 0.002000 0.020981
v -0.148119 0.002000 0.026552
v -0.149527 0.002000 0.032415
v -0.150000 0.002000 0.961574
v -0.111574 0.002000 1.000000
v -0.149527 0.002000 0.967585
v -0.148119 0.002000 0.973448
v -0.145812 0.002000 0.979019
v -0.142661 0.002000 0.984160
v -0.138745 0.002000 0.988745
v -0.134160 0.002000 0.992661
v -0.129019 0.002000 0.995812
v -0.123448 0.002000 0.998119
v -0.117585 0.002000 0.999527
vn -0.0000 -0.0000 -1.0000
vn -0.0000 -0.0000 1.0000
vn -0.0000 -1.0000 -0.0000
vn -0.0000 1.0000 -0.0000
vn -1.0000 -0.0000 -0.0000
vn -0.0785 -0.0000 0.9969
vn -0.2334 -0.0000 0.9724
vn -0.3827 -0.0000 0.9239
vn -0.5225 -0.0000 0.8526
vn -0.6495 -0.0000 0.7604
vn -0.7604 -0.0000 0.6495
vn -0.8526 -0.0000 0.5225
vn -0.9239 -0.0000 0.3827
vn -0.9724 -0.0000 0.2334
vn -0.9969 -0.0000 0.0785
vn -0.0785 -0.0000 -0.9969
vn -0.2334 -0.0000 -0.9724
vn -0.3827 -0.0000 -0.9239
vn -0.5225 -0.0000 -0.8526
vn -0.6494 -0.0000 -0.7604
vn -0.7604 -0.0000 -0.6494
vn -0.8526 -0.0000 -0.5225
vn -0.9239 -0.0000 -0.3827
vn -0.9724 -0.0000 -0.2334
vn -0.9969 -0.0000 -0.0785
vn 0.0785 -0.0000 -0.9969
vn 0.2334 -0.0000 -0.9724
vn 0.3827 -0.0000 -0.9239
vn 0.5225 -0.0000 -0.8526
vn 0.6494 -0.0000 -0.7604
vn 0.7604 -0.0000 -0.6494
vn 0.8526 -0.0000 -0.5225
vn 0.9239 -0.0000 -0.3827
vn 0.9724 -0.0000 -0.2334
vn 0.9969 -0.0000 -0.0785
vn 0.0785 -0.0000 0.9969
vn 0.2334 -0.0000 0.9724
vn 0.3827 -0.0000 0.9239
vn 0.5225 -0.0000 0.8526
vn 0.6495 -0.0000 0.7604
vn 0.7604 -0.0000 0.6495
vn 0.8526 -0.0000 0.5225
vn 0.9239 -0.0000 0.3827
vn 0.9724 -0.0000 0.2334
vn 0.9969 -0.0000 0.0785
vn 1.0000 -0.0000 -0.0000
vt 0.128087 0.000000
vt 0.871913 0.000000
vt 0.871913 0.000000
vt 0.128087 0.000000
vt 0.871913 1.000000
vt 0.128087 1.000000
vt 0.128087 1.000000
vt 0.871913 1.000000
vt 0.128087 0.000000
vt 0.108050 0.000158
vt 0.088506 0.000627
vt 0.069937 0.001396
vt 0.052799 0.002446
vt 0.012505 0.003752
vt 0.008154 0.015840
vt 0.004654 0.020981
vt 0.002090 0.026552
vt 0.000526 0.032415
vt 0.000000 0.038426
vt 0.000000 0.961574
vt 0.000526 0.967585
vt 0.002090 0.973448
vt 0.004654 0.979019
vt 0.008154 0.984160
vt 0.012505 0.996248
vt 0.052799 0.997554
vt 0.069937 0.998604
vt 0.088506 0.999373
vt 0.108050 0.999842
vt 0.128087 1.000000
vt 0.871913 1.000000
vt 0.891950 0.999842
vt 0.911494 0.999373
vt 0.930063 0.998604
vt 0.947201 0.997554
vt 0.987495 0.996248
vt 0.991846 0.984160
vt 0.995346 0.979019
vt 0.997910 0.973448
vt 0.999474 0.967585
vt 1.000000 0.961574
vt 1.000000 0.038426
vt 0.999474 0.032415
vt 0.997910 0.026552
vt 0.995346 0.020981
vt 0.991846 0.015840
vt 0.987495 0.003752
vt 0.947201 0.002446
vt 0.930063 0.001396
vt 0.911494 0.000627
vt 0.891950 0.000158
vt 0.005934 0.039294
vt 0.007492 0.033294
vt 0.012129 0.027442
vt 0.019729 0.021882
vt 0.030106 0.016750
vt 0.043005 0.012174
vt 0.058107 0.008265
vt 0.075041 0.005120
vt 0.093389 0.002817
vt 0.112701 0.001412
vt 0.132501 0.000940
vt 0.867499 0.000940
vt 0.887298 0.001412
vt 0.906610 0.002817
vt 0.924959 0.005120
vt 0.941893 0.008265
vt 0.956995 0.012174
vt 0.969894 0.016750
vt 0.980271 0.021882
vt 0.987871 0.027442
vt 0.992508 0.033294
vt 0.994066 0.039294
vt 0.994066 0.960706
vt 0.992508 0.966706
vt 0.987871 0.972558
vt 0.980271 0.978118
vt 0.969894 0.983250
vt 0.956995 0.987826
vt 0.941893 0.991735
vt 0.924959 0.994880
vt 0.906610 0.997183
vt 0.887298 0.998588
vt 0.867499 0.999060
vt 0.132501 0.999060
vt 0.112701 0.998588
vt 0.093389 0.997183
vt 0.075041 0.994880
vt 0.058107 0.991735
vt 0.043005 0.987826
vt 0.030106 0.983250
vt 0.019729 0.978118
vt 0.012129 0.972558
vt 0.007492 0.966706
vt 0.005934 0.960706
vt 1.000000 0.038426
vt 0.911494 0.999373
vt 0.930063 0.998604
vt 0.947201 0.997554
vt 0.987495 0.996248
vt 0.991846 0.984160
vt 0.995346 0.979019
vt 0.891950 0.000158
vt 0.911494 0.000627
vt 0.930063 0.001396
vt 0.947201 0.002446
vt 0.987495 0.003752
vt 0.991846 0.015840
vt 0.995346 0.020981
vt 0.997910 0.026552
vt 0.999474 0.032415
vt 0.108050 0.000158
vt 0.088506 0.000627
vt 0.069937 0.001396
vt 0.052799 0.002446
vt 0.012505 0.003752
vt 0.008154 0.015840
vt 0.004654 0.020981
vt 0.002090 0.026552
vt 0.000526 0.032415
vt 0.000000 0.038426
vt 0.108050 0.999842
vt 0.088506 0.999373
vt 0.069937 0.998604
vt 0.052799 0.997554
vt 0.012505 0.996248
vt 0.008154 0.984160
vt 0.004654 0.979019
vt 0.002090 0.973448
vt 0.000526 0.967585
s 0
usemtl Material
f 56/52/4 58/53/4 59/54/4 60/55/4 61/56/4 62/57/4 63/58/4 64/59/4 65/60/4 66/61/4 57/62/4 67/63/4 69/64/4 70/65/4 71/66/4 72/67/4 73/68/4 74/69/4 75/70/4 76/71/4 77/72/4 68/73/4 78/74/4 80/75/4 81/76/4 82/77/4 83/78/4 84/79/4 85/80/4 86/81/4 87/82/4 88/83/4 79/84/4 45/85/4 47/86/4 48/87/4 49/88/4 50/89/4 51/90/4 52/91/4 53/92/4 54/93/4 55/94/4 46/95/4
usemtl Material.001
f 1/1/1 13/2/1 67/3/1 57/4/1
f 34/5/2 24/6/2 45/7/2 79/8/2
f 1/9/3 3/10/3 4/11/3 5/12/3 6/13/3 7/14/3 8/15/3 9/16/3 10/17/3 11/18/3 2/19/3 23/20/3 25/21/3 26/22/3 27/23/3 28/24/3 29/25/3 30/26/3 31/27/3 32/28/3 33/29/3 24/30/3 34/31/3 36/32/3 37/33/3 38/34/3 39/35/3 40/36/3 41/37/3 42/38/3 43/39/3 44/40/3 35/41/3 12/42/3 14/43/3 15/44/3 16/45/3 17/46/3 18/47/3 19/48/3 20/49/3 21/50/3 22/51/3 13/3/3
f 12/96/5 35/41/5 78/41/5 68/42/5
f 34/5/6 79/8/6 88/32/6 36/32/6
f 36/32/7 88/32/7 87/97/7 37/33/7
f 37/33/8 87/97/8 86/98/8 38/34/8
f 38/34/9 86/98/9 85/99/9 39/35/9
f 39/35/10 85/99/10 84/100/10 40/36/10
f 40/36/11 84/100/11 83/101/11 41/37/11
f 41/37/12 83/101/12 82/102/12 42/38/12
f 42/38/13 82/102/13 81/39/13 43/39/13
f 43/39/14 81/39/14 80/40/14 44/40/14
f 44/40/15 80/40/15 78/41/15 35/41/15
f 67/3/16 13/2/16 22/51/16 69/103/16
f 69/103/17 22/51/17 21/50/17 70/104/17
f 70/104/18 21/50/18 20/49/18 71/105/18
f 71/105/19 20/49/19 19/48/19 72/106/19
f 72/106/20 19/48/20 18/47/20 73/107/20
f 73/107/21 18/47/21 17/46/21 74/108/21
f 74/108/22 17/46/22 16/45/22 75/109/22
f 75/109/23 16/45/23 15/44/23 76/110/23
f 76/110/24 15/44/24 14/43/24 77/111/24
f 77/111/25 14/43/25 12/96/25 68/42/25
f 1/1/26 57/4/26 66/112/26 3/10/26
f 3/10/27 66/112/27 65/113/27 4/11/27
f 4/11/28 65/113/28 64/114/28 5/12/28
f 5/12/29 64/114/29 63/115/29 6/13/29
f 6/13/30 63/115/30 62/116/30 7/14/30
f 7/14/31 62/116/31 61/117/31 8/15/31
f 8/15/32 61/117/32 60/118/32 9/16/32
f 9/16/33 60/118/33 59/119/33 10/17/33
f 10/17/34 59/119/34 58/120/34 11/18/34
f 11/18/35 58/120/35 56/19/35 2/121/35
f 45/7/36 24/6/36 33/29/36 47/122/36
f 47/122/37 33/29/37 32/28/37 48/123/37
f 48/123/38 32/28/38 31/27/38 49/124/38
f 49/124/39 31/27/39 30/26/39 50/125/39
f 50/125/40 30/26/40 29/25/40 51/126/40
f 51/126/41 29/25/41 28/24/41 52/127/41
f 52/127/42 28/24/42 27/23/42 53/128/42
f 53/128/43 27/23/43 26/22/43 54/129/43
f 54/129/44 26/22/44 25/21/44 55/130/44
f 55/130/45 25/21/45 23/20/45 46/20/45
f 23/20/46 2/121/46 56/19/46 46/20/46
