# Blender 4.2.9 LTS
# www.blender.org
mtllib 201-52.mtl
o Plane
v -0.538304 -0.000000 -0.000964
v -0.628545 0.000000 0.154782
v 0.629784 -0.000000 0.675845
v 0.539543 0.000000 0.831590
v -0.000318 -0.000000 0.310754
v -0.180206 0.000000 0.414556
v 0.179103 -0.000000 0.414714
v -0.000627 0.000000 0.518607
v -0.538620 0.000000 0.828203
v 0.537396 -0.000000 0.001043
v 0.627458 -0.000000 0.157444
v -0.628811 0.000000 0.672199
v -0.000318 0.002000 0.310754
v -0.538304 0.002000 -0.000964
v -0.628545 0.002000 0.154782
v -0.000627 0.002000 0.518607
v 0.539543 0.002000 0.831590
v 0.629784 0.002000 0.675845
v 0.537396 0.002000 0.001043
v -0.180206 0.002000 0.414556
v 0.179103 0.002000 0.414714
v -0.538620 0.002000 0.828203
v -0.628811 0.002000 0.672199
v 0.627458 0.002000 0.157444
vn -0.0000 -1.0000 -0.0000
vn -0.0000 1.0000 -0.0000
vn 0.5013 -0.0000 -0.8653
vn 0.4988 -0.0000 0.8667
vn -0.4991 -0.0000 -0.8665
vn -0.4980 -0.0000 -0.8672
vn -0.8653 -0.0000 -0.5013
vn -0.8657 -0.0000 0.5005
vn -0.5013 -0.0000 0.8653
vn 0.8666 -0.0000 -0.4990
vn 0.8653 -0.0000 0.5013
vn 0.4977 -0.0000 0.8674
vt 1.000000 0.537561
vt 1.000000 0.460692
vt 1.000000 0.422258
vt 1.000000 0.383823
vt 1.000000 0.000000
vt 0.000000 0.000000
vt 0.000000 0.460570
vt 0.000000 0.498971
vt 0.000000 0.575772
vt 0.000000 0.614172
vt 0.000000 1.000000
vt 1.000000 1.000000
vt 0.500253 0.625178
vt 0.070737 0.999642
vt -0.000710 0.812499
vt 0.357649 0.500072
vt 0.001905 0.190267
vt 0.073673 0.002741
vt 0.500316 0.375691
vt 0.928096 0.002741
vt 0.999542 0.189884
vt 0.643045 0.500688
vt 0.998987 0.810940
vt 0.927118 0.997989
s 0
usemtl Material
f 16/13/2 17/14/2 18/15/2 21/16/2 24/17/2 19/18/2 13/19/2 14/20/2 15/21/2 20/22/2 23/23/2 22/24/2
usemtl Material.001
f 8/1/1 9/2/1 12/3/1 6/4/1 2/5/1 1/6/1 5/7/1 10/8/1 11/9/1 7/10/1 3/11/1 4/12/1
f 5/7/3 1/6/3 14/6/3 13/7/3
f 9/2/4 8/1/4 16/1/4 22/2/4
f 10/8/5 5/7/5 13/7/5 19/8/5
f 6/4/6 12/3/6 23/3/6 20/4/6
f 1/6/7 2/5/7 15/5/7 14/6/7
f 12/3/8 9/2/8 22/2/8 23/3/8
f 2/5/9 6/4/9 20/4/9 15/5/9
f 8/1/9 4/12/9 17/12/9 16/1/9
f 11/9/10 10/8/10 19/8/10 24/9/10
f 3/11/3 7/10/3 21/10/3 18/11/3
f 4/12/11 3/11/11 18/11/11 17/12/11
f 7/10/12 11/9/12 24/9/12 21/10/12
