# Blender 4.2.9 LTS
# www.blender.org
mtllib 201-50.mtl
o Plane
v 0.415682 -0.000000 0.090391
v 0.259937 -0.000000 0.000150
v -0.261126 0.000000 1.258479
v -0.416871 0.000000 1.168238
v 0.103965 0.000000 0.628377
v 0.000162 -0.000000 0.448490
v 0.000005 0.000000 0.807799
v -0.103888 -0.000000 0.628068
v -0.413484 -0.000000 0.090075
v 0.413676 0.000000 1.166091
v 0.257275 0.000000 1.256153
v -0.257481 -0.000000 -0.000116
v 0.103965 0.002000 0.628377
v 0.415682 0.002000 0.090391
v 0.259937 0.002000 0.000150
v -0.103888 0.002000 0.628068
v -0.416871 0.002000 1.168238
v -0.261126 0.002000 1.258479
v 0.413676 0.002000 1.166091
v 0.000162 0.002000 0.448490
v 0.000005 0.002000 0.807799
v -0.413484 0.002000 0.090075
v -0.257481 0.002000 -0.000116
v 0.257275 0.002000 1.256153
vn -0.0000 -1.0000 -0.0000
vn -0.0000 1.0000 -0.0000
vn 0.8653 -0.0000 0.5013
vn -0.8667 -0.0000 0.4988
vn 0.8665 -0.0000 -0.4991
vn 0.8672 -0.0000 -0.4980
vn 0.5013 -0.0000 -0.8653
vn -0.5005 -0.0000 -0.8657
vn -0.8653 -0.0000 -0.5013
vn 0.4990 -0.0000 0.8666
vn -0.5013 -0.0000 0.8653
vn -0.8674 -0.0000 0.4977
vt 1.000000 0.537561
vt 1.000000 0.460692
vt 1.000000 0.422258
vt 1.000000 0.383823
vt 1.000000 0.000000
vt 0.000000 0.000000
vt 0.000000 0.460570
vt 0.000000 0.498971
vt 0.000000 0.575772
vt 0.000000 0.614172
vt 0.000000 1.000000
vt 1.000000 1.000000
vt 0.374394 0.500837
vt 0.000100 0.071514
vt 0.187158 0.000100
vt 0.499444 0.358297
vt 0.809108 0.002714
vt 0.996549 0.074449
vt 0.623768 0.500899
vt 0.996549 0.928486
vt 0.809491 0.999900
vt 0.498828 0.643564
vt 0.188716 0.999345
vt 0.001752 0.927509
s 0
usemtl Material
f 16/13/2 17/14/2 18/15/2 21/16/2 24/17/2 19/18/2 13/19/2 14/20/2 15/21/2 20/22/2 23/23/2 22/24/2
usemtl Material.001
f 8/1/1 9/2/1 12/3/1 6/4/1 2/5/1 1/6/1 5/7/1 10/8/1 11/9/1 7/10/1 3/11/1 4/12/1
f 5/7/3 1/6/3 14/6/3 13/7/3
f 9/2/4 8/1/4 16/1/4 22/2/4
f 10/8/5 5/7/5 13/7/5 19/8/5
f 6/4/6 12/3/6 23/3/6 20/4/6
f 1/6/7 2/5/7 15/5/7 14/6/7
f 12/3/8 9/2/8 22/2/8 23/3/8
f 2/5/9 6/4/9 20/4/9 15/5/9
f 8/1/9 4/12/9 17/12/9 16/1/9
f 11/9/10 10/8/10 19/8/10 24/9/10
f 3/11/3 7/10/3 21/10/3 18/11/3
f 4/12/11 3/11/11 18/11/11 17/12/11
f 7/10/12 11/9/12 24/9/12 21/10/12
