# Blender 4.2.9 LTS
# www.blender.org
mtllib 220-10.mtl
o Plane
v 0.357894 -0.000000 0.000000
v 0.400000 -0.000000 0.042106
v 0.364481 -0.000000 0.000518
v 0.370905 -0.000000 0.002061
v 0.377010 -0.000000 0.004589
v 0.382643 -0.000000 0.008042
v 0.387667 -0.000000 0.012333
v 0.391958 -0.000000 0.017357
v 0.395411 -0.000000 0.022990
v 0.397939 -0.000000 0.029095
v 0.399482 -0.000000 0.035519
v -0.400000 -0.000000 0.042106
v -0.357894 -0.000000 0.000000
v -0.399482 -0.000000 0.035519
v -0.397939 -0.000000 0.029095
v -0.395411 -0.000000 0.022990
v -0.391958 -0.000000 0.017357
v -0.387667 -0.000000 0.012333
v -0.382643 -0.000000 0.008042
v -0.377010 -0.000000 0.004589
v -0.370905 -0.000000 0.002061
v -0.364481 -0.000000 0.000518
v 0.400000 0.000000 0.257894
v 0.357894 0.000000 0.300000
v 0.399482 0.000000 0.264481
v 0.397939 0.000000 0.270905
v 0.395411 0.000000 0.277010
v 0.391958 0.000000 0.282643
v 0.387667 0.000000 0.287667
v 0.382643 0.000000 0.291958
v 0.377010 0.000000 0.295411
v 0.370905 0.000000 0.297939
v 0.364481 0.000000 0.299482
v -0.357894 0.000000 0.300000
v -0.400000 0.000000 0.257894
v -0.364481 0.000000 0.299482
v -0.370905 0.000000 0.297939
v -0.377010 0.000000 0.295411
v -0.382643 0.000000 0.291958
v -0.387667 0.000000 0.287667
v -0.391958 0.000000 0.282643
v -0.395411 0.000000 0.277010
v -0.397939 0.000000 0.270905
v -0.399482 0.000000 0.264481
v 0.357894 0.002000 0.300000
v 0.400000 0.002000 0.257894
v 0.364481 0.002000 0.299482
v 0.370905 0.002000 0.297939
v 0.377010 0.002000 0.295411
v 0.382643 0.002000 0.291958
v 0.387667 0.002000 0.287667
v 0.391958 0.002000 0.282643
v 0.395411 0.002000 0.277010
v 0.397939 0.002000 0.270905
v 0.399482 0.002000 0.264481
v 0.400000 0.002000 0.042106
v 0.357894 0.002000 -0.000000
v 0.399482 0.002000 0.035519
v 0.397939 0.002000 0.029095
v 0.395411 0.002000 0.022990
v 0.391958 0.002000 0.017357
v 0.387667 0.002000 0.012333
v 0.382643 0.002000 0.008042
v 0.377010 0.002000 0.004589
v 0.370905 0.002000 0.002061
v 0.364481 0.002000 0.000518
v -0.357894 0.002000 -0.000000
v -0.400000 0.002000 0.042106
v -0.364481 0.002000 0.000518
v -0.370905 0.002000 0.002061
v -0.377010 0.002000 0.004589
v -0.382643 0.002000 0.008042
v -0.387667 0.002000 0.012333
v -0.391958 0.002000 0.017357
v -0.395411 0.002000 0.022990
v -0.397939 0.002000 0.029095
v -0.399482 0.002000 0.035519
v -0.400000 0.002000 0.257894
v -0.357894 0.002000 0.300000
v -0.399482 0.002000 0.264481
v -0.397939 0.002000 0.270905
v -0.395411 0.002000 0.277010
v -0.391958 0.002000 0.282643
v -0.387667 0.002000 0.287667
v -0.382643 0.002000 0.291958
v -0.377010 0.002000 0.295411
v -0.370905 0.002000 0.297939
v -0.364481 0.002000 0.299482
vn -0.0000 -0.0000 -1.0000
vn -0.0000 -0.0000 1.0000
vn -0.0000 -1.0000 -0.0000
vn -0.0000 1.0000 -0.0000
vn -1.0000 -0.0000 -0.0000
vn -0.0785 -0.0000 0.9969
vn -0.2334 -0.0000 0.9724
vn -0.3827 -0.0000 0.9239
vn -0.5225 -0.0000 0.8526
vn -0.6494 -0.0000 0.7604
vn -0.7604 -0.0000 0.6494
vn -0.8526 -0.0000 0.5225
vn -0.9239 -0.0000 0.3827
vn -0.9724 -0.0000 0.2335
vn -0.9969 -0.0000 0.0784
vn -0.0785 -0.0000 -0.9969
vn -0.2334 -0.0000 -0.9724
vn -0.3827 -0.0000 -0.9239
vn -0.5225 -0.0000 -0.8526
vn -0.6495 -0.0000 -0.7604
vn -0.7604 -0.0000 -0.6494
vn -0.8526 -0.0000 -0.5225
vn -0.9239 -0.0000 -0.3827
vn -0.9724 -0.0000 -0.2334
vn -0.9969 -0.0000 -0.0785
vn 0.0785 -0.0000 -0.9969
vn 0.2334 -0.0000 -0.9724
vn 0.3827 -0.0000 -0.9239
vn 0.5225 -0.0000 -0.8526
vn 0.6495 -0.0000 -0.7604
vn 0.7604 -0.0000 -0.6494
vn 0.8526 -0.0000 -0.5225
vn 0.9239 -0.0000 -0.3827
vn 0.9724 -0.0000 -0.2334
vn 0.9969 -0.0000 -0.0785
vn 0.0785 -0.0000 0.9969
vn 0.2334 -0.0000 0.9724
vn 0.3827 -0.0000 0.9239
vn 0.5225 -0.0000 0.8526
vn 0.6494 -0.0000 0.7604
vn 0.7604 -0.0000 0.6494
vn 0.8526 -0.0000 0.5225
vn 0.9239 -0.0000 0.3827
vn 0.9724 -0.0000 0.2335
vn 0.9969 -0.0000 0.0784
vn 1.0000 -0.0000 -0.0000
vt 0.052633 0.000000
vt 0.947367 0.000000
vt 0.947367 0.000000
vt 0.052633 0.000000
vt 0.947367 1.000000
vt 0.052633 1.000000
vt 0.052633 1.000000
vt 0.947367 1.000000
vt 0.044399 0.000576
vt 0.036368 0.002290
vt 0.028738 0.005099
vt 0.021696 0.008935
vt 0.005139 0.013703
vt 0.003351 0.057856
vt 0.001912 0.076634
vt 0.000859 0.096982
vt 0.000216 0.118397
vt 0.000000 0.140354
vt 0.000000 0.859646
vt 0.000216 0.881603
vt 0.000859 0.903018
vt 0.001912 0.923366
vt 0.003351 0.942144
vt 0.005139 0.986297
vt 0.021696 0.991065
vt 0.028738 0.994901
vt 0.036368 0.997710
vt 0.044399 0.999424
vt 0.955601 0.999424
vt 0.963632 0.997710
vt 0.971262 0.994901
vt 0.978304 0.991065
vt 0.994861 0.986297
vt 0.996649 0.942144
vt 0.998088 0.923366
vt 0.999141 0.903018
vt 0.999784 0.881603
vt 1.000000 0.859646
vt 1.000000 0.140354
vt 0.999784 0.118398
vt 0.999141 0.096982
vt 0.998088 0.076634
vt 0.996649 0.057856
vt 0.994861 0.013703
vt 0.978304 0.008935
vt 0.971262 0.005099
vt 0.963632 0.002290
vt 0.955601 0.000576
vt 0.003970 0.145336
vt 0.004613 0.123684
vt 0.006528 0.102566
vt 0.009666 0.082500
vt 0.013952 0.063981
vt 0.019278 0.047466
vt 0.025514 0.033361
vt 0.032507 0.022013
vt 0.040085 0.013701
vt 0.048060 0.008631
vt 0.056236 0.006927
vt 0.944740 0.006927
vt 0.952917 0.008631
vt 0.960892 0.013701
vt 0.968469 0.022013
vt 0.975462 0.033361
vt 0.981698 0.047466
vt 0.987025 0.063981
vt 0.991310 0.082500
vt 0.994448 0.102566
vt 0.996363 0.123684
vt 0.997007 0.145336
vt 0.997007 0.854664
vt 0.996363 0.876316
vt 0.994448 0.897435
vt 0.991310 0.917500
vt 0.987025 0.936019
vt 0.981698 0.952534
vt 0.975462 0.966639
vt 0.968469 0.977987
vt 0.960892 0.986299
vt 0.952917 0.991369
vt 0.944740 0.993073
vt 0.056236 0.993073
vt 0.048060 0.991369
vt 0.040085 0.986299
vt 0.032508 0.977987
vt 0.025515 0.966639
vt 0.019278 0.952534
vt 0.013952 0.936019
vt 0.009666 0.917500
vt 0.006528 0.897434
vt 0.004613 0.876316
vt 0.003970 0.854664
vt 1.000000 0.140354
vt 0.955601 0.000576
vt 0.963632 0.002290
vt 0.971262 0.005099
vt 0.994861 0.013703
vt 0.998088 0.076634
vt 0.999141 0.096982
vt 0.999784 0.118397
vt 0.044399 0.000576
vt 0.036368 0.002290
vt 0.028738 0.005099
vt 0.021696 0.008935
vt 0.005139 0.013703
vt 0.001912 0.076634
vt 0.000859 0.096982
vt 0.000216 0.118398
vt 0.000000 0.140354
vt 0.000000 0.140354
vt 0.044399 0.999424
vt 0.036368 0.997710
vt 0.028738 0.994901
vt 0.021696 0.991065
vt 0.000859 0.903018
s 0
usemtl Material
f 56/49/4 58/50/4 59/51/4 60/52/4 61/53/4 62/54/4 63/55/4 64/56/4 65/57/4 66/58/4 57/59/4 67/60/4 69/61/4 70/62/4 71/63/4 72/64/4 73/65/4 74/66/4 75/67/4 76/68/4 77/69/4 68/70/4 78/71/4 80/72/4 81/73/4 82/74/4 83/75/4 84/76/4 85/77/4 86/78/4 87/79/4 88/80/4 79/81/4 45/82/4 47/83/4 48/84/4 49/85/4 50/86/4 51/87/4 52/88/4 53/89/4 54/90/4 55/91/4 46/92/4
usemtl Material.001
f 1/1/1 13/2/1 67/3/1 57/4/1
f 34/5/2 24/6/2 45/7/2 79/8/2
f 1/4/3 3/9/3 4/10/3 5/11/3 6/12/3 7/13/3 8/14/3 9/15/3 10/16/3 11/17/3 2/18/3 23/19/3 25/20/3 26/21/3 27/22/3 28/23/3 29/24/3 30/25/3 31/26/3 32/27/3 33/28/3 24/7/3 34/8/3 36/29/3 37/30/3 38/31/3 39/32/3 40/33/3 41/34/3 42/35/3 43/36/3 44/37/3 35/38/3 12/39/3 14/40/3 15/41/3 16/42/3 17/43/3 18/44/3 19/45/3 20/46/3 21/47/3 22/48/3 13/3/3
f 12/93/5 35/38/5 78/38/5 68/39/5
f 34/5/6 79/8/6 88/29/6 36/29/6
f 36/29/7 88/29/7 87/30/7 37/30/7
f 37/30/8 87/30/8 86/31/8 38/31/8
f 38/31/9 86/31/9 85/32/9 39/32/9
f 39/32/10 85/32/10 84/33/10 40/33/10
f 40/33/11 84/33/11 83/34/11 41/34/11
f 41/34/12 83/34/12 82/35/12 42/35/12
f 42/35/13 82/35/13 81/36/13 43/36/13
f 43/36/14 81/36/14 80/37/14 44/37/14
f 44/37/15 80/37/15 78/38/15 35/38/15
f 67/3/16 13/2/16 22/48/16 69/94/16
f 69/94/17 22/48/17 21/47/17 70/95/17
f 70/95/18 21/47/18 20/46/18 71/96/18
f 71/96/19 20/46/19 19/45/19 72/45/19
f 72/45/20 19/45/20 18/44/20 73/97/20
f 73/97/21 18/44/21 17/43/21 74/43/21
f 74/43/22 17/43/22 16/42/22 75/98/22
f 75/98/23 16/42/23 15/41/23 76/99/23
f 76/99/24 15/41/24 14/40/24 77/100/24
f 77/100/25 14/40/25 12/93/25 68/39/25
f 1/1/26 57/4/26 66/101/26 3/9/26
f 3/9/27 66/101/27 65/102/27 4/10/27
f 4/10/28 65/102/28 64/103/28 5/11/28
f 5/11/29 64/103/29 63/104/29 6/12/29
f 6/12/30 63/104/30 62/105/30 7/13/30
f 7/13/31 62/105/31 61/14/31 8/14/31
f 8/14/32 61/14/32 60/106/32 9/15/32
f 9/15/33 60/106/33 59/107/33 10/16/33
f 10/16/34 59/107/34 58/108/34 11/17/34
f 11/17/35 58/108/35 56/109/35 2/110/35
f 45/7/36 24/6/36 33/28/36 47/111/36
f 47/111/37 33/28/37 32/27/37 48/112/37
f 48/112/38 32/27/38 31/26/38 49/113/38
f 49/113/39 31/26/39 30/25/39 50/114/39
f 50/114/40 30/25/40 29/24/40 51/24/40
f 51/24/41 29/24/41 28/23/41 52/23/41
f 52/23/42 28/23/42 27/22/42 53/22/42
f 53/22/43 27/22/43 26/21/43 54/115/43
f 54/115/44 26/21/44 25/20/44 55/20/44
f 55/20/45 25/20/45 23/19/45 46/19/45
f 23/19/46 2/110/46 56/109/46 46/19/46
