# Blender 4.2.9 LTS
# www.blender.org
mtllib 325.2.mtl
o Plane
v 0.407689 0.000000 0.000000
v 0.450000 0.000000 0.042311
v 0.414308 0.000000 0.000521
v 0.420764 0.000000 0.002071
v 0.426898 0.000000 0.004612
v 0.432559 0.000000 0.008081
v 0.437607 0.000000 0.012393
v 0.441919 0.000000 0.017441
v 0.445388 0.000000 0.023102
v 0.447929 0.000000 0.029236
v 0.449479 0.000000 0.035692
v -0.450000 0.000000 0.042311
v -0.407689 0.000000 0.000000
v -0.449479 0.000000 0.035692
v -0.447929 0.000000 0.029236
v -0.445388 0.000000 0.023102
v -0.441919 0.000000 0.017441
v -0.437607 0.000000 0.012393
v -0.432559 0.000000 0.008081
v -0.426898 0.000000 0.004612
v -0.420764 0.000000 0.002071
v -0.414308 0.000000 0.000521
v 0.450000 0.000000 0.557689
v 0.407689 0.000000 0.600000
v 0.449479 0.000000 0.564308
v 0.447929 0.000000 0.570764
v 0.445388 0.000000 0.576898
v 0.441919 0.000000 0.582559
v 0.437607 0.000000 0.587607
v 0.432559 0.000000 0.591919
v 0.426898 0.000000 0.595388
v 0.420764 0.000000 0.597929
v 0.414308 0.000000 0.599479
v -0.407689 0.000000 0.600000
v -0.450000 0.000000 0.557689
v -0.414308 0.000000 0.599479
v -0.420764 0.000000 0.597929
v -0.426898 0.000000 0.595388
v -0.432559 0.000000 0.591919
v -0.437607 0.000000 0.587607
v -0.441919 0.000000 0.582559
v -0.445388 0.000000 0.576898
v -0.447929 0.000000 0.570764
v -0.449479 0.000000 0.564308
v 0.407689 0.002000 0.600000
v 0.450000 0.002000 0.557689
v 0.414308 0.002000 0.599479
v 0.420764 0.002000 0.597929
v 0.426898 0.002000 0.595388
v 0.432559 0.002000 0.591919
v 0.437607 0.002000 0.587607
v 0.441919 0.002000 0.582559
v 0.445388 0.002000 0.576898
v 0.447929 0.002000 0.570764
v 0.449479 0.002000 0.564308
v 0.450000 0.002000 0.042311
v 0.407689 0.002000 -0.000000
v 0.449479 0.002000 0.035692
v 0.447929 0.002000 0.029236
v 0.445388 0.002000 0.023102
v 0.441919 0.002000 0.017441
v 0.437607 0.002000 0.012393
v 0.432559 0.002000 0.008081
v 0.426898 0.002000 0.004612
v 0.420764 0.002000 0.002071
v 0.414308 0.002000 0.000521
v -0.407689 0.002000 -0.000000
v -0.450000 0.002000 0.042311
v -0.414308 0.002000 0.000521
v -0.420764 0.002000 0.002071
v -0.426898 0.002000 0.004612
v -0.432559 0.002000 0.008081
v -0.437607 0.002000 0.012393
v -0.441919 0.002000 0.017441
v -0.445388 0.002000 0.023102
v -0.447929 0.002000 0.029236
v -0.449479 0.002000 0.035692
v -0.450000 0.002000 0.557689
v -0.407689 0.002000 0.600000
v -0.449479 0.002000 0.564308
v -0.447929 0.002000 0.570764
v -0.445388 0.002000 0.576898
v -0.441919 0.002000 0.582559
v -0.437607 0.002000 0.587607
v -0.432559 0.002000 0.591919
v -0.426898 0.002000 0.595388
v -0.420764 0.002000 0.597929
v -0.414308 0.002000 0.599479
vn -0.0000 -0.0000 -1.0000
vn -0.0000 -0.0000 1.0000
vn -0.0000 -1.0000 -0.0000
vn -0.0000 1.0000 -0.0000
vn -1.0000 -0.0000 -0.0000
vn -0.0785 -0.0000 0.9969
vn -0.2334 -0.0000 0.9724
vn -0.3827 -0.0000 0.9239
vn -0.5225 -0.0000 0.8526
vn -0.6495 -0.0000 0.7604
vn -0.7604 -0.0000 0.6495
vn -0.8526 -0.0000 0.5225
vn -0.9239 -0.0000 0.3827
vn -0.9724 -0.0000 0.2334
vn -0.9969 -0.0000 0.0785
vn -0.0785 -0.0000 -0.9969
vn -0.2334 -0.0000 -0.9724
vn -0.3827 -0.0000 -0.9239
vn -0.5225 -0.0000 -0.8526
vn -0.6494 -0.0000 -0.7604
vn -0.7604 -0.0000 -0.6495
vn -0.8526 -0.0000 -0.5225
vn -0.9239 -0.0000 -0.3827
vn -0.9724 -0.0000 -0.2334
vn -0.9969 -0.0000 -0.0785
vn 0.0785 -0.0000 -0.9969
vn 0.2334 -0.0000 -0.9724
vn 0.3827 -0.0000 -0.9239
vn 0.5225 -0.0000 -0.8526
vn 0.6494 -0.0000 -0.7604
vn 0.7604 -0.0000 -0.6495
vn 0.8526 -0.0000 -0.5225
vn 0.9239 -0.0000 -0.3827
vn 0.9724 -0.0000 -0.2334
vn 0.9969 -0.0000 -0.0785
vn 0.0785 -0.0000 0.9969
vn 0.2334 -0.0000 0.9724
vn 0.3827 -0.0000 0.9239
vn 0.5225 -0.0000 0.8526
vn 0.6495 -0.0000 0.7604
vn 0.7604 -0.0000 0.6495
vn 0.8526 -0.0000 0.5225
vn 0.9239 -0.0000 0.3827
vn 0.9724 -0.0000 0.2334
vn 0.9969 -0.0000 0.0785
vn 1.0000 -0.0000 -0.0000
vt 0.047013 0.000000
vt 0.952988 0.000000
vt 0.952987 0.000000
vt 0.047012 0.000000
vt 0.952987 1.000000
vt 0.047012 1.000000
vt 0.047013 1.000000
vt 0.952988 1.000000
vt 0.039658 0.000289
vt 0.032485 0.001150
vt 0.025669 0.002562
vt 0.019379 0.004489
vt 0.004590 0.006885
vt 0.002993 0.029069
vt 0.001708 0.038504
vt 0.000767 0.048727
vt 0.000193 0.059487
vt 0.000000 0.070519
vt 0.000000 0.929481
vt 0.000193 0.940513
vt 0.000767 0.951273
vt 0.001708 0.961496
vt 0.002993 0.970931
vt 0.004590 0.993115
vt 0.019379 0.995511
vt 0.025669 0.997438
vt 0.032485 0.998850
vt 0.039658 0.999711
vt 0.960342 0.999711
vt 0.967515 0.998850
vt 0.974331 0.997438
vt 0.980621 0.995511
vt 0.995410 0.993115
vt 0.997007 0.970931
vt 0.998292 0.961496
vt 0.999233 0.951273
vt 0.999807 0.940513
vt 1.000000 0.929481
vt 1.000000 0.070519
vt 0.999807 0.059487
vt 0.999233 0.048727
vt 0.998292 0.038504
vt 0.997007 0.029069
vt 0.995410 0.006885
vt 0.980621 0.004489
vt 0.974331 0.002562
vt 0.967515 0.001150
vt 0.960342 0.000289
vt 0.000174 0.071951
vt 0.000753 0.060942
vt 0.002476 0.050204
vt 0.005300 0.040001
vt 0.009156 0.030585
vt 0.013948 0.022188
vt 0.019560 0.015016
vt 0.025852 0.009246
vt 0.032669 0.005020
vt 0.039845 0.002442
vt 0.047202 0.001576
vt 0.953448 0.001576
vt 0.960805 0.002442
vt 0.967981 0.005020
vt 0.974798 0.009246
vt 0.981090 0.015016
vt 0.986702 0.022188
vt 0.991494 0.030585
vt 0.995350 0.040001
vt 0.998174 0.050204
vt 0.999897 0.060942
vt 1.000476 0.071951
vt 1.000475 0.929163
vt 0.999896 0.940173
vt 0.998174 0.950911
vt 0.995350 0.961114
vt 0.991494 0.970529
vt 0.986702 0.978927
vt 0.981090 0.986099
vt 0.974798 0.991869
vt 0.967981 0.996095
vt 0.960805 0.998673
vt 0.953448 0.999539
vt 0.047201 0.999539
vt 0.039845 0.998673
vt 0.032669 0.996095
vt 0.025851 0.991869
vt 0.019560 0.986099
vt 0.013948 0.978927
vt 0.009156 0.970529
vt 0.005300 0.961113
vt 0.002476 0.950911
vt 0.000753 0.940173
vt 0.000174 0.929163
vt 1.000000 0.070519
vt 0.967515 0.998850
vt 0.967515 0.001150
vt 0.997007 0.029069
vt 0.998292 0.038504
vt 0.999233 0.048727
vt 0.999807 0.059487
vt 0.039658 0.000289
vt 0.032485 0.001150
vt 0.025669 0.002562
vt 0.002993 0.029069
vt 0.001708 0.038504
vt 0.000767 0.048727
vt 0.000193 0.059487
vt 0.000000 0.070519
vt 0.039658 0.999711
vt 0.032485 0.998850
vt 0.025669 0.997438
vt 0.001708 0.961496
s 0
usemtl Material
f 56/49/4 58/50/4 59/51/4 60/52/4 61/53/4 62/54/4 63/55/4 64/56/4 65/57/4 66/58/4 57/59/4 67/60/4 69/61/4 70/62/4 71/63/4 72/64/4 73/65/4 74/66/4 75/67/4 76/68/4 77/69/4 68/70/4 78/71/4 80/72/4 81/73/4 82/74/4 83/75/4 84/76/4 85/77/4 86/78/4 87/79/4 88/80/4 79/81/4 45/82/4 47/83/4 48/84/4 49/85/4 50/86/4 51/87/4 52/88/4 53/89/4 54/90/4 55/91/4 46/92/4
usemtl Material.001
f 1/1/1 13/2/1 67/3/1 57/4/1
f 34/5/2 24/6/2 45/7/2 79/8/2
f 1/4/3 3/9/3 4/10/3 5/11/3 6/12/3 7/13/3 8/14/3 9/15/3 10/16/3 11/17/3 2/18/3 23/19/3 25/20/3 26/21/3 27/22/3 28/23/3 29/24/3 30/25/3 31/26/3 32/27/3 33/28/3 24/7/3 34/8/3 36/29/3 37/30/3 38/31/3 39/32/3 40/33/3 41/34/3 42/35/3 43/36/3 44/37/3 35/38/3 12/39/3 14/40/3 15/41/3 16/42/3 17/43/3 18/44/3 19/45/3 20/46/3 21/47/3 22/48/3 13/3/3
f 12/93/5 35/38/5 78/38/5 68/39/5
f 34/5/6 79/8/6 88/29/6 36/29/6
f 36/29/7 88/29/7 87/94/7 37/30/7
f 37/30/8 87/94/8 86/31/8 38/31/8
f 38/31/9 86/31/9 85/32/9 39/32/9
f 39/32/10 85/32/10 84/33/10 40/33/10
f 40/33/11 84/33/11 83/34/11 41/34/11
f 41/34/12 83/34/12 82/35/12 42/35/12
f 42/35/13 82/35/13 81/36/13 43/36/13
f 43/36/14 81/36/14 80/37/14 44/37/14
f 44/37/15 80/37/15 78/38/15 35/38/15
f 67/3/16 13/2/16 22/48/16 69/48/16
f 69/48/17 22/48/17 21/47/17 70/95/17
f 70/95/18 21/47/18 20/46/18 71/46/18
f 71/46/19 20/46/19 19/45/19 72/45/19
f 72/45/20 19/45/20 18/44/20 73/44/20
f 73/44/21 18/44/21 17/43/21 74/96/21
f 74/96/22 17/43/22 16/42/22 75/97/22
f 75/97/23 16/42/23 15/41/23 76/98/23
f 76/98/24 15/41/24 14/40/24 77/99/24
f 77/99/25 14/40/25 12/93/25 68/39/25
f 1/1/26 57/4/26 66/100/26 3/9/26
f 3/9/27 66/100/27 65/101/27 4/10/27
f 4/10/28 65/101/28 64/102/28 5/11/28
f 5/11/29 64/102/29 63/12/29 6/12/29
f 6/12/30 63/12/30 62/13/30 7/13/30
f 7/13/31 62/13/31 61/103/31 8/14/31
f 8/14/32 61/103/32 60/104/32 9/15/32
f 9/15/33 60/104/33 59/105/33 10/16/33
f 10/16/34 59/105/34 58/106/34 11/17/34
f 11/17/35 58/106/35 56/18/35 2/107/35
f 45/7/36 24/6/36 33/28/36 47/108/36
f 47/108/37 33/28/37 32/27/37 48/109/37
f 48/109/38 32/27/38 31/26/38 49/110/38
f 49/110/39 31/26/39 30/25/39 50/25/39
f 50/25/40 30/25/40 29/24/40 51/24/40
f 51/24/41 29/24/41 28/23/41 52/23/41
f 52/23/42 28/23/42 27/22/42 53/111/42
f 53/111/43 27/22/43 26/21/43 54/21/43
f 54/21/44 26/21/44 25/20/44 55/20/44
f 55/20/45 25/20/45 23/19/45 46/19/45
f 23/19/46 2/107/46 56/18/46 46/19/46
