# Blender 4.2.9 LTS
# www.blender.org
mtllib 350-10.mtl
o Plane
v 0.335780 0.000000 0.000000
v 0.375000 0.000000 0.039220
v 0.341915 0.000000 0.000483
v 0.347900 0.000000 0.001920
v 0.353586 0.000000 0.004275
v 0.358833 0.000000 0.007490
v 0.363513 0.000000 0.011487
v 0.367510 0.000000 0.016167
v 0.370725 0.000000 0.021414
v 0.373080 0.000000 0.027100
v 0.374517 0.000000 0.033085
v -0.375000 0.000000 0.039220
v -0.335780 0.000000 0.000000
v -0.374517 0.000000 0.033085
v -0.373080 0.000000 0.027100
v -0.370725 0.000000 0.021414
v -0.367510 0.000000 0.016167
v -0.363513 0.000000 0.011487
v -0.358833 0.000000 0.007490
v -0.353586 0.000000 0.004275
v -0.347900 0.000000 0.001920
v -0.341915 0.000000 0.000483
v 0.375000 0.000000 0.710780
v 0.335780 0.000000 0.750000
v 0.374517 0.000000 0.716915
v 0.373080 0.000000 0.722900
v 0.370725 0.000000 0.728586
v 0.367510 0.000000 0.733833
v 0.363513 0.000000 0.738513
v 0.358833 0.000000 0.742510
v 0.353586 0.000000 0.745725
v 0.347900 0.000000 0.748080
v 0.341915 0.000000 0.749517
v -0.335780 0.000000 0.750000
v -0.375000 0.000000 0.710780
v -0.341915 0.000000 0.749517
v -0.347900 0.000000 0.748080
v -0.353586 0.000000 0.745725
v -0.358833 0.000000 0.742510
v -0.363513 0.000000 0.738513
v -0.367510 0.000000 0.733833
v -0.370725 0.000000 0.728586
v -0.373080 0.000000 0.722900
v -0.374517 0.000000 0.716915
v 0.335780 0.002000 0.750000
v 0.375000 0.002000 0.710780
v 0.341915 0.002000 0.749517
v 0.347900 0.002000 0.748080
v 0.353586 0.002000 0.745725
v 0.358833 0.002000 0.742510
v 0.363513 0.002000 0.738513
v 0.367510 0.002000 0.733833
v 0.370725 0.002000 0.728586
v 0.373080 0.002000 0.722900
v 0.374517 0.002000 0.716915
v 0.375000 0.002000 0.039220
v 0.335780 0.002000 -0.000000
v 0.374517 0.002000 0.033085
v 0.373080 0.002000 0.027100
v 0.370725 0.002000 0.021414
v 0.367510 0.002000 0.016167
v 0.363513 0.002000 0.011487
v 0.358833 0.002000 0.007490
v 0.353586 0.002000 0.004275
v 0.347900 0.002000 0.001920
v 0.341915 0.002000 0.000483
v -0.335780 0.002000 -0.000000
v -0.375000 0.002000 0.039220
v -0.341915 0.002000 0.000483
v -0.347900 0.002000 0.001920
v -0.353586 0.002000 0.004275
v -0.358833 0.002000 0.007490
v -0.363513 0.002000 0.011487
v -0.367510 0.002000 0.016167
v -0.370725 0.002000 0.021414
v -0.373080 0.002000 0.027100
v -0.374517 0.002000 0.033085
v -0.375000 0.002000 0.710780
v -0.335780 0.002000 0.750000
v -0.374517 0.002000 0.716915
v -0.373080 0.002000 0.722900
v -0.370725 0.002000 0.728586
v -0.367510 0.002000 0.733833
v -0.363513 0.002000 0.738513
v -0.358833 0.002000 0.742510
v -0.353586 0.002000 0.745725
v -0.347900 0.002000 0.748080
v -0.341915 0.002000 0.749517
vn -0.0000 -0.0000 -1.0000
vn -0.0000 -1.0000 -0.0000
vn -0.0000 1.0000 -0.0000
vn -1.0000 -0.0000 -0.0000
vn -0.0000 -0.0000 1.0000
vn 0.0785 -0.0000 -0.9969
vn 0.2334 -0.0000 -0.9724
vn 0.3827 -0.0000 -0.9239
vn 0.5225 -0.0000 -0.8526
vn 0.6494 -0.0000 -0.7604
vn 0.7604 -0.0000 -0.6495
vn 0.8526 -0.0000 -0.5225
vn 0.9239 -0.0000 -0.3827
vn 0.9724 -0.0000 -0.2334
vn 0.9969 -0.0000 -0.0785
vn 0.0785 -0.0000 0.9969
vn 0.2334 -0.0000 0.9724
vn 0.3827 -0.0000 0.9239
vn 0.5225 -0.0000 0.8526
vn 0.6494 -0.0000 0.7604
vn 0.7604 -0.0000 0.6494
vn 0.8526 -0.0000 0.5225
vn 0.9239 -0.0000 0.3827
vn 0.9724 -0.0000 0.2334
vn 0.9969 -0.0000 0.0785
vn -0.9969 -0.0000 0.0785
vn -0.9724 -0.0000 0.2334
vn -0.9239 -0.0000 0.3827
vn -0.8526 -0.0000 0.5225
vn -0.7604 -0.0000 0.6494
vn -0.6494 -0.0000 0.7604
vn -0.5225 -0.0000 0.8526
vn -0.3827 -0.0000 0.9239
vn -0.2334 -0.0000 0.9724
vn -0.0785 -0.0000 0.9969
vn -0.9969 -0.0000 -0.0785
vn -0.9724 -0.0000 -0.2334
vn -0.9239 -0.0000 -0.3827
vn -0.8526 -0.0000 -0.5225
vn -0.7604 -0.0000 -0.6495
vn -0.6494 -0.0000 -0.7604
vn -0.5225 -0.0000 -0.8526
vn -0.3827 -0.0000 -0.9239
vn -0.2334 -0.0000 -0.9724
vn -0.0785 -0.0000 -0.9969
vn 1.0000 -0.0000 -0.0000
vt 0.052293 0.000000
vt 0.947707 0.000000
vt 0.947707 0.000000
vt 0.052293 0.000000
vt 0.044113 0.000215
vt 0.036134 0.000853
vt 0.028553 0.001900
vt 0.021556 0.003329
vt 0.005105 0.005105
vt 0.003329 0.021556
vt 0.001900 0.028553
vt 0.000853 0.036134
vt 0.000215 0.044113
vt 0.000000 0.052293
vt 0.000000 0.947707
vt 0.000215 0.955887
vt 0.000853 0.963866
vt 0.001900 0.971447
vt 0.003329 0.978444
vt 0.005105 0.994895
vt 0.021556 0.996671
vt 0.028553 0.998100
vt 0.036134 0.999147
vt 0.044113 0.999785
vt 0.052293 1.000000
vt 0.947707 1.000000
vt 0.955887 0.999785
vt 0.963866 0.999147
vt 0.971447 0.998100
vt 0.978444 0.996671
vt 0.994895 0.994895
vt 0.996671 0.978444
vt 0.998100 0.971447
vt 0.999147 0.963866
vt 0.999785 0.955887
vt 1.000000 0.947707
vt 1.000000 0.052293
vt 0.999785 0.044113
vt 0.999147 0.036134
vt 0.998100 0.028553
vt 0.996671 0.021556
vt 0.994895 0.005105
vt 0.978444 0.003329
vt 0.971447 0.001900
vt 0.963866 0.000853
vt 0.955887 0.000215
vt 0.002326 0.054376
vt 0.002967 0.046233
vt 0.004873 0.038291
vt 0.007999 0.030746
vt 0.012266 0.023782
vt 0.017571 0.017571
vt 0.023782 0.012266
vt 0.030746 0.007999
vt 0.038291 0.004873
vt 0.046233 0.002967
vt 0.054376 0.002326
vt 0.945624 0.002326
vt 0.953767 0.002967
vt 0.961709 0.004873
vt 0.969254 0.007999
vt 0.976218 0.012266
vt 0.982429 0.017571
vt 0.987734 0.023782
vt 0.992001 0.030746
vt 0.995127 0.038291
vt 0.997033 0.046233
vt 0.997674 0.054376
vt 0.997674 0.945624
vt 0.997033 0.953767
vt 0.995127 0.961709
vt 0.992001 0.969254
vt 0.987734 0.976218
vt 0.982429 0.982429
vt 0.976218 0.987734
vt 0.969254 0.992001
vt 0.961709 0.995127
vt 0.953767 0.997034
vt 0.945624 0.997674
vt 0.054376 0.997674
vt 0.046233 0.997034
vt 0.038291 0.995127
vt 0.030746 0.992001
vt 0.023782 0.987734
vt 0.017571 0.982429
vt 0.012266 0.976218
vt 0.007999 0.969254
vt 0.004873 0.961709
vt 0.002967 0.953767
vt 0.002326 0.945624
vt 1.000000 0.052293
vt 1.000000 0.947707
vt 0.947707 1.000000
vt 0.052293 1.000000
vt 0.044113 0.000215
vt 0.028553 0.001900
vt 0.021556 0.003329
vt 0.003329 0.021556
vt 0.001900 0.028553
vt 0.000853 0.036134
vt 0.000215 0.044113
vt 0.000000 0.052293
vt 0.044113 0.999785
vt 0.028553 0.998100
vt 0.021556 0.996671
vt 0.000000 0.947707
vt 0.999785 0.044113
vt 0.999147 0.036134
vt 0.998100 0.028553
vt 0.996671 0.021556
vt 0.971447 0.001900
vt 0.963866 0.000853
s 0
usemtl Material
f 56/47/3 58/48/3 59/49/3 60/50/3 61/51/3 62/52/3 63/53/3 64/54/3 65/55/3 66/56/3 57/57/3 67/58/3 69/59/3 70/60/3 71/61/3 72/62/3 73/63/3 74/64/3 75/65/3 76/66/3 77/67/3 68/68/3 78/69/3 80/70/3 81/71/3 82/72/3 83/73/3 84/74/3 85/75/3 86/76/3 87/77/3 88/78/3 79/79/3 45/80/3 47/81/3 48/82/3 49/83/3 50/84/3 51/85/3 52/86/3 53/87/3 54/88/3 55/89/3 46/90/3
usemtl Material.001
f 1/1/1 13/2/1 67/3/1 57/4/1
f 1/4/2 3/5/2 4/6/2 5/7/2 6/8/2 7/9/2 8/10/2 9/11/2 10/12/2 11/13/2 2/14/2 23/15/2 25/16/2 26/17/2 27/18/2 28/19/2 29/20/2 30/21/2 31/22/2 32/23/2 33/24/2 24/25/2 34/26/2 36/27/2 37/28/2 38/29/2 39/30/2 40/31/2 41/32/2 42/33/2 43/34/2 44/35/2 35/36/2 12/37/2 14/38/2 15/39/2 16/40/2 17/41/2 18/42/2 19/43/2 20/44/2 21/45/2 22/46/2 13/3/2
f 12/91/4 35/92/4 78/36/4 68/37/4
f 34/93/5 24/94/5 45/25/5 79/26/5
f 1/1/6 57/4/6 66/95/6 3/5/6
f 3/5/7 66/95/7 65/6/7 4/6/7
f 4/6/8 65/6/8 64/96/8 5/7/8
f 5/7/9 64/96/9 63/97/9 6/8/9
f 6/8/10 63/97/10 62/9/10 7/9/10
f 7/9/11 62/9/11 61/98/11 8/10/11
f 8/10/12 61/98/12 60/99/12 9/11/12
f 9/11/13 60/99/13 59/100/13 10/12/13
f 10/12/14 59/100/14 58/101/14 11/13/14
f 11/13/15 58/101/15 56/14/15 2/102/15
f 45/25/16 24/94/16 33/24/16 47/103/16
f 47/103/17 33/24/17 32/23/17 48/23/17
f 48/23/18 32/23/18 31/22/18 49/104/18
f 49/104/19 31/22/19 30/21/19 50/105/19
f 50/105/20 30/21/20 29/20/20 51/20/20
f 51/20/21 29/20/21 28/19/21 52/19/21
f 52/19/22 28/19/22 27/18/22 53/18/22
f 53/18/23 27/18/23 26/17/23 54/17/23
f 54/17/24 26/17/24 25/16/24 55/16/24
f 55/16/25 25/16/25 23/106/25 46/15/25
f 78/36/26 35/92/26 44/35/26 80/35/26
f 80/35/27 44/35/27 43/34/27 81/34/27
f 81/34/28 43/34/28 42/33/28 82/33/28
f 82/33/29 42/33/29 41/32/29 83/32/29
f 83/32/30 41/32/30 40/31/30 84/31/30
f 84/31/31 40/31/31 39/30/31 85/30/31
f 85/30/32 39/30/32 38/29/32 86/29/32
f 86/29/33 38/29/33 37/28/33 87/28/33
f 87/28/34 37/28/34 36/27/34 88/27/34
f 88/27/35 36/27/35 34/93/35 79/26/35
f 12/91/36 68/37/36 77/107/36 14/38/36
f 14/38/37 77/107/37 76/108/37 15/39/37
f 15/39/38 76/108/38 75/109/38 16/40/38
f 16/40/39 75/109/39 74/110/39 17/41/39
f 17/41/40 74/110/40 73/42/40 18/42/40
f 18/42/41 73/42/41 72/43/41 19/43/41
f 19/43/42 72/43/42 71/111/42 20/44/42
f 20/44/43 71/111/43 70/112/43 21/45/43
f 21/45/44 70/112/44 69/46/44 22/46/44
f 22/46/45 69/46/45 67/3/45 13/2/45
f 23/106/46 2/102/46 56/14/46 46/15/46
