# Blender 4.2.9 LTS
# www.blender.org
mtllib 385.mtl
o Plane
v 0.485455 -0.000000 0.000000
v 0.525000 -0.000000 0.039545
v 0.491641 -0.000000 0.000487
v 0.497675 -0.000000 0.001935
v 0.503408 -0.000000 0.004310
v 0.508699 -0.000000 0.007552
v 0.513418 -0.000000 0.011582
v 0.517448 -0.000000 0.016301
v 0.520690 -0.000000 0.021592
v 0.523065 -0.000000 0.027325
v 0.524513 -0.000000 0.033359
v -0.525000 -0.000000 0.039545
v -0.485455 -0.000000 0.000000
v -0.524513 -0.000000 0.033359
v -0.523065 -0.000000 0.027325
v -0.520690 -0.000000 0.021592
v -0.517448 -0.000000 0.016301
v -0.513418 -0.000000 0.011582
v -0.508699 -0.000000 0.007552
v -0.503408 -0.000000 0.004310
v -0.497675 -0.000000 0.001935
v -0.491641 -0.000000 0.000487
v 0.525000 0.000000 0.310455
v 0.485455 0.000000 0.350000
v 0.524513 0.000000 0.316641
v 0.523065 0.000000 0.322675
v 0.520690 0.000000 0.328408
v 0.517448 0.000000 0.333699
v 0.513418 0.000000 0.338418
v 0.508699 0.000000 0.342448
v 0.503408 0.000000 0.345690
v 0.497675 0.000000 0.348065
v 0.491641 0.000000 0.349513
v -0.485455 0.000000 0.350000
v -0.525000 0.000000 0.310455
v -0.491641 0.000000 0.349513
v -0.497675 0.000000 0.348065
v -0.503408 0.000000 0.345690
v -0.508699 0.000000 0.342448
v -0.513418 0.000000 0.338418
v -0.517448 0.000000 0.333699
v -0.520690 0.000000 0.328408
v -0.523065 0.000000 0.322675
v -0.524513 0.000000 0.316641
v 0.485455 0.002000 0.350000
v 0.525000 0.002000 0.310455
v 0.491641 0.002000 0.349513
v 0.497675 0.002000 0.348065
v 0.503408 0.002000 0.345690
v 0.508699 0.002000 0.342448
v 0.513418 0.002000 0.338418
v 0.517448 0.002000 0.333699
v 0.520690 0.002000 0.328408
v 0.523065 0.002000 0.322675
v 0.524513 0.002000 0.316641
v 0.525000 0.002000 0.039545
v 0.485455 0.002000 -0.000000
v 0.524513 0.002000 0.033359
v 0.523065 0.002000 0.027325
v 0.520690 0.002000 0.021592
v 0.517448 0.002000 0.016301
v 0.513418 0.002000 0.011582
v 0.508699 0.002000 0.007552
v 0.503408 0.002000 0.004310
v 0.497675 0.002000 0.001935
v 0.491641 0.002000 0.000487
v -0.485455 0.002000 -0.000000
v -0.525000 0.002000 0.039545
v -0.491641 0.002000 0.000487
v -0.497675 0.002000 0.001935
v -0.503408 0.002000 0.004310
v -0.508699 0.002000 0.007552
v -0.513418 0.002000 0.011582
v -0.517448 0.002000 0.016301
v -0.520690 0.002000 0.021592
v -0.523065 0.002000 0.027325
v -0.524513 0.002000 0.033359
v -0.525000 0.002000 0.310455
v -0.485455 0.002000 0.350000
v -0.524513 0.002000 0.316641
v -0.523065 0.002000 0.322675
v -0.520690 0.002000 0.328408
v -0.517448 0.002000 0.333699
v -0.513418 0.002000 0.338418
v -0.508699 0.002000 0.342448
v -0.503408 0.002000 0.345690
v -0.497675 0.002000 0.348065
v -0.491641 0.002000 0.349513
vn -0.0000 -0.0000 -1.0000
vn -0.0000 1.0000 -0.0000
vn -1.0000 -0.0000 -0.0000
vn -0.0000 -0.0000 1.0000
vn -0.0000 -1.0000 -0.0000
vn 0.9969 -0.0000 0.0785
vn 0.9724 -0.0000 0.2334
vn 0.9239 -0.0000 0.3827
vn 0.8526 -0.0000 0.5225
vn 0.7604 -0.0000 0.6494
vn 0.6494 -0.0000 0.7604
vn 0.5225 -0.0000 0.8526
vn 0.3827 -0.0000 0.9239
vn 0.2334 -0.0000 0.9724
vn 0.0785 -0.0000 0.9969
vn -0.9969 -0.0000 0.0785
vn -0.9724 -0.0000 0.2334
vn -0.9239 -0.0000 0.3827
vn -0.8526 -0.0000 0.5225
vn -0.7604 -0.0000 0.6494
vn -0.6494 -0.0000 0.7604
vn -0.5225 -0.0000 0.8526
vn -0.3827 -0.0000 0.9239
vn -0.2334 -0.0000 0.9724
vn -0.0785 -0.0000 0.9969
vn -0.9969 -0.0000 -0.0784
vn -0.9724 -0.0000 -0.2334
vn -0.9239 -0.0000 -0.3827
vn -0.8526 -0.0000 -0.5225
vn -0.7604 -0.0000 -0.6494
vn -0.6494 -0.0000 -0.7604
vn -0.5225 -0.0000 -0.8526
vn -0.3827 -0.0000 -0.9239
vn -0.2334 -0.0000 -0.9724
vn -0.0785 -0.0000 -0.9969
vn 0.9969 -0.0000 -0.0784
vn 0.9724 -0.0000 -0.2334
vn 0.9239 -0.0000 -0.3827
vn 0.8526 -0.0000 -0.5225
vn 0.7604 -0.0000 -0.6494
vn 0.6494 -0.0000 -0.7604
vn 0.5225 -0.0000 -0.8526
vn 0.3827 -0.0000 -0.9239
vn 0.2334 -0.0000 -0.9724
vn 0.0785 -0.0000 -0.9969
vn 1.0000 -0.0000 -0.0000
vt 0.037662 0.000000
vt 0.962338 0.000000
vt 0.962338 0.000000
vt 0.037662 0.000000
vt 0.001775 0.114360
vt 0.002237 0.096748
vt 0.003611 0.079569
vt 0.005865 0.063247
vt 0.008942 0.048184
vt 0.012766 0.034750
vt 0.017244 0.023277
vt 0.022265 0.014046
vt 0.027706 0.007285
vt 0.033432 0.003161
vt 0.039303 0.001775
vt 0.960697 0.001775
vt 0.966568 0.003161
vt 0.972294 0.007285
vt 0.977735 0.014046
vt 0.982756 0.023277
vt 0.987234 0.034750
vt 0.991058 0.048184
vt 0.994135 0.063247
vt 0.996389 0.079569
vt 0.997763 0.096748
vt 0.998225 0.114360
vt 0.998225 0.885640
vt 0.997763 0.903253
vt 0.996389 0.920431
vt 0.994135 0.936753
vt 0.991058 0.951816
vt 0.987234 0.965250
vt 0.982756 0.976723
vt 0.977735 0.985954
vt 0.972294 0.992715
vt 0.966568 0.996839
vt 0.960697 0.998225
vt 0.039303 0.998225
vt 0.033432 0.996839
vt 0.027706 0.992715
vt 0.022265 0.985954
vt 0.017244 0.976723
vt 0.012766 0.965250
vt 0.008942 0.951816
vt 0.005865 0.936753
vt 0.003611 0.920431
vt 0.002237 0.903253
vt 0.001775 0.885640
vt 1.000000 0.112986
vt 1.000000 0.887014
vt 1.000000 0.887014
vt 1.000000 0.112986
vt 0.962338 1.000000
vt 0.037662 1.000000
vt 0.037662 1.000000
vt 0.962338 1.000000
vt 0.031770 0.000464
vt 0.026024 0.001843
vt 0.020564 0.004105
vt 0.015525 0.007193
vt 0.003677 0.011031
vt 0.002398 0.046574
vt 0.001368 0.061691
vt 0.000614 0.078071
vt 0.000155 0.095311
vt 0.000000 0.112986
vt 0.000000 0.887014
vt 0.000155 0.904689
vt 0.000614 0.921929
vt 0.001368 0.938309
vt 0.002398 0.953426
vt 0.003677 0.988969
vt 0.015525 0.992807
vt 0.020564 0.995895
vt 0.026024 0.998157
vt 0.031770 0.999536
vt 0.968230 0.999536
vt 0.973976 0.998157
vt 0.979436 0.995895
vt 0.984475 0.992807
vt 0.996323 0.988969
vt 0.997602 0.953425
vt 0.998632 0.938309
vt 0.999386 0.921929
vt 0.999846 0.904689
vt 0.999846 0.095311
vt 0.999386 0.078071
vt 0.998632 0.061691
vt 0.997602 0.046575
vt 0.996323 0.011031
vt 0.984475 0.007193
vt 0.979436 0.004105
vt 0.973976 0.001843
vt 0.968230 0.000464
vt 0.000000 0.887014
vt 0.001368 0.938309
vt 0.002398 0.953426
vt 0.015525 0.992807
vt 0.020564 0.995895
vt 0.026024 0.998157
vt 0.031770 0.999536
vt 0.997602 0.953426
vt 0.979436 0.995895
vt 0.968230 0.999536
vt 0.999845 0.095311
vt 0.999386 0.078071
vt 0.998632 0.061691
vt 0.997602 0.046575
vt 0.996323 0.011031
vt 0.979436 0.004105
vt 0.973976 0.001843
vt 0.968230 0.000464
vt 0.000000 0.112986
vt 0.000155 0.095311
vt 0.000614 0.078071
vt 0.001368 0.061691
vt 0.002398 0.046575
vt 0.003677 0.011031
vt 0.015525 0.007193
vt 0.020564 0.004105
vt 0.026024 0.001843
vt 0.031770 0.000464
s 0
usemtl Material
f 56/5/2 58/6/2 59/7/2 60/8/2 61/9/2 62/10/2 63/11/2 64/12/2 65/13/2 66/14/2 57/15/2 67/16/2 69/17/2 70/18/2 71/19/2 72/20/2 73/21/2 74/22/2 75/23/2 76/24/2 77/25/2 68/26/2 78/27/2 80/28/2 81/29/2 82/30/2 83/31/2 84/32/2 85/33/2 86/34/2 87/35/2 88/36/2 79/37/2 45/38/2 47/39/2 48/40/2 49/41/2 50/42/2 51/43/2 52/44/2 53/45/2 54/46/2 55/47/2 46/48/2
usemtl Material.001
f 1/1/1 13/2/1 67/3/1 57/4/1
f 12/49/3 35/50/3 78/51/3 68/52/3
f 34/53/4 24/54/4 45/55/4 79/56/4
f 1/4/5 3/57/5 4/58/5 5/59/5 6/60/5 7/61/5 8/62/5 9/63/5 10/64/5 11/65/5 2/66/5 23/67/5 25/68/5 26/69/5 27/70/5 28/71/5 29/72/5 30/73/5 31/74/5 32/75/5 33/76/5 24/55/5 34/56/5 36/77/5 37/78/5 38/79/5 39/80/5 40/81/5 41/82/5 42/83/5 43/84/5 44/85/5 35/51/5 12/52/5 14/86/5 15/87/5 16/88/5 17/89/5 18/90/5 19/91/5 20/92/5 21/93/5 22/94/5 13/3/5
f 23/95/6 46/67/6 55/68/6 25/68/6
f 25/68/7 55/68/7 54/69/7 26/69/7
f 26/69/8 54/69/8 53/96/8 27/70/8
f 27/70/9 53/96/9 52/97/9 28/71/9
f 28/71/10 52/97/10 51/72/10 29/72/10
f 29/72/11 51/72/11 50/98/11 30/73/11
f 30/73/12 50/98/12 49/99/12 31/74/12
f 31/74/13 49/99/13 48/100/13 32/75/13
f 32/75/14 48/100/14 47/101/14 33/76/14
f 33/76/15 47/101/15 45/55/15 24/54/15
f 78/51/16 35/50/16 44/85/16 80/85/16
f 80/85/17 44/85/17 43/84/17 81/84/17
f 81/84/18 43/84/18 42/83/18 82/83/18
f 82/83/19 42/83/19 41/82/19 83/102/19
f 83/102/20 41/82/20 40/81/20 84/81/20
f 84/81/21 40/81/21 39/80/21 85/80/21
f 85/80/22 39/80/22 38/79/22 86/103/22
f 86/103/23 38/79/23 37/78/23 87/78/23
f 87/78/24 37/78/24 36/77/24 88/104/24
f 88/104/25 36/77/25 34/53/25 79/56/25
f 12/49/26 68/52/26 77/105/26 14/86/26
f 14/86/27 77/105/27 76/106/27 15/87/27
f 15/87/28 76/106/28 75/107/28 16/88/28
f 16/88/29 75/107/29 74/108/29 17/89/29
f 17/89/30 74/108/30 73/109/30 18/90/30
f 18/90/31 73/109/31 72/91/31 19/91/31
f 19/91/32 72/91/32 71/110/32 20/92/32
f 20/92/33 71/110/33 70/111/33 21/93/33
f 21/93/34 70/111/34 69/112/34 22/94/34
f 22/94/35 69/112/35 67/3/35 13/2/35
f 56/66/36 2/113/36 11/65/36 58/114/36
f 58/114/37 11/65/37 10/64/37 59/115/37
f 59/115/38 10/64/38 9/63/38 60/116/38
f 60/116/39 9/63/39 8/62/39 61/117/39
f 61/117/40 8/62/40 7/61/40 62/118/40
f 62/118/41 7/61/41 6/60/41 63/119/41
f 63/119/42 6/60/42 5/59/42 64/120/42
f 64/120/43 5/59/43 4/58/43 65/121/43
f 65/121/44 4/58/44 3/57/44 66/122/44
f 66/122/45 3/57/45 1/1/45 57/4/45
f 23/95/46 2/113/46 56/66/46 46/67/46
