# Blender 4.2.9 LTS
# www.blender.org
mtllib 450-50.mtl
o Plane
v 0.266493 -0.000000 0.000000
v 0.325000 -0.000000 0.058507
v 0.275645 -0.000000 0.000720
v 0.284572 -0.000000 0.002864
v 0.293054 -0.000000 0.006377
v 0.300882 -0.000000 0.011174
v 0.307864 -0.000000 0.017136
v 0.313826 -0.000000 0.024118
v 0.318623 -0.000000 0.031946
v 0.322136 -0.000000 0.040428
v 0.324280 -0.000000 0.049355
v -0.325000 -0.000000 0.058507
v -0.266493 -0.000000 0.000000
v -0.324280 -0.000000 0.049355
v -0.322136 -0.000000 0.040428
v -0.318623 -0.000000 0.031946
v -0.313826 -0.000000 0.024118
v -0.307864 -0.000000 0.017136
v -0.300882 -0.000000 0.011174
v -0.293054 -0.000000 0.006377
v -0.284572 -0.000000 0.002864
v -0.275645 -0.000000 0.000720
v 0.325000 0.000000 1.441493
v 0.266493 0.000000 1.500000
v 0.324280 0.000000 1.450645
v 0.322136 0.000000 1.459572
v 0.318623 0.000000 1.468054
v 0.313826 0.000000 1.475882
v 0.307864 0.000000 1.482863
v 0.300882 0.000000 1.488826
v 0.293054 0.000000 1.493623
v 0.284572 0.000000 1.497136
v 0.275645 0.000000 1.499279
v -0.266493 0.000000 1.500000
v -0.325000 0.000000 1.441493
v -0.275645 0.000000 1.499279
v -0.284572 0.000000 1.497136
v -0.293054 0.000000 1.493623
v -0.300882 0.000000 1.488826
v -0.307864 0.000000 1.482863
v -0.313826 0.000000 1.475882
v -0.318623 0.000000 1.468054
v -0.322136 0.000000 1.459572
v -0.324280 0.000000 1.450645
v 0.266493 0.002000 1.500000
v 0.325000 0.002000 1.441493
v 0.275645 0.002000 1.499279
v 0.284572 0.002000 1.497136
v 0.293054 0.002000 1.493623
v 0.300882 0.002000 1.488826
v 0.307864 0.002000 1.482863
v 0.313826 0.002000 1.475882
v 0.318623 0.002000 1.468054
v 0.322136 0.002000 1.459572
v 0.324280 0.002000 1.450645
v 0.325000 0.002000 0.058507
v 0.266493 0.002000 -0.000000
v 0.324280 0.002000 0.049355
v 0.322136 0.002000 0.040428
v 0.318623 0.002000 0.031946
v 0.313826 0.002000 0.024118
v 0.307864 0.002000 0.017136
v 0.300882 0.002000 0.011174
v 0.293054 0.002000 0.006377
v 0.284572 0.002000 0.002864
v 0.275645 0.002000 0.000720
v -0.266493 0.002000 -0.000000
v -0.325000 0.002000 0.058507
v -0.275645 0.002000 0.000720
v -0.284572 0.002000 0.002864
v -0.293054 0.002000 0.006377
v -0.300882 0.002000 0.011174
v -0.307864 0.002000 0.017136
v -0.313826 0.002000 0.024118
v -0.318623 0.002000 0.031946
v -0.322136 0.002000 0.040428
v -0.324280 0.002000 0.049355
v -0.325000 0.002000 1.441493
v -0.266493 0.002000 1.500000
v -0.324280 0.002000 1.450645
v -0.322136 0.002000 1.459572
v -0.318623 0.002000 1.468054
v -0.313826 0.002000 1.475882
v -0.307864 0.002000 1.482863
v -0.300882 0.002000 1.488826
v -0.293054 0.002000 1.493623
v -0.284572 0.002000 1.497136
v -0.275645 0.002000 1.499279
vn -0.0000 -0.0000 -1.0000
vn -0.0000 1.0000 -0.0000
vn -1.0000 -0.0000 -0.0000
vn -0.0000 -0.0000 1.0000
vn -0.0000 -1.0000 -0.0000
vn 0.9969 -0.0000 0.0785
vn 0.9724 -0.0000 0.2334
vn 0.9239 -0.0000 0.3827
vn 0.8526 -0.0000 0.5225
vn 0.7604 -0.0000 0.6495
vn 0.6495 -0.0000 0.7604
vn 0.5225 -0.0000 0.8526
vn 0.3827 -0.0000 0.9239
vn 0.2334 -0.0000 0.9724
vn 0.0785 -0.0000 0.9969
vn -0.9969 -0.0000 0.0785
vn -0.9724 -0.0000 0.2334
vn -0.9239 -0.0000 0.3827
vn -0.8526 -0.0000 0.5225
vn -0.7604 -0.0000 0.6495
vn -0.6495 -0.0000 0.7604
vn -0.5225 -0.0000 0.8526
vn -0.3827 -0.0000 0.9239
vn -0.2334 -0.0000 0.9724
vn -0.0785 -0.0000 0.9969
vn -0.9969 -0.0000 -0.0785
vn -0.9724 -0.0000 -0.2334
vn -0.9239 -0.0000 -0.3827
vn -0.8526 -0.0000 -0.5225
vn -0.7604 -0.0000 -0.6494
vn -0.6494 -0.0000 -0.7604
vn -0.5225 -0.0000 -0.8526
vn -0.3827 -0.0000 -0.9239
vn -0.2334 -0.0000 -0.9724
vn -0.0785 -0.0000 -0.9969
vn 0.9969 -0.0000 -0.0785
vn 0.9724 -0.0000 -0.2334
vn 0.9239 -0.0000 -0.3827
vn 0.8526 -0.0000 -0.5225
vn 0.7604 -0.0000 -0.6494
vn 0.6494 -0.0000 -0.7604
vn 0.5225 -0.0000 -0.8526
vn 0.3827 -0.0000 -0.9239
vn 0.2334 -0.0000 -0.9724
vn 0.0785 -0.0000 -0.9969
vn 1.0000 -0.0000 -0.0000
vt 0.090011 0.000000
vt 0.909989 0.000000
vt 0.909989 0.000000
vt 0.090011 0.000000
vt 0.002565 0.040168
vt 0.003667 0.034082
vt 0.006947 0.028146
vt 0.012325 0.022505
vt 0.019667 0.017300
vt 0.028793 0.012657
vt 0.039478 0.008692
vt 0.051460 0.005502
vt 0.064442 0.003166
vt 0.078105 0.001741
vt 0.092114 0.001262
vt 0.907886 0.001262
vt 0.921894 0.001741
vt 0.935558 0.003166
vt 0.948540 0.005502
vt 0.960522 0.008692
vt 0.971207 0.012657
vt 0.980333 0.017300
vt 0.987675 0.022505
vt 0.993052 0.028146
vt 0.996333 0.034082
vt 0.997435 0.040168
vt 0.997435 0.959832
vt 0.996333 0.965918
vt 0.993052 0.971854
vt 0.987675 0.977495
vt 0.980333 0.982700
vt 0.971207 0.987342
vt 0.960522 0.991308
vt 0.948540 0.994497
vt 0.935558 0.996834
vt 0.921894 0.998259
vt 0.907886 0.998738
vt 0.092114 0.998738
vt 0.078105 0.998259
vt 0.064442 0.996834
vt 0.051460 0.994497
vt 0.039478 0.991308
vt 0.028793 0.987342
vt 0.019667 0.982700
vt 0.012325 0.977495
vt 0.006947 0.971854
vt 0.003667 0.965918
vt 0.002565 0.959832
vt 1.000000 0.039005
vt 1.000000 0.960995
vt 1.000000 0.039005
vt 0.909989 1.000000
vt 0.090011 1.000000
vt 0.090011 1.000000
vt 0.909989 1.000000
vt 0.075930 0.000160
vt 0.062196 0.000636
vt 0.049147 0.001417
vt 0.037104 0.002483
vt 0.008788 0.003808
vt 0.005730 0.016078
vt 0.003270 0.021297
vt 0.001468 0.026952
vt 0.000369 0.032903
vt 0.000000 0.039005
vt 0.000000 0.960995
vt 0.000369 0.967097
vt 0.001468 0.973048
vt 0.003270 0.978703
vt 0.005730 0.983922
vt 0.008788 0.996192
vt 0.037104 0.997517
vt 0.049147 0.998583
vt 0.062196 0.999364
vt 0.075930 0.999840
vt 0.924070 0.999840
vt 0.937804 0.999364
vt 0.950853 0.998583
vt 0.962896 0.997517
vt 0.991212 0.996192
vt 0.994270 0.983922
vt 0.996730 0.978703
vt 0.998532 0.973048
vt 0.999631 0.967097
vt 0.999631 0.032903
vt 0.998532 0.026952
vt 0.996730 0.021297
vt 0.994270 0.016078
vt 0.991212 0.003808
vt 0.962896 0.002483
vt 0.950853 0.001417
vt 0.937804 0.000636
vt 0.924070 0.000160
vt 0.003270 0.978703
vt 0.037104 0.997517
vt 0.049147 0.998583
vt 0.062196 0.999364
vt 0.075930 0.999840
vt 0.999631 0.032903
vt 0.998532 0.026952
vt 0.994270 0.016078
vt 0.950853 0.001417
vt 0.937804 0.000636
vt 0.924070 0.000160
vt 0.000000 0.039005
vt 0.000369 0.032903
vt 0.001468 0.026952
vt 0.003270 0.021297
vt 0.005730 0.016078
vt 0.037104 0.002483
vt 0.049147 0.001417
vt 0.062196 0.000636
vt 0.075930 0.000160
s 0
usemtl Material
f 56/5/2 58/6/2 59/7/2 60/8/2 61/9/2 62/10/2 63/11/2 64/12/2 65/13/2 66/14/2 57/15/2 67/16/2 69/17/2 70/18/2 71/19/2 72/20/2 73/21/2 74/22/2 75/23/2 76/24/2 77/25/2 68/26/2 78/27/2 80/28/2 81/29/2 82/30/2 83/31/2 84/32/2 85/33/2 86/34/2 87/35/2 88/36/2 79/37/2 45/38/2 47/39/2 48/40/2 49/41/2 50/42/2 51/43/2 52/44/2 53/45/2 54/46/2 55/47/2 46/48/2
usemtl Material.001
f 1/1/1 13/2/1 67/3/1 57/4/1
f 12/49/3 35/50/3 78/50/3 68/51/3
f 34/52/4 24/53/4 45/54/4 79/55/4
f 1/4/5 3/56/5 4/57/5 5/58/5 6/59/5 7/60/5 8/61/5 9/62/5 10/63/5 11/64/5 2/65/5 23/66/5 25/67/5 26/68/5 27/69/5 28/70/5 29/71/5 30/72/5 31/73/5 32/74/5 33/75/5 24/54/5 34/55/5 36/76/5 37/77/5 38/78/5 39/79/5 40/80/5 41/81/5 42/82/5 43/83/5 44/84/5 35/50/5 12/51/5 14/85/5 15/86/5 16/87/5 17/88/5 18/89/5 19/90/5 20/91/5 21/92/5 22/93/5 13/3/5
f 23/66/6 46/66/6 55/67/6 25/67/6
f 25/67/7 55/67/7 54/68/7 26/68/7
f 26/68/8 54/68/8 53/94/8 27/69/8
f 27/69/9 53/94/9 52/70/9 28/70/9
f 28/70/10 52/70/10 51/71/10 29/71/10
f 29/71/11 51/71/11 50/95/11 30/72/11
f 30/72/12 50/95/12 49/96/12 31/73/12
f 31/73/13 49/96/13 48/97/13 32/74/13
f 32/74/14 48/97/14 47/98/14 33/75/14
f 33/75/15 47/98/15 45/54/15 24/53/15
f 78/50/16 35/50/16 44/84/16 80/84/16
f 80/84/17 44/84/17 43/83/17 81/83/17
f 81/83/18 43/83/18 42/82/18 82/82/18
f 82/82/19 42/82/19 41/81/19 83/81/19
f 83/81/20 41/81/20 40/80/20 84/80/20
f 84/80/21 40/80/21 39/79/21 85/79/21
f 85/79/22 39/79/22 38/78/22 86/78/22
f 86/78/23 38/78/23 37/77/23 87/77/23
f 87/77/24 37/77/24 36/76/24 88/76/24
f 88/76/25 36/76/25 34/52/25 79/55/25
f 12/49/26 68/51/26 77/99/26 14/85/26
f 14/85/27 77/99/27 76/100/27 15/86/27
f 15/86/28 76/100/28 75/87/28 16/87/28
f 16/87/29 75/87/29 74/101/29 17/88/29
f 17/88/30 74/101/30 73/89/30 18/89/30
f 18/89/31 73/89/31 72/90/31 19/90/31
f 19/90/32 72/90/32 71/102/32 20/91/32
f 20/91/33 71/102/33 70/103/33 21/92/33
f 21/92/34 70/103/34 69/104/34 22/93/34
f 22/93/35 69/104/35 67/3/35 13/2/35
f 56/65/36 2/105/36 11/64/36 58/106/36
f 58/106/37 11/64/37 10/63/37 59/107/37
f 59/107/38 10/63/38 9/62/38 60/108/38
f 60/108/39 9/62/39 8/61/39 61/109/39
f 61/109/40 8/61/40 7/60/40 62/60/40
f 62/60/41 7/60/41 6/59/41 63/110/41
f 63/110/42 6/59/42 5/58/42 64/111/42
f 64/111/43 5/58/43 4/57/43 65/112/43
f 65/112/44 4/57/44 3/56/44 66/113/44
f 66/113/45 3/56/45 1/1/45 57/4/45
f 23/66/46 2/105/46 56/65/46 46/66/46
