# Blender 4.2.9 LTS
# www.blender.org
mtllib 511-11.mtl
o Plane
v 0.571023 -0.000000 0.000000
v 0.625000 -0.000000 0.069091
v 0.579467 -0.000000 0.000851
v 0.587703 -0.000000 0.003382
v 0.595528 -0.000000 0.007530
v 0.602750 -0.000000 0.013195
v 0.609190 -0.000000 0.020236
v 0.614691 -0.000000 0.028480
v 0.619117 -0.000000 0.037724
v 0.622358 -0.000000 0.047741
v 0.624335 -0.000000 0.058283
v -0.625000 -0.000000 0.069091
v -0.571023 -0.000000 0.000000
v -0.624335 -0.000000 0.058283
v -0.622358 -0.000000 0.047741
v -0.619117 -0.000000 0.037724
v -0.614691 -0.000000 0.028480
v -0.609190 -0.000000 0.020236
v -0.602750 -0.000000 0.013195
v -0.595528 -0.000000 0.007530
v -0.587703 -0.000000 0.003382
v -0.579467 -0.000000 0.000851
v 0.625000 0.000000 1.530909
v 0.571023 0.000000 1.600000
v 0.624335 0.000000 1.541717
v 0.622358 0.000000 1.552259
v 0.619117 0.000000 1.562276
v 0.614691 0.000000 1.571520
v 0.609190 0.000000 1.579764
v 0.602750 0.000000 1.586805
v 0.595528 0.000000 1.592470
v 0.587703 0.000000 1.596619
v 0.579467 0.000000 1.599149
v -0.571023 0.000000 1.600000
v -0.625000 0.000000 1.530909
v -0.579467 0.000000 1.599149
v -0.587703 0.000000 1.596619
v -0.595528 0.000000 1.592470
v -0.602750 0.000000 1.586805
v -0.609190 0.000000 1.579764
v -0.614691 0.000000 1.571520
v -0.619117 0.000000 1.562276
v -0.622358 0.000000 1.552259
v -0.624335 0.000000 1.541717
v 0.571023 0.002000 1.600000
v 0.625000 0.002000 1.530909
v 0.579467 0.002000 1.599149
v 0.587703 0.002000 1.596619
v 0.595528 0.002000 1.592470
v 0.602750 0.002000 1.586805
v 0.609190 0.002000 1.579764
v 0.614691 0.002000 1.571520
v 0.619117 0.002000 1.562276
v 0.622358 0.002000 1.552259
v 0.624335 0.002000 1.541717
v 0.625000 0.002000 0.069091
v 0.571023 0.002000 -0.000000
v 0.624335 0.002000 0.058283
v 0.622358 0.002000 0.047741
v 0.619117 0.002000 0.037724
v 0.614691 0.002000 0.028480
v 0.609190 0.002000 0.020236
v 0.602750 0.002000 0.013195
v 0.595528 0.002000 0.007530
v 0.587703 0.002000 0.003382
v 0.579467 0.002000 0.000851
v -0.571023 0.002000 -0.000000
v -0.625000 0.002000 0.069091
v -0.579467 0.002000 0.000851
v -0.587703 0.002000 0.003382
v -0.595528 0.002000 0.007530
v -0.602750 0.002000 0.013195
v -0.609190 0.002000 0.020236
v -0.614691 0.002000 0.028480
v -0.619117 0.002000 0.037724
v -0.622358 0.002000 0.047741
v -0.624335 0.002000 0.058283
v -0.625000 0.002000 1.530909
v -0.571023 0.002000 1.600000
v -0.624335 0.002000 1.541717
v -0.622358 0.002000 1.552259
v -0.619117 0.002000 1.562276
v -0.614691 0.002000 1.571520
v -0.609190 0.002000 1.579764
v -0.602750 0.002000 1.586805
v -0.595528 0.002000 1.592470
v -0.587703 0.002000 1.596619
v -0.579467 0.002000 1.599149
vn -0.0000 -0.0000 -1.0000
vn -0.0000 1.0000 -0.0000
vn -1.0000 -0.0000 -0.0000
vn -0.0000 -0.0000 1.0000
vn -0.0000 -1.0000 -0.0000
vn 0.9981 -0.0000 0.0614
vn 0.9829 -0.0000 0.1843
vn 0.9514 -0.0000 0.3079
vn 0.9020 -0.0000 0.4318
vn 0.8318 -0.0000 0.5550
vn 0.7379 -0.0000 0.6749
vn 0.6172 -0.0000 0.7868
vn 0.4684 -0.0000 0.8835
vn 0.2937 -0.0000 0.9559
vn 0.1002 -0.0000 0.9950
vn -0.9981 -0.0000 0.0614
vn -0.9829 -0.0000 0.1843
vn -0.9514 -0.0000 0.3079
vn -0.9020 -0.0000 0.4318
vn -0.8318 -0.0000 0.5550
vn -0.7379 -0.0000 0.6749
vn -0.6172 -0.0000 0.7868
vn -0.4684 -0.0000 0.8835
vn -0.2937 -0.0000 0.9559
vn -0.1002 -0.0000 0.9950
vn -0.9981 -0.0000 -0.0614
vn -0.9829 -0.0000 -0.1843
vn -0.9514 -0.0000 -0.3079
vn -0.9020 -0.0000 -0.4318
vn -0.8318 -0.0000 -0.5550
vn -0.7379 -0.0000 -0.6749
vn -0.6172 -0.0000 -0.7868
vn -0.4684 -0.0000 -0.8835
vn -0.2937 -0.0000 -0.9559
vn -0.1002 -0.0000 -0.9950
vn 0.9981 -0.0000 -0.0614
vn 0.9829 -0.0000 -0.1843
vn 0.9514 -0.0000 -0.3079
vn 0.9020 -0.0000 -0.4318
vn 0.8318 -0.0000 -0.5550
vn 0.7379 -0.0000 -0.6749
vn 0.6172 -0.0000 -0.7868
vn 0.4684 -0.0000 -0.8835
vn 0.2937 -0.0000 -0.9559
vn 0.1002 -0.0000 -0.9950
vn 1.0000 -0.0000 -0.0000
vt 0.043182 0.000000
vt 0.956818 0.000000
vt 0.001999 0.045008
vt 0.002528 0.038280
vt 0.004104 0.031718
vt 0.006687 0.025482
vt 0.010213 0.019728
vt 0.014596 0.014596
vt 0.019728 0.010213
vt 0.025482 0.006687
vt 0.031717 0.004104
vt 0.038280 0.002528
vt 0.045008 0.001999
vt 0.954992 0.001999
vt 0.961720 0.002528
vt 0.968283 0.004104
vt 0.974518 0.006687
vt 0.980272 0.010213
vt 0.985404 0.014596
vt 0.989787 0.019728
vt 0.993313 0.025482
vt 0.995896 0.031718
vt 0.997472 0.038280
vt 0.998001 0.045008
vt 0.998001 0.954992
vt 0.997472 0.961720
vt 0.995896 0.968283
vt 0.993313 0.974518
vt 0.989787 0.980272
vt 0.985404 0.985404
vt 0.980272 0.989787
vt 0.974518 0.993313
vt 0.968283 0.995896
vt 0.961720 0.997472
vt 0.954992 0.998001
vt 0.045008 0.998001
vt 0.038280 0.997472
vt 0.031717 0.995896
vt 0.025482 0.993313
vt 0.019728 0.989787
vt 0.014596 0.985404
vt 0.010213 0.980272
vt 0.006687 0.974518
vt 0.004104 0.968283
vt 0.002528 0.961720
vt 0.001999 0.954992
vt 1.000000 0.043182
vt 1.000000 0.956818
vt 1.000000 0.043182
vt 0.956818 1.000000
vt 0.043182 1.000000
vt 0.036427 0.000177
vt 0.029838 0.000704
vt 0.023578 0.001569
vt 0.017800 0.002749
vt 0.004216 0.004216
vt 0.002749 0.017800
vt 0.001569 0.023578
vt 0.000704 0.029838
vt 0.000177 0.036427
vt 0.000000 0.043182
vt 0.000000 0.956818
vt 0.000177 0.963573
vt 0.000704 0.970162
vt 0.001569 0.976422
vt 0.002749 0.982200
vt 0.004216 0.995784
vt 0.017800 0.997251
vt 0.023578 0.998431
vt 0.029838 0.999296
vt 0.036427 0.999823
vt 0.963573 0.999823
vt 0.970162 0.999296
vt 0.976422 0.998431
vt 0.982200 0.997251
vt 0.995784 0.995784
vt 0.997251 0.982200
vt 0.998431 0.976422
vt 0.999295 0.970162
vt 0.999823 0.963573
vt 0.999823 0.036427
vt 0.999296 0.029838
vt 0.998431 0.023578
vt 0.997251 0.017800
vt 0.995784 0.004216
vt 0.982200 0.002749
vt 0.976422 0.001569
vt 0.970162 0.000704
vt 0.963573 0.000177
vt 0.000704 0.970162
vt 0.001569 0.976422
vt 0.023578 0.998431
vt 0.029838 0.999296
vt 0.999295 0.970162
vt 0.998431 0.976422
vt 0.999823 0.036427
vt 0.999296 0.029838
vt 0.998431 0.023578
vt 0.997251 0.017800
vt 0.970162 0.000704
vt 0.963573 0.000177
vt 0.000000 0.043182
vt 0.000177 0.036427
vt 0.000704 0.029838
vt 0.001569 0.023578
vt 0.002749 0.017800
vt 0.004216 0.004216
vt 0.023578 0.001569
vt 0.029838 0.000704
vt 0.036427 0.000177
s 1
usemtl Material
f 56/3/2 58/4/2 59/5/2 60/6/2 61/7/2 62/8/2 63/9/2 64/10/2 65/11/2 66/12/2 57/13/2 67/14/2 69/15/2 70/16/2 71/17/2 72/18/2 73/19/2 74/20/2 75/21/2 76/22/2 77/23/2 68/24/2 78/25/2 80/26/2 81/27/2 82/28/2 83/29/2 84/30/2 85/31/2 86/32/2 87/33/2 88/34/2 79/35/2 45/36/2 47/37/2 48/38/2 49/39/2 50/40/2 51/41/2 52/42/2 53/43/2 54/44/2 55/45/2 46/46/2
usemtl Material.001
f 1/1/1 13/2/1 67/2/1 57/1/1
f 12/47/3 35/48/3 78/48/3 68/49/3
f 34/50/4 24/51/4 45/51/4 79/50/4
f 1/1/5 3/52/5 4/53/5 5/54/5 6/55/5 7/56/5 8/57/5 9/58/5 10/59/5 11/60/5 2/61/5 23/62/5 25/63/5 26/64/5 27/65/5 28/66/5 29/67/5 30/68/5 31/69/5 32/70/5 33/71/5 24/51/5 34/50/5 36/72/5 37/73/5 38/74/5 39/75/5 40/76/5 41/77/5 42/78/5 43/79/5 44/80/5 35/48/5 12/49/5 14/81/5 15/82/5 16/83/5 17/84/5 18/85/5 19/86/5 20/87/5 21/88/5 22/89/5 13/2/5
f 23/62/6 46/62/6 55/63/6 25/63/6
f 25/63/7 55/63/7 54/90/7 26/64/7
f 26/64/8 54/90/8 53/91/8 27/65/8
f 27/65/9 53/91/9 52/66/9 28/66/9
f 28/66/10 52/66/10 51/67/10 29/67/10
f 29/67/11 51/67/11 50/68/11 30/68/11
f 30/68/12 50/68/12 49/92/12 31/69/12
f 31/69/13 49/92/13 48/93/13 32/70/13
f 32/70/14 48/93/14 47/71/14 33/71/14
f 33/71/15 47/71/15 45/51/15 24/51/15
f 78/48/16 35/48/16 44/80/16 80/80/16
f 80/80/17 44/80/17 43/79/17 81/94/17
f 81/94/18 43/79/18 42/78/18 82/95/18
f 82/95/19 42/78/19 41/77/19 83/77/19
f 83/77/20 41/77/20 40/76/20 84/76/20
f 84/76/21 40/76/21 39/75/21 85/75/21
f 85/75/22 39/75/22 38/74/22 86/74/22
f 86/74/23 38/74/23 37/73/23 87/73/23
f 87/73/24 37/73/24 36/72/24 88/72/24
f 88/72/25 36/72/25 34/50/25 79/50/25
f 12/47/26 68/49/26 77/96/26 14/81/26
f 14/81/27 77/96/27 76/97/27 15/82/27
f 15/82/28 76/97/28 75/98/28 16/83/28
f 16/83/29 75/98/29 74/99/29 17/84/29
f 17/84/30 74/99/30 73/85/30 18/85/30
f 18/85/31 73/85/31 72/86/31 19/86/31
f 19/86/32 72/86/32 71/87/32 20/87/32
f 20/87/33 71/87/33 70/100/33 21/88/33
f 21/88/34 70/100/34 69/101/34 22/89/34
f 22/89/35 69/101/35 67/2/35 13/2/35
f 56/61/36 2/102/36 11/60/36 58/103/36
f 58/103/37 11/60/37 10/59/37 59/104/37
f 59/104/38 10/59/38 9/58/38 60/105/38
f 60/105/39 9/58/39 8/57/39 61/106/39
f 61/106/40 8/57/40 7/56/40 62/107/40
f 62/107/41 7/56/41 6/55/41 63/55/41
f 63/55/42 6/55/42 5/54/42 64/108/42
f 64/108/43 5/54/43 4/53/43 65/109/43
f 65/109/44 4/53/44 3/52/44 66/110/44
f 66/110/45 3/52/45 1/1/45 57/1/45
f 23/62/46 2/102/46 56/61/46 46/62/46
