# Blender 4.2.9 LTS
# www.blender.org
mtllib 605-21.mtl
o Plane
v 0.086356 -0.000000 0.000000
v 0.125000 -0.000000 0.038644
v 0.092401 -0.000000 0.000476
v 0.098297 -0.000000 0.001891
v 0.103900 -0.000000 0.004212
v 0.109070 -0.000000 0.007380
v 0.113681 -0.000000 0.011319
v 0.117620 -0.000000 0.015930
v 0.120788 -0.000000 0.021100
v 0.123109 -0.000000 0.026703
v 0.124524 -0.000000 0.032599
v -0.125000 -0.000000 0.038644
v -0.086356 -0.000000 0.000000
v -0.124524 -0.000000 0.032599
v -0.123109 -0.000000 0.026703
v -0.120788 -0.000000 0.021100
v -0.117620 -0.000000 0.015930
v -0.113681 -0.000000 0.011319
v -0.109070 -0.000000 0.007380
v -0.103900 -0.000000 0.004212
v -0.098297 -0.000000 0.001891
v -0.092401 -0.000000 0.000476
v 0.125000 0.000000 0.961356
v 0.086356 0.000000 1.000000
v 0.124524 0.000000 0.967401
v 0.123109 0.000000 0.973297
v 0.120788 0.000000 0.978900
v 0.117620 0.000000 0.984070
v 0.113681 0.000000 0.988681
v 0.109070 0.000000 0.992620
v 0.103900 0.000000 0.995788
v 0.098297 0.000000 0.998109
v 0.092401 0.000000 0.999524
v -0.086356 0.000000 1.000000
v -0.125000 0.000000 0.961356
v -0.092401 0.000000 0.999524
v -0.098297 0.000000 0.998109
v -0.103900 0.000000 0.995788
v -0.109070 0.000000 0.992620
v -0.113681 0.000000 0.988681
v -0.117620 0.000000 0.984070
v -0.120788 0.000000 0.978900
v -0.123109 0.000000 0.973297
v -0.124524 0.000000 0.967401
v 0.086356 0.002000 1.000000
v 0.125000 0.002000 0.961356
v 0.092401 0.002000 0.999524
v 0.098297 0.002000 0.998109
v 0.103900 0.002000 0.995788
v 0.109070 0.002000 0.992620
v 0.113681 0.002000 0.988681
v 0.117620 0.002000 0.984070
v 0.120788 0.002000 0.978900
v 0.123109 0.002000 0.973297
v 0.124524 0.002000 0.967401
v 0.125000 0.002000 0.038644
v 0.086356 0.002000 -0.000000
v 0.124524 0.002000 0.032599
v 0.123109 0.002000 0.026703
v 0.120788 0.002000 0.021100
v 0.117620 0.002000 0.015930
v 0.113681 0.002000 0.011319
v 0.109070 0.002000 0.007380
v 0.103900 0.002000 0.004212
v 0.098297 0.002000 0.001891
v 0.092401 0.002000 0.000476
v -0.086356 0.002000 -0.000000
v -0.125000 0.002000 0.038644
v -0.092401 0.002000 0.000476
v -0.098297 0.002000 0.001891
v -0.103900 0.002000 0.004212
v -0.109070 0.002000 0.007380
v -0.113681 0.002000 0.011319
v -0.117620 0.002000 0.015930
v -0.120788 0.002000 0.021100
v -0.123109 0.002000 0.026703
v -0.124524 0.002000 0.032599
v -0.125000 0.002000 0.961356
v -0.086356 0.002000 1.000000
v -0.124524 0.002000 0.967401
v -0.123109 0.002000 0.973297
v -0.120788 0.002000 0.978900
v -0.117620 0.002000 0.984070
v -0.113681 0.002000 0.988681
v -0.109070 0.002000 0.992620
v -0.103900 0.002000 0.995788
v -0.098297 0.002000 0.998109
v -0.092401 0.002000 0.999524
vn -0.0000 -0.0000 -1.0000
vn -0.0000 -1.0000 -0.0000
vn -0.0000 1.0000 -0.0000
vn -1.0000 -0.0000 -0.0000
vn -0.0000 -0.0000 1.0000
vn 0.0785 -0.0000 -0.9969
vn 0.2334 -0.0000 -0.9724
vn 0.3827 -0.0000 -0.9239
vn 0.5225 -0.0000 -0.8526
vn 0.6494 -0.0000 -0.7604
vn 0.7604 -0.0000 -0.6494
vn 0.8526 -0.0000 -0.5225
vn 0.9239 -0.0000 -0.3827
vn 0.9724 -0.0000 -0.2334
vn 0.9969 -0.0000 -0.0785
vn 0.0785 -0.0000 0.9969
vn 0.2334 -0.0000 0.9724
vn 0.3827 -0.0000 0.9239
vn 0.5225 -0.0000 0.8526
vn 0.6494 -0.0000 0.7604
vn 0.7604 -0.0000 0.6494
vn 0.8526 -0.0000 0.5225
vn 0.9239 -0.0000 0.3827
vn 0.9724 -0.0000 0.2334
vn 0.9969 -0.0000 0.0785
vn -0.9969 -0.0000 0.0785
vn -0.9724 -0.0000 0.2334
vn -0.9239 -0.0000 0.3827
vn -0.8526 -0.0000 0.5225
vn -0.7604 -0.0000 0.6494
vn -0.6494 -0.0000 0.7604
vn -0.5225 -0.0000 0.8526
vn -0.3827 -0.0000 0.9239
vn -0.2334 -0.0000 0.9724
vn -0.0785 -0.0000 0.9969
vn -0.9969 -0.0000 -0.0785
vn -0.9724 -0.0000 -0.2334
vn -0.9239 -0.0000 -0.3827
vn -0.8526 -0.0000 -0.5225
vn -0.7604 -0.0000 -0.6494
vn -0.6494 -0.0000 -0.7604
vn -0.5225 -0.0000 -0.8526
vn -0.3827 -0.0000 -0.9239
vn -0.2334 -0.0000 -0.9724
vn -0.0785 -0.0000 -0.9969
vn 1.0000 -0.0000 -0.0000
vt 0.154578 0.000000
vt 0.845422 0.000000
vt 0.154578 0.000000
vt 0.130396 0.000159
vt 0.106811 0.000630
vt 0.084401 0.001404
vt 0.063719 0.002460
vt 0.015092 0.003773
vt 0.009841 0.015930
vt 0.005616 0.021100
vt 0.002522 0.026703
vt 0.000634 0.032599
vt 0.000000 0.038644
vt 0.000000 0.961356
vt 0.000634 0.967401
vt 0.002522 0.973297
vt 0.005616 0.978900
vt 0.009841 0.984070
vt 0.015092 0.996227
vt 0.063719 0.997540
vt 0.084401 0.998596
vt 0.106811 0.999370
vt 0.130396 0.999841
vt 0.154578 1.000000
vt 0.845422 1.000000
vt 0.869604 0.999841
vt 0.893189 0.999370
vt 0.915599 0.998596
vt 0.936281 0.997540
vt 0.984908 0.996227
vt 0.990159 0.984070
vt 0.994384 0.978900
vt 0.997478 0.973297
vt 0.999366 0.967401
vt 1.000000 0.961356
vt 1.000000 0.038644
vt 0.999366 0.032599
vt 0.997478 0.026703
vt 0.994384 0.021100
vt 0.990159 0.015930
vt 0.984908 0.003773
vt 0.936281 0.002460
vt 0.915599 0.001404
vt 0.893189 0.000630
vt 0.869604 0.000159
vt 0.001596 0.040117
vt 0.003493 0.034091
vt 0.009137 0.028213
vt 0.018390 0.022629
vt 0.031023 0.017475
vt 0.046726 0.012878
vt 0.065111 0.008953
vt 0.085727 0.005794
vt 0.108065 0.003481
vt 0.131576 0.002070
vt 0.155680 0.001596
vt 0.844320 0.001596
vt 0.868424 0.002070
vt 0.891935 0.003481
vt 0.914273 0.005794
vt 0.934888 0.008953
vt 0.953274 0.012878
vt 0.968977 0.017475
vt 0.981610 0.022629
vt 0.990863 0.028213
vt 0.996507 0.034091
vt 0.998404 0.040117
vt 0.998404 0.959884
vt 0.996507 0.965910
vt 0.990863 0.971787
vt 0.981610 0.977372
vt 0.968977 0.982525
vt 0.953274 0.987122
vt 0.934888 0.991048
vt 0.914273 0.994206
vt 0.891935 0.996519
vt 0.868424 0.997931
vt 0.844320 0.998404
vt 0.155680 0.998404
vt 0.131576 0.997931
vt 0.108065 0.996519
vt 0.085727 0.994206
vt 0.065111 0.991048
vt 0.046726 0.987122
vt 0.031023 0.982525
vt 0.018390 0.977372
vt 0.009137 0.971787
vt 0.003493 0.965910
vt 0.001596 0.959884
vt 1.000000 0.038644
vt 0.154578 1.000000
vt 0.130396 0.000159
vt 0.106811 0.000630
vt 0.084401 0.001404
vt 0.063719 0.002460
vt 0.015092 0.003773
vt 0.009841 0.015930
vt 0.002522 0.026703
vt 0.000634 0.032599
vt 0.000000 0.038644
vt 0.130396 0.999841
vt 0.106811 0.999370
vt 0.084401 0.998596
vt 0.063719 0.997540
vt 0.015092 0.996227
vt 0.002522 0.973297
vt 0.999366 0.032599
vt 0.990159 0.015930
vt 0.984908 0.003773
vt 0.936281 0.002460
vt 0.915599 0.001404
vt 0.893189 0.000630
vt 0.869604 0.000159
s 0
usemtl Material
f 56/46/3 58/47/3 59/48/3 60/49/3 61/50/3 62/51/3 63/52/3 64/53/3 65/54/3 66/55/3 57/56/3 67/57/3 69/58/3 70/59/3 71/60/3 72/61/3 73/62/3 74/63/3 75/64/3 76/65/3 77/66/3 68/67/3 78/68/3 80/69/3 81/70/3 82/71/3 83/72/3 84/73/3 85/74/3 86/75/3 87/76/3 88/77/3 79/78/3 45/79/3 47/80/3 48/81/3 49/82/3 50/83/3 51/84/3 52/85/3 53/86/3 54/87/3 55/88/3 46/89/3
usemtl Material.001
f 1/1/1 13/2/1 67/2/1 57/3/1
f 1/3/2 3/4/2 4/5/2 5/6/2 6/7/2 7/8/2 8/9/2 9/10/2 10/11/2 11/12/2 2/13/2 23/14/2 25/15/2 26/16/2 27/17/2 28/18/2 29/19/2 30/20/2 31/21/2 32/22/2 33/23/2 24/24/2 34/25/2 36/26/2 37/27/2 38/28/2 39/29/2 40/30/2 41/31/2 42/32/2 43/33/2 44/34/2 35/35/2 12/36/2 14/37/2 15/38/2 16/39/2 17/40/2 18/41/2 19/42/2 20/43/2 21/44/2 22/45/2 13/2/2
f 12/90/4 35/35/4 78/35/4 68/36/4
f 34/25/5 24/91/5 45/24/5 79/25/5
f 1/1/6 57/3/6 66/92/6 3/4/6
f 3/4/7 66/92/7 65/93/7 4/5/7
f 4/5/8 65/93/8 64/94/8 5/6/8
f 5/6/9 64/94/9 63/95/9 6/7/9
f 6/7/10 63/95/10 62/96/10 7/8/10
f 7/8/11 62/96/11 61/97/11 8/9/11
f 8/9/12 61/97/12 60/10/12 9/10/12
f 9/10/13 60/10/13 59/98/13 10/11/13
f 10/11/14 59/98/14 58/99/14 11/12/14
f 11/12/15 58/99/15 56/13/15 2/100/15
f 45/24/16 24/91/16 33/23/16 47/101/16
f 47/101/17 33/23/17 32/22/17 48/102/17
f 48/102/18 32/22/18 31/21/18 49/103/18
f 49/103/19 31/21/19 30/20/19 50/104/19
f 50/104/20 30/20/20 29/19/20 51/105/20
f 51/105/21 29/19/21 28/18/21 52/18/21
f 52/18/22 28/18/22 27/17/22 53/17/22
f 53/17/23 27/17/23 26/16/23 54/106/23
f 54/106/24 26/16/24 25/15/24 55/15/24
f 55/15/25 25/15/25 23/14/25 46/14/25
f 78/35/26 35/35/26 44/34/26 80/34/26
f 80/34/27 44/34/27 43/33/27 81/33/27
f 81/33/28 43/33/28 42/32/28 82/32/28
f 82/32/29 42/32/29 41/31/29 83/31/29
f 83/31/30 41/31/30 40/30/30 84/30/30
f 84/30/31 40/30/31 39/29/31 85/29/31
f 85/29/32 39/29/32 38/28/32 86/28/32
f 86/28/33 38/28/33 37/27/33 87/27/33
f 87/27/34 37/27/34 36/26/34 88/26/34
f 88/26/35 36/26/35 34/25/35 79/25/35
f 12/90/36 68/36/36 77/107/36 14/37/36
f 14/37/37 77/107/37 76/38/37 15/38/37
f 15/38/38 76/38/38 75/39/38 16/39/38
f 16/39/39 75/39/39 74/108/39 17/40/39
f 17/40/40 74/108/40 73/109/40 18/41/40
f 18/41/41 73/109/41 72/110/41 19/42/41
f 19/42/42 72/110/42 71/111/42 20/43/42
f 20/43/43 71/111/43 70/112/43 21/44/43
f 21/44/44 70/112/44 69/113/44 22/45/44
f 22/45/45 69/113/45 67/2/45 13/2/45
f 23/14/46 2/100/46 56/13/46 46/14/46
