# Blender 4.2.9 LTS
# www.blender.org
mtllib 605-12.mtl
o Plane
v 0.084285 -0.000000 0.000000
v 0.125000 -0.000000 0.040715
v 0.090654 -0.000000 0.000501
v 0.096867 -0.000000 0.001993
v 0.102769 -0.000000 0.004438
v 0.108217 -0.000000 0.007776
v 0.113075 -0.000000 0.011925
v 0.117224 -0.000000 0.016783
v 0.120562 -0.000000 0.022231
v 0.123007 -0.000000 0.028133
v 0.124499 -0.000000 0.034346
v -0.125000 -0.000000 0.040715
v -0.084285 -0.000000 0.000000
v -0.124499 -0.000000 0.034346
v -0.123007 -0.000000 0.028133
v -0.120562 -0.000000 0.022231
v -0.117224 -0.000000 0.016783
v -0.113075 -0.000000 0.011925
v -0.108217 -0.000000 0.007776
v -0.102769 -0.000000 0.004438
v -0.096867 -0.000000 0.001993
v -0.090654 -0.000000 0.000501
v 0.125000 0.000000 1.959285
v 0.084285 0.000000 2.000000
v 0.124499 0.000000 1.965654
v 0.123007 0.000000 1.971867
v 0.120562 0.000000 1.977769
v 0.117224 0.000000 1.983217
v 0.113075 0.000000 1.988075
v 0.108217 0.000000 1.992224
v 0.102769 0.000000 1.995562
v 0.096867 0.000000 1.998007
v 0.090654 0.000000 1.999499
v -0.084285 0.000000 2.000000
v -0.125000 0.000000 1.959285
v -0.090654 0.000000 1.999499
v -0.096867 0.000000 1.998007
v -0.102769 0.000000 1.995562
v -0.108217 0.000000 1.992224
v -0.113075 0.000000 1.988075
v -0.117224 0.000000 1.983217
v -0.120562 0.000000 1.977769
v -0.123007 0.000000 1.971867
v -0.124499 0.000000 1.965654
v 0.084285 0.002000 2.000000
v 0.125000 0.002000 1.959285
v 0.090654 0.002000 1.999499
v 0.096867 0.002000 1.998007
v 0.102769 0.002000 1.995562
v 0.108217 0.002000 1.992224
v 0.113075 0.002000 1.988075
v 0.117224 0.002000 1.983217
v 0.120562 0.002000 1.977769
v 0.123007 0.002000 1.971867
v 0.124499 0.002000 1.965654
v 0.125000 0.002000 0.040715
v 0.084285 0.002000 -0.000000
v 0.124499 0.002000 0.034346
v 0.123007 0.002000 0.028133
v 0.120562 0.002000 0.022231
v 0.117224 0.002000 0.016783
v 0.113075 0.002000 0.011925
v 0.108217 0.002000 0.007776
v 0.102769 0.002000 0.004438
v 0.096867 0.002000 0.001993
v 0.090654 0.002000 0.000501
v -0.084285 0.002000 -0.000000
v -0.125000 0.002000 0.040715
v -0.090654 0.002000 0.000501
v -0.096867 0.002000 0.001993
v -0.102769 0.002000 0.004438
v -0.108217 0.002000 0.007776
v -0.113075 0.002000 0.011925
v -0.117224 0.002000 0.016783
v -0.120562 0.002000 0.022231
v -0.123007 0.002000 0.028133
v -0.124499 0.002000 0.034346
v -0.125000 0.002000 1.959285
v -0.084285 0.002000 2.000000
v -0.124499 0.002000 1.965654
v -0.123007 0.002000 1.971867
v -0.120562 0.002000 1.977769
v -0.117224 0.002000 1.983217
v -0.113075 0.002000 1.988075
v -0.108217 0.002000 1.992224
v -0.102769 0.002000 1.995562
v -0.096867 0.002000 1.998007
v -0.090654 0.002000 1.999499
vn -0.0000 -0.0000 -1.0000
vn -0.0000 -0.0000 1.0000
vn -0.0000 -1.0000 -0.0000
vn -0.0000 1.0000 -0.0000
vn -1.0000 -0.0000 -0.0000
vn -0.0784 -0.0000 0.9969
vn -0.2334 -0.0000 0.9724
vn -0.3827 -0.0000 0.9239
vn -0.5225 -0.0000 0.8526
vn -0.6494 -0.0000 0.7604
vn -0.7604 -0.0000 0.6495
vn -0.8526 -0.0000 0.5225
vn -0.9239 -0.0000 0.3827
vn -0.9724 -0.0000 0.2334
vn -0.9969 -0.0000 0.0785
vn -0.0785 -0.0000 -0.9969
vn -0.2334 -0.0000 -0.9724
vn -0.3827 -0.0000 -0.9239
vn -0.5225 -0.0000 -0.8526
vn -0.6494 -0.0000 -0.7604
vn -0.7604 -0.0000 -0.6494
vn -0.8526 -0.0000 -0.5225
vn -0.9239 -0.0000 -0.3827
vn -0.9724 -0.0000 -0.2334
vn -0.9969 -0.0000 -0.0785
vn 0.0785 -0.0000 -0.9969
vn 0.2334 -0.0000 -0.9724
vn 0.3827 -0.0000 -0.9239
vn 0.5225 -0.0000 -0.8526
vn 0.6494 -0.0000 -0.7604
vn 0.7604 -0.0000 -0.6494
vn 0.8526 -0.0000 -0.5225
vn 0.9239 -0.0000 -0.3827
vn 0.9724 -0.0000 -0.2334
vn 0.9969 -0.0000 -0.0785
vn 0.0784 -0.0000 0.9969
vn 0.2334 -0.0000 0.9724
vn 0.3827 -0.0000 0.9239
vn 0.5225 -0.0000 0.8526
vn 0.6494 -0.0000 0.7604
vn 0.7604 -0.0000 0.6495
vn 0.8526 -0.0000 0.5225
vn 0.9239 -0.0000 0.3827
vn 0.9724 -0.0000 0.2334
vn 0.9969 -0.0000 0.0785
vn 1.0000 -0.0000 -0.0000
vt 0.162859 0.000000
vt 0.837141 0.000000
vt 0.837141 1.000000
vt 0.162859 1.000000
vt 0.137383 0.000084
vt 0.112533 0.000332
vt 0.088923 0.000740
vt 0.067133 0.001296
vt 0.015900 0.001988
vt 0.010368 0.008392
vt 0.005917 0.011115
vt 0.002657 0.014067
vt 0.000668 0.017173
vt 0.000000 0.020357
vt 0.000000 0.979643
vt 0.000668 0.982827
vt 0.002657 0.985933
vt 0.005917 0.988885
vt 0.010368 0.991608
vt 0.015900 0.998012
vt 0.067133 0.998704
vt 0.088923 0.999260
vt 0.112533 0.999668
vt 0.137383 0.999916
vt 0.862617 0.999916
vt 0.887467 0.999668
vt 0.911077 0.999260
vt 0.932867 0.998704
vt 0.984100 0.998012
vt 0.989632 0.991609
vt 0.994083 0.988885
vt 0.997343 0.985933
vt 0.999332 0.982827
vt 1.000000 0.979643
vt 1.000000 0.020357
vt 0.999332 0.017173
vt 0.997343 0.014067
vt 0.994083 0.011115
vt 0.989632 0.008392
vt 0.984100 0.001988
vt 0.932867 0.001296
vt 0.911077 0.000740
vt 0.887467 0.000332
vt 0.862617 0.000084
vt 0.004814 0.020755
vt 0.006799 0.017572
vt 0.012708 0.014469
vt 0.022393 0.011520
vt 0.035618 0.008799
vt 0.052055 0.006372
vt 0.071300 0.004299
vt 0.092880 0.002631
vt 0.116263 0.001410
vt 0.140874 0.000664
vt 0.166105 0.000414
vt 0.833895 0.000414
vt 0.859126 0.000664
vt 0.883737 0.001410
vt 0.907120 0.002631
vt 0.928699 0.004299
vt 0.947945 0.006372
vt 0.964382 0.008799
vt 0.977606 0.011520
vt 0.987292 0.014469
vt 0.993200 0.017572
vt 0.995186 0.020755
vt 0.995186 0.979246
vt 0.993200 0.982427
vt 0.987292 0.985531
vt 0.977606 0.988480
vt 0.964382 0.991202
vt 0.947945 0.993629
vt 0.928699 0.995701
vt 0.907120 0.997369
vt 0.883737 0.998591
vt 0.859126 0.999336
vt 0.833895 0.999586
vt 0.166105 0.999586
vt 0.140874 0.999336
vt 0.116263 0.998591
vt 0.092880 0.997369
vt 0.071300 0.995701
vt 0.052055 0.993629
vt 0.035618 0.991202
vt 0.022393 0.988480
vt 0.012708 0.985531
vt 0.006799 0.982427
vt 0.004814 0.979246
vt 1.000000 0.020357
vt 0.911077 0.000740
vt 0.989632 0.008392
vt 0.994083 0.011115
vt 0.997343 0.014067
vt 0.010368 0.008392
vt 0.005917 0.011115
vt 0.002657 0.014067
vt 0.000000 0.020357
vt 0.002657 0.985933
s 0
usemtl Material
f 56/45/4 58/46/4 59/47/4 60/48/4 61/49/4 62/50/4 63/51/4 64/52/4 65/53/4 66/54/4 57/55/4 67/56/4 69/57/4 70/58/4 71/59/4 72/60/4 73/61/4 74/62/4 75/63/4 76/64/4 77/65/4 68/66/4 78/67/4 80/68/4 81/69/4 82/70/4 83/71/4 84/72/4 85/73/4 86/74/4 87/75/4 88/76/4 79/77/4 45/78/4 47/79/4 48/80/4 49/81/4 50/82/4 51/83/4 52/84/4 53/85/4 54/86/4 55/87/4 46/88/4
usemtl Material.001
f 1/1/1 13/2/1 67/2/1 57/1/1
f 34/3/2 24/4/2 45/4/2 79/3/2
f 1/1/3 3/5/3 4/6/3 5/7/3 6/8/3 7/9/3 8/10/3 9/11/3 10/12/3 11/13/3 2/14/3 23/15/3 25/16/3 26/17/3 27/18/3 28/19/3 29/20/3 30/21/3 31/22/3 32/23/3 33/24/3 24/4/3 34/3/3 36/25/3 37/26/3 38/27/3 39/28/3 40/29/3 41/30/3 42/31/3 43/32/3 44/33/3 35/34/3 12/35/3 14/36/3 15/37/3 16/38/3 17/39/3 18/40/3 19/41/3 20/42/3 21/43/3 22/44/3 13/2/3
f 12/89/5 35/34/5 78/34/5 68/35/5
f 34/3/6 79/3/6 88/25/6 36/25/6
f 36/25/7 88/25/7 87/26/7 37/26/7
f 37/26/8 87/26/8 86/27/8 38/27/8
f 38/27/9 86/27/9 85/28/9 39/28/9
f 39/28/10 85/28/10 84/29/10 40/29/10
f 40/29/11 84/29/11 83/30/11 41/30/11
f 41/30/12 83/30/12 82/31/12 42/31/12
f 42/31/13 82/31/13 81/32/13 43/32/13
f 43/32/14 81/32/14 80/33/14 44/33/14
f 44/33/15 80/33/15 78/34/15 35/34/15
f 67/2/16 13/2/16 22/44/16 69/44/16
f 69/44/17 22/44/17 21/43/17 70/43/17
f 70/43/18 21/43/18 20/42/18 71/90/18
f 71/90/19 20/42/19 19/41/19 72/41/19
f 72/41/20 19/41/20 18/40/20 73/40/20
f 73/40/21 18/40/21 17/39/21 74/91/21
f 74/91/22 17/39/22 16/38/22 75/92/22
f 75/92/23 16/38/23 15/37/23 76/93/23
f 76/93/24 15/37/24 14/36/24 77/36/24
f 77/36/25 14/36/25 12/89/25 68/35/25
f 1/1/26 57/1/26 66/5/26 3/5/26
f 3/5/27 66/5/27 65/6/27 4/6/27
f 4/6/28 65/6/28 64/7/28 5/7/28
f 5/7/29 64/7/29 63/8/29 6/8/29
f 6/8/30 63/8/30 62/9/30 7/9/30
f 7/9/31 62/9/31 61/94/31 8/10/31
f 8/10/32 61/94/32 60/95/32 9/11/32
f 9/11/33 60/95/33 59/96/33 10/12/33
f 10/12/34 59/96/34 58/13/34 11/13/34
f 11/13/35 58/13/35 56/14/35 2/97/35
f 45/4/36 24/4/36 33/24/36 47/24/36
f 47/24/37 33/24/37 32/23/37 48/23/37
f 48/23/38 32/23/38 31/22/38 49/22/38
f 49/22/39 31/22/39 30/21/39 50/21/39
f 50/21/40 30/21/40 29/20/40 51/20/40
f 51/20/41 29/20/41 28/19/41 52/19/41
f 52/19/42 28/19/42 27/18/42 53/18/42
f 53/18/43 27/18/43 26/17/43 54/98/43
f 54/98/44 26/17/44 25/16/44 55/16/44
f 55/16/45 25/16/45 23/15/45 46/15/45
f 23/15/46 2/97/46 56/14/46 46/15/46
