# Blender 4.2.9 LTS
# www.blender.org
mtllib 625-10.mtl
o Plane
v 0.212715 -0.000000 0.000000
v 0.250000 -0.000000 0.037285
v 0.218547 -0.000000 0.000459
v 0.224237 -0.000000 0.001825
v 0.229642 -0.000000 0.004064
v 0.234630 -0.000000 0.007121
v 0.239079 -0.000000 0.010921
v 0.242879 -0.000000 0.015370
v 0.245936 -0.000000 0.020358
v 0.248175 -0.000000 0.025763
v 0.249541 -0.000000 0.031453
v -0.250000 -0.000000 0.037285
v -0.212715 -0.000000 0.000000
v -0.249541 -0.000000 0.031453
v -0.248175 -0.000000 0.025763
v -0.245936 -0.000000 0.020358
v -0.242879 -0.000000 0.015370
v -0.239079 -0.000000 0.010921
v -0.234630 -0.000000 0.007121
v -0.229642 -0.000000 0.004064
v -0.224237 -0.000000 0.001825
v -0.218547 -0.000000 0.000459
v 0.250000 0.000000 0.462715
v 0.212715 0.000000 0.500000
v 0.249541 0.000000 0.468547
v 0.248175 0.000000 0.474237
v 0.245936 0.000000 0.479642
v 0.242879 0.000000 0.484630
v 0.239079 0.000000 0.489079
v 0.234630 0.000000 0.492879
v 0.229642 0.000000 0.495936
v 0.224237 0.000000 0.498175
v 0.218547 0.000000 0.499541
v -0.212715 0.000000 0.500000
v -0.250000 0.000000 0.462715
v -0.218547 0.000000 0.499541
v -0.224237 0.000000 0.498175
v -0.229642 0.000000 0.495936
v -0.234630 0.000000 0.492879
v -0.239079 0.000000 0.489079
v -0.242879 0.000000 0.484630
v -0.245936 0.000000 0.479642
v -0.248175 0.000000 0.474237
v -0.249541 0.000000 0.468547
v 0.212715 0.002000 0.500000
v 0.250000 0.002000 0.462715
v 0.218547 0.002000 0.499541
v 0.224237 0.002000 0.498175
v 0.229642 0.002000 0.495936
v 0.234630 0.002000 0.492879
v 0.239079 0.002000 0.489079
v 0.242879 0.002000 0.484630
v 0.245936 0.002000 0.479642
v 0.248175 0.002000 0.474237
v 0.249541 0.002000 0.468547
v 0.250000 0.002000 0.037285
v 0.212715 0.002000 -0.000000
v 0.249541 0.002000 0.031453
v 0.248175 0.002000 0.025763
v 0.245936 0.002000 0.020358
v 0.242879 0.002000 0.015370
v 0.239079 0.002000 0.010921
v 0.234630 0.002000 0.007121
v 0.229642 0.002000 0.004064
v 0.224237 0.002000 0.001825
v 0.218547 0.002000 0.000459
v -0.212715 0.002000 -0.000000
v -0.250000 0.002000 0.037285
v -0.218547 0.002000 0.000459
v -0.224237 0.002000 0.001825
v -0.229642 0.002000 0.004064
v -0.234630 0.002000 0.007121
v -0.239079 0.002000 0.010921
v -0.242879 0.002000 0.015370
v -0.245936 0.002000 0.020358
v -0.248175 0.002000 0.025763
v -0.249541 0.002000 0.031453
v -0.250000 0.002000 0.462715
v -0.212715 0.002000 0.500000
v -0.249541 0.002000 0.468547
v -0.248175 0.002000 0.474237
v -0.245936 0.002000 0.479642
v -0.242879 0.002000 0.484630
v -0.239079 0.002000 0.489079
v -0.234630 0.002000 0.492879
v -0.229642 0.002000 0.495936
v -0.224237 0.002000 0.498175
v -0.218547 0.002000 0.499541
vn -0.0000 -0.0000 -1.0000
vn -0.0000 -0.0000 1.0000
vn -0.0000 -1.0000 -0.0000
vn -0.0000 1.0000 -0.0000
vn -1.0000 -0.0000 -0.0000
vn -0.0785 -0.0000 0.9969
vn -0.2334 -0.0000 0.9724
vn -0.3827 -0.0000 0.9239
vn -0.5225 -0.0000 0.8526
vn -0.6494 -0.0000 0.7604
vn -0.7604 -0.0000 0.6494
vn -0.8526 -0.0000 0.5225
vn -0.9239 -0.0000 0.3827
vn -0.9724 -0.0000 0.2334
vn -0.9969 -0.0000 0.0785
vn -0.0785 -0.0000 -0.9969
vn -0.2334 -0.0000 -0.9724
vn -0.3827 -0.0000 -0.9239
vn -0.5225 -0.0000 -0.8526
vn -0.6494 -0.0000 -0.7604
vn -0.7604 -0.0000 -0.6494
vn -0.8526 -0.0000 -0.5225
vn -0.9239 -0.0000 -0.3827
vn -0.9724 -0.0000 -0.2334
vn -0.9969 -0.0000 -0.0785
vn 0.0785 -0.0000 -0.9969
vn 0.2334 -0.0000 -0.9724
vn 0.3827 -0.0000 -0.9239
vn 0.5225 -0.0000 -0.8526
vn 0.6494 -0.0000 -0.7604
vn 0.7604 -0.0000 -0.6494
vn 0.8526 -0.0000 -0.5225
vn 0.9239 -0.0000 -0.3827
vn 0.9724 -0.0000 -0.2334
vn 0.9969 -0.0000 -0.0785
vn 0.0785 -0.0000 0.9969
vn 0.2334 -0.0000 0.9724
vn 0.3827 -0.0000 0.9239
vn 0.5225 -0.0000 0.8526
vn 0.6494 -0.0000 0.7604
vn 0.7604 -0.0000 0.6494
vn 0.8526 -0.0000 0.5225
vn 0.9239 -0.0000 0.3827
vn 0.9724 -0.0000 0.2334
vn 0.9969 -0.0000 0.0785
vn 1.0000 -0.0000 -0.0000
vt 0.074570 0.000000
vt 0.925430 0.000000
vt 0.074570 0.000000
vt 0.925430 1.000000
vt 0.074570 1.000000
vt 0.074570 1.000000
vt 0.062905 0.000306
vt 0.051527 0.001217
vt 0.040716 0.002709
vt 0.030739 0.004747
vt 0.007280 0.007280
vt 0.004747 0.030739
vt 0.002709 0.040716
vt 0.001217 0.051527
vt 0.000306 0.062905
vt 0.000000 0.074570
vt 0.000000 0.925430
vt 0.000306 0.937095
vt 0.001217 0.948473
vt 0.002709 0.959284
vt 0.004747 0.969261
vt 0.007280 0.992720
vt 0.030739 0.995253
vt 0.040716 0.997291
vt 0.051527 0.998783
vt 0.062905 0.999694
vt 0.937095 0.999694
vt 0.948473 0.998783
vt 0.959284 0.997291
vt 0.969261 0.995253
vt 0.992720 0.992720
vt 0.995253 0.969261
vt 0.997291 0.959284
vt 0.998783 0.948473
vt 0.999694 0.937095
vt 1.000000 0.925430
vt 1.000000 0.074570
vt 0.999694 0.062905
vt 0.998783 0.051527
vt 0.997291 0.040716
vt 0.995253 0.030739
vt 0.992720 0.007280
vt 0.969261 0.004747
vt 0.959284 0.002709
vt 0.948473 0.001217
vt 0.937095 0.000306
vt 0.004655 0.078531
vt 0.005565 0.066975
vt 0.008271 0.055702
vt 0.012707 0.044992
vt 0.018764 0.035108
vt 0.026293 0.026293
vt 0.035108 0.018764
vt 0.044992 0.012707
vt 0.055702 0.008271
vt 0.066974 0.005565
vt 0.078531 0.004655
vt 0.921469 0.004655
vt 0.933025 0.005565
vt 0.944298 0.008271
vt 0.955008 0.012707
vt 0.964892 0.018764
vt 0.973707 0.026293
vt 0.981236 0.035108
vt 0.987293 0.044992
vt 0.991729 0.055702
vt 0.994435 0.066975
vt 0.995345 0.078531
vt 0.995345 0.921469
vt 0.994435 0.933026
vt 0.991729 0.944298
vt 0.987293 0.955008
vt 0.981236 0.964892
vt 0.973707 0.973707
vt 0.964892 0.981236
vt 0.955008 0.987293
vt 0.944298 0.991729
vt 0.933025 0.994435
vt 0.921469 0.995345
vt 0.078531 0.995345
vt 0.066974 0.994435
vt 0.055702 0.991729
vt 0.044992 0.987293
vt 0.035108 0.981236
vt 0.026293 0.973707
vt 0.018764 0.964892
vt 0.012707 0.955008
vt 0.008271 0.944298
vt 0.005565 0.933026
vt 0.004655 0.921469
vt 1.000000 0.074570
vt 1.000000 0.074570
vt 0.937095 0.000306
vt 0.948473 0.001217
vt 0.959284 0.002709
vt 0.969261 0.004747
vt 0.992720 0.007280
vt 0.995253 0.030739
vt 0.997291 0.040716
vt 0.998783 0.051527
vt 0.999694 0.062905
vt 0.062905 0.000306
vt 0.051527 0.001217
vt 0.040716 0.002709
vt 0.030739 0.004747
vt 0.007280 0.007280
vt 0.004747 0.030739
vt 0.002709 0.040716
vt 0.001217 0.051527
vt 0.000000 0.074570
vt 0.000000 0.074570
vt 0.062905 0.999694
vt 0.051527 0.998783
vt 0.040716 0.997291
vt 0.001217 0.948473
s 0
usemtl Material
f 56/47/4 58/48/4 59/49/4 60/50/4 61/51/4 62/52/4 63/53/4 64/54/4 65/55/4 66/56/4 57/57/4 67/58/4 69/59/4 70/60/4 71/61/4 72/62/4 73/63/4 74/64/4 75/65/4 76/66/4 77/67/4 68/68/4 78/69/4 80/70/4 81/71/4 82/72/4 83/73/4 84/74/4 85/75/4 86/76/4 87/77/4 88/78/4 79/79/4 45/80/4 47/81/4 48/82/4 49/83/4 50/84/4 51/85/4 52/86/4 53/87/4 54/88/4 55/89/4 46/90/4
usemtl Material.001
f 1/1/1 13/2/1 67/2/1 57/3/1
f 34/4/2 24/5/2 45/6/2 79/4/2
f 1/3/3 3/7/3 4/8/3 5/9/3 6/10/3 7/11/3 8/12/3 9/13/3 10/14/3 11/15/3 2/16/3 23/17/3 25/18/3 26/19/3 27/20/3 28/21/3 29/22/3 30/23/3 31/24/3 32/25/3 33/26/3 24/6/3 34/4/3 36/27/3 37/28/3 38/29/3 39/30/3 40/31/3 41/32/3 42/33/3 43/34/3 44/35/3 35/36/3 12/37/3 14/38/3 15/39/3 16/40/3 17/41/3 18/42/3 19/43/3 20/44/3 21/45/3 22/46/3 13/2/3
f 12/91/5 35/36/5 78/36/5 68/92/5
f 34/4/6 79/4/6 88/27/6 36/27/6
f 36/27/7 88/27/7 87/28/7 37/28/7
f 37/28/8 87/28/8 86/29/8 38/29/8
f 38/29/9 86/29/9 85/30/9 39/30/9
f 39/30/10 85/30/10 84/31/10 40/31/10
f 40/31/11 84/31/11 83/32/11 41/32/11
f 41/32/12 83/32/12 82/33/12 42/33/12
f 42/33/13 82/33/13 81/34/13 43/34/13
f 43/34/14 81/34/14 80/35/14 44/35/14
f 44/35/15 80/35/15 78/36/15 35/36/15
f 67/2/16 13/2/16 22/46/16 69/93/16
f 69/93/17 22/46/17 21/45/17 70/94/17
f 70/94/18 21/45/18 20/44/18 71/95/18
f 71/95/19 20/44/19 19/43/19 72/96/19
f 72/96/20 19/43/20 18/42/20 73/97/20
f 73/97/21 18/42/21 17/41/21 74/98/21
f 74/98/22 17/41/22 16/40/22 75/99/22
f 75/99/23 16/40/23 15/39/23 76/100/23
f 76/100/24 15/39/24 14/38/24 77/101/24
f 77/101/25 14/38/25 12/91/25 68/92/25
f 1/1/26 57/3/26 66/102/26 3/7/26
f 3/7/27 66/102/27 65/103/27 4/8/27
f 4/8/28 65/103/28 64/104/28 5/9/28
f 5/9/29 64/104/29 63/105/29 6/10/29
f 6/10/30 63/105/30 62/106/30 7/11/30
f 7/11/31 62/106/31 61/107/31 8/12/31
f 8/12/32 61/107/32 60/108/32 9/13/32
f 9/13/33 60/108/33 59/109/33 10/14/33
f 10/14/34 59/109/34 58/15/34 11/15/34
f 11/15/35 58/15/35 56/110/35 2/111/35
f 45/6/36 24/5/36 33/26/36 47/112/36
f 47/112/37 33/26/37 32/25/37 48/113/37
f 48/113/38 32/25/38 31/24/38 49/114/38
f 49/114/39 31/24/39 30/23/39 50/23/39
f 50/23/40 30/23/40 29/22/40 51/22/40
f 51/22/41 29/22/41 28/21/41 52/21/41
f 52/21/42 28/21/42 27/20/42 53/20/42
f 53/20/43 27/20/43 26/19/43 54/115/43
f 54/115/44 26/19/44 25/18/44 55/18/44
f 55/18/45 25/18/45 23/17/45 46/17/45
f 23/17/46 2/111/46 56/110/46 46/17/46
