# Blender 4.2.9 LTS
# www.blender.org
mtllib 625-21.mtl
o Plane
v 0.716700 -0.000000 0.000000
v 0.750000 -0.000000 0.044400
v 0.721909 -0.000000 0.000547
v 0.726990 -0.000000 0.002173
v 0.731818 -0.000000 0.004839
v 0.736273 -0.000000 0.008480
v 0.740247 -0.000000 0.013004
v 0.743640 -0.000000 0.018302
v 0.746371 -0.000000 0.024243
v 0.748370 -0.000000 0.030680
v 0.749590 -0.000000 0.037454
v -0.750000 -0.000000 0.044400
v -0.716700 -0.000000 0.000000
v -0.749590 -0.000000 0.037454
v -0.748370 -0.000000 0.030680
v -0.746371 -0.000000 0.024243
v -0.743640 -0.000000 0.018302
v -0.740247 -0.000000 0.013004
v -0.736273 -0.000000 0.008480
v -0.731818 -0.000000 0.004839
v -0.726990 -0.000000 0.002173
v -0.721909 -0.000000 0.000547
v 0.750000 0.000000 0.455600
v 0.716700 0.000000 0.500000
v 0.749590 0.000000 0.462546
v 0.748370 0.000000 0.469320
v 0.746371 0.000000 0.475757
v 0.743640 0.000000 0.481698
v 0.740247 0.000000 0.486995
v 0.736273 0.000000 0.491520
v 0.731818 0.000000 0.495161
v 0.726990 0.000000 0.497827
v 0.721909 0.000000 0.499453
v -0.716700 0.000000 0.500000
v -0.750000 0.000000 0.455600
v -0.721909 0.000000 0.499453
v -0.726990 0.000000 0.497827
v -0.731818 0.000000 0.495161
v -0.736273 0.000000 0.491520
v -0.740247 0.000000 0.486996
v -0.743640 0.000000 0.481698
v -0.746371 0.000000 0.475757
v -0.748370 0.000000 0.469320
v -0.749590 0.000000 0.462546
v 0.716700 0.002000 0.500000
v 0.750000 0.002000 0.455600
v 0.721909 0.002000 0.499453
v 0.726990 0.002000 0.497827
v 0.731818 0.002000 0.495161
v 0.736273 0.002000 0.491520
v 0.740247 0.002000 0.486996
v 0.743640 0.002000 0.481698
v 0.746371 0.002000 0.475757
v 0.748370 0.002000 0.469320
v 0.749590 0.002000 0.462546
v 0.750000 0.002000 0.044400
v 0.716700 0.002000 -0.000000
v 0.749590 0.002000 0.037454
v 0.748370 0.002000 0.030680
v 0.746371 0.002000 0.024243
v 0.743640 0.002000 0.018302
v 0.740247 0.002000 0.013004
v 0.736273 0.002000 0.008480
v 0.731818 0.002000 0.004839
v 0.726990 0.002000 0.002173
v 0.721909 0.002000 0.000547
v -0.716700 0.002000 0.000000
v -0.750000 0.002000 0.044400
v -0.721909 0.002000 0.000547
v -0.726990 0.002000 0.002173
v -0.731818 0.002000 0.004839
v -0.736273 0.002000 0.008480
v -0.740247 0.002000 0.013004
v -0.743640 0.002000 0.018302
v -0.746371 0.002000 0.024243
v -0.748370 0.002000 0.030680
v -0.749590 0.002000 0.037454
v -0.750000 0.002000 0.455600
v -0.716700 0.002000 0.500000
v -0.749590 0.002000 0.462546
v -0.748370 0.002000 0.469320
v -0.746371 0.002000 0.475757
v -0.743640 0.002000 0.481698
v -0.740247 0.002000 0.486995
v -0.736273 0.002000 0.491520
v -0.731818 0.002000 0.495161
v -0.726990 0.002000 0.497827
v -0.721909 0.002000 0.499453
vn -0.0000 -0.0000 -1.0000
vn -0.0000 1.0000 -0.0000
vn -1.0000 -0.0000 -0.0000
vn -0.0000 -0.0000 1.0000
vn -0.0000 -1.0000 -0.0000
vn 0.9983 -0.0000 0.0589
vn 0.9842 -0.0000 0.1772
vn 0.9550 -0.0000 0.2967
vn 0.9086 -0.0000 0.4176
vn 0.8421 -0.0000 0.5394
vn 0.7514 -0.0000 0.6598
vn 0.6327 -0.0000 0.7744
vn 0.4835 -0.0000 0.8754
vn 0.3049 -0.0000 0.9524
vn 0.1044 -0.0000 0.9945
vn -0.9983 -0.0000 0.0589
vn -0.9842 -0.0000 0.1772
vn -0.9550 -0.0000 0.2967
vn -0.9086 -0.0000 0.4176
vn -0.8421 -0.0000 0.5394
vn -0.7514 -0.0000 0.6598
vn -0.6327 -0.0000 0.7744
vn -0.4835 -0.0000 0.8754
vn -0.3049 -0.0000 0.9524
vn -0.1044 -0.0000 0.9945
vn -0.9983 -0.0000 -0.0589
vn -0.9842 -0.0000 -0.1772
vn -0.9550 -0.0000 -0.2967
vn -0.9086 -0.0000 -0.4176
vn -0.8421 -0.0000 -0.5394
vn -0.7514 -0.0000 -0.6598
vn -0.6327 -0.0000 -0.7744
vn -0.4835 -0.0000 -0.8754
vn -0.3049 -0.0000 -0.9524
vn -0.1044 -0.0000 -0.9945
vn 0.9983 -0.0000 -0.0589
vn 0.9842 -0.0000 -0.1772
vn 0.9550 -0.0000 -0.2967
vn 0.9086 -0.0000 -0.4176
vn 0.8421 -0.0000 -0.5394
vn 0.7514 -0.0000 -0.6598
vn 0.6327 -0.0000 -0.7744
vn 0.4835 -0.0000 -0.8754
vn 0.3049 -0.0000 -0.9524
vn 0.1044 -0.0000 -0.9945
vn 1.0000 -0.0000 -0.0000
vt 0.022200 0.000000
vt 0.977800 0.000000
vt 0.001096 0.094327
vt 0.001369 0.080623
vt 0.002181 0.067255
vt 0.003511 0.054555
vt 0.005327 0.042834
vt 0.007584 0.032380
vt 0.010228 0.023452
vt 0.013191 0.016269
vt 0.016403 0.011009
vt 0.019783 0.007800
vt 0.023248 0.006721
vt 0.976752 0.006721
vt 0.980217 0.007800
vt 0.983597 0.011009
vt 0.986809 0.016270
vt 0.989773 0.023452
vt 0.992415 0.032380
vt 0.994673 0.042834
vt 0.996489 0.054555
vt 0.997819 0.067255
vt 0.998631 0.080623
vt 0.998904 0.094327
vt 0.998904 0.905673
vt 0.998631 0.919377
vt 0.997819 0.932745
vt 0.996489 0.945445
vt 0.994673 0.957166
vt 0.992415 0.967620
vt 0.989773 0.976548
vt 0.986809 0.983731
vt 0.983597 0.988991
vt 0.980217 0.992200
vt 0.976752 0.993279
vt 0.023248 0.993279
vt 0.019783 0.992201
vt 0.016403 0.988991
vt 0.013191 0.983731
vt 0.010228 0.976548
vt 0.007584 0.967620
vt 0.005327 0.957166
vt 0.003511 0.945445
vt 0.002181 0.932745
vt 0.001369 0.919377
vt 0.001096 0.905673
vt 1.000000 0.088800
vt 1.000000 0.911200
vt 1.000000 0.088800
vt 0.977800 1.000000
vt 0.022200 1.000000
vt 0.018727 0.000364
vt 0.015340 0.001449
vt 0.012121 0.003226
vt 0.009151 0.005653
vt 0.002167 0.008670
vt 0.001413 0.036605
vt 0.000807 0.048486
vt 0.000362 0.061359
vt 0.000091 0.074909
vt 0.000000 0.088800
vt 0.000000 0.911200
vt 0.000091 0.925091
vt 0.000362 0.938641
vt 0.000807 0.951514
vt 0.001413 0.963395
vt 0.002167 0.991330
vt 0.009151 0.994347
vt 0.012121 0.996774
vt 0.015340 0.998551
vt 0.018727 0.999636
vt 0.981273 0.999636
vt 0.984660 0.998551
vt 0.987879 0.996774
vt 0.990849 0.994347
vt 0.997833 0.991330
vt 0.998587 0.963395
vt 0.999193 0.951514
vt 0.999638 0.938641
vt 0.999909 0.925091
vt 1.000000 0.088800
vt 0.999909 0.074909
vt 0.999638 0.061359
vt 0.999193 0.048486
vt 0.998587 0.036605
vt 0.997833 0.008670
vt 0.990849 0.005653
vt 0.987879 0.003226
vt 0.984660 0.001449
vt 0.981273 0.000364
vt 0.000091 0.925091
vt 0.000362 0.938641
vt 0.000807 0.951514
vt 0.001413 0.963395
vt 0.002167 0.991330
vt 0.012121 0.996774
vt 0.015340 0.998551
vt 0.018727 0.999636
vt 0.999909 0.925091
vt 0.999638 0.938641
vt 0.999193 0.951514
vt 0.998587 0.963395
vt 0.997833 0.991330
vt 0.990849 0.994347
vt 0.984660 0.998551
vt 0.981273 0.999636
vt 0.999909 0.074909
vt 0.999638 0.061359
vt 0.999193 0.048486
vt 0.998587 0.036605
vt 0.990849 0.005653
vt 0.987879 0.003226
vt 0.984660 0.001449
vt 0.981273 0.000364
vt 0.000000 0.088800
vt 0.000000 0.088800
vt 0.000091 0.074909
vt 0.000362 0.061359
vt 0.000807 0.048486
vt 0.001413 0.036605
vt 0.002167 0.008670
vt 0.009151 0.005653
vt 0.012121 0.003226
vt 0.015340 0.001449
vt 0.018727 0.000364
s 0
usemtl Material
f 56/3/2 58/4/2 59/5/2 60/6/2 61/7/2 62/8/2 63/9/2 64/10/2 65/11/2 66/12/2 57/13/2 67/14/2 69/15/2 70/16/2 71/17/2 72/18/2 73/19/2 74/20/2 75/21/2 76/22/2 77/23/2 68/24/2 78/25/2 80/26/2 81/27/2 82/28/2 83/29/2 84/30/2 85/31/2 86/32/2 87/33/2 88/34/2 79/35/2 45/36/2 47/37/2 48/38/2 49/39/2 50/40/2 51/41/2 52/42/2 53/43/2 54/44/2 55/45/2 46/46/2
usemtl Material.001
f 1/1/1 13/2/1 67/2/1 57/1/1
f 12/47/3 35/48/3 78/48/3 68/49/3
f 34/50/4 24/51/4 45/51/4 79/50/4
f 1/1/5 3/52/5 4/53/5 5/54/5 6/55/5 7/56/5 8/57/5 9/58/5 10/59/5 11/60/5 2/61/5 23/62/5 25/63/5 26/64/5 27/65/5 28/66/5 29/67/5 30/68/5 31/69/5 32/70/5 33/71/5 24/51/5 34/50/5 36/72/5 37/73/5 38/74/5 39/75/5 40/76/5 41/77/5 42/78/5 43/79/5 44/80/5 35/48/5 12/81/5 14/82/5 15/83/5 16/84/5 17/85/5 18/86/5 19/87/5 20/88/5 21/89/5 22/90/5 13/2/5
f 23/62/6 46/62/6 55/91/6 25/63/6
f 25/63/7 55/91/7 54/92/7 26/64/7
f 26/64/8 54/92/8 53/93/8 27/65/8
f 27/65/9 53/93/9 52/94/9 28/66/9
f 28/66/10 52/94/10 51/95/10 29/67/10
f 29/67/11 51/95/11 50/68/11 30/68/11
f 30/68/12 50/68/12 49/96/12 31/69/12
f 31/69/13 49/96/13 48/97/13 32/70/13
f 32/70/14 48/97/14 47/98/14 33/71/14
f 33/71/15 47/98/15 45/51/15 24/51/15
f 78/48/16 35/48/16 44/80/16 80/99/16
f 80/99/17 44/80/17 43/79/17 81/100/17
f 81/100/18 43/79/18 42/78/18 82/101/18
f 82/101/19 42/78/19 41/77/19 83/102/19
f 83/102/20 41/77/20 40/76/20 84/103/20
f 84/103/21 40/76/21 39/75/21 85/104/21
f 85/104/22 39/75/22 38/74/22 86/74/22
f 86/74/23 38/74/23 37/73/23 87/105/23
f 87/105/24 37/73/24 36/72/24 88/106/24
f 88/106/25 36/72/25 34/50/25 79/50/25
f 12/47/26 68/49/26 77/107/26 14/82/26
f 14/82/27 77/107/27 76/108/27 15/83/27
f 15/83/28 76/108/28 75/109/28 16/84/28
f 16/84/29 75/109/29 74/110/29 17/85/29
f 17/85/30 74/110/30 73/86/30 18/86/30
f 18/86/31 73/86/31 72/111/31 19/87/31
f 19/87/32 72/111/32 71/112/32 20/88/32
f 20/88/33 71/112/33 70/113/33 21/89/33
f 21/89/34 70/113/34 69/114/34 22/90/34
f 22/90/35 69/114/35 67/2/35 13/2/35
f 56/115/36 2/116/36 11/60/36 58/117/36
f 58/117/37 11/60/37 10/59/37 59/118/37
f 59/118/38 10/59/38 9/58/38 60/119/38
f 60/119/39 9/58/39 8/57/39 61/120/39
f 61/120/40 8/57/40 7/56/40 62/121/40
f 62/121/41 7/56/41 6/55/41 63/122/41
f 63/122/42 6/55/42 5/54/42 64/123/42
f 64/123/43 5/54/43 4/53/43 65/124/43
f 65/124/44 4/53/44 3/52/44 66/125/44
f 66/125/45 3/52/45 1/1/45 57/1/45
f 23/62/46 2/116/46 56/115/46 46/62/46
