# Blender 4.2.9 LTS
# www.blender.org
mtllib 625-13.mtl
o Plane
v 0.750000 -0.000000 0.000000
v 0.250000 -0.000000 0.000000
v -0.250000 -0.000000 0.000000
v -0.750000 -0.000000 0.000000
v -0.750000 0.000000 0.500000
v -0.250000 0.000000 0.500000
v 0.250000 0.000000 0.500000
v 0.750000 0.000000 0.500000
v 0.750000 0.002000 -0.000000
v 0.250000 0.002000 -0.000000
v -0.250000 0.002000 -0.000000
v -0.750000 0.002000 -0.000000
v -0.750000 0.002000 0.500000
v -0.250000 0.002000 0.500000
v 0.250000 0.002000 0.500000
v 0.750000 0.002000 0.500000
v 1.211592 -0.000000 0.000000
v 1.250000 -0.000000 0.038408
v 1.217601 -0.000000 0.000473
v 1.223461 -0.000000 0.001880
v 1.229029 -0.000000 0.004186
v 1.234168 -0.000000 0.007335
v 1.238751 -0.000000 0.011249
v 1.242665 -0.000000 0.015832
v 1.245814 -0.000000 0.020971
v 1.248120 -0.000000 0.026539
v 1.249527 -0.000000 0.032399
v -1.250000 -0.000000 0.038408
v -1.211592 -0.000000 0.000000
v -1.249527 -0.000000 0.032399
v -1.248120 -0.000000 0.026539
v -1.245814 -0.000000 0.020971
v -1.242665 -0.000000 0.015832
v -1.238751 -0.000000 0.011249
v -1.234168 -0.000000 0.007335
v -1.229029 -0.000000 0.004186
v -1.223461 -0.000000 0.001880
v -1.217601 -0.000000 0.000473
v 1.250000 0.000000 0.461592
v 1.211592 0.000000 0.500000
v 1.249527 0.000000 0.467601
v 1.248120 0.000000 0.473461
v 1.245814 0.000000 0.479029
v 1.242665 0.000000 0.484168
v 1.238751 0.000000 0.488751
v 1.234168 0.000000 0.492665
v 1.229029 0.000000 0.495814
v 1.223461 0.000000 0.498120
v 1.217601 0.000000 0.499527
v -1.211592 0.000000 0.500000
v -1.250000 0.000000 0.461592
v -1.217601 0.000000 0.499527
v -1.223461 0.000000 0.498120
v -1.229029 0.000000 0.495814
v -1.234168 0.000000 0.492665
v -1.238751 0.000000 0.488751
v -1.242665 0.000000 0.484168
v -1.245814 0.000000 0.479029
v -1.248120 0.000000 0.473461
v -1.249527 0.000000 0.467601
v 1.211592 0.002000 0.500000
v 1.250000 0.002000 0.461592
v 1.217601 0.002000 0.499527
v 1.223461 0.002000 0.498120
v 1.229029 0.002000 0.495814
v 1.234168 0.002000 0.492665
v 1.238751 0.002000 0.488751
v 1.242665 0.002000 0.484168
v 1.245814 0.002000 0.479029
v 1.248120 0.002000 0.473461
v 1.249527 0.002000 0.467601
v 1.250000 0.002000 0.038408
v 1.211592 0.002000 -0.000000
v 1.249527 0.002000 0.032399
v 1.248120 0.002000 0.026539
v 1.245814 0.002000 0.020971
v 1.242665 0.002000 0.015832
v 1.238751 0.002000 0.011249
v 1.234168 0.002000 0.007335
v 1.229029 0.002000 0.004186
v 1.223461 0.002000 0.001880
v 1.217601 0.002000 0.000473
v -1.211592 0.002000 -0.000000
v -1.250000 0.002000 0.038408
v -1.217601 0.002000 0.000473
v -1.223461 0.002000 0.001880
v -1.229029 0.002000 0.004186
v -1.234168 0.002000 0.007335
v -1.238751 0.002000 0.011249
v -1.242665 0.002000 0.015832
v -1.245814 0.002000 0.020971
v -1.248120 0.002000 0.026539
v -1.249527 0.002000 0.032399
v -1.250000 0.002000 0.461592
v -1.211592 0.002000 0.500000
v -1.249527 0.002000 0.467601
v -1.248120 0.002000 0.473461
v -1.245814 0.002000 0.479029
v -1.242665 0.002000 0.484168
v -1.238751 0.002000 0.488751
v -1.234168 0.002000 0.492665
v -1.229029 0.002000 0.495814
v -1.223461 0.002000 0.498120
v -1.217601 0.002000 0.499527
vn -1.0000 -0.0000 -0.0000
vn -0.0000 -0.0000 -1.0000
vn -0.0000 -1.0000 -0.0000
vn 1.0000 -0.0000 -0.0000
vn 0.9969 -0.0000 0.0785
vn 0.9724 -0.0000 0.2335
vn 0.9239 -0.0000 0.3827
vn 0.8526 -0.0000 0.5225
vn 0.7604 -0.0000 0.6494
vn 0.6494 -0.0000 0.7604
vn 0.5225 -0.0000 0.8526
vn 0.3827 -0.0000 0.9239
vn 0.2334 -0.0000 0.9724
vn 0.0785 -0.0000 0.9969
vn -0.9969 -0.0000 0.0785
vn -0.9724 -0.0000 0.2335
vn -0.9239 -0.0000 0.3827
vn -0.8526 -0.0000 0.5225
vn -0.7604 -0.0000 0.6494
vn -0.6494 -0.0000 0.7604
vn -0.5225 -0.0000 0.8526
vn -0.3827 -0.0000 0.9239
vn -0.2334 -0.0000 0.9724
vn -0.0785 -0.0000 0.9969
vn -0.9969 -0.0000 -0.0785
vn -0.9724 -0.0000 -0.2334
vn -0.9239 -0.0000 -0.3827
vn -0.8526 -0.0000 -0.5225
vn -0.7604 -0.0000 -0.6495
vn -0.6494 -0.0000 -0.7604
vn -0.5225 -0.0000 -0.8526
vn -0.3827 -0.0000 -0.9239
vn -0.2334 -0.0000 -0.9724
vn -0.0785 -0.0000 -0.9969
vn 0.9969 -0.0000 -0.0785
vn 0.9724 -0.0000 -0.2334
vn 0.9239 -0.0000 -0.3827
vn 0.8526 -0.0000 -0.5225
vn 0.7604 -0.0000 -0.6495
vn 0.6494 -0.0000 -0.7604
vn 0.5225 -0.0000 -0.8526
vn 0.3827 -0.0000 -0.9239
vn 0.2334 -0.0000 -0.9724
vn 0.0785 -0.0000 -0.9969
vn -0.0000 -0.0000 1.0000
vn -0.0000 1.0000 -0.0000
vt 1.000000 0.076815
vt 1.000000 0.923185
vt 1.000000 0.923185
vt 1.000000 0.076815
vt 0.015363 0.000000
vt 0.200000 0.000000
vt 0.400000 0.000000
vt 0.600000 0.000000
vt 0.800000 0.000000
vt 0.984637 0.000000
vt 0.800000 1.000000
vt 0.984637 1.000000
vt 0.987040 0.999685
vt 0.989384 0.998747
vt 0.991612 0.997209
vt 0.993667 0.995110
vt 0.998500 0.992500
vt 0.999022 0.968336
vt 0.999442 0.958058
vt 0.999749 0.946922
vt 0.999937 0.935201
vt 0.999937 0.064799
vt 0.999749 0.053078
vt 0.999442 0.041942
vt 0.999022 0.031664
vt 0.998500 0.007500
vt 0.993667 0.004890
vt 0.991612 0.002791
vt 0.989384 0.001253
vt 0.987040 0.000315
vt 0.012960 0.000315
vt 0.010616 0.001253
vt 0.008388 0.002791
vt 0.006333 0.004890
vt 0.001500 0.007500
vt 0.000978 0.031664
vt 0.000558 0.041942
vt 0.000251 0.053078
vt 0.000063 0.064799
vt 0.000000 0.076815
vt 0.000000 0.923185
vt 0.000063 0.935201
vt 0.000251 0.946922
vt 0.000558 0.958058
vt 0.000978 0.968336
vt 0.001500 0.992500
vt 0.006333 0.995110
vt 0.008388 0.997209
vt 0.010616 0.998747
vt 0.012960 0.999685
vt 0.015363 1.000000
vt 0.200000 1.000000
vt 0.400000 1.000000
vt 0.600000 1.000000
vt 0.000000 0.076815
vt 0.000000 0.923185
vt 0.000063 0.935202
vt 0.000251 0.946922
vt 0.000558 0.958058
vt 0.000978 0.968336
vt 0.001500 0.992500
vt 0.006333 0.995110
vt 0.999937 0.935202
vt 0.999749 0.946922
vt 0.999442 0.958058
vt 0.999022 0.968336
vt 0.999937 0.064799
vt 0.999749 0.053078
vt 0.999442 0.041942
vt 0.999022 0.031664
vt 0.998500 0.007500
vt 0.991612 0.002791
vt 0.989384 0.001253
vt 0.000063 0.064799
vt 0.000251 0.053078
vt 0.000558 0.041942
vt 0.000978 0.031664
vt 0.008388 0.002791
vt 0.001078 0.081515
vt 0.001267 0.069632
vt 0.001828 0.058041
vt 0.002749 0.047029
vt 0.004006 0.036866
vt 0.005568 0.027801
vt 0.007397 0.020060
vt 0.009449 0.013832
vt 0.011671 0.009271
vt 0.014010 0.006488
vt 0.016408 0.005553
vt 0.200647 0.005553
vt 0.400216 0.005553
vt 0.599784 0.005553
vt 0.799353 0.005553
vt 0.983592 0.005553
vt 0.985990 0.006488
vt 0.988329 0.009271
vt 0.990552 0.013832
vt 0.992603 0.020060
vt 0.994432 0.027801
vt 0.995994 0.036866
vt 0.997251 0.047029
vt 0.998171 0.058041
vt 0.998733 0.069632
vt 0.998922 0.081515
vt 0.998922 0.918485
vt 0.998733 0.930368
vt 0.998171 0.941959
vt 0.997251 0.952971
vt 0.995994 0.963135
vt 0.994432 0.972198
vt 0.992603 0.979940
vt 0.990552 0.986168
vt 0.988329 0.990729
vt 0.985990 0.993512
vt 0.983592 0.994447
vt 0.799353 0.994447
vt 0.599784 0.994447
vt 0.400216 0.994447
vt 0.200647 0.994447
vt 0.016408 0.994447
vt 0.014010 0.993512
vt 0.011671 0.990729
vt 0.009449 0.986168
vt 0.007397 0.979940
vt 0.005568 0.972198
vt 0.004006 0.963135
vt 0.002749 0.952971
vt 0.001828 0.941959
vt 0.001267 0.930368
vt 0.001078 0.918485
s 0
usemtl Material
f 72/79/46 74/80/46 75/81/46 76/82/46 77/83/46 78/84/46 79/85/46 80/86/46 81/87/46 82/88/46 73/89/46 9/90/46 10/91/46 11/92/46 12/93/46 83/94/46 85/95/46 86/96/46 87/97/46 88/98/46 89/99/46 90/100/46 91/101/46 92/102/46 93/103/46 84/104/46 94/105/46 96/106/46 97/107/46 98/108/46 99/109/46 100/110/46 101/111/46 102/112/46 103/113/46 104/114/46 95/115/46 13/116/46 14/117/46 15/118/46 16/119/46 61/120/46 63/121/46 64/122/46 65/123/46 66/124/46 67/125/46 68/126/46 69/127/46 70/128/46 71/129/46 62/130/46
usemtl Material.001
f 28/1/1 51/2/1 94/3/1 84/4/1
f 17/5/2 1/6/2 2/7/2 3/8/2 4/9/2 29/10/2 83/10/2 12/9/2 11/8/2 10/7/2 9/6/2 73/5/2
f 5/11/3 50/12/3 52/13/3 53/14/3 54/15/3 55/16/3 56/17/3 57/18/3 58/19/3 59/20/3 60/21/3 51/2/3 28/4/3 30/22/3 31/23/3 32/24/3 33/25/3 34/26/3 35/27/3 36/28/3 37/29/3 38/30/3 29/10/3 4/9/3 3/8/3 2/7/3 1/6/3 17/5/3 19/31/3 20/32/3 21/33/3 22/34/3 23/35/3 24/36/3 25/37/3 26/38/3 27/39/3 18/40/3 39/41/3 41/42/3 42/43/3 43/44/3 44/45/3 45/46/3 46/47/3 47/48/3 48/49/3 49/50/3 40/51/3 8/52/3 7/53/3 6/54/3
f 39/41/4 18/55/4 72/40/4 62/56/4
f 39/41/5 62/56/5 71/57/5 41/42/5
f 41/42/6 71/57/6 70/58/6 42/43/6
f 42/43/7 70/58/7 69/59/7 43/44/7
f 43/44/8 69/59/8 68/60/8 44/45/8
f 44/45/9 68/60/9 67/61/9 45/46/9
f 45/46/10 67/61/10 66/62/10 46/47/10
f 46/47/11 66/62/11 65/48/11 47/48/11
f 47/48/12 65/48/12 64/49/12 48/49/12
f 48/49/13 64/49/13 63/50/13 49/50/13
f 49/50/14 63/50/14 61/51/14 40/51/14
f 94/3/15 51/2/15 60/21/15 96/63/15
f 96/63/16 60/21/16 59/20/16 97/64/16
f 97/64/17 59/20/17 58/19/17 98/65/17
f 98/65/18 58/19/18 57/18/18 99/66/18
f 99/66/19 57/18/19 56/17/19 100/17/19
f 100/17/20 56/17/20 55/16/20 101/16/20
f 101/16/21 55/16/21 54/15/21 102/15/21
f 102/15/22 54/15/22 53/14/22 103/14/22
f 103/14/23 53/14/23 52/13/23 104/13/23
f 104/13/24 52/13/24 50/12/24 95/12/24
f 28/1/25 84/4/25 93/67/25 30/22/25
f 30/22/26 93/67/26 92/68/26 31/23/26
f 31/23/27 92/68/27 91/69/27 32/24/27
f 32/24/28 91/69/28 90/70/28 33/25/28
f 33/25/29 90/70/29 89/71/29 34/26/29
f 34/26/30 89/71/30 88/27/30 35/27/30
f 35/27/31 88/27/31 87/72/31 36/28/31
f 36/28/32 87/72/32 86/73/32 37/29/32
f 37/29/33 86/73/33 85/30/33 38/30/33
f 38/30/34 85/30/34 83/10/34 29/10/34
f 72/40/35 18/55/35 27/39/35 74/74/35
f 74/74/36 27/39/36 26/38/36 75/75/36
f 75/75/37 26/38/37 25/37/37 76/76/37
f 76/76/38 25/37/38 24/36/38 77/77/38
f 77/77/39 24/36/39 23/35/39 78/35/39
f 78/35/40 23/35/40 22/34/40 79/34/40
f 79/34/41 22/34/41 21/33/41 80/78/41
f 80/78/42 21/33/42 20/32/42 81/32/42
f 81/32/43 20/32/43 19/31/43 82/31/43
f 82/31/44 19/31/44 17/5/44 73/5/44
f 50/12/45 5/11/45 6/54/45 7/53/45 8/52/45 40/51/45 61/51/45 16/52/45 15/53/45 14/54/45 13/11/45 95/12/45
