# Blender 4.2.9 LTS
# www.blender.org
mtllib 625-12.mtl
o Plane
v -0.002203 -0.000000 0.000000
v 0.959132 -0.000000 0.000000
v 1.000000 -0.000000 0.040868
v 0.965525 -0.000000 0.000503
v 0.971761 -0.000000 0.002000
v 0.977686 -0.000000 0.004454
v 0.983154 -0.000000 0.007805
v 0.988030 -0.000000 0.011970
v 0.992195 -0.000000 0.016846
v 0.995546 -0.000000 0.022314
v 0.998000 -0.000000 0.028239
v 0.999497 -0.000000 0.034475
v -1.000000 -0.000000 0.040868
v -0.959132 -0.000000 0.000000
v -0.999497 -0.000000 0.034475
v -0.998000 -0.000000 0.028239
v -0.995546 -0.000000 0.022314
v -0.992195 -0.000000 0.016846
v -0.988030 -0.000000 0.011970
v -0.983154 -0.000000 0.007805
v -0.977686 -0.000000 0.004454
v -0.971761 -0.000000 0.002000
v -0.965525 -0.000000 0.000503
v 1.000000 0.000000 0.459132
v 0.959132 0.000000 0.500000
v 0.999497 0.000000 0.465525
v 0.998000 0.000000 0.471761
v 0.995546 0.000000 0.477686
v 0.992195 0.000000 0.483154
v 0.988030 0.000000 0.488030
v 0.983154 0.000000 0.492195
v 0.977686 0.000000 0.495546
v 0.971761 0.000000 0.498000
v 0.965525 0.000000 0.499497
v -0.959132 0.000000 0.500000
v -1.000000 0.000000 0.459132
v -0.965525 0.000000 0.499497
v -0.971761 0.000000 0.498000
v -0.977686 0.000000 0.495546
v -0.983154 0.000000 0.492195
v -0.988030 0.000000 0.488030
v -0.992195 0.000000 0.483154
v -0.995546 0.000000 0.477686
v -0.998000 0.000000 0.471761
v -0.999497 0.000000 0.465525
v 0.959132 0.002000 0.500000
v 1.000000 0.002000 0.459132
v 0.965525 0.002000 0.499497
v 0.971761 0.002000 0.498000
v 0.977686 0.002000 0.495546
v 0.983154 0.002000 0.492195
v 0.988030 0.002000 0.488030
v 0.992195 0.002000 0.483154
v 0.995546 0.002000 0.477686
v 0.998000 0.002000 0.471761
v 0.999497 0.002000 0.465525
v 1.000000 0.002000 0.040868
v 0.959132 0.002000 -0.000000
v 0.999497 0.002000 0.034475
v 0.998000 0.002000 0.028239
v 0.995546 0.002000 0.022314
v 0.992195 0.002000 0.016846
v 0.988030 0.002000 0.011970
v 0.983154 0.002000 0.007805
v 0.977686 0.002000 0.004454
v 0.971761 0.002000 0.002000
v 0.965525 0.002000 0.000503
v -0.959132 0.002000 -0.000000
v -1.000000 0.002000 0.040868
v -0.965525 0.002000 0.000503
v -0.971761 0.002000 0.002000
v -0.977686 0.002000 0.004454
v -0.983154 0.002000 0.007805
v -0.988030 0.002000 0.011970
v -0.992195 0.002000 0.016846
v -0.995546 0.002000 0.022314
v -0.998000 0.002000 0.028239
v -0.999497 0.002000 0.034475
v -1.000000 0.002000 0.459132
v -0.959132 0.002000 0.500000
v -0.999497 0.002000 0.465525
v -0.998000 0.002000 0.471761
v -0.995546 0.002000 0.477686
v -0.992195 0.002000 0.483154
v -0.988030 0.002000 0.488030
v -0.983154 0.002000 0.492195
v -0.977686 0.002000 0.495546
v -0.971761 0.002000 0.498000
v -0.965525 0.002000 0.499497
vn -1.0000 -0.0000 -0.0000
vn -0.0000 1.0000 -0.0000
vn -0.0000 -0.0000 -1.0000
vn 1.0000 -0.0000 -0.0000
vn -0.0000 -1.0000 -0.0000
vn -0.0785 -0.0000 0.9969
vn -0.2334 -0.0000 0.9724
vn -0.3827 -0.0000 0.9239
vn -0.5225 -0.0000 0.8526
vn -0.6495 -0.0000 0.7604
vn -0.7604 -0.0000 0.6495
vn -0.8526 -0.0000 0.5225
vn -0.9239 -0.0000 0.3827
vn -0.9724 -0.0000 0.2334
vn -0.9969 -0.0000 0.0785
vn -0.0785 -0.0000 -0.9969
vn -0.2334 -0.0000 -0.9724
vn -0.3827 -0.0000 -0.9239
vn -0.5225 -0.0000 -0.8526
vn -0.6494 -0.0000 -0.7604
vn -0.7604 -0.0000 -0.6495
vn -0.8526 -0.0000 -0.5225
vn -0.9239 -0.0000 -0.3827
vn -0.9724 -0.0000 -0.2334
vn -0.9969 -0.0000 -0.0784
vn 0.0785 -0.0000 -0.9969
vn 0.2334 -0.0000 -0.9724
vn 0.3827 -0.0000 -0.9239
vn 0.5225 -0.0000 -0.8526
vn 0.6494 -0.0000 -0.7604
vn 0.7604 -0.0000 -0.6495
vn 0.8526 -0.0000 -0.5225
vn 0.9239 -0.0000 -0.3827
vn 0.9724 -0.0000 -0.2334
vn 0.9969 -0.0000 -0.0784
vn 0.0785 -0.0000 0.9969
vn 0.2334 -0.0000 0.9724
vn 0.3827 -0.0000 0.9239
vn 0.5225 -0.0000 0.8526
vn 0.6495 -0.0000 0.7604
vn 0.7604 -0.0000 0.6495
vn 0.8526 -0.0000 0.5225
vn 0.9239 -0.0000 0.3827
vn 0.9724 -0.0000 0.2334
vn 0.9969 -0.0000 0.0785
vn -0.0000 -0.0000 1.0000
vt 1.000000 0.081736
vt 1.000000 0.918264
vt 0.021400 0.004544
vt 0.978600 0.004544
vt 0.981790 0.005541
vt 0.984901 0.008508
vt 0.987858 0.013371
vt 0.990587 0.020012
vt 0.993020 0.028266
vt 0.995098 0.037930
vt 0.996770 0.048767
vt 0.997995 0.060508
vt 0.998742 0.072866
vt 0.998992 0.085537
vt 0.998992 0.914463
vt 0.998742 0.927133
vt 0.997995 0.939492
vt 0.996770 0.951233
vt 0.995098 0.962070
vt 0.993020 0.971734
vt 0.990587 0.979988
vt 0.987858 0.986628
vt 0.984901 0.991492
vt 0.981790 0.994459
vt 0.978600 0.995456
vt 0.021400 0.995456
vt 0.018210 0.994459
vt 0.015099 0.991492
vt 0.012142 0.986628
vt 0.009414 0.979988
vt 0.006980 0.971734
vt 0.004902 0.962070
vt 0.003230 0.951233
vt 0.002006 0.939492
vt 0.001259 0.927133
vt 0.001008 0.914463
vt 0.001008 0.085537
vt 0.001259 0.072866
vt 0.002006 0.060508
vt 0.003230 0.048767
vt 0.004902 0.037930
vt 0.006980 0.028266
vt 0.009414 0.020012
vt 0.012142 0.013371
vt 0.015099 0.008508
vt 0.018210 0.005541
vt 0.020434 0.000000
vt 0.501101 0.000000
vt 0.979566 0.000000
vt 0.020434 0.000000
vt 0.000000 0.918264
vt 0.000000 0.081736
vt 0.979566 1.000000
vt 0.982763 0.999665
vt 0.985881 0.998667
vt 0.988843 0.997030
vt 0.991577 0.994797
vt 0.998005 0.992020
vt 0.998699 0.966307
vt 0.999258 0.955372
vt 0.999667 0.943522
vt 0.999916 0.931051
vt 0.999916 0.068949
vt 0.999667 0.056478
vt 0.999258 0.044628
vt 0.998699 0.033693
vt 0.998005 0.007980
vt 0.991577 0.005203
vt 0.988843 0.002970
vt 0.985881 0.001333
vt 0.982763 0.000335
vt 0.017237 0.000335
vt 0.014119 0.001333
vt 0.011157 0.002970
vt 0.008423 0.005203
vt 0.001995 0.007980
vt 0.001301 0.033693
vt 0.000742 0.044628
vt 0.000333 0.056478
vt 0.000084 0.068949
vt 0.000000 0.081736
vt 0.000084 0.931051
vt 0.000333 0.943522
vt 0.000742 0.955372
vt 0.001301 0.966307
vt 0.001995 0.992020
vt 0.008423 0.994797
vt 0.011157 0.997030
vt 0.014119 0.998667
vt 0.017237 0.999665
vt 0.020434 1.000000
vt 0.998005 0.992020
vt 0.999258 0.955372
vt 0.982763 0.000335
vt 0.988843 0.002970
vt 0.991577 0.005203
vt 0.998005 0.007980
vt 0.998699 0.033693
vt 0.999258 0.044628
vt 0.999667 0.056478
vt 0.999916 0.068949
vt 0.017237 0.000335
vt 0.014119 0.001333
vt 0.011157 0.002970
vt 0.008423 0.005203
vt 0.001995 0.007980
vt 0.001301 0.033693
vt 0.000742 0.044628
vt 0.000333 0.056478
vt 0.020434 1.000000
vt 0.020434 1.000000
vt 0.017237 0.999665
vt 0.014119 0.998667
vt 0.011157 0.997030
vt 0.008423 0.994797
vt 0.001995 0.992020
vt 0.001301 0.966307
vt 0.000333 0.943522
vt 0.000084 0.931051
s 0
usemtl Material
f 58/3/2 68/4/2 70/5/2 71/6/2 72/7/2 73/8/2 74/9/2 75/10/2 76/11/2 77/12/2 78/13/2 69/14/2 79/15/2 81/16/2 82/17/2 83/18/2 84/19/2 85/20/2 86/21/2 87/22/2 88/23/2 89/24/2 80/25/2 46/26/2 48/27/2 49/28/2 50/29/2 51/30/2 52/31/2 53/32/2 54/33/2 55/34/2 56/35/2 47/36/2 57/37/2 59/38/2 60/39/2 61/40/2 62/41/2 63/42/2 64/43/2 65/44/2 66/45/2 67/46/2
usemtl Material.001
f 13/1/1 36/2/1 79/2/1 69/1/1
f 2/47/3 1/48/3 14/49/3 68/49/3 58/50/3
f 24/51/4 3/52/4 57/52/4 47/51/4
f 35/53/5 37/54/5 38/55/5 39/56/5 40/57/5 41/58/5 42/59/5 43/60/5 44/61/5 45/62/5 36/2/5 13/1/5 15/63/5 16/64/5 17/65/5 18/66/5 19/67/5 20/68/5 21/69/5 22/70/5 23/71/5 14/49/5 1/48/5 2/50/5 4/72/5 5/73/5 6/74/5 7/75/5 8/76/5 9/77/5 10/78/5 11/79/5 12/80/5 3/81/5 24/51/5 26/82/5 27/83/5 28/84/5 29/85/5 30/86/5 31/87/5 32/88/5 33/89/5 34/90/5 25/91/5
f 35/53/6 80/53/6 89/54/6 37/54/6
f 37/54/7 89/54/7 88/55/7 38/55/7
f 38/55/8 88/55/8 87/56/8 39/56/8
f 39/56/9 87/56/9 86/57/9 40/57/9
f 40/57/10 86/57/10 85/92/10 41/58/10
f 41/58/11 85/92/11 84/59/11 42/59/11
f 42/59/12 84/59/12 83/93/12 43/60/12
f 43/60/13 83/93/13 82/61/13 44/61/13
f 44/61/14 82/61/14 81/62/14 45/62/14
f 45/62/15 81/62/15 79/2/15 36/2/15
f 68/49/16 14/49/16 23/71/16 70/94/16
f 70/94/17 23/71/17 22/70/17 71/70/17
f 71/70/18 22/70/18 21/69/18 72/95/18
f 72/95/19 21/69/19 20/68/19 73/96/19
f 73/96/20 20/68/20 19/67/20 74/97/20
f 74/97/21 19/67/21 18/66/21 75/98/21
f 75/98/22 18/66/22 17/65/22 76/99/22
f 76/99/23 17/65/23 16/64/23 77/100/23
f 77/100/24 16/64/24 15/63/24 78/101/24
f 78/101/25 15/63/25 13/1/25 69/1/25
f 2/47/26 58/50/26 67/102/26 4/72/26
f 4/72/27 67/102/27 66/103/27 5/73/27
f 5/73/28 66/103/28 65/104/28 6/74/28
f 6/74/29 65/104/29 64/105/29 7/75/29
f 7/75/30 64/105/30 63/106/30 8/76/30
f 8/76/31 63/106/31 62/107/31 9/77/31
f 9/77/32 62/107/32 61/108/32 10/78/32
f 10/78/33 61/108/33 60/109/33 11/79/33
f 11/79/34 60/109/34 59/80/34 12/80/34
f 12/80/35 59/80/35 57/52/35 3/52/35
f 46/110/36 25/111/36 34/90/36 48/112/36
f 48/112/37 34/90/37 33/89/37 49/113/37
f 49/113/38 33/89/38 32/88/38 50/114/38
f 50/114/39 32/88/39 31/87/39 51/115/39
f 51/115/40 31/87/40 30/86/40 52/116/40
f 52/116/41 30/86/41 29/85/41 53/117/41
f 53/117/42 29/85/42 28/84/42 54/84/42
f 54/84/43 28/84/43 27/83/43 55/118/43
f 55/118/44 27/83/44 26/82/44 56/119/44
f 56/119/45 26/82/45 24/51/45 47/51/45
f 35/53/46 25/111/46 46/110/46 80/53/46
