# Blender 4.2.9 LTS
# www.blender.org
mtllib 626-20.mtl
o Plane
v 0.212831 -0.000000 0.000000
v 0.250000 -0.000000 0.037169
v 0.218646 -0.000000 0.000458
v 0.224317 -0.000000 0.001819
v 0.229705 -0.000000 0.004051
v 0.234678 -0.000000 0.007099
v 0.239113 -0.000000 0.010887
v 0.242901 -0.000000 0.015322
v 0.245949 -0.000000 0.020295
v 0.248181 -0.000000 0.025683
v 0.249542 -0.000000 0.031354
v -0.250000 -0.000000 0.037169
v -0.212831 -0.000000 0.000000
v -0.249542 -0.000000 0.031354
v -0.248181 -0.000000 0.025683
v -0.245949 -0.000000 0.020295
v -0.242901 -0.000000 0.015322
v -0.239113 -0.000000 0.010887
v -0.234678 -0.000000 0.007099
v -0.229705 -0.000000 0.004051
v -0.224317 -0.000000 0.001819
v -0.218646 -0.000000 0.000458
v 0.250000 0.000000 0.712831
v 0.212831 0.000000 0.750000
v 0.249542 0.000000 0.718646
v 0.248181 0.000000 0.724317
v 0.245949 0.000000 0.729705
v 0.242901 0.000000 0.734678
v 0.239113 0.000000 0.739113
v 0.234678 0.000000 0.742901
v 0.229705 0.000000 0.745949
v 0.224317 0.000000 0.748181
v 0.218646 0.000000 0.749542
v -0.212831 0.000000 0.750000
v -0.250000 0.000000 0.712831
v -0.218646 0.000000 0.749542
v -0.224317 0.000000 0.748181
v -0.229705 0.000000 0.745949
v -0.234678 0.000000 0.742901
v -0.239113 0.000000 0.739113
v -0.242901 0.000000 0.734678
v -0.245949 0.000000 0.729705
v -0.248181 0.000000 0.724317
v -0.249542 0.000000 0.718646
v 0.212831 0.002000 0.750000
v 0.250000 0.002000 0.712831
v 0.218646 0.002000 0.749542
v 0.224317 0.002000 0.748181
v 0.229705 0.002000 0.745949
v 0.234678 0.002000 0.742901
v 0.239113 0.002000 0.739113
v 0.242901 0.002000 0.734678
v 0.245949 0.002000 0.729705
v 0.248181 0.002000 0.724317
v 0.249542 0.002000 0.718646
v 0.250000 0.002000 0.037169
v 0.212831 0.002000 -0.000000
v 0.249542 0.002000 0.031354
v 0.248181 0.002000 0.025683
v 0.245949 0.002000 0.020295
v 0.242901 0.002000 0.015322
v 0.239113 0.002000 0.010887
v 0.234678 0.002000 0.007099
v 0.229705 0.002000 0.004051
v 0.224317 0.002000 0.001819
v 0.218646 0.002000 0.000458
v -0.212831 0.002000 -0.000000
v -0.250000 0.002000 0.037169
v -0.218646 0.002000 0.000458
v -0.224317 0.002000 0.001819
v -0.229705 0.002000 0.004051
v -0.234678 0.002000 0.007099
v -0.239113 0.002000 0.010887
v -0.242901 0.002000 0.015322
v -0.245949 0.002000 0.020295
v -0.248181 0.002000 0.025683
v -0.249542 0.002000 0.031354
v -0.250000 0.002000 0.712831
v -0.212831 0.002000 0.750000
v -0.249542 0.002000 0.718646
v -0.248181 0.002000 0.724317
v -0.245949 0.002000 0.729705
v -0.242901 0.002000 0.734678
v -0.239113 0.002000 0.739113
v -0.234678 0.002000 0.742901
v -0.229705 0.002000 0.745949
v -0.224317 0.002000 0.748181
v -0.218646 0.002000 0.749542
vn -0.0000 -0.0000 -1.0000
vn -0.0000 -0.0000 1.0000
vn -0.0000 -1.0000 -0.0000
vn -0.0000 1.0000 -0.0000
vn -1.0000 -0.0000 -0.0000
vn -0.0785 -0.0000 0.9969
vn -0.2335 -0.0000 0.9724
vn -0.3827 -0.0000 0.9239
vn -0.5225 -0.0000 0.8526
vn -0.6495 -0.0000 0.7604
vn -0.7604 -0.0000 0.6494
vn -0.8526 -0.0000 0.5225
vn -0.9239 -0.0000 0.3827
vn -0.9724 -0.0000 0.2334
vn -0.9969 -0.0000 0.0785
vn -0.0785 -0.0000 -0.9969
vn -0.2334 -0.0000 -0.9724
vn -0.3827 -0.0000 -0.9239
vn -0.5225 -0.0000 -0.8526
vn -0.6494 -0.0000 -0.7604
vn -0.7604 -0.0000 -0.6494
vn -0.8526 -0.0000 -0.5225
vn -0.9239 -0.0000 -0.3827
vn -0.9724 -0.0000 -0.2334
vn -0.9969 -0.0000 -0.0785
vn 0.0785 -0.0000 -0.9969
vn 0.2334 -0.0000 -0.9724
vn 0.3827 -0.0000 -0.9239
vn 0.5225 -0.0000 -0.8526
vn 0.6494 -0.0000 -0.7604
vn 0.7604 -0.0000 -0.6494
vn 0.8526 -0.0000 -0.5225
vn 0.9239 -0.0000 -0.3827
vn 0.9724 -0.0000 -0.2334
vn 0.9969 -0.0000 -0.0785
vn 0.0785 -0.0000 0.9969
vn 0.2335 -0.0000 0.9724
vn 0.3827 -0.0000 0.9239
vn 0.5225 -0.0000 0.8526
vn 0.6495 -0.0000 0.7604
vn 0.7604 -0.0000 0.6494
vn 0.8526 -0.0000 0.5225
vn 0.9239 -0.0000 0.3827
vn 0.9724 -0.0000 0.2334
vn 0.9969 -0.0000 0.0785
vn 1.0000 -0.0000 -0.0000
vt 0.074338 0.000000
vt 0.925662 0.000000
vt 0.925662 1.000000
vt 0.074338 1.000000
vt 0.062709 0.000203
vt 0.051366 0.000809
vt 0.040589 0.001801
vt 0.030643 0.003155
vt 0.007258 0.004838
vt 0.004732 0.020429
vt 0.002701 0.027059
vt 0.001213 0.034244
vt 0.000305 0.041806
vt 0.000000 0.049559
vt 0.000000 0.950441
vt 0.000305 0.958194
vt 0.001213 0.965756
vt 0.002701 0.972941
vt 0.004732 0.979571
vt 0.007258 0.995162
vt 0.030643 0.996845
vt 0.040589 0.998199
vt 0.051366 0.999191
vt 0.062709 0.999797
vt 0.937291 0.999797
vt 0.948634 0.999191
vt 0.959411 0.998199
vt 0.969357 0.996845
vt 0.992742 0.995162
vt 0.995268 0.979571
vt 0.997299 0.972941
vt 0.998787 0.965756
vt 0.999695 0.958194
vt 1.000000 0.950441
vt 1.000000 0.049559
vt 0.999695 0.041806
vt 0.998787 0.034244
vt 0.997299 0.027059
vt 0.995268 0.020429
vt 0.992742 0.004838
vt 0.969357 0.003155
vt 0.959411 0.001801
vt 0.948634 0.000809
vt 0.937291 0.000203
vt 0.003492 0.051612
vt 0.004401 0.043894
vt 0.007105 0.036367
vt 0.011538 0.029215
vt 0.017590 0.022615
vt 0.025113 0.016728
vt 0.033921 0.011701
vt 0.043798 0.007656
vt 0.054499 0.004694
vt 0.065763 0.002886
vt 0.077311 0.002279
vt 0.922689 0.002279
vt 0.934237 0.002886
vt 0.945501 0.004694
vt 0.956202 0.007656
vt 0.966079 0.011701
vt 0.974887 0.016728
vt 0.982410 0.022615
vt 0.988462 0.029215
vt 0.992895 0.036367
vt 0.995599 0.043894
vt 0.996508 0.051612
vt 0.996508 0.948388
vt 0.995599 0.956105
vt 0.992895 0.963633
vt 0.988462 0.970785
vt 0.982410 0.977385
vt 0.974887 0.983272
vt 0.966079 0.988299
vt 0.956202 0.992344
vt 0.945501 0.995306
vt 0.934237 0.997114
vt 0.922689 0.997721
vt 0.077311 0.997721
vt 0.065763 0.997114
vt 0.054499 0.995306
vt 0.043798 0.992344
vt 0.033921 0.988299
vt 0.025113 0.983272
vt 0.017590 0.977385
vt 0.011538 0.970785
vt 0.007105 0.963633
vt 0.004401 0.956105
vt 0.003492 0.948388
vt 1.000000 0.049559
vt 1.000000 0.049559
vt 0.997299 0.972941
vt 0.937291 0.000203
vt 0.948634 0.000809
vt 0.959411 0.001801
vt 0.969357 0.003155
vt 0.992742 0.004838
vt 0.995268 0.020429
vt 0.997299 0.027059
vt 0.998787 0.034244
vt 0.999695 0.041806
vt 0.062709 0.000203
vt 0.051366 0.000809
vt 0.040589 0.001801
vt 0.030643 0.003155
vt 0.007258 0.004838
vt 0.004732 0.020429
vt 0.002701 0.027059
vt 0.001213 0.034244
vt 0.000305 0.041806
vt 0.000000 0.049559
vt 0.062709 0.999797
vt 0.002701 0.972941
s 0
usemtl Material
f 56/45/4 58/46/4 59/47/4 60/48/4 61/49/4 62/50/4 63/51/4 64/52/4 65/53/4 66/54/4 57/55/4 67/56/4 69/57/4 70/58/4 71/59/4 72/60/4 73/61/4 74/62/4 75/63/4 76/64/4 77/65/4 68/66/4 78/67/4 80/68/4 81/69/4 82/70/4 83/71/4 84/72/4 85/73/4 86/74/4 87/75/4 88/76/4 79/77/4 45/78/4 47/79/4 48/80/4 49/81/4 50/82/4 51/83/4 52/84/4 53/85/4 54/86/4 55/87/4 46/88/4
usemtl Material.001
f 1/1/1 13/2/1 67/2/1 57/1/1
f 34/3/2 24/4/2 45/4/2 79/3/2
f 1/1/3 3/5/3 4/6/3 5/7/3 6/8/3 7/9/3 8/10/3 9/11/3 10/12/3 11/13/3 2/14/3 23/15/3 25/16/3 26/17/3 27/18/3 28/19/3 29/20/3 30/21/3 31/22/3 32/23/3 33/24/3 24/4/3 34/3/3 36/25/3 37/26/3 38/27/3 39/28/3 40/29/3 41/30/3 42/31/3 43/32/3 44/33/3 35/34/3 12/35/3 14/36/3 15/37/3 16/38/3 17/39/3 18/40/3 19/41/3 20/42/3 21/43/3 22/44/3 13/2/3
f 12/89/5 35/34/5 78/34/5 68/90/5
f 34/3/6 79/3/6 88/25/6 36/25/6
f 36/25/7 88/25/7 87/26/7 37/26/7
f 37/26/8 87/26/8 86/27/8 38/27/8
f 38/27/9 86/27/9 85/28/9 39/28/9
f 39/28/10 85/28/10 84/29/10 40/29/10
f 40/29/11 84/29/11 83/30/11 41/30/11
f 41/30/12 83/30/12 82/91/12 42/31/12
f 42/31/13 82/91/13 81/32/13 43/32/13
f 43/32/14 81/32/14 80/33/14 44/33/14
f 44/33/15 80/33/15 78/34/15 35/34/15
f 67/2/16 13/2/16 22/44/16 69/92/16
f 69/92/17 22/44/17 21/43/17 70/93/17
f 70/93/18 21/43/18 20/42/18 71/94/18
f 71/94/19 20/42/19 19/41/19 72/95/19
f 72/95/20 19/41/20 18/40/20 73/96/20
f 73/96/21 18/40/21 17/39/21 74/97/21
f 74/97/22 17/39/22 16/38/22 75/98/22
f 75/98/23 16/38/23 15/37/23 76/99/23
f 76/99/24 15/37/24 14/36/24 77/100/24
f 77/100/25 14/36/25 12/89/25 68/90/25
f 1/1/26 57/1/26 66/101/26 3/5/26
f 3/5/27 66/101/27 65/102/27 4/6/27
f 4/6/28 65/102/28 64/103/28 5/7/28
f 5/7/29 64/103/29 63/104/29 6/8/29
f 6/8/30 63/104/30 62/105/30 7/9/30
f 7/9/31 62/105/31 61/106/31 8/10/31
f 8/10/32 61/106/32 60/107/32 9/11/32
f 9/11/33 60/107/33 59/108/33 10/12/33
f 10/12/34 59/108/34 58/109/34 11/13/34
f 11/13/35 58/109/35 56/14/35 2/110/35
f 45/4/36 24/4/36 33/24/36 47/111/36
f 47/111/37 33/24/37 32/23/37 48/23/37
f 48/23/38 32/23/38 31/22/38 49/22/38
f 49/22/39 31/22/39 30/21/39 50/21/39
f 50/21/40 30/21/40 29/20/40 51/20/40
f 51/20/41 29/20/41 28/19/41 52/19/41
f 52/19/42 28/19/42 27/18/42 53/112/42
f 53/112/43 27/18/43 26/17/43 54/17/43
f 54/17/44 26/17/44 25/16/44 55/16/44
f 55/16/45 25/16/45 23/15/45 46/15/45
f 23/15/46 2/110/46 56/14/46 46/15/46
