# Blender v3.6.4 OBJ File: 'rechteck_330_600.blend'
# www.blender.org
mtllib 1012-37.mtl
o Plane
v 0.258886 0.000000 0.000000
v 0.300000 0.000000 0.041114
v 0.265317 0.000000 0.000506
v 0.271591 0.000000 0.002012
v 0.277551 0.000000 0.004481
v 0.283052 0.000000 0.007852
v 0.287958 0.000000 0.012042
v 0.292148 0.000000 0.016948
v 0.295519 0.000000 0.022449
v 0.297988 0.000000 0.028409
v 0.299494 0.000000 0.034683
v -0.300000 0.000000 0.041114
v -0.258886 0.000000 0.000000
v -0.299494 0.000000 0.034683
v -0.297988 0.000000 0.028409
v -0.295519 0.000000 0.022449
v -0.292148 0.000000 0.016948
v -0.287958 0.000000 0.012042
v -0.283052 0.000000 0.007852
v -0.277551 0.000000 0.004481
v -0.271591 0.000000 0.002012
v -0.265317 0.000000 0.000506
v 0.300000 0.000000 0.288886
v 0.258886 0.000000 0.330000
v 0.299494 0.000000 0.295317
v 0.297988 0.000000 0.301591
v 0.295519 0.000000 0.307551
v 0.292148 0.000000 0.313052
v 0.287958 0.000000 0.317958
v 0.283052 0.000000 0.322148
v 0.277551 0.000000 0.325519
v 0.271591 0.000000 0.327988
v 0.265317 0.000000 0.329494
v -0.258886 0.000000 0.330000
v -0.300000 0.000000 0.288886
v -0.265317 0.000000 0.329494
v -0.271591 0.000000 0.327988
v -0.277551 0.000000 0.325519
v -0.283052 0.000000 0.322148
v -0.287958 0.000000 0.317958
v -0.292148 0.000000 0.313052
v -0.295519 0.000000 0.307551
v -0.297988 0.000000 0.301591
v -0.299494 0.000000 0.295317
v 0.258886 0.002000 0.330000
v 0.300000 0.002000 0.288886
v 0.265317 0.002000 0.329494
v 0.271591 0.002000 0.327988
v 0.277551 0.002000 0.325519
v 0.283052 0.002000 0.322148
v 0.287958 0.002000 0.317958
v 0.292148 0.002000 0.313052
v 0.295519 0.002000 0.307551
v 0.297988 0.002000 0.301591
v 0.299494 0.002000 0.295317
v 0.300000 0.002000 0.041114
v 0.258886 0.002000 -0.000000
v 0.299494 0.002000 0.034683
v 0.297988 0.002000 0.028409
v 0.295519 0.002000 0.022449
v 0.292148 0.002000 0.016948
v 0.287958 0.002000 0.012042
v 0.283052 0.002000 0.007852
v 0.277551 0.002000 0.004481
v 0.271591 0.002000 0.002012
v 0.265317 0.002000 0.000506
v -0.258886 0.002000 -0.000000
v -0.300000 0.002000 0.041114
v -0.265317 0.002000 0.000506
v -0.271591 0.002000 0.002012
v -0.277551 0.002000 0.004481
v -0.283052 0.002000 0.007852
v -0.287958 0.002000 0.012042
v -0.292148 0.002000 0.016948
v -0.295519 0.002000 0.022449
v -0.297988 0.002000 0.028409
v -0.299494 0.002000 0.034683
v -0.300000 0.002000 0.288886
v -0.258886 0.002000 0.330000
v -0.299494 0.002000 0.295317
v -0.297988 0.002000 0.301591
v -0.295519 0.002000 0.307551
v -0.292148 0.002000 0.313052
v -0.287958 0.002000 0.317958
v -0.283052 0.002000 0.322148
v -0.277551 0.002000 0.325519
v -0.271591 0.002000 0.327988
v -0.265317 0.002000 0.329494
vt 0.000100 0.124537
vt 0.000943 0.105070
vt 0.003453 0.086084
vt 0.007567 0.068044
vt 0.013184 0.051394
vt 0.020166 0.036547
vt 0.028341 0.023865
vt 0.037507 0.013663
vt 0.047439 0.006190
vt 0.057893 0.001632
vt 0.068610 0.000100
vt 0.931390 0.000100
vt 0.942107 0.001632
vt 0.952561 0.006190
vt 0.962493 0.013663
vt 0.971659 0.023865
vt 0.979834 0.036546
vt 0.986816 0.051394
vt 0.992433 0.068043
vt 0.996547 0.086083
vt 0.999057 0.105070
vt 0.999900 0.124536
vt 0.999900 0.874443
vt 0.999057 0.893909
vt 0.996547 0.912896
vt 0.992433 0.930936
vt 0.986816 0.947585
vt 0.979834 0.962433
vt 0.971659 0.975115
vt 0.962493 0.985317
vt 0.952561 0.992789
vt 0.942107 0.997348
vt 0.931390 0.998880
vt 0.068610 0.998880
vt 0.057893 0.997348
vt 0.047439 0.992789
vt 0.037507 0.985317
vt 0.028341 0.975115
vt 0.020166 0.962433
vt 0.013184 0.947585
vt 0.007567 0.930936
vt 0.003453 0.912896
vt 0.000943 0.893909
vt 0.000100 0.874443
vt 0.004972 0.026892
vt 0.005300 0.009204
vt 0.005389 0.009208
vt 0.005118 0.026903
vt 0.015287 0.008162
vt 0.015287 0.026086
vt 0.015194 0.026089
vt 0.015180 0.008186
vt 0.005858 0.971236
vt 0.005868 0.970996
vt 0.005899 0.970763
vt 0.005950 0.970541
vt 0.006019 0.970336
vt 0.006105 0.970154
vt 0.006205 0.969998
vt 0.006318 0.969873
vt 0.006440 0.969781
vt 0.006568 0.969725
vt 0.006700 0.969706
vt 0.011775 0.969706
vt 0.011907 0.969725
vt 0.012036 0.969781
vt 0.012158 0.969873
vt 0.012270 0.969998
vt 0.012371 0.970154
vt 0.012457 0.970336
vt 0.012526 0.970541
vt 0.012576 0.970763
vt 0.012607 0.970996
vt 0.012618 0.971236
vt 0.012618 0.990499
vt 0.012607 0.990739
vt 0.012576 0.990972
vt 0.012526 0.991194
vt 0.012457 0.991398
vt 0.012371 0.991581
vt 0.012270 0.991737
vt 0.012158 0.991862
vt 0.012036 0.991954
vt 0.011907 0.992010
vt 0.011775 0.992029
vt 0.006700 0.992029
vt 0.006568 0.992010
vt 0.006440 0.991954
vt 0.006318 0.991862
vt 0.006205 0.991737
vt 0.006105 0.991581
vt 0.006019 0.991398
vt 0.005950 0.991194
vt 0.005899 0.990972
vt 0.005868 0.990739
vt 0.005858 0.990499
vt 0.007152 0.006189
vt 0.013394 0.005619
vt 0.013399 0.005792
vt 0.007166 0.006404
vt 0.015109 0.007690
vt 0.015189 0.007637
vt 0.015013 0.007270
vt 0.015083 0.007205
vt 0.014890 0.006898
vt 0.014953 0.006818
vt 0.014739 0.006571
vt 0.014793 0.006475
vt 0.014562 0.006294
vt 0.014606 0.006184
vt 0.014362 0.006072
vt 0.014397 0.005950
vt 0.014144 0.005910
vt 0.014168 0.005778
vt 0.013913 0.005810
vt 0.013926 0.005671
vt 0.013666 0.005774
vt 0.013670 0.005624
vt 0.005338 0.008780
vt 0.005405 0.008802
vt 0.005388 0.008411
vt 0.005448 0.008445
vt 0.005458 0.008066
vt 0.005515 0.008113
vt 0.005554 0.007738
vt 0.005609 0.007802
vt 0.005682 0.007420
vt 0.005734 0.007504
vt 0.005850 0.007110
vt 0.005900 0.007219
vt 0.006069 0.006810
vt 0.006114 0.006951
vt 0.006353 0.006530
vt 0.006393 0.006710
vt 0.006720 0.006297
vt 0.006746 0.006516
vt 0.005080 0.027660
vt 0.004960 0.027661
vt 0.005103 0.028307
vt 0.004996 0.028337
vt 0.005175 0.028879
vt 0.005080 0.028934
vt 0.005289 0.029381
vt 0.005205 0.029458
vt 0.005437 0.029819
vt 0.005365 0.029915
vt 0.005617 0.030195
vt 0.005555 0.030309
vt 0.005825 0.030510
vt 0.005774 0.030640
vt 0.006062 0.030760
vt 0.006022 0.030908
vt 0.006328 0.030938
vt 0.006303 0.031107
vt 0.006632 0.031020
vt 0.006630 0.031219
vt 0.015263 0.026535
vt 0.015191 0.026522
vt 0.015230 0.026931
vt 0.015165 0.026906
vt 0.015176 0.027306
vt 0.015114 0.027268
vt 0.015094 0.027668
vt 0.015034 0.027612
vt 0.014978 0.028024
vt 0.014919 0.027945
vt 0.014818 0.028392
vt 0.014757 0.028283
vt 0.014593 0.028780
vt 0.014531 0.028627
vt 0.014270 0.029192
vt 0.014210 0.028977
vt 0.013807 0.029596
vt 0.013760 0.029314
vt 0.013227 0.029788
vt 0.013202 0.029547
vn 0.0000 1.0000 -0.0000
vn 0.0000 -0.0000 -1.0000
vn 0.0000 0.0000 1.0000
vn -0.0000 -1.0000 0.0000
vn -1.0000 0.0000 0.0000
vn -0.0785 0.0000 0.9969
vn -0.2334 0.0000 0.9724
vn -0.3827 0.0000 0.9239
vn -0.5225 0.0000 0.8526
vn -0.6495 0.0000 0.7604
vn -0.7604 0.0000 0.6494
vn -0.8526 0.0000 0.5225
vn -0.9239 0.0000 0.3827
vn -0.9724 0.0000 0.2334
vn -0.9969 0.0000 0.0785
vn -0.0785 -0.0000 -0.9969
vn -0.2334 -0.0000 -0.9724
vn -0.3827 0.0000 -0.9239
vn -0.5225 0.0000 -0.8526
vn -0.6494 0.0000 -0.7604
vn -0.7604 0.0000 -0.6494
vn -0.8526 0.0000 -0.5225
vn -0.9239 0.0000 -0.3827
vn -0.9724 0.0000 -0.2334
vn -0.9969 0.0000 -0.0785
vn 0.0785 -0.0000 -0.9969
vn 0.2334 -0.0000 -0.9724
vn 0.3827 0.0000 -0.9239
vn 0.5225 0.0000 -0.8526
vn 0.6494 0.0000 -0.7604
vn 0.7604 0.0000 -0.6494
vn 0.8526 0.0000 -0.5225
vn 0.9239 0.0000 -0.3827
vn 0.9724 0.0000 -0.2334
vn 0.9969 0.0000 -0.0785
vn 0.0785 0.0000 0.9969
vn 0.2334 0.0000 0.9724
vn 0.3827 0.0000 0.9239
vn 0.5225 0.0000 0.8526
vn 0.6495 0.0000 0.7604
vn 0.7604 0.0000 0.6494
vn 0.8526 0.0000 0.5225
vn 0.9239 0.0000 0.3827
vn 0.9724 0.0000 0.2334
vn 0.9969 0.0000 0.0785
vn 1.0000 0.0000 0.0000
usemtl Material
s off
f 56/1/1 58/2/1 59/3/1 60/4/1 61/5/1 62/6/1 63/7/1 64/8/1 65/9/1 66/10/1 57/11/1 67/12/1 69/13/1 70/14/1 71/15/1 72/16/1 73/17/1 74/18/1 75/19/1 76/20/1 77/21/1 68/22/1 78/23/1 80/24/1 81/25/1 82/26/1 83/27/1 84/28/1 85/29/1 86/30/1 87/31/1 88/32/1 79/33/1 45/34/1 47/35/1 48/36/1 49/37/1 50/38/1 51/39/1 52/40/1 53/41/1 54/42/1 55/43/1 46/44/1
usemtl Material.001
f 1/45/2 13/46/2 67/47/2 57/48/2
f 34/49/3 24/50/3 45/51/3 79/52/3
f 1/53/4 3/54/4 4/55/4 5/56/4 6/57/4 7/58/4 8/59/4 9/60/4 10/61/4 11/62/4 2/63/4 23/64/4 25/65/4 26/66/4 27/67/4 28/68/4 29/69/4 30/70/4 31/71/4 32/72/4 33/73/4 24/74/4 34/75/4 36/76/4 37/77/4 38/78/4 39/79/4 40/80/4 41/81/4 42/82/4 43/83/4 44/84/4 35/85/4 12/86/4 14/87/4 15/88/4 16/89/4 17/90/4 18/91/4 19/92/4 20/93/4 21/94/4 22/95/4 13/96/4
f 12/97/5 35/98/5 78/99/5 68/100/5
f 34/49/6 79/52/6 88/101/6 36/102/6
f 36/102/7 88/101/7 87/103/7 37/104/7
f 37/104/8 87/103/8 86/105/8 38/106/8
f 38/106/9 86/105/9 85/107/9 39/108/9
f 39/108/10 85/107/10 84/109/10 40/110/10
f 40/110/11 84/109/11 83/111/11 41/112/11
f 41/112/12 83/111/12 82/113/12 42/114/12
f 42/114/13 82/113/13 81/115/13 43/116/13
f 43/116/14 81/115/14 80/117/14 44/118/14
f 44/118/15 80/117/15 78/99/15 35/98/15
f 67/47/16 13/46/16 22/119/16 69/120/16
f 69/120/17 22/119/17 21/121/17 70/122/17
f 70/122/18 21/121/18 20/123/18 71/124/18
f 71/124/19 20/123/19 19/125/19 72/126/19
f 72/126/20 19/125/20 18/127/20 73/128/20
f 73/128/21 18/127/21 17/129/21 74/130/21
f 74/130/22 17/129/22 16/131/22 75/132/22
f 75/132/23 16/131/23 15/133/23 76/134/23
f 76/134/24 15/133/24 14/135/24 77/136/24
f 77/136/25 14/135/25 12/97/25 68/100/25
f 1/45/26 57/48/26 66/137/26 3/138/26
f 3/138/27 66/137/27 65/139/27 4/140/27
f 4/140/28 65/139/28 64/141/28 5/142/28
f 5/142/29 64/141/29 63/143/29 6/144/29
f 6/144/30 63/143/30 62/145/30 7/146/30
f 7/146/31 62/145/31 61/147/31 8/148/31
f 8/148/32 61/147/32 60/149/32 9/150/32
f 9/150/33 60/149/33 59/151/33 10/152/33
f 10/152/34 59/151/34 58/153/34 11/154/34
f 11/154/35 58/153/35 56/155/35 2/156/35
f 45/51/36 24/50/36 33/157/36 47/158/36
f 47/158/37 33/157/37 32/159/37 48/160/37
f 48/160/38 32/159/38 31/161/38 49/162/38
f 49/162/39 31/161/39 30/163/39 50/164/39
f 50/164/40 30/163/40 29/165/40 51/166/40
f 51/166/41 29/165/41 28/167/41 52/168/41
f 52/168/42 28/167/42 27/169/42 53/170/42
f 53/170/43 27/169/43 26/171/43 54/172/43
f 54/172/44 26/171/44 25/173/44 55/174/44
f 55/174/45 25/173/45 23/175/45 46/176/45
f 23/175/46 2/156/46 56/155/46 46/176/46
