# Blender v3.6.4 OBJ File: 'rechteck_450_600.blend'
# www.blender.org
mtllib 1026-34.mtl
o Plane
v 0.258651 0.000000 0.000000
v 0.300000 0.000000 0.041349
v 0.265119 0.000000 0.000509
v 0.271428 0.000000 0.002024
v 0.277423 0.000000 0.004507
v 0.282955 0.000000 0.007897
v 0.287889 0.000000 0.012111
v 0.292103 0.000000 0.017045
v 0.295493 0.000000 0.022577
v 0.297976 0.000000 0.028571
v 0.299491 0.000000 0.034881
v -0.300000 0.000000 0.041349
v -0.258651 0.000000 0.000000
v -0.299491 0.000000 0.034881
v -0.297976 0.000000 0.028571
v -0.295493 0.000000 0.022577
v -0.292103 0.000000 0.017045
v -0.287889 0.000000 0.012111
v -0.282955 0.000000 0.007897
v -0.277423 0.000000 0.004507
v -0.271428 0.000000 0.002024
v -0.265119 0.000000 0.000509
v 0.300000 0.000000 0.408651
v 0.258651 0.000000 0.450000
v 0.299491 0.000000 0.415119
v 0.297976 0.000000 0.421428
v 0.295493 0.000000 0.427423
v 0.292103 0.000000 0.432955
v 0.287889 0.000000 0.437889
v 0.282955 0.000000 0.442103
v 0.277423 0.000000 0.445493
v 0.271428 0.000000 0.447976
v 0.265119 0.000000 0.449491
v -0.258651 0.000000 0.450000
v -0.300000 0.000000 0.408651
v -0.265119 0.000000 0.449491
v -0.271428 0.000000 0.447976
v -0.277423 0.000000 0.445493
v -0.282955 0.000000 0.442103
v -0.287889 0.000000 0.437889
v -0.292103 0.000000 0.432955
v -0.295493 0.000000 0.427423
v -0.297976 0.000000 0.421428
v -0.299491 0.000000 0.415119
v 0.258651 0.002000 0.450000
v 0.300000 0.002000 0.408651
v 0.265119 0.002000 0.449491
v 0.271428 0.002000 0.447976
v 0.277423 0.002000 0.445493
v 0.282955 0.002000 0.442103
v 0.287889 0.002000 0.437889
v 0.292103 0.002000 0.432955
v 0.295493 0.002000 0.427423
v 0.297976 0.002000 0.421428
v 0.299491 0.002000 0.415119
v 0.300000 0.002000 0.041349
v 0.258651 0.002000 -0.000000
v 0.299491 0.002000 0.034881
v 0.297976 0.002000 0.028571
v 0.295493 0.002000 0.022577
v 0.292103 0.002000 0.017045
v 0.287889 0.002000 0.012111
v 0.282955 0.002000 0.007897
v 0.277423 0.002000 0.004507
v 0.271428 0.002000 0.002024
v 0.265119 0.002000 0.000509
v -0.258651 0.002000 -0.000000
v -0.300000 0.002000 0.041349
v -0.265119 0.002000 0.000509
v -0.271428 0.002000 0.002024
v -0.277423 0.002000 0.004507
v -0.282955 0.002000 0.007897
v -0.287889 0.002000 0.012111
v -0.292103 0.002000 0.017045
v -0.295493 0.002000 0.022577
v -0.297976 0.002000 0.028571
v -0.299491 0.002000 0.034881
v -0.300000 0.002000 0.408651
v -0.258651 0.002000 0.450000
v -0.299491 0.002000 0.415119
v -0.297976 0.002000 0.421428
v -0.295493 0.002000 0.427423
v -0.292103 0.002000 0.432955
v -0.287889 0.002000 0.437889
v -0.282955 0.002000 0.442103
v -0.277423 0.002000 0.445493
v -0.271428 0.002000 0.447976
v -0.265119 0.002000 0.449491
vt 0.002448 0.093573
vt 0.003293 0.079258
vt 0.005807 0.065295
vt 0.009929 0.052029
vt 0.015556 0.039786
vt 0.022550 0.028867
vt 0.030739 0.019541
vt 0.039921 0.012039
vt 0.049871 0.006544
vt 0.060343 0.003192
vt 0.071079 0.002065
vt 0.929688 0.002065
vt 0.940425 0.003192
vt 0.950897 0.006544
vt 0.960846 0.012039
vt 0.970028 0.019541
vt 0.978218 0.028867
vt 0.985212 0.039786
vt 0.990839 0.052029
vt 0.994960 0.065295
vt 0.997474 0.079258
vt 0.998319 0.093573
vt 0.998319 0.906427
vt 0.997474 0.920742
vt 0.994960 0.934705
vt 0.990838 0.947971
vt 0.985211 0.960214
vt 0.978218 0.971133
vt 0.970028 0.980458
vt 0.960846 0.987961
vt 0.950897 0.993456
vt 0.940425 0.996808
vt 0.929688 0.997935
vt 0.071079 0.997935
vt 0.060343 0.996808
vt 0.049871 0.993456
vt 0.039922 0.987961
vt 0.030739 0.980458
vt 0.022550 0.971133
vt 0.015556 0.960214
vt 0.009929 0.947971
vt 0.005808 0.934705
vt 0.003294 0.920742
vt 0.002449 0.906427
vt 0.006920 0.009649
vt 0.006892 0.005951
vt 0.006949 0.005945
vt 0.006949 0.009652
vt 0.003844 0.005627
vt 0.003638 0.008665
vt 0.003610 0.008664
vt 0.003808 0.005624
vt 0.003279 0.980163
vt 0.003290 0.979970
vt 0.003324 0.979782
vt 0.003380 0.979603
vt 0.003456 0.979438
vt 0.003550 0.979291
vt 0.003660 0.979165
vt 0.003784 0.979064
vt 0.003918 0.978990
vt 0.004059 0.978945
vt 0.004204 0.978930
vt 0.012419 0.978930
vt 0.012564 0.978945
vt 0.012705 0.978990
vt 0.012839 0.979064
vt 0.012963 0.979165
vt 0.013073 0.979291
vt 0.013168 0.979438
vt 0.013243 0.979603
vt 0.013299 0.979782
vt 0.013333 0.979970
vt 0.013344 0.980163
vt 0.013344 0.995590
vt 0.013333 0.995783
vt 0.013299 0.995971
vt 0.013243 0.996150
vt 0.013168 0.996315
vt 0.013073 0.996462
vt 0.012963 0.996588
vt 0.012839 0.996689
vt 0.012705 0.996763
vt 0.012564 0.996808
vt 0.012419 0.996823
vt 0.004204 0.996823
vt 0.004059 0.996808
vt 0.003918 0.996763
vt 0.003784 0.996689
vt 0.003660 0.996588
vt 0.003550 0.996462
vt 0.003456 0.996315
vt 0.003380 0.996150
vt 0.003324 0.995971
vt 0.003290 0.995783
vt 0.003279 0.995590
vt 0.006268 0.004807
vt 0.004358 0.004872
vt 0.004355 0.004832
vt 0.006268 0.004771
vt 0.003817 0.005481
vt 0.003848 0.005487
vt 0.003839 0.005353
vt 0.003866 0.005364
vt 0.003872 0.005241
vt 0.003896 0.005256
vt 0.003915 0.005142
vt 0.003936 0.005161
vt 0.003968 0.005056
vt 0.003986 0.005079
vt 0.004030 0.004983
vt 0.004045 0.005010
vt 0.004099 0.004923
vt 0.004111 0.004953
vt 0.004177 0.004878
vt 0.004185 0.004911
vt 0.004262 0.004848
vt 0.004267 0.004884
vt 0.006866 0.005637
vt 0.006931 0.005621
vt 0.006811 0.005382
vt 0.006861 0.005357
vt 0.006747 0.005198
vt 0.006783 0.005170
vt 0.006680 0.005067
vt 0.006707 0.005038
vt 0.006613 0.004973
vt 0.006632 0.004944
vt 0.006545 0.004906
vt 0.006559 0.004877
vt 0.006478 0.004859
vt 0.006487 0.004830
vt 0.006410 0.004828
vt 0.006416 0.004799
vt 0.006342 0.004811
vt 0.006345 0.004781
vt 0.006923 0.009748
vt 0.006902 0.009737
vt 0.006891 0.009827
vt 0.006873 0.009812
vt 0.006851 0.009899
vt 0.006836 0.009881
vt 0.006803 0.009966
vt 0.006788 0.009944
vt 0.006742 0.010028
vt 0.006730 0.010000
vt 0.006668 0.010082
vt 0.006657 0.010048
vt 0.006575 0.010127
vt 0.006568 0.010085
vt 0.006458 0.010158
vt 0.006456 0.010106
vt 0.006313 0.010163
vt 0.006318 0.010103
vt 0.006152 0.010122
vt 0.006160 0.010067
vt 0.003641 0.008768
vt 0.003618 0.008772
vt 0.003652 0.008859
vt 0.003631 0.008866
vt 0.003672 0.008944
vt 0.003653 0.008954
vt 0.003701 0.009022
vt 0.003684 0.009036
vt 0.003740 0.009092
vt 0.003724 0.009110
vt 0.003786 0.009153
vt 0.003772 0.009174
vt 0.003839 0.009204
vt 0.003828 0.009228
vt 0.003899 0.009244
vt 0.003890 0.009271
vt 0.003966 0.009274
vt 0.003959 0.009305
vt 0.004046 0.009297
vt 0.004039 0.009335
vn 0.0000 1.0000 -0.0000
vn 0.0000 -0.0000 -1.0000
vn 0.0000 0.0000 1.0000
vn -0.0000 -1.0000 0.0000
vn -1.0000 0.0000 0.0000
vn -0.0785 0.0000 0.9969
vn -0.2334 0.0000 0.9724
vn -0.3827 0.0000 0.9239
vn -0.5225 0.0000 0.8526
vn -0.6494 0.0000 0.7604
vn -0.7604 0.0000 0.6494
vn -0.8526 0.0000 0.5225
vn -0.9239 0.0000 0.3827
vn -0.9724 0.0000 0.2334
vn -0.9969 0.0000 0.0785
vn -0.0785 -0.0000 -0.9969
vn -0.2334 0.0000 -0.9724
vn -0.3827 0.0000 -0.9239
vn -0.5225 0.0000 -0.8526
vn -0.6494 0.0000 -0.7604
vn -0.7604 0.0000 -0.6494
vn -0.8526 0.0000 -0.5225
vn -0.9239 0.0000 -0.3827
vn -0.9724 0.0000 -0.2334
vn -0.9969 0.0000 -0.0785
vn 0.0785 -0.0000 -0.9969
vn 0.2334 0.0000 -0.9724
vn 0.3827 0.0000 -0.9239
vn 0.5225 0.0000 -0.8526
vn 0.6494 0.0000 -0.7604
vn 0.7604 0.0000 -0.6494
vn 0.8526 0.0000 -0.5225
vn 0.9239 0.0000 -0.3827
vn 0.9724 0.0000 -0.2334
vn 0.9969 0.0000 -0.0785
vn 0.0785 0.0000 0.9969
vn 0.2334 0.0000 0.9724
vn 0.3827 0.0000 0.9239
vn 0.5225 0.0000 0.8526
vn 0.6494 0.0000 0.7604
vn 0.7604 0.0000 0.6494
vn 0.8526 0.0000 0.5225
vn 0.9239 0.0000 0.3827
vn 0.9724 0.0000 0.2334
vn 0.9969 0.0000 0.0785
vn 1.0000 0.0000 0.0000
usemtl Material
s off
f 56/1/1 58/2/1 59/3/1 60/4/1 61/5/1 62/6/1 63/7/1 64/8/1 65/9/1 66/10/1 57/11/1 67/12/1 69/13/1 70/14/1 71/15/1 72/16/1 73/17/1 74/18/1 75/19/1 76/20/1 77/21/1 68/22/1 78/23/1 80/24/1 81/25/1 82/26/1 83/27/1 84/28/1 85/29/1 86/30/1 87/31/1 88/32/1 79/33/1 45/34/1 47/35/1 48/36/1 49/37/1 50/38/1 51/39/1 52/40/1 53/41/1 54/42/1 55/43/1 46/44/1
usemtl Material.001
f 1/45/2 13/46/2 67/47/2 57/48/2
f 34/49/3 24/50/3 45/51/3 79/52/3
f 1/53/4 3/54/4 4/55/4 5/56/4 6/57/4 7/58/4 8/59/4 9/60/4 10/61/4 11/62/4 2/63/4 23/64/4 25/65/4 26/66/4 27/67/4 28/68/4 29/69/4 30/70/4 31/71/4 32/72/4 33/73/4 24/74/4 34/75/4 36/76/4 37/77/4 38/78/4 39/79/4 40/80/4 41/81/4 42/82/4 43/83/4 44/84/4 35/85/4 12/86/4 14/87/4 15/88/4 16/89/4 17/90/4 18/91/4 19/92/4 20/93/4 21/94/4 22/95/4 13/96/4
f 12/97/5 35/98/5 78/99/5 68/100/5
f 34/49/6 79/52/6 88/101/6 36/102/6
f 36/102/7 88/101/7 87/103/7 37/104/7
f 37/104/8 87/103/8 86/105/8 38/106/8
f 38/106/9 86/105/9 85/107/9 39/108/9
f 39/108/10 85/107/10 84/109/10 40/110/10
f 40/110/11 84/109/11 83/111/11 41/112/11
f 41/112/12 83/111/12 82/113/12 42/114/12
f 42/114/13 82/113/13 81/115/13 43/116/13
f 43/116/14 81/115/14 80/117/14 44/118/14
f 44/118/15 80/117/15 78/99/15 35/98/15
f 67/47/16 13/46/16 22/119/16 69/120/16
f 69/120/17 22/119/17 21/121/17 70/122/17
f 70/122/18 21/121/18 20/123/18 71/124/18
f 71/124/19 20/123/19 19/125/19 72/126/19
f 72/126/20 19/125/20 18/127/20 73/128/20
f 73/128/21 18/127/21 17/129/21 74/130/21
f 74/130/22 17/129/22 16/131/22 75/132/22
f 75/132/23 16/131/23 15/133/23 76/134/23
f 76/134/24 15/133/24 14/135/24 77/136/24
f 77/136/25 14/135/25 12/97/25 68/100/25
f 1/45/26 57/48/26 66/137/26 3/138/26
f 3/138/27 66/137/27 65/139/27 4/140/27
f 4/140/28 65/139/28 64/141/28 5/142/28
f 5/142/29 64/141/29 63/143/29 6/144/29
f 6/144/30 63/143/30 62/145/30 7/146/30
f 7/146/31 62/145/31 61/147/31 8/148/31
f 8/148/32 61/147/32 60/149/32 9/150/32
f 9/150/33 60/149/33 59/151/33 10/152/33
f 10/152/34 59/151/34 58/153/34 11/154/34
f 11/154/35 58/153/35 56/155/35 2/156/35
f 45/51/36 24/50/36 33/157/36 47/158/36
f 47/158/37 33/157/37 32/159/37 48/160/37
f 48/160/38 32/159/38 31/161/38 49/162/38
f 49/162/39 31/161/39 30/163/39 50/164/39
f 50/164/40 30/163/40 29/165/40 51/166/40
f 51/166/41 29/165/41 28/167/41 52/168/41
f 52/168/42 28/167/42 27/169/42 53/170/42
f 53/170/43 27/169/43 26/171/43 54/172/43
f 54/172/44 26/171/44 25/173/44 55/174/44
f 55/174/45 25/173/45 23/175/45 46/176/45
f 23/175/46 2/156/46 56/155/46 46/176/46
