# Blender v3.6.4 OBJ File: 'dreieckig_unten_sl900.blend'
# www.blender.org
mtllib 205.mtl
o Plane
v -0.039708 -0.000000 0.028511
v 0.039710 -0.000000 0.028511
v -0.033007 -0.000000 0.018598
v -0.025494 -0.000000 0.010624
v -0.017353 -0.000000 0.004783
v -0.008784 -0.000000 0.001220
v 0.000001 -0.000000 0.000022
v 0.008786 -0.000000 0.001220
v 0.017354 -0.000000 0.004783
v 0.025495 -0.000000 0.010624
v 0.033009 -0.000000 0.018599
v -0.370581 0.000000 0.739156
v -0.410290 0.000000 0.670378
v -0.382516 0.000000 0.738309
v -0.393179 0.000000 0.735790
v -0.402308 0.000000 0.731659
v -0.409678 0.000000 0.726020
v -0.415108 0.000000 0.719011
v -0.418463 0.000000 0.710805
v -0.419662 0.000000 0.701603
v -0.418674 0.000000 0.691631
v -0.415524 0.000000 0.681137
v -0.410290 0.002000 0.670378
v -0.370581 0.002000 0.739156
v -0.415524 0.002000 0.681137
v -0.418674 0.002000 0.691631
v -0.419662 0.002000 0.701603
v -0.418463 0.002000 0.710805
v -0.415108 0.002000 0.719011
v -0.409678 0.002000 0.726020
v -0.402308 0.002000 0.731659
v -0.393179 0.002000 0.735790
v -0.382516 0.002000 0.738309
v 0.039710 0.002000 0.028511
v -0.039708 0.002000 0.028511
v 0.033009 0.002000 0.018599
v 0.025495 0.002000 0.010624
v 0.017354 0.002000 0.004783
v 0.008786 0.002000 0.001220
v 0.000001 0.002000 0.000022
v -0.008784 0.002000 0.001220
v -0.017353 0.002000 0.004783
v -0.025494 0.002000 0.010624
v -0.033007 0.002000 0.018598
v 0.410290 -0.000000 0.670376
v 0.370580 0.000000 0.739155
v 0.415524 -0.000000 0.681136
v 0.418673 -0.000000 0.691630
v 0.419661 -0.000000 0.701601
v 0.418462 -0.000000 0.710803
v 0.415107 -0.000000 0.719010
v 0.409678 0.000000 0.726019
v 0.402307 0.000000 0.731658
v 0.393178 0.000000 0.735788
v 0.382515 0.000000 0.738308
v 0.370581 0.002000 0.739155
v 0.410290 0.002000 0.670376
v 0.382515 0.002000 0.738308
v 0.393178 0.002000 0.735788
v 0.402307 0.002000 0.731658
v 0.409678 0.002000 0.726019
v 0.415107 0.002000 0.719010
v 0.418462 0.002000 0.710803
v 0.419661 0.002000 0.701601
v 0.418673 0.002000 0.691630
v 0.415524 0.002000 0.681136
vt 0.987981 0.907036
vt 0.994199 0.921581
vt 0.997940 0.935768
vt 0.999114 0.949248
vt 0.997690 0.961688
vt 0.993704 0.972783
vt 0.987254 0.982258
vt 0.978498 0.989882
vt 0.967653 0.995465
vt 0.954986 0.998871
vt 0.940807 1.000016
vt 0.060330 1.000018
vt 0.046151 0.998873
vt 0.033484 0.995467
vt 0.022639 0.989884
vt 0.013883 0.982260
vt 0.007433 0.972785
vt 0.003447 0.961690
vt 0.002023 0.949250
vt 0.003197 0.935771
vt 0.006938 0.921583
vt 0.013156 0.907038
vt 0.453394 0.039319
vt 0.461354 0.025918
vt 0.470280 0.015138
vt 0.479952 0.007241
vt 0.490131 0.002425
vt 0.500567 0.000806
vt 0.511003 0.002425
vt 0.521182 0.007241
vt 0.530854 0.015137
vt 0.539780 0.025918
vt 0.547740 0.039319
vt 0.896434 0.354902
vt 0.896431 0.205868
vt 0.896786 0.205853
vt 0.896786 0.354918
vt 0.770865 0.288374
vt 0.884283 0.362886
vt 0.884117 0.363244
vt 0.770678 0.288714
vt 0.180985 0.397364
vt 0.180801 0.400316
vt 0.180254 0.402954
vt 0.179356 0.405212
vt 0.178130 0.407035
vt 0.176606 0.408378
vt 0.174823 0.409208
vt 0.172822 0.409505
vt 0.170655 0.409261
vt 0.168374 0.408482
vt 0.166035 0.407187
vt 0.026508 0.315517
vt 0.024354 0.313859
vt 0.022620 0.312001
vt 0.021350 0.309987
vt 0.020576 0.307867
vt 0.020316 0.305694
vt 0.020576 0.303521
vt 0.021350 0.301401
vt 0.022620 0.299387
vt 0.024354 0.297529
vt 0.026508 0.295871
vt 0.166035 0.204201
vt 0.168374 0.202907
vt 0.170655 0.202128
vt 0.172822 0.201883
vt 0.174823 0.202180
vt 0.176606 0.203010
vt 0.178130 0.204353
vt 0.179356 0.206176
vt 0.180254 0.208434
vt 0.180801 0.211072
vt 0.180985 0.214024
vt 0.896632 0.357363
vt 0.896280 0.357301
vt 0.896170 0.359575
vt 0.895832 0.359443
vt 0.895407 0.361485
vt 0.895100 0.361274
vt 0.894357 0.363039
vt 0.894103 0.362751
vt 0.893047 0.364191
vt 0.892867 0.363838
vt 0.891515 0.364907
vt 0.891422 0.364512
vt 0.889807 0.365164
vt 0.889800 0.364757
vt 0.887972 0.364962
vt 0.888040 0.364562
vt 0.886058 0.364312
vt 0.886186 0.363934
vt 0.770712 0.272032
vt 0.770903 0.272377
vt 0.769122 0.273751
vt 0.768897 0.273431
vt 0.767710 0.275267
vt 0.767439 0.274998
vt 0.766678 0.276907
vt 0.766363 0.276709
vt 0.766049 0.278630
vt 0.765702 0.278524
vt 0.765838 0.280395
vt 0.765479 0.280395
vt 0.766049 0.282156
vt 0.765702 0.282262
vt 0.766676 0.283877
vt 0.766362 0.284075
vt 0.767707 0.285514
vt 0.767437 0.285782
vt 0.769115 0.287024
vt 0.768892 0.287341
vt 0.884281 0.197886
vt 0.884114 0.197528
vt 0.886054 0.196459
vt 0.886183 0.196837
vt 0.887968 0.195806
vt 0.888037 0.196205
vt 0.889804 0.195600
vt 0.889798 0.196009
vt 0.891514 0.195856
vt 0.891422 0.196251
vt 0.893048 0.196570
vt 0.892869 0.196925
vt 0.894360 0.197725
vt 0.894106 0.198014
vt 0.895410 0.199282
vt 0.895102 0.199492
vt 0.896171 0.201194
vt 0.895832 0.201326
vt 0.896631 0.203406
vt 0.896279 0.203468
vn 0.0000 1.0000 -0.0000
vn 0.8660 0.0000 -0.5000
vn 0.0000 -0.0000 1.0000
vn -0.0000 -1.0000 0.0000
vn 0.8992 0.0000 -0.4375
vn 0.9578 -0.0000 -0.2875
vn 0.9951 0.0000 -0.0986
vn 0.9916 0.0000 0.1292
vn 0.9256 0.0000 0.3784
vn 0.7906 0.0000 0.6124
vn 0.6077 0.0000 0.7942
vn 0.4122 0.0000 0.9111
vn 0.2300 0.0000 0.9732
vn 0.0708 -0.0000 0.9975
vn -0.8992 0.0000 -0.4375
vn -0.9578 0.0000 -0.2875
vn -0.9951 0.0000 -0.0986
vn -0.9916 0.0000 0.1292
vn -0.9256 0.0000 0.3785
vn -0.7906 0.0000 0.6124
vn -0.6077 0.0000 0.7942
vn -0.4122 0.0000 0.9111
vn -0.2299 0.0000 0.9732
vn -0.0708 0.0000 0.9975
vn -0.8285 0.0000 -0.5600
vn -0.7278 0.0000 -0.6857
vn -0.5829 0.0000 -0.8125
vn -0.3840 0.0000 -0.9234
vn -0.1351 -0.0000 -0.9908
vn 0.1351 -0.0000 -0.9908
vn 0.3840 0.0000 -0.9234
vn 0.5829 0.0000 -0.8125
vn 0.7278 0.0000 -0.6857
vn 0.8285 0.0000 -0.5600
vn -0.8660 0.0000 -0.5000
usemtl Material
s off
f 34/1/1 36/2/1 37/3/1 38/4/1 39/5/1 40/6/1 41/7/1 42/8/1 43/9/1 44/10/1 35/11/1 23/12/1 25/13/1 26/14/1 27/15/1 28/16/1 29/17/1 30/18/1 31/19/1 32/20/1 33/21/1 24/22/1 56/23/1 58/24/1 59/25/1 60/26/1 61/27/1 62/28/1 63/29/1 64/30/1 65/31/1 66/32/1 57/33/1
usemtl Material.001
f 45/34/2 2/35/2 34/36/2 57/37/2
f 12/38/3 46/39/3 56/40/3 24/41/3
f 1/42/4 3/43/4 4/44/4 5/45/4 6/46/4 7/47/4 8/48/4 9/49/4 10/50/4 11/51/4 2/52/4 45/53/4 47/54/4 48/55/4 49/56/4 50/57/4 51/58/4 52/59/4 53/60/4 54/61/4 55/62/4 46/63/4 12/64/4 14/65/4 15/66/4 16/67/4 17/68/4 18/69/4 19/70/4 20/71/4 21/72/4 22/73/4 13/74/4
f 45/34/5 57/37/5 66/75/5 47/76/5
f 47/76/6 66/75/6 65/77/6 48/78/6
f 48/78/7 65/77/7 64/79/7 49/80/7
f 49/80/8 64/79/8 63/81/8 50/82/8
f 50/82/9 63/81/9 62/83/9 51/84/9
f 51/84/10 62/83/10 61/85/10 52/86/10
f 52/86/11 61/85/11 60/87/11 53/88/11
f 53/88/12 60/87/12 59/89/12 54/90/12
f 54/90/13 59/89/13 58/91/13 55/92/13
f 55/92/14 58/91/14 56/40/14 46/39/14
f 23/93/15 13/94/15 22/95/15 25/96/15
f 25/96/16 22/95/16 21/97/16 26/98/16
f 26/98/17 21/97/17 20/99/17 27/100/17
f 27/100/18 20/99/18 19/101/18 28/102/18
f 28/102/19 19/101/19 18/103/19 29/104/19
f 29/104/20 18/103/20 17/105/20 30/106/20
f 30/106/21 17/105/21 16/107/21 31/108/21
f 31/108/22 16/107/22 15/109/22 32/110/22
f 32/110/23 15/109/23 14/111/23 33/112/23
f 33/112/24 14/111/24 12/38/24 24/41/24
f 1/113/25 35/114/25 44/115/25 3/116/25
f 3/116/26 44/115/26 43/117/26 4/118/26
f 4/118/27 43/117/27 42/119/27 5/120/27
f 5/120/28 42/119/28 41/121/28 6/122/28
f 6/122/29 41/121/29 40/123/29 7/124/29
f 7/124/30 40/123/30 39/125/30 8/126/30
f 8/126/31 39/125/31 38/127/31 9/128/31
f 9/128/32 38/127/32 37/129/32 10/130/32
f 10/130/33 37/129/33 36/131/33 11/132/33
f 11/132/34 36/131/34 34/36/34 2/35/34
f 1/113/35 13/94/35 23/93/35 35/114/35
