# Blender v3.5.0 OBJ File: 'rechteck_900_600.blend'
# www.blender.org
mtllib 229-10.mtl
o Plane
v 0.255085 0.000000 0.000000
v 0.300000 0.000000 0.044915
v 0.262111 0.000000 0.000553
v 0.268964 0.000000 0.002198
v 0.275476 0.000000 0.004895
v 0.281485 0.000000 0.008578
v 0.286845 0.000000 0.013155
v 0.291422 0.000000 0.018515
v 0.295105 0.000000 0.024524
v 0.297802 0.000000 0.031036
v 0.299447 0.000000 0.037889
v -0.300000 0.000000 0.044915
v -0.255085 0.000000 0.000000
v -0.299447 0.000000 0.037889
v -0.297802 0.000000 0.031036
v -0.295105 0.000000 0.024524
v -0.291422 0.000000 0.018515
v -0.286845 0.000000 0.013155
v -0.281485 0.000000 0.008578
v -0.275476 0.000000 0.004895
v -0.268964 0.000000 0.002198
v -0.262111 0.000000 0.000553
v 0.300000 0.000000 0.855085
v 0.255085 0.000000 0.900000
v 0.299447 0.000000 0.862111
v 0.297802 0.000000 0.868964
v 0.295105 0.000000 0.875476
v 0.291422 0.000000 0.881485
v 0.286845 0.000000 0.886845
v 0.281485 0.000000 0.891422
v 0.275476 0.000000 0.895105
v 0.268964 0.000000 0.897802
v 0.262111 0.000000 0.899447
v -0.255085 0.000000 0.900000
v -0.300000 0.000000 0.855085
v -0.262111 0.000000 0.899447
v -0.268964 0.000000 0.897802
v -0.275476 0.000000 0.895105
v -0.281485 0.000000 0.891422
v -0.286845 0.000000 0.886845
v -0.291422 0.000000 0.881485
v -0.295105 0.000000 0.875476
v -0.297802 0.000000 0.868964
v -0.299447 0.000000 0.862111
v 0.255085 0.002000 0.900000
v 0.300000 0.002000 0.855085
v 0.262111 0.002000 0.899447
v 0.268964 0.002000 0.897802
v 0.275476 0.002000 0.895105
v 0.281485 0.002000 0.891422
v 0.286845 0.002000 0.886845
v 0.291422 0.002000 0.881485
v 0.295105 0.002000 0.875476
v 0.297802 0.002000 0.868964
v 0.299447 0.002000 0.862111
v 0.300000 0.002000 0.044915
v 0.255085 0.002000 -0.000000
v 0.299447 0.002000 0.037889
v 0.297802 0.002000 0.031036
v 0.295105 0.002000 0.024524
v 0.291422 0.002000 0.018515
v 0.286845 0.002000 0.013155
v 0.281485 0.002000 0.008578
v 0.275476 0.002000 0.004895
v 0.268964 0.002000 0.002198
v 0.262111 0.002000 0.000553
v -0.255085 0.002000 -0.000000
v -0.300000 0.002000 0.044915
v -0.262111 0.002000 0.000553
v -0.268964 0.002000 0.002198
v -0.275476 0.002000 0.004895
v -0.281485 0.002000 0.008578
v -0.286845 0.002000 0.013155
v -0.291422 0.002000 0.018515
v -0.295105 0.002000 0.024524
v -0.297802 0.002000 0.031036
v -0.299447 0.002000 0.037889
v -0.300000 0.002000 0.855085
v -0.255085 0.002000 0.900000
v -0.299447 0.002000 0.862111
v -0.297802 0.002000 0.868964
v -0.295105 0.002000 0.875476
v -0.291422 0.002000 0.881485
v -0.286845 0.002000 0.886845
v -0.281485 0.002000 0.891422
v -0.275476 0.002000 0.895105
v -0.268964 0.002000 0.897802
v -0.262111 0.002000 0.899447
vt 0.001511 0.050070
vt 0.002430 0.042272
vt 0.005163 0.034666
vt 0.009645 0.027440
vt 0.015764 0.020770
vt 0.023370 0.014822
vt 0.032275 0.009743
vt 0.042260 0.005655
vt 0.053080 0.002662
vt 0.064467 0.000836
vt 0.076142 0.000222
vt 0.923858 0.000222
vt 0.935532 0.000836
vt 0.946920 0.002662
vt 0.957739 0.005655
vt 0.967725 0.009742
vt 0.976630 0.014822
vt 0.984236 0.020770
vt 0.990355 0.027440
vt 0.994837 0.034666
vt 0.997571 0.042272
vt 0.998489 0.050070
vt 0.998489 0.949223
vt 0.997571 0.957021
vt 0.994837 0.964626
vt 0.990355 0.971853
vt 0.984236 0.978523
vt 0.976630 0.984470
vt 0.967725 0.989550
vt 0.957740 0.993638
vt 0.946920 0.996631
vt 0.935533 0.998457
vt 0.923858 0.999070
vt 0.076142 0.999070
vt 0.064467 0.998457
vt 0.053080 0.996631
vt 0.042260 0.993637
vt 0.032275 0.989550
vt 0.023370 0.984470
vt 0.015764 0.978522
vt 0.009645 0.971853
vt 0.005163 0.964626
vt 0.002429 0.957021
vt 0.001511 0.949223
vt 0.988713 0.001356
vt 0.995095 0.001735
vt 0.995074 0.001818
vt 0.988702 0.001408
vt 0.994847 0.009750
vt 0.989143 0.009932
vt 0.989140 0.009878
vt 0.994839 0.009691
vt 0.015359 0.984968
vt 0.015488 0.984975
vt 0.015614 0.984995
vt 0.015734 0.985028
vt 0.015844 0.985073
vt 0.015943 0.985129
vt 0.016027 0.985195
vt 0.016095 0.985269
vt 0.016144 0.985349
vt 0.016175 0.985433
vt 0.016185 0.985519
vt 0.016185 0.995470
vt 0.016175 0.995556
vt 0.016144 0.995640
vt 0.016095 0.995720
vt 0.016027 0.995794
vt 0.015943 0.995860
vt 0.015844 0.995916
vt 0.015734 0.995961
vt 0.015614 0.995995
vt 0.015488 0.996015
vt 0.015359 0.996022
vt 0.005978 0.996022
vt 0.005848 0.996015
vt 0.005722 0.995995
vt 0.005603 0.995961
vt 0.005492 0.995916
vt 0.005394 0.995860
vt 0.005309 0.995794
vt 0.005242 0.995720
vt 0.005192 0.995640
vt 0.005162 0.995556
vt 0.005152 0.995470
vt 0.005152 0.985519
vt 0.005162 0.985433
vt 0.005192 0.985349
vt 0.005242 0.985269
vt 0.005309 0.985195
vt 0.005394 0.985129
vt 0.005492 0.985073
vt 0.005603 0.985028
vt 0.005722 0.984995
vt 0.005848 0.984975
vt 0.005978 0.984968
vt 0.996944 0.002918
vt 0.996494 0.008430
vt 0.996372 0.008428
vt 0.996875 0.002916
vt 0.995119 0.009670
vt 0.995135 0.009721
vt 0.995369 0.009624
vt 0.995394 0.009671
vt 0.995595 0.009554
vt 0.995630 0.009597
vt 0.995798 0.009463
vt 0.995842 0.009500
vt 0.995975 0.009350
vt 0.996029 0.009383
vt 0.996126 0.009216
vt 0.996190 0.009243
vt 0.996248 0.009061
vt 0.996321 0.009082
vt 0.996334 0.008882
vt 0.996418 0.008896
vt 0.996379 0.008676
vt 0.996477 0.008682
vt 0.995599 0.001796
vt 0.995564 0.001881
vt 0.996007 0.001910
vt 0.995960 0.001976
vt 0.996305 0.002035
vt 0.996254 0.002084
vt 0.996521 0.002161
vt 0.996470 0.002197
vt 0.996679 0.002287
vt 0.996627 0.002313
vt 0.996792 0.002412
vt 0.996740 0.002430
vt 0.996868 0.002535
vt 0.996816 0.002547
vt 0.996914 0.002658
vt 0.996862 0.002664
vt 0.996937 0.002782
vt 0.996882 0.002784
vt 0.988476 0.001371
vt 0.988487 0.001330
vt 0.988275 0.001350
vt 0.988280 0.001311
vt 0.988082 0.001348
vt 0.988079 0.001310
vt 0.987893 0.001366
vt 0.987881 0.001329
vt 0.987711 0.001404
vt 0.987691 0.001369
vt 0.987541 0.001460
vt 0.987512 0.001428
vt 0.987384 0.001535
vt 0.987348 0.001506
vt 0.987244 0.001627
vt 0.987200 0.001601
vt 0.987122 0.001740
vt 0.987067 0.001715
vt 0.987018 0.001874
vt 0.986927 0.001863
vt 0.988896 0.009920
vt 0.988903 0.009875
vt 0.988665 0.009894
vt 0.988682 0.009850
vt 0.988436 0.009846
vt 0.988463 0.009803
vt 0.988205 0.009772
vt 0.988244 0.009729
vt 0.987969 0.009664
vt 0.988025 0.009621
vt 0.987729 0.009513
vt 0.987806 0.009470
vt 0.987483 0.009301
vt 0.987590 0.009258
vt 0.987231 0.008997
vt 0.987383 0.008959
vt 0.987000 0.008562
vt 0.987201 0.008537
vt 0.986927 0.008013
vt 0.987110 0.008004
vn -0.0000 1.0000 -0.0000
vn 0.0000 -0.0000 -1.0000
vn 0.0000 0.0000 1.0000
vn 0.0000 -1.0000 0.0000
vn -1.0000 0.0000 0.0000
vn -0.0784 0.0000 0.9969
vn -0.2335 0.0000 0.9724
vn -0.3827 0.0000 0.9239
vn -0.5225 0.0000 0.8526
vn -0.6494 0.0000 0.7604
vn -0.7604 0.0000 0.6494
vn -0.8526 0.0000 0.5225
vn -0.9239 0.0000 0.3827
vn -0.9724 0.0000 0.2334
vn -0.9969 0.0000 0.0785
vn -0.0785 -0.0000 -0.9969
vn -0.2334 0.0000 -0.9724
vn -0.3827 0.0000 -0.9239
vn -0.5225 0.0000 -0.8526
vn -0.6494 0.0000 -0.7604
vn -0.7604 0.0000 -0.6494
vn -0.8526 0.0000 -0.5225
vn -0.9239 0.0000 -0.3827
vn -0.9724 0.0000 -0.2334
vn -0.9969 0.0000 -0.0785
vn 0.0785 -0.0000 -0.9969
vn 0.2334 0.0000 -0.9724
vn 0.3827 0.0000 -0.9239
vn 0.5225 0.0000 -0.8526
vn 0.6494 0.0000 -0.7604
vn 0.7604 0.0000 -0.6494
vn 0.8526 0.0000 -0.5225
vn 0.9239 0.0000 -0.3827
vn 0.9724 0.0000 -0.2334
vn 0.9969 0.0000 -0.0785
vn 0.0784 0.0000 0.9969
vn 0.2335 0.0000 0.9724
vn 0.3827 0.0000 0.9239
vn 0.5225 0.0000 0.8526
vn 0.6494 0.0000 0.7604
vn 0.7604 0.0000 0.6494
vn 0.8526 0.0000 0.5225
vn 0.9239 0.0000 0.3827
vn 0.9724 0.0000 0.2334
vn 0.9969 0.0000 0.0785
vn 1.0000 0.0000 0.0000
usemtl Material
s off
f 56/1/1 58/2/1 59/3/1 60/4/1 61/5/1 62/6/1 63/7/1 64/8/1 65/9/1 66/10/1 57/11/1 67/12/1 69/13/1 70/14/1 71/15/1 72/16/1 73/17/1 74/18/1 75/19/1 76/20/1 77/21/1 68/22/1 78/23/1 80/24/1 81/25/1 82/26/1 83/27/1 84/28/1 85/29/1 86/30/1 87/31/1 88/32/1 79/33/1 45/34/1 47/35/1 48/36/1 49/37/1 50/38/1 51/39/1 52/40/1 53/41/1 54/42/1 55/43/1 46/44/1
usemtl Material.001
f 1/45/2 13/46/2 67/47/2 57/48/2
f 34/49/3 24/50/3 45/51/3 79/52/3
f 1/53/4 3/54/4 4/55/4 5/56/4 6/57/4 7/58/4 8/59/4 9/60/4 10/61/4 11/62/4 2/63/4 23/64/4 25/65/4 26/66/4 27/67/4 28/68/4 29/69/4 30/70/4 31/71/4 32/72/4 33/73/4 24/74/4 34/75/4 36/76/4 37/77/4 38/78/4 39/79/4 40/80/4 41/81/4 42/82/4 43/83/4 44/84/4 35/85/4 12/86/4 14/87/4 15/88/4 16/89/4 17/90/4 18/91/4 19/92/4 20/93/4 21/94/4 22/95/4 13/96/4
f 12/97/5 35/98/5 78/99/5 68/100/5
f 34/49/6 79/52/6 88/101/6 36/102/6
f 36/102/7 88/101/7 87/103/7 37/104/7
f 37/104/8 87/103/8 86/105/8 38/106/8
f 38/106/9 86/105/9 85/107/9 39/108/9
f 39/108/10 85/107/10 84/109/10 40/110/10
f 40/110/11 84/109/11 83/111/11 41/112/11
f 41/112/12 83/111/12 82/113/12 42/114/12
f 42/114/13 82/113/13 81/115/13 43/116/13
f 43/116/14 81/115/14 80/117/14 44/118/14
f 44/118/15 80/117/15 78/99/15 35/98/15
f 67/47/16 13/46/16 22/119/16 69/120/16
f 69/120/17 22/119/17 21/121/17 70/122/17
f 70/122/18 21/121/18 20/123/18 71/124/18
f 71/124/19 20/123/19 19/125/19 72/126/19
f 72/126/20 19/125/20 18/127/20 73/128/20
f 73/128/21 18/127/21 17/129/21 74/130/21
f 74/130/22 17/129/22 16/131/22 75/132/22
f 75/132/23 16/131/23 15/133/23 76/134/23
f 76/134/24 15/133/24 14/135/24 77/136/24
f 77/136/25 14/135/25 12/97/25 68/100/25
f 1/45/26 57/48/26 66/137/26 3/138/26
f 3/138/27 66/137/27 65/139/27 4/140/27
f 4/140/28 65/139/28 64/141/28 5/142/28
f 5/142/29 64/141/29 63/143/29 6/144/29
f 6/144/30 63/143/30 62/145/30 7/146/30
f 7/146/31 62/145/31 61/147/31 8/148/31
f 8/148/32 61/147/32 60/149/32 9/150/32
f 9/150/33 60/149/33 59/151/33 10/152/33
f 10/152/34 59/151/34 58/153/34 11/154/34
f 11/154/35 58/153/35 56/155/35 2/156/35
f 45/51/36 24/50/36 33/157/36 47/158/36
f 47/158/37 33/157/37 32/159/37 48/160/37
f 48/160/38 32/159/38 31/161/38 49/162/38
f 49/162/39 31/161/39 30/163/39 50/164/39
f 50/164/40 30/163/40 29/165/40 51/166/40
f 51/166/41 29/165/41 28/167/41 52/168/41
f 52/168/42 28/167/42 27/169/42 53/170/42
f 53/170/43 27/169/43 26/171/43 54/172/43
f 54/172/44 26/171/44 25/173/44 55/174/44
f 55/174/45 25/173/45 23/175/45 46/176/45
f 23/175/46 2/156/46 56/155/46 46/176/46
