# Blender v3.6.4 OBJ File: 'rund_600.blend'
# www.blender.org
mtllib 277.mtl
o Circle_Schild_Rund
v 0.000000 0.000000 0.600000
v 0.031359 0.000000 0.598357
v 0.062374 0.000000 0.593444
v 0.092705 0.000000 0.585317
v 0.122021 0.000000 0.574064
v 0.150000 0.000000 0.559808
v 0.176336 0.000000 0.542705
v 0.200739 0.000000 0.522943
v 0.222943 0.000000 0.500739
v 0.242705 0.000000 0.476336
v 0.259808 0.000000 0.450000
v 0.274064 0.000000 0.422021
v 0.285317 0.000000 0.392705
v 0.293444 0.000000 0.362374
v 0.298357 0.000000 0.331359
v 0.300000 0.000000 0.300000
v 0.298357 -0.000000 0.268641
v 0.293444 -0.000000 0.237626
v 0.285317 -0.000000 0.207295
v 0.274064 -0.000000 0.177979
v 0.259808 -0.000000 0.150000
v 0.242705 -0.000000 0.123664
v 0.222943 -0.000000 0.099261
v 0.200739 -0.000000 0.077057
v 0.176336 -0.000000 0.057295
v 0.150000 -0.000000 0.040192
v 0.122021 -0.000000 0.025936
v 0.092705 -0.000000 0.014683
v 0.062373 -0.000000 0.006556
v 0.031359 -0.000000 0.001643
v -0.000000 -0.000000 0.000000
v -0.031359 -0.000000 0.001643
v -0.062374 -0.000000 0.006556
v -0.092705 -0.000000 0.014683
v -0.122021 -0.000000 0.025936
v -0.150000 -0.000000 0.040192
v -0.176336 -0.000000 0.057295
v -0.200739 -0.000000 0.077057
v -0.222943 -0.000000 0.099261
v -0.242705 -0.000000 0.123664
v -0.259808 -0.000000 0.150000
v -0.274064 -0.000000 0.177979
v -0.285317 -0.000000 0.207295
v -0.293444 -0.000000 0.237626
v -0.298357 -0.000000 0.268642
v -0.300000 0.000000 0.300000
v -0.298357 0.000000 0.331359
v -0.293444 0.000000 0.362373
v -0.285317 0.000000 0.392705
v -0.274064 0.000000 0.422021
v -0.259808 0.000000 0.450000
v -0.242705 0.000000 0.476336
v -0.222943 0.000000 0.500739
v -0.200739 0.000000 0.522943
v -0.176336 0.000000 0.542705
v -0.150000 0.000000 0.559808
v -0.122021 0.000000 0.574064
v -0.092705 0.000000 0.585317
v -0.062374 0.000000 0.593444
v -0.031359 0.000000 0.598357
v 0.031359 0.002000 0.598357
v 0.000000 0.002000 0.600000
v 0.062374 0.002000 0.593444
v 0.092705 0.002000 0.585317
v 0.122021 0.002000 0.574064
v 0.150000 0.002000 0.559808
v 0.176336 0.002000 0.542705
v 0.200739 0.002000 0.522943
v 0.222943 0.002000 0.500739
v 0.242705 0.002000 0.476336
v 0.259808 0.002000 0.450000
v 0.274064 0.002000 0.422021
v 0.285317 0.002000 0.392705
v 0.293444 0.002000 0.362374
v 0.298357 0.002000 0.331359
v 0.300000 0.002000 0.300000
v 0.298357 0.002000 0.268641
v 0.293444 0.002000 0.237626
v 0.285317 0.002000 0.207295
v 0.274064 0.002000 0.177979
v 0.259808 0.002000 0.150000
v 0.242705 0.002000 0.123664
v 0.222943 0.002000 0.099261
v 0.200739 0.002000 0.077057
v 0.176336 0.002000 0.057295
v 0.150000 0.002000 0.040192
v 0.122021 0.002000 0.025936
v 0.092705 0.002000 0.014683
v 0.062373 0.002000 0.006556
v 0.031359 0.002000 0.001643
v -0.000000 0.002000 -0.000000
v -0.031359 0.002000 0.001643
v -0.062374 0.002000 0.006556
v -0.092705 0.002000 0.014683
v -0.122021 0.002000 0.025936
v -0.150000 0.002000 0.040192
v -0.176336 0.002000 0.057295
v -0.200739 0.002000 0.077057
v -0.222943 0.002000 0.099261
v -0.242705 0.002000 0.123664
v -0.259808 0.002000 0.150000
v -0.274064 0.002000 0.177979
v -0.285317 0.002000 0.207295
v -0.293444 0.002000 0.237626
v -0.298357 0.002000 0.268642
v -0.300000 0.002000 0.300000
v -0.298357 0.002000 0.331359
v -0.293444 0.002000 0.362373
v -0.285317 0.002000 0.392705
v -0.274064 0.002000 0.422021
v -0.259808 0.002000 0.450000
v -0.242705 0.002000 0.476336
v -0.222943 0.002000 0.500739
v -0.200739 0.002000 0.522943
v -0.176336 0.002000 0.542705
v -0.150000 0.002000 0.559808
v -0.122021 0.002000 0.574064
v -0.092705 0.002000 0.585317
v -0.062374 0.002000 0.593444
v -0.031359 0.002000 0.598357
vt 0.448410 0.997921
vt 0.396645 0.989800
vt 0.346012 0.976313
vt 0.297069 0.957608
vt 0.250347 0.933889
vt 0.206362 0.905417
vt 0.165593 0.872503
vt 0.128487 0.835506
vt 0.095452 0.794834
vt 0.066850 0.750932
vt 0.042993 0.704281
vt 0.024143 0.655392
vt 0.010507 0.604799
vt 0.002234 0.553060
vt -0.000586 0.500739
vt 0.002079 0.448410
vt 0.010200 0.396645
vt 0.023686 0.346014
vt 0.042391 0.297069
vt 0.066111 0.250347
vt 0.094583 0.206361
vt 0.127498 0.165592
vt 0.164494 0.128487
vt 0.205165 0.095452
vt 0.249068 0.066849
vt 0.295718 0.042993
vt 0.344608 0.024143
vt 0.395200 0.010507
vt 0.446942 0.002234
vt 0.499261 -0.000585
vt 0.551593 0.002080
vt 0.603355 0.010200
vt 0.653987 0.023687
vt 0.702931 0.042392
vt 0.749653 0.066111
vt 0.793639 0.094583
vt 0.834409 0.127499
vt 0.871512 0.164494
vt 0.904548 0.205166
vt 0.933150 0.249067
vt 0.957007 0.295719
vt 0.975856 0.344608
vt 0.989492 0.395199
vt 0.997766 0.446939
vt 1.000585 0.499261
vt 0.997920 0.551590
vt 0.989800 0.603356
vt 0.976313 0.653987
vt 0.957608 0.702932
vt 0.933890 0.749652
vt 0.905417 0.793638
vt 0.872502 0.834407
vt 0.835507 0.871513
vt 0.794836 0.904547
vt 0.750934 0.933150
vt 0.704282 0.957007
vt 0.655390 0.975857
vt 0.604801 0.989493
vt 0.553059 0.997766
vt 0.500739 1.000585
vt 0.085925 0.862485
vt 0.078868 0.862855
vt 0.071888 0.863961
vt 0.065061 0.865790
vt 0.058464 0.868322
vt 0.052167 0.871531
vt 0.046240 0.875380
vt 0.040748 0.879827
vt 0.035751 0.884824
vt 0.031303 0.890316
vt 0.027455 0.896243
vt 0.024246 0.902540
vt 0.021714 0.909138
vt 0.019884 0.915964
vt 0.018779 0.922944
vt 0.018409 0.930001
vt 0.018779 0.937058
vt 0.019884 0.944038
vt 0.021714 0.950865
vt 0.024246 0.957462
vt 0.027455 0.963759
vt 0.031303 0.969686
vt 0.035751 0.975178
vt 0.040748 0.980175
vt 0.046240 0.984622
vt 0.052167 0.988472
vt 0.058464 0.991680
vt 0.065061 0.994212
vt 0.071888 0.996042
vt 0.078868 0.997147
vt 0.085925 0.997517
vt 0.092982 0.997147
vt 0.099962 0.996041
vt 0.106789 0.994212
vt 0.113386 0.991680
vt 0.119683 0.988471
vt 0.125610 0.984622
vt 0.131102 0.980175
vt 0.136099 0.975178
vt 0.140546 0.969686
vt 0.144395 0.963759
vt 0.147604 0.957462
vt 0.150136 0.950864
vt 0.151965 0.944038
vt 0.153071 0.937058
vt 0.153441 0.930001
vt 0.153071 0.922944
vt 0.151965 0.915964
vt 0.150136 0.909137
vt 0.147604 0.902540
vt 0.144395 0.896243
vt 0.140546 0.890316
vt 0.136099 0.884824
vt 0.131102 0.879827
vt 0.125610 0.875380
vt 0.119683 0.871531
vt 0.113386 0.868322
vt 0.106788 0.865790
vt 0.099962 0.863961
vt 0.092982 0.862855
vt 0.043442 0.128662
vt 0.047852 0.132416
vt 0.047615 0.132746
vt 0.043189 0.128936
vt 0.094355 0.035652
vt 0.089030 0.036158
vt 0.089040 0.035811
vt 0.094328 0.035309
vt 0.052666 0.135645
vt 0.052596 0.135943
vt 0.083542 0.035221
vt 0.083579 0.034867
vt 0.057163 0.134751
vt 0.057128 0.135067
vt 0.077970 0.034863
vt 0.077969 0.034503
vt 0.062356 0.136824
vt 0.062245 0.137163
vt 0.072376 0.035095
vt 0.072336 0.034736
vt 0.067752 0.138354
vt 0.067676 0.138705
vt 0.066822 0.035921
vt 0.066727 0.035574
vt 0.073204 0.139323
vt 0.073165 0.139678
vt 0.061562 0.037895
vt 0.061431 0.037560
vt 0.078742 0.139713
vt 0.078741 0.140071
vt 0.056307 0.039871
vt 0.056213 0.039534
vt 0.084306 0.139516
vt 0.084342 0.139873
vt 0.051078 0.040677
vt 0.050947 0.040356
vt 0.089833 0.138730
vt 0.089908 0.139082
vt 0.046253 0.043806
vt 0.046031 0.043508
vt 0.126415 0.134672
vt 0.130835 0.127867
vt 0.131293 0.128127
vt 0.126656 0.134979
vt 0.095261 0.137359
vt 0.095373 0.137700
vt 0.041779 0.047450
vt 0.041526 0.047176
vt 0.134493 0.120582
vt 0.134978 0.120784
vt 0.100530 0.135421
vt 0.100594 0.135756
vt 0.037709 0.051571
vt 0.037348 0.051288
vt 0.137333 0.112912
vt 0.137838 0.113061
vt 0.105716 0.135491
vt 0.105725 0.135821
vt 0.032595 0.058486
vt 0.032394 0.058235
vt 0.139312 0.104950
vt 0.139834 0.105049
vt 0.110897 0.135290
vt 0.110906 0.135623
vt 0.030840 0.058105
vt 0.029852 0.057662
vt 0.140392 0.096773
vt 0.141167 0.096791
vt 0.116080 0.135363
vt 0.116088 0.135696
vt 0.017512 0.088344
vt 0.016526 0.087960
vt 0.140165 0.081014
vt 0.141167 0.080898
vt 0.121259 0.135162
vt 0.121286 0.135500
vt 0.019061 0.089197
vt 0.018996 0.089328
vt 0.137483 0.065468
vt 0.137978 0.065355
vt 0.020696 0.089911
vt 0.020653 0.090011
vt 0.136636 0.065549
vt 0.136956 0.065400
vt 0.022340 0.090642
vt 0.022084 0.090682
vt 0.133733 0.055448
vt 0.134045 0.055296
vt 0.021920 0.097826
vt 0.021459 0.097822
vt 0.131531 0.055795
vt 0.131759 0.055578
vt 0.022209 0.105046
vt 0.021745 0.105101
vt 0.127619 0.048274
vt 0.127836 0.048075
vt 0.023220 0.112207
vt 0.022968 0.112343
vt 0.125039 0.048964
vt 0.125198 0.048722
vt 0.026448 0.112995
vt 0.026221 0.113185
vt 0.120396 0.043262
vt 0.120744 0.042942
vt 0.028695 0.119194
vt 0.028486 0.119381
vt 0.115195 0.038035
vt 0.115362 0.037698
vt 0.032298 0.119664
vt 0.032275 0.119898
vt 0.110011 0.037916
vt 0.110020 0.037555
vt 0.035928 0.119940
vt 0.035775 0.120171
vt 0.104796 0.038130
vt 0.104871 0.037795
vt 0.039456 0.124485
vt 0.039179 0.124726
vt 0.099700 0.035434
vt 0.099774 0.035100
vn 0.0000 1.0000 -0.0000
vn -0.0000 -1.0000 0.0000
vn -0.9986 0.0000 -0.0523
vn 0.9336 0.0000 -0.3584
vn -0.9986 0.0000 0.0523
vn 0.8910 0.0000 -0.4540
vn -0.9877 0.0000 0.1564
vn 0.8387 0.0000 -0.5446
vn -0.9659 0.0000 0.2588
vn 0.7771 0.0000 -0.6293
vn -0.9336 0.0000 0.3584
vn 0.7071 0.0000 -0.7071
vn -0.8910 0.0000 0.4540
vn 0.6293 0.0000 -0.7771
vn -0.8387 0.0000 0.5446
vn 0.5446 0.0000 -0.8387
vn -0.7771 0.0000 0.6293
vn 0.4540 0.0000 -0.8910
vn -0.7071 0.0000 0.7071
vn 0.3584 0.0000 -0.9336
vn 0.0523 0.0000 0.9986
vn -0.6293 0.0000 0.7771
vn 0.2588 0.0000 -0.9659
vn 0.1564 0.0000 0.9877
vn -0.5446 0.0000 0.8387
vn 0.1564 0.0000 -0.9877
vn 0.2588 0.0000 0.9659
vn -0.4540 0.0000 0.8910
vn 0.0523 -0.0000 -0.9986
vn 0.3584 0.0000 0.9336
vn -0.3584 0.0000 0.9336
vn -0.0523 -0.0000 -0.9986
vn 0.4540 0.0000 0.8910
vn -0.2588 0.0000 0.9659
vn -0.1564 0.0000 -0.9877
vn 0.5446 0.0000 0.8387
vn -0.1564 0.0000 0.9877
vn -0.2588 0.0000 -0.9659
vn 0.6293 0.0000 0.7771
vn -0.0523 0.0000 0.9986
vn -0.3584 0.0000 -0.9336
vn 0.7071 0.0000 0.7071
vn -0.4540 0.0000 -0.8910
vn 0.7771 0.0000 0.6293
vn -0.5446 0.0000 -0.8387
vn 0.8387 0.0000 0.5446
vn -0.6293 0.0000 -0.7771
vn 0.8910 0.0000 0.4540
vn -0.7071 0.0000 -0.7071
vn 0.9336 0.0000 0.3584
vn -0.7771 0.0000 -0.6293
vn 0.9659 0.0000 0.2588
vn -0.8387 0.0000 -0.5446
vn 0.9877 0.0000 0.1564
vn -0.8910 0.0000 -0.4540
vn 0.9986 0.0000 0.0523
vn -0.9336 0.0000 -0.3584
vn 0.9986 0.0000 -0.0523
vn -0.9659 0.0000 -0.2588
vn 0.9877 0.0000 -0.1564
vn -0.9877 0.0000 -0.1564
vn 0.9659 0.0000 -0.2588
usemtl Schildfront
s off
f 61/1/1 63/2/1 64/3/1 65/4/1 66/5/1 67/6/1 68/7/1 69/8/1 70/9/1 71/10/1 72/11/1 73/12/1 74/13/1 75/14/1 76/15/1 77/16/1 78/17/1 79/18/1 80/19/1 81/20/1 82/21/1 83/22/1 84/23/1 85/24/1 86/25/1 87/26/1 88/27/1 89/28/1 90/29/1 91/30/1 92/31/1 93/32/1 94/33/1 95/34/1 96/35/1 97/36/1 98/37/1 99/38/1 100/39/1 101/40/1 102/41/1 103/42/1 104/43/1 105/44/1 106/45/1 107/46/1 108/47/1 109/48/1 110/49/1 111/50/1 112/51/1 113/52/1 114/53/1 115/54/1 116/55/1 117/56/1 118/57/1 119/58/1 120/59/1 62/60/1
usemtl Material
f 2/61/2 1/62/2 60/63/2 59/64/2 58/65/2 57/66/2 56/67/2 55/68/2 54/69/2 53/70/2 52/71/2 51/72/2 50/73/2 49/74/2 48/75/2 47/76/2 46/77/2 45/78/2 44/79/2 43/80/2 42/81/2 41/82/2 40/83/2 39/84/2 38/85/2 37/86/2 36/87/2 35/88/2 34/89/2 33/90/2 32/91/2 31/92/2 30/93/2 29/94/2 28/95/2 27/96/2 26/97/2 25/98/2 24/99/2 23/100/2 22/101/2 21/102/2 20/103/2 19/104/2 18/105/2 17/106/2 16/107/2 15/108/2 14/109/2 13/110/2 12/111/2 11/112/2 10/113/2 9/114/2 8/115/2 7/116/2 6/117/2 5/118/2 4/119/2 3/120/2
f 45/121/3 46/122/3 106/123/3 105/124/3
f 19/125/4 20/126/4 80/127/4 79/128/4
f 46/122/5 47/129/5 107/130/5 106/123/5
f 20/126/6 21/131/6 81/132/6 80/127/6
f 47/129/7 48/133/7 108/134/7 107/130/7
f 21/131/8 22/135/8 82/136/8 81/132/8
f 48/133/9 49/137/9 109/138/9 108/134/9
f 22/135/10 23/139/10 83/140/10 82/136/10
f 49/137/11 50/141/11 110/142/11 109/138/11
f 23/139/12 24/143/12 84/144/12 83/140/12
f 50/141/13 51/145/13 111/146/13 110/142/13
f 24/143/14 25/147/14 85/148/14 84/144/14
f 51/145/15 52/149/15 112/150/15 111/146/15
f 25/147/16 26/151/16 86/152/16 85/148/16
f 52/149/17 53/153/17 113/154/17 112/150/17
f 26/151/18 27/155/18 87/156/18 86/152/18
f 53/153/19 54/157/19 114/158/19 113/154/19
f 27/155/20 28/159/20 88/160/20 87/156/20
f 1/161/21 2/162/21 61/163/21 62/164/21
f 54/157/22 55/165/22 115/166/22 114/158/22
f 28/159/23 29/167/23 89/168/23 88/160/23
f 2/162/24 3/169/24 63/170/24 61/163/24
f 55/165/25 56/171/25 116/172/25 115/166/25
f 29/167/26 30/173/26 90/174/26 89/168/26
f 3/169/27 4/175/27 64/176/27 63/170/27
f 56/171/28 57/177/28 117/178/28 116/172/28
f 30/173/29 31/179/29 91/180/29 90/174/29
f 4/175/30 5/181/30 65/182/30 64/176/30
f 57/177/31 58/183/31 118/184/31 117/178/31
f 31/179/32 32/185/32 92/186/32 91/180/32
f 5/181/33 6/187/33 66/188/33 65/182/33
f 58/183/34 59/189/34 119/190/34 118/184/34
f 32/185/35 33/191/35 93/192/35 92/186/35
f 6/187/36 7/193/36 67/194/36 66/188/36
f 59/189/37 60/195/37 120/196/37 119/190/37
f 33/191/38 34/197/38 94/198/38 93/192/38
f 7/193/39 8/199/39 68/200/39 67/194/39
f 60/195/40 1/161/40 62/164/40 120/196/40
f 34/197/41 35/201/41 95/202/41 94/198/41
f 8/199/42 9/203/42 69/204/42 68/200/42
f 35/201/43 36/205/43 96/206/43 95/202/43
f 9/203/44 10/207/44 70/208/44 69/204/44
f 36/205/45 37/209/45 97/210/45 96/206/45
f 10/207/46 11/211/46 71/212/46 70/208/46
f 37/209/47 38/213/47 98/214/47 97/210/47
f 11/211/48 12/215/48 72/216/48 71/212/48
f 38/213/49 39/217/49 99/218/49 98/214/49
f 12/215/50 13/219/50 73/220/50 72/216/50
f 39/217/51 40/221/51 100/222/51 99/218/51
f 13/219/52 14/223/52 74/224/52 73/220/52
f 40/221/53 41/225/53 101/226/53 100/222/53
f 14/223/54 15/227/54 75/228/54 74/224/54
f 41/225/55 42/229/55 102/230/55 101/226/55
f 15/227/56 16/231/56 76/232/56 75/228/56
f 42/229/57 43/233/57 103/234/57 102/230/57
f 16/231/58 17/235/58 77/236/58 76/232/58
f 43/233/59 44/237/59 104/238/59 103/234/59
f 17/235/60 18/239/60 78/240/60 77/236/60
f 44/237/61 45/121/61 105/124/61 104/238/61
f 18/239/62 19/125/62 79/128/62 78/240/62
