# Blender v3.6.4 OBJ File: 'rhombus_600_600.blend'
# www.blender.org
mtllib 306.mtl
o Plane.001_Plane.002
v 0.279937 -0.000000 0.279939
v 0.279937 -0.000000 0.320061
v 0.282828 -0.000000 0.283324
v 0.285154 -0.000000 0.287120
v 0.286858 -0.000000 0.291233
v 0.287897 -0.000000 0.295562
v 0.288246 -0.000000 0.300000
v 0.287897 -0.000000 0.304438
v 0.286858 -0.000000 0.308767
v 0.285154 -0.000000 0.312880
v 0.282828 -0.000000 0.316676
v -0.020061 -0.000000 0.020063
v 0.020061 -0.000000 0.020063
v -0.016676 -0.000000 0.017172
v -0.012880 -0.000000 0.014846
v -0.008767 -0.000000 0.013142
v -0.004438 -0.000000 0.012103
v 0.000000 -0.000000 0.011754
v 0.004438 -0.000000 0.012103
v 0.008767 -0.000000 0.013142
v 0.012880 -0.000000 0.014846
v 0.016676 -0.000000 0.017172
v 0.020061 0.000000 0.579937
v -0.020061 0.000000 0.579937
v 0.016676 0.000000 0.582828
v 0.012880 0.000000 0.585154
v 0.008767 0.000000 0.586858
v 0.004438 0.000000 0.587897
v 0.000000 0.000000 0.588246
v -0.004438 0.000000 0.587897
v -0.008767 0.000000 0.586858
v -0.012880 0.000000 0.585154
v -0.016676 0.000000 0.582828
v -0.279937 0.000000 0.320061
v -0.279937 0.000000 0.279939
v -0.282828 0.000000 0.316676
v -0.285154 0.000000 0.312880
v -0.286858 0.000000 0.308767
v -0.287897 0.000000 0.304438
v -0.288246 0.000000 0.300000
v -0.287897 0.000000 0.295562
v -0.286858 0.000000 0.291233
v -0.285154 0.000000 0.287120
v -0.282828 0.000000 0.283324
v 0.279937 0.001414 0.320061
v 0.279937 0.001414 0.279939
v 0.282828 0.001414 0.316676
v 0.285154 0.001414 0.312880
v 0.286858 0.001414 0.308767
v 0.287897 0.001414 0.304438
v 0.288246 0.001414 0.300000
v 0.287897 0.001414 0.295562
v 0.286858 0.001414 0.291233
v 0.285154 0.001414 0.287120
v 0.282828 0.001414 0.283324
v 0.020061 0.001414 0.020063
v -0.020061 0.001414 0.020063
v 0.016676 0.001414 0.017172
v 0.012880 0.001414 0.014846
v 0.008767 0.001414 0.013142
v 0.004438 0.001414 0.012103
v 0.000000 0.001414 0.011754
v -0.004438 0.001414 0.012103
v -0.008767 0.001414 0.013142
v -0.012880 0.001414 0.014846
v -0.016676 0.001414 0.017172
v -0.020061 0.001414 0.579937
v 0.020061 0.001414 0.579937
v -0.016676 0.001414 0.582828
v -0.012880 0.001414 0.585154
v -0.008767 0.001414 0.586858
v -0.004438 0.001414 0.587897
v 0.000000 0.001414 0.588246
v 0.004438 0.001414 0.587897
v 0.008767 0.001414 0.586858
v 0.012880 0.001414 0.585154
v 0.016676 0.001414 0.582828
v -0.279937 0.001414 0.279939
v -0.279937 0.001414 0.320061
v -0.282828 0.001414 0.283324
v -0.285154 0.001414 0.287120
v -0.286858 0.001414 0.291233
v -0.287897 0.001414 0.295562
v -0.288246 0.001414 0.300000
v -0.287897 0.001414 0.304438
v -0.286858 0.001414 0.308767
v -0.285154 0.001414 0.312880
v -0.282828 0.001414 0.316676
v 0.000000 -0.000000 0.011754
vt 0.987148 0.469444
vt 0.991487 0.474635
vt 0.994866 0.480552
vt 0.997202 0.487047
vt 0.998438 0.493962
vt 0.998543 0.501126
vt 0.997515 0.508362
vt 0.995378 0.515493
vt 0.992187 0.522343
vt 0.988018 0.528743
vt 0.982976 0.534536
vt 0.534349 0.983162
vt 0.528556 0.988205
vt 0.522156 0.992373
vt 0.515306 0.995565
vt 0.508175 0.997701
vt 0.500939 0.998730
vt 0.493775 0.998624
vt 0.486860 0.997389
vt 0.480365 0.995052
vt 0.474449 0.991674
vt 0.469257 0.987335
vt 0.012479 0.530556
vt 0.008140 0.525365
vt 0.004761 0.519449
vt 0.002425 0.512953
vt 0.001189 0.506038
vt 0.001084 0.498874
vt 0.002112 0.491638
vt 0.004248 0.484507
vt 0.007440 0.477657
vt 0.011608 0.471257
vt 0.016651 0.465465
vt 0.465278 0.016838
vt 0.471071 0.011795
vt 0.477471 0.007627
vt 0.484321 0.004435
vt 0.491451 0.002299
vt 0.498688 0.001271
vt 0.505852 0.001376
vt 0.512767 0.002612
vt 0.519262 0.004948
vt 0.525178 0.008327
vt 0.530370 0.012665
vt 0.820788 0.890847
vt 0.826648 0.840431
vt 0.827448 0.840505
vt 0.821426 0.890895
vt 0.840165 0.827452
vt 0.894635 0.826912
vt 0.894641 0.827548
vt 0.840201 0.828284
vt 0.908825 0.845179
vt 0.908825 0.904515
vt 0.908105 0.904393
vt 0.907630 0.845266
vt 0.204327 0.830394
vt 0.205322 0.830472
vt 0.206293 0.830705
vt 0.207215 0.831087
vt 0.208066 0.831609
vt 0.208825 0.832257
vt 0.209473 0.833016
vt 0.209994 0.833867
vt 0.210376 0.834789
vt 0.210609 0.835760
vt 0.210688 0.836755
vt 0.210688 0.919150
vt 0.210609 0.920145
vt 0.210376 0.921116
vt 0.209994 0.922038
vt 0.209473 0.922889
vt 0.208825 0.923648
vt 0.208066 0.924296
vt 0.207215 0.924818
vt 0.206293 0.925200
vt 0.205322 0.925433
vt 0.204327 0.925511
vt 0.121931 0.925511
vt 0.120936 0.925433
vt 0.119966 0.925200
vt 0.119044 0.924818
vt 0.118193 0.924296
vt 0.117434 0.923648
vt 0.116785 0.922889
vt 0.116264 0.922038
vt 0.115882 0.921116
vt 0.115649 0.920146
vt 0.115571 0.919150
vt 0.115571 0.836755
vt 0.115649 0.835760
vt 0.115882 0.834789
vt 0.116264 0.833867
vt 0.116785 0.833016
vt 0.117434 0.832257
vt 0.118193 0.831609
vt 0.119044 0.831087
vt 0.119966 0.830705
vt 0.120936 0.830472
vt 0.121931 0.830394
vt 0.895740 0.910704
vt 0.895814 0.910045
vt 0.897527 0.910394
vt 0.897460 0.910912
vt 0.899031 0.910572
vt 0.899011 0.911054
vt 0.900465 0.910536
vt 0.900514 0.911002
vt 0.901854 0.910276
vt 0.901974 0.910726
vt 0.903179 0.909799
vt 0.903369 0.910224
vt 0.904412 0.909115
vt 0.904668 0.909506
vt 0.905533 0.908235
vt 0.905851 0.908589
vt 0.906528 0.907166
vt 0.906909 0.907483
vt 0.907404 0.905892
vt 0.907875 0.906181
vt 0.896302 0.827129
vt 0.896223 0.827632
vt 0.897802 0.827448
vt 0.897670 0.827918
vt 0.899283 0.827942
vt 0.899082 0.828407
vt 0.900779 0.828682
vt 0.900487 0.829147
vt 0.902299 0.829740
vt 0.901892 0.830205
vt 0.903849 0.831215
vt 0.903289 0.831677
vt 0.905437 0.833267
vt 0.904664 0.833717
vt 0.907050 0.836169
vt 0.905977 0.836577
vt 0.908477 0.840255
vt 0.907103 0.840507
vt 0.837849 0.828391
vt 0.837752 0.827678
vt 0.835798 0.828814
vt 0.835611 0.828175
vt 0.833971 0.829511
vt 0.833699 0.828942
vt 0.832357 0.830451
vt 0.832009 0.829951
vt 0.830954 0.831613
vt 0.830537 0.831181
vt 0.829765 0.832979
vt 0.829283 0.832618
vt 0.828803 0.834541
vt 0.828256 0.834256
vt 0.828081 0.836298
vt 0.827470 0.836093
vt 0.827623 0.838261
vt 0.826939 0.838139
vt 0.837382 0.905231
vt 0.837200 0.906397
vt 0.832795 0.905718
vt 0.833117 0.904463
vt 0.829142 0.904221
vt 0.829601 0.903234
vt 0.826461 0.902546
vt 0.826961 0.901818
vt 0.824514 0.900859
vt 0.825027 0.900325
vt 0.823099 0.899184
vt 0.823615 0.898797
vt 0.822091 0.897525
vt 0.822607 0.897255
vt 0.821409 0.895881
vt 0.821924 0.895707
vt 0.820998 0.894251
vt 0.821515 0.894157
vt 0.820809 0.892611
vt 0.821346 0.892584
vn 0.0000 1.0000 -0.0000
vn 0.7071 0.0000 -0.7071
vn -0.7071 0.0000 -0.7071
vn -0.7071 0.0000 0.7071
vn -0.0000 -1.0000 0.0000
vn 0.6494 0.0000 0.7604
vn 0.5225 0.0000 0.8526
vn 0.3827 0.0000 0.9239
vn 0.2335 0.0000 0.9724
vn 0.0784 0.0000 0.9969
vn -0.0784 0.0000 0.9969
vn -0.2334 0.0000 0.9724
vn -0.3827 0.0000 0.9239
vn -0.5225 0.0000 0.8526
vn -0.6494 0.0000 0.7604
vn -0.7604 0.0000 -0.6495
vn -0.8526 0.0000 -0.5225
vn -0.9239 0.0000 -0.3827
vn -0.9724 0.0000 -0.2334
vn -0.9969 0.0000 -0.0785
vn -0.9969 0.0000 0.0784
vn -0.9724 0.0000 0.2334
vn -0.9239 0.0000 0.3827
vn -0.8526 0.0000 0.5225
vn -0.7604 0.0000 0.6494
vn -0.6495 0.0000 -0.7604
vn -0.5225 0.0000 -0.8526
vn -0.3827 0.0000 -0.9239
vn -0.2334 -0.0000 -0.9724
vn -0.0785 -0.0000 -0.9969
vn 0.0785 -0.0000 -0.9969
vn 0.2334 -0.0000 -0.9724
vn 0.3827 0.0000 -0.9239
vn 0.5225 0.0000 -0.8526
vn 0.6495 0.0000 -0.7604
vn 0.7604 0.0000 0.6494
vn 0.8526 0.0000 0.5225
vn 0.9239 0.0000 0.3827
vn 0.9724 0.0000 0.2334
vn 0.9969 0.0000 0.0784
vn 0.9969 0.0000 -0.0785
vn 0.9724 0.0000 -0.2334
vn 0.9239 0.0000 -0.3827
vn 0.8526 0.0000 -0.5225
vn 0.7604 0.0000 -0.6495
vn 0.7071 0.0000 0.7071
usemtl Material
s off
f 45/1/1 47/2/1 48/3/1 49/4/1 50/5/1 51/6/1 52/7/1 53/8/1 54/9/1 55/10/1 46/11/1 56/12/1 58/13/1 59/14/1 60/15/1 61/16/1 62/17/1 63/18/1 64/19/1 65/20/1 66/21/1 57/22/1 78/23/1 80/24/1 81/25/1 82/26/1 83/27/1 84/28/1 85/29/1 86/30/1 87/31/1 88/32/1 79/33/1 67/34/1 69/35/1 70/36/1 71/37/1 72/38/1 73/39/1 74/40/1 75/41/1 76/42/1 77/43/1 68/44/1
usemtl Material.001
f 1/45/2 13/46/2 56/47/2 46/48/2
f 12/49/3 35/50/3 78/51/3 57/52/3
f 34/53/4 24/54/4 67/55/4 79/56/4
f 1/57/5 3/58/5 4/59/5 5/60/5 6/61/5 7/62/5 8/63/5 9/64/5 10/65/5 11/66/5 2/67/5 23/68/5 25/69/5 26/70/5 27/71/5 28/72/5 29/73/5 30/74/5 31/75/5 32/76/5 33/77/5 24/78/5 34/79/5 36/80/5 37/81/5 38/82/5 39/83/5 40/84/5 41/85/5 42/86/5 43/87/5 44/88/5 35/89/5 12/90/5 14/91/5 15/92/5 16/93/5 17/94/5 18/95/5 19/96/5 20/97/5 21/98/5 22/99/5 13/100/5
f 23/101/6 68/102/6 77/103/6 25/104/6
f 25/104/7 77/103/7 76/105/7 26/106/7
f 26/106/8 76/105/8 75/107/8 27/108/8
f 27/108/9 75/107/9 74/109/9 28/110/9
f 28/110/10 74/109/10 73/111/10 29/112/10
f 29/112/11 73/111/11 72/113/11 30/114/11
f 30/114/12 72/113/12 71/115/12 31/116/12
f 31/116/13 71/115/13 70/117/13 32/118/13
f 32/118/14 70/117/14 69/119/14 33/120/14
f 33/120/15 69/119/15 67/55/15 24/54/15
f 78/51/16 35/50/16 44/121/16 80/122/16
f 80/122/17 44/121/17 43/123/17 81/124/17
f 81/124/18 43/123/18 42/125/18 82/126/18
f 82/126/19 42/125/19 41/127/19 83/128/19
f 83/128/20 41/127/20 40/129/20 84/130/20
f 84/130/21 40/129/21 39/131/21 85/132/21
f 85/132/22 39/131/22 38/133/22 86/134/22
f 86/134/23 38/133/23 37/135/23 87/136/23
f 87/136/24 37/135/24 36/137/24 88/138/24
f 88/138/25 36/137/25 34/53/25 79/56/25
f 12/49/26 57/52/26 66/139/26 14/140/26
f 14/140/27 66/139/27 65/141/27 15/142/27
f 15/142/28 65/141/28 64/143/28 16/144/28
f 16/144/29 64/143/29 63/145/29 17/146/29
f 17/146/30 63/145/30 62/147/30 18/148/30
f 18/148/31 62/147/31 61/149/31 19/150/31
f 19/150/32 61/149/32 60/151/32 20/152/32
f 20/152/33 60/151/33 59/153/33 21/154/33
f 21/154/34 59/153/34 58/155/34 22/156/34
f 22/156/35 58/155/35 56/47/35 13/46/35
f 45/157/36 2/158/36 11/159/36 47/160/36
f 47/160/37 11/159/37 10/161/37 48/162/37
f 48/162/38 10/161/38 9/163/38 49/164/38
f 49/164/39 9/163/39 8/165/39 50/166/39
f 50/166/40 8/165/40 7/167/40 51/168/40
f 51/168/41 7/167/41 6/169/41 52/170/41
f 52/170/42 6/169/42 5/171/42 53/172/42
f 53/172/43 5/171/43 4/173/43 54/174/43
f 54/174/44 4/173/44 3/175/44 55/176/44
f 55/176/45 3/175/45 1/45/45 46/48/45
f 23/101/46 2/158/46 45/157/46 68/102/46
