# Blender v3.6.4 OBJ File: 'quadrat_600.blend'
# www.blender.org
mtllib 314-50.mtl
o Plane_Plane.003
v 0.256553 -0.000000 0.000000
v 0.300000 -0.000000 0.043447
v 0.263349 -0.000000 0.000535
v 0.269979 -0.000000 0.002126
v 0.276277 -0.000000 0.004735
v 0.282090 -0.000000 0.008298
v 0.287275 -0.000000 0.012725
v 0.291702 -0.000000 0.017910
v 0.295265 -0.000000 0.023723
v 0.297874 -0.000000 0.030021
v 0.299465 -0.000000 0.036651
v 0.300000 0.000000 0.556553
v 0.256553 0.000000 0.600000
v 0.299465 0.000000 0.563349
v 0.297874 0.000000 0.569979
v 0.295265 0.000000 0.576277
v 0.291702 0.000000 0.582090
v 0.287275 0.000000 0.587274
v 0.282090 0.000000 0.591702
v 0.276277 0.000000 0.595264
v 0.269979 0.000000 0.597874
v 0.263349 0.000000 0.599465
v -0.256553 0.000000 0.600000
v -0.300000 0.000000 0.556553
v -0.263349 0.000000 0.599465
v -0.269979 0.000000 0.597874
v -0.276277 0.000000 0.595264
v -0.282090 0.000000 0.591702
v -0.287275 0.000000 0.587274
v -0.291702 0.000000 0.582090
v -0.295265 0.000000 0.576277
v -0.297874 0.000000 0.569979
v -0.299465 0.000000 0.563349
v -0.300000 -0.000000 0.043447
v -0.256553 -0.000000 0.000000
v -0.299465 -0.000000 0.036651
v -0.297874 -0.000000 0.030021
v -0.295265 -0.000000 0.023723
v -0.291702 -0.000000 0.017910
v -0.287275 -0.000000 0.012725
v -0.282090 -0.000000 0.008298
v -0.276277 -0.000000 0.004735
v -0.269979 -0.000000 0.002126
v -0.263349 -0.000000 0.000535
v 0.256553 0.002000 0.600000
v 0.300000 0.002000 0.556553
v 0.263349 0.002000 0.599465
v 0.269979 0.002000 0.597874
v 0.276277 0.002000 0.595264
v 0.282090 0.002000 0.591702
v 0.287275 0.002000 0.587274
v 0.291702 0.002000 0.582090
v 0.295265 0.002000 0.576277
v 0.297874 0.002000 0.569979
v 0.299465 0.002000 0.563349
v 0.300000 0.002000 0.043447
v 0.256553 0.002000 -0.000000
v 0.299465 0.002000 0.036651
v 0.297874 0.002000 0.030021
v 0.295265 0.002000 0.023723
v 0.291702 0.002000 0.017910
v 0.287275 0.002000 0.012725
v 0.282090 0.002000 0.008298
v 0.276277 0.002000 0.004735
v 0.269979 0.002000 0.002126
v 0.263349 0.002000 0.000535
v -0.256553 0.002000 -0.000000
v -0.300000 0.002000 0.043447
v -0.263349 0.002000 0.000535
v -0.269979 0.002000 0.002126
v -0.276277 0.002000 0.004735
v -0.282090 0.002000 0.008298
v -0.287275 0.002000 0.012725
v -0.291702 0.002000 0.017910
v -0.295265 0.002000 0.023723
v -0.297874 0.002000 0.030021
v -0.299465 0.002000 0.036651
v -0.300000 0.002000 0.556553
v -0.256553 0.002000 0.600000
v -0.299465 0.002000 0.563349
v -0.297874 0.002000 0.569979
v -0.295265 0.002000 0.576277
v -0.291702 0.002000 0.582090
v -0.287275 0.002000 0.587274
v -0.282090 0.002000 0.591702
v -0.276277 0.002000 0.595264
v -0.269979 0.002000 0.597874
v -0.263349 0.002000 0.599465
vt 0.000100 0.072498
vt 0.000991 0.061172
vt 0.003643 0.050126
vt 0.007991 0.039630
vt 0.013927 0.029943
vt 0.021305 0.021305
vt 0.029943 0.013927
vt 0.039630 0.007991
vt 0.050125 0.003643
vt 0.061172 0.000991
vt 0.072498 0.000100
vt 0.927502 0.000100
vt 0.938828 0.000991
vt 0.949874 0.003643
vt 0.960370 0.007991
vt 0.970056 0.013927
vt 0.978695 0.021305
vt 0.986073 0.029943
vt 0.992009 0.039630
vt 0.996356 0.050126
vt 0.999009 0.061172
vt 0.999900 0.072498
vt 0.999900 0.927502
vt 0.999008 0.938828
vt 0.996357 0.949874
vt 0.992009 0.960370
vt 0.986073 0.970057
vt 0.978695 0.978695
vt 0.970056 0.986073
vt 0.960370 0.992009
vt 0.949874 0.996357
vt 0.938828 0.999009
vt 0.927502 0.999900
vt 0.072498 0.999900
vt 0.061172 0.999008
vt 0.050125 0.996356
vt 0.039630 0.992009
vt 0.029943 0.986073
vt 0.021305 0.978695
vt 0.013927 0.970056
vt 0.007991 0.960370
vt 0.003643 0.949874
vt 0.000991 0.938827
vt 0.000100 0.927502
vt 0.984237 0.013976
vt 0.989229 0.014636
vt 0.989229 0.014692
vt 0.984234 0.014044
vt 0.990058 0.012900
vt 0.989028 0.008000
vt 0.989085 0.007990
vt 0.990156 0.012885
vt 0.988203 0.007066
vt 0.984132 0.007255
vt 0.984129 0.007192
vt 0.988205 0.007011
vt 0.988365 0.007047
vt 0.988353 0.007090
vt 0.988502 0.007093
vt 0.988486 0.007131
vt 0.988627 0.007155
vt 0.988606 0.007189
vt 0.988739 0.007233
vt 0.988714 0.007263
vt 0.988837 0.007327
vt 0.988807 0.007353
vt 0.988919 0.007435
vt 0.988885 0.007456
vt 0.988983 0.007556
vt 0.988946 0.007571
vt 0.989028 0.007686
vt 0.988988 0.007697
vt 0.989058 0.007827
vt 0.989013 0.007834
vt 0.984037 0.014041
vt 0.984038 0.013986
vt 0.983861 0.014029
vt 0.983868 0.013979
vt 0.983696 0.013996
vt 0.983709 0.013950
vt 0.983540 0.013941
vt 0.983559 0.013898
vt 0.983395 0.013864
vt 0.983421 0.013823
vt 0.983264 0.013764
vt 0.983296 0.013728
vt 0.983149 0.013645
vt 0.983187 0.013614
vt 0.983054 0.013508
vt 0.983096 0.013483
vt 0.982975 0.013354
vt 0.983025 0.013333
vt 0.982907 0.013167
vt 0.982974 0.013158
vt 0.983936 0.007260
vt 0.983930 0.007205
vt 0.983760 0.007291
vt 0.983747 0.007240
vt 0.983600 0.007345
vt 0.983580 0.007299
vt 0.983455 0.007423
vt 0.983428 0.007381
vt 0.983326 0.007521
vt 0.983293 0.007484
vt 0.983214 0.007640
vt 0.983175 0.007608
vt 0.983120 0.007780
vt 0.983075 0.007754
vt 0.983047 0.007941
vt 0.982995 0.007921
vt 0.982999 0.008126
vt 0.982938 0.008114
vt 0.982982 0.008345
vt 0.982907 0.008342
vt 0.989379 0.014614
vt 0.989392 0.014657
vt 0.989512 0.014562
vt 0.989531 0.014602
vt 0.989635 0.014488
vt 0.989661 0.014525
vt 0.989751 0.014390
vt 0.989785 0.014424
vt 0.989858 0.014263
vt 0.989901 0.014295
vt 0.989954 0.014103
vt 0.990008 0.014131
vt 0.990032 0.013897
vt 0.990103 0.013920
vt 0.990086 0.013630
vt 0.990178 0.013641
vt 0.990101 0.013291
vt 0.990208 0.013286
vt 0.005478 0.991884
vt 0.005348 0.991853
vt 0.005225 0.991802
vt 0.005112 0.991732
vt 0.005010 0.991646
vt 0.004924 0.991544
vt 0.004854 0.991431
vt 0.004803 0.991307
vt 0.004772 0.991178
vt 0.004762 0.991045
vt 0.004762 0.981015
vt 0.004772 0.980882
vt 0.004803 0.980753
vt 0.004854 0.980630
vt 0.004924 0.980516
vt 0.005010 0.980415
vt 0.005112 0.980328
vt 0.005225 0.980258
vt 0.005348 0.980207
vt 0.005478 0.980176
vt 0.005611 0.980166
vt 0.015641 0.980166
vt 0.015774 0.980176
vt 0.015903 0.980207
vt 0.016026 0.980258
vt 0.016140 0.980328
vt 0.016241 0.980415
vt 0.016328 0.980516
vt 0.016397 0.980630
vt 0.016448 0.980753
vt 0.016480 0.980882
vt 0.016490 0.981015
vt 0.016490 0.991045
vt 0.016480 0.991178
vt 0.016448 0.991307
vt 0.016397 0.991431
vt 0.016328 0.991544
vt 0.016241 0.991646
vt 0.016140 0.991732
vt 0.016026 0.991802
vt 0.015903 0.991853
vt 0.015774 0.991884
vt 0.015641 0.991894
vt 0.005611 0.991894
vn -0.0000 1.0000 -0.0000
vn 0.0000 -0.0000 -1.0000
vn -1.0000 0.0000 0.0000
vn 0.0000 0.0000 1.0000
vn -0.0785 0.0000 0.9969
vn -0.2334 0.0000 0.9724
vn -0.3827 0.0000 0.9239
vn -0.5225 0.0000 0.8526
vn -0.6494 0.0000 0.7604
vn -0.7604 0.0000 0.6495
vn -0.8526 0.0000 0.5225
vn -0.9239 0.0000 0.3827
vn -0.9724 0.0000 0.2334
vn -0.9969 0.0000 0.0785
vn 0.0785 -0.0000 -0.9969
vn 0.2334 0.0000 -0.9724
vn 0.3827 0.0000 -0.9239
vn 0.5225 0.0000 -0.8526
vn 0.6494 -0.0000 -0.7604
vn 0.7604 0.0000 -0.6495
vn 0.8526 0.0000 -0.5225
vn 0.9239 0.0000 -0.3827
vn 0.9724 0.0000 -0.2334
vn 0.9969 0.0000 -0.0785
vn 0.0785 0.0000 0.9969
vn 0.2334 0.0000 0.9724
vn 0.3827 0.0000 0.9239
vn 0.5225 0.0000 0.8526
vn 0.6494 0.0000 0.7604
vn 0.7604 0.0000 0.6495
vn 0.8526 0.0000 0.5225
vn 0.9239 0.0000 0.3827
vn 0.9724 0.0000 0.2334
vn 0.9969 0.0000 0.0785
vn -0.0785 0.0000 -0.9969
vn -0.2334 0.0000 -0.9724
vn -0.3827 0.0000 -0.9239
vn -0.5225 0.0000 -0.8526
vn -0.6494 0.0000 -0.7604
vn -0.7604 -0.0000 -0.6495
vn -0.8526 -0.0000 -0.5225
vn -0.9239 -0.0000 -0.3827
vn -0.9724 -0.0000 -0.2334
vn -0.9969 -0.0000 -0.0785
vn 1.0000 0.0000 0.0000
vn -0.0000 -1.0000 0.0000
usemtl Material
s off
f 56/1/1 58/2/1 59/3/1 60/4/1 61/5/1 62/6/1 63/7/1 64/8/1 65/9/1 66/10/1 57/11/1 67/12/1 69/13/1 70/14/1 71/15/1 72/16/1 73/17/1 74/18/1 75/19/1 76/20/1 77/21/1 68/22/1 78/23/1 80/24/1 81/25/1 82/26/1 83/27/1 84/28/1 85/29/1 86/30/1 87/31/1 88/32/1 79/33/1 45/34/1 47/35/1 48/36/1 49/37/1 50/38/1 51/39/1 52/40/1 53/41/1 54/42/1 55/43/1 46/44/1
usemtl Material.001
f 1/45/2 35/46/2 67/47/2 57/48/2
f 34/49/3 24/50/3 78/51/3 68/52/3
f 23/53/4 13/54/4 45/55/4 79/56/4
f 23/53/5 79/56/5 88/57/5 25/58/5
f 25/58/6 88/57/6 87/59/6 26/60/6
f 26/60/7 87/59/7 86/61/7 27/62/7
f 27/62/8 86/61/8 85/63/8 28/64/8
f 28/64/9 85/63/9 84/65/9 29/66/9
f 29/66/10 84/65/10 83/67/10 30/68/10
f 30/68/11 83/67/11 82/69/11 31/70/11
f 31/70/12 82/69/12 81/71/12 32/72/12
f 32/72/13 81/71/13 80/73/13 33/74/13
f 33/74/14 80/73/14 78/51/14 24/50/14
f 1/45/15 57/48/15 66/75/15 3/76/15
f 3/76/16 66/75/16 65/77/16 4/78/16
f 4/78/17 65/77/17 64/79/17 5/80/17
f 5/80/18 64/79/18 63/81/18 6/82/18
f 6/82/19 63/81/19 62/83/19 7/84/19
f 7/84/20 62/83/20 61/85/20 8/86/20
f 8/86/21 61/85/21 60/87/21 9/88/21
f 9/88/22 60/87/22 59/89/22 10/90/22
f 10/90/23 59/89/23 58/91/23 11/92/23
f 11/92/24 58/91/24 56/93/24 2/94/24
f 45/55/25 13/54/25 22/95/25 47/96/25
f 47/96/26 22/95/26 21/97/26 48/98/26
f 48/98/27 21/97/27 20/99/27 49/100/27
f 49/100/28 20/99/28 19/101/28 50/102/28
f 50/102/29 19/101/29 18/103/29 51/104/29
f 51/104/30 18/103/30 17/105/30 52/106/30
f 52/106/31 17/105/31 16/107/31 53/108/31
f 53/108/32 16/107/32 15/109/32 54/110/32
f 54/110/33 15/109/33 14/111/33 55/112/33
f 55/112/34 14/111/34 12/113/34 46/114/34
f 67/47/35 35/46/35 44/115/35 69/116/35
f 69/116/36 44/115/36 43/117/36 70/118/36
f 70/118/37 43/117/37 42/119/37 71/120/37
f 71/120/38 42/119/38 41/121/38 72/122/38
f 72/122/39 41/121/39 40/123/39 73/124/39
f 73/124/40 40/123/40 39/125/40 74/126/40
f 74/126/41 39/125/41 38/127/41 75/128/41
f 75/128/42 38/127/42 37/129/42 76/130/42
f 76/130/43 37/129/43 36/131/43 77/132/43
f 77/132/44 36/131/44 34/49/44 68/52/44
f 12/113/45 2/94/45 56/93/45 46/114/45
f 25/133/46 26/134/46 27/135/46 28/136/46 29/137/46 30/138/46 31/139/46 32/140/46 33/141/46 24/142/46 34/143/46 36/144/46 37/145/46 38/146/46 39/147/46 40/148/46 41/149/46 42/150/46 43/151/46 44/152/46 35/153/46 1/154/46 3/155/46 4/156/46 5/157/46 6/158/46 7/159/46 8/160/46 9/161/46 10/162/46 11/163/46 2/164/46 12/165/46 14/166/46 15/167/46 16/168/46 17/169/46 18/170/46 19/171/46 20/172/46 21/173/46 22/174/46 13/175/46 23/176/46
