# Blender v3.6.4 OBJ File: '8904.blend'
# www.blender.org
mtllib 8904.mtl
o Cone_Cone.001
v -0.653011 0.000000 -0.610130
v -0.030146 0.022819 -0.576981
v -0.130722 0.370000 -0.623852
v -0.030146 0.022819 -0.424679
v -0.130722 -0.370000 -0.623852
v -0.030146 -0.022819 -0.576981
v -0.142836 -0.000000 -0.120865
v -0.030146 -0.022819 -0.424679
v -0.134092 -0.022819 -0.424679
v -0.134092 -0.021369 -0.424679
v -0.131515 -0.022819 -0.576981
v -0.134092 0.022819 -0.424679
v -0.131515 0.022819 -0.576981
vt -0.000000 0.141912
vt 0.371600 0.390731
vt -0.000000 0.522495
vt 0.371599 0.858088
vt 0.371600 0.503324
vt 0.527791 0.676056
vt 0.562645 0.666580
vt 0.944036 0.702453
vt 0.648747 0.749893
vt 0.587738 0.141912
vt 0.927539 0.503324
vt 0.371600 0.503324
vt 0.187061 0.522495
vt 0.226509 0.616768
vt 0.187061 0.616768
vt -0.000000 0.535820
vt 0.097213 0.629337
vt 0.021204 0.616031
vt 0.099441 0.616777
vt 0.097214 0.522495
vt 0.265957 0.522495
vt 0.226509 0.585247
vt 0.226509 0.522495
vt 0.019272 0.522495
vt 0.097213 0.536139
vt 0.078554 0.549040
vt 0.561538 0.666881
vt 0.613893 0.759369
vt 0.226509 0.522495
vt 0.077942 0.549464
vt 0.265957 0.585247
vt 0.995671 0.485421
vt 0.007371 0.998569
vt 0.004289 0.004176
vn -0.4885 0.7085 0.5094
vn 0.9995 0.0071 0.0293
vn 0.9999 -0.0000 0.0169
vn -0.4885 -0.7085 0.5094
vn 1.0000 0.0000 0.0000
vn -0.0000 -1.0000 0.0000
vn 0.0000 1.0000 -0.0000
vn -0.0000 0.0000 -1.0000
vn -0.0000 0.0000 1.0000
vn 0.9996 0.0000 0.0288
vn 0.9995 -0.0071 0.0293
vn -0.0263 0.0000 -0.9997
usemtl Weiss
s off
f 7/1/1 3/2/1 1/3/1
f 3/4/2 7/5/2 12/6/2
f 9/7/3 5/8/3 11/9/3
f 7/10/4 1/11/4 5/12/4
f 4/13/5 6/14/5 2/15/5
f 8/16/6 11/17/6 6/18/6
f 4/13/7 13/19/7 12/20/7
f 6/21/8 13/22/8 2/23/8
f 4/24/9 12/25/9 10/26/9
f 7/5/10 10/27/10 12/6/10
f 12/6/3 13/28/3 3/4/3
f 9/7/10 10/27/10 7/5/10
f 5/8/3 3/4/3 13/28/3
f 5/8/3 13/28/3 11/9/3
f 9/7/11 7/5/11 5/8/11
f 4/13/5 8/29/5 6/14/5
f 8/16/6 9/30/6 11/17/6
f 4/13/7 2/15/7 13/19/7
f 6/21/8 11/31/8 13/22/8
f 10/26/9 9/30/9 8/16/9
f 8/16/9 4/24/9 10/26/9
usemtl Bega8949.001
f 1/32/12 3/33/12 5/34/12
