# Blender v3.6.4 OBJ File: '8949.blend'
# www.blender.org
mtllib 8949.mtl
o Cone
v -0.653011 0.000000 -0.610130
v -0.030146 0.022819 -0.576981
v -0.130722 0.374775 -0.623852
v -0.030146 0.022819 -0.424679
v -0.130722 -0.374775 -0.623852
v -0.030146 -0.022819 -0.576981
v -0.139288 0.000000 -0.117574
v -0.030146 -0.022819 -0.424679
v -0.134092 -0.022819 -0.424679
v -0.134092 -0.021369 -0.424679
v -0.131515 -0.022819 -0.576981
v -0.134092 0.022819 -0.424679
v -0.131515 0.022819 -0.576981
vt 0.250000 0.250000
vt 0.457846 0.130000
vt 0.250000 0.490000
vt 0.262655 0.177209
vt 0.237345 0.177209
vt 0.042154 0.130000
vt 0.237345 0.141109
vt 0.625000 0.000000
vt 0.375000 0.250000
vt 0.375000 0.250000
vt 0.625000 0.250000
vt 0.375000 0.500000
vt 0.375000 0.500000
vt 0.625000 0.750000
vt 0.375000 1.000000
vt 0.625000 0.750000
vt 0.125000 0.500000
vt 0.367284 0.750000
vt 0.125000 0.750000
vt 0.875000 0.500000
vt 0.632941 0.750000
vt 0.632941 0.507941
vt 0.238149 0.177209
vt 0.262655 0.141109
vt 0.625000 0.000000
vt 0.625000 0.250000
vt 0.375000 1.000000
vt 0.367284 0.500000
vt 0.632941 0.500000
vt 0.875000 0.750000
vt 0.995671 0.485421
vt 0.007371 0.998569
vt 0.004289 0.004176
vn -0.4916 0.7039 0.5127
vn 0.9999 -0.0000 0.0169
vn -0.4916 -0.7039 0.5127
vn 1.0000 0.0000 0.0000
vn 0.0000 -1.0000 0.0000
vn 0.0000 1.0000 -0.0000
vn 0.0000 0.0000 -1.0000
vn 0.0000 0.0000 1.0000
vn -0.0263 0.0000 -0.9997
usemtl Weiss
s off
f 7/1/1 3/2/1 1/3/1
f 3/2/2 7/1/2 12/4/2
f 9/5/2 5/6/2 11/7/2
f 7/1/3 1/3/3 5/6/3
f 4/8/4 6/9/4 2/10/4
f 8/11/5 11/12/5 6/13/5
f 4/14/6 13/15/6 12/16/6
f 6/17/7 13/18/7 2/19/7
f 8/20/8 12/21/8 10/22/8
f 7/1/2 10/23/2 12/4/2
f 12/4/2 13/24/2 3/2/2
f 9/5/2 10/23/2 7/1/2
f 5/6/2 3/2/2 13/24/2
f 5/6/2 13/24/2 11/7/2
f 9/5/2 7/1/2 5/6/2
f 4/8/4 8/25/4 6/9/4
f 8/11/5 9/26/5 11/12/5
f 4/14/6 2/27/6 13/15/6
f 6/17/7 11/28/7 13/18/7
f 10/22/8 9/29/8 8/20/8
f 8/20/8 4/30/8 12/21/8
usemtl Bega8949
f 1/31/9 3/32/9 5/33/9
