# Blender 4.0.2
# www.blender.org
mtllib Stradasole_530.mtl
o Stradasole_530
v 0.063175 0.115000 -0.050813
v -0.544421 0.000000 0.241932
v 0.063175 -0.115000 -0.050813
v 0.067289 0.000000 0.052909
v -0.382251 0.115000 -0.000846
v -0.243114 0.082470 0.141879
v -0.382251 -0.115000 -0.000846
v -0.243114 -0.082470 0.141879
v 0.065444 0.115000 0.020290
v 0.066492 0.082470 0.043803
v 0.066492 -0.082470 0.043803
v 0.065444 -0.115000 0.020290
v -0.505754 0.082470 0.219989
v -0.519295 0.115000 0.205420
v -0.519295 -0.115000 0.205420
v -0.505754 -0.082470 0.219989
v -0.242317 0.000000 0.150985
v 0.060661 0.000000 -0.079558
v -0.338207 0.000000 -0.027504
v 0.061524 0.091507 -0.069691
v -0.354131 -0.091506 -0.016169
v 0.061524 -0.091506 -0.069691
v -0.356421 0.091507 -0.015969
v -0.570013 -0.243904 0.083786
v -0.596075 -0.093338 0.229488
v -0.633714 -0.172466 0.175334
v -0.662996 -0.225338 0.091921
v -0.628726 -0.071438 0.232344
v -0.694046 -0.132000 0.180612
v -0.741823 -0.172466 0.098817
v -0.650543 -0.038662 0.234253
v -0.734358 -0.071438 0.184139
v -0.794493 -0.093338 0.103426
v -0.382312 0.000000 -0.000976
v -0.658204 0.000000 0.234923
v -0.748514 0.000000 0.185378
v -0.812989 0.000000 0.105044
v -0.650543 0.038662 0.234253
v -0.734358 0.071438 0.184139
v -0.794493 0.093338 0.103426
v -0.628726 0.071438 0.232344
v -0.694046 0.132000 0.180612
v -0.741823 0.172466 0.098817
v -0.596075 0.093338 0.229488
v -0.633714 0.172466 0.175334
v -0.662996 0.225338 0.091921
v -0.557560 0.101028 0.226118
v -0.562548 0.186676 0.169108
v -0.570013 0.243904 0.083786
v -0.555809 0.000000 0.246137
v -0.519045 0.093338 0.222748
v -0.491382 0.172466 0.162882
v -0.477030 0.225338 0.075651
v -0.486394 0.071438 0.219892
v -0.431050 0.132000 0.157603
v -0.398203 0.172466 0.068755
v -0.464577 0.038662 0.217983
v -0.390738 0.071438 0.154076
v -0.456916 -0.000000 0.217313
v -0.376582 -0.000000 0.152838
v -0.464577 -0.038662 0.217983
v -0.390738 -0.071438 0.154076
v -0.486394 -0.071438 0.219892
v -0.431050 -0.132000 0.157603
v -0.398203 -0.172466 0.068755
v -0.519046 -0.093338 0.222749
v -0.491382 -0.172466 0.162882
v -0.477030 -0.225338 0.075651
v -0.557560 -0.101028 0.226118
v -0.562548 -0.186676 0.169108
v -0.575037 -0.255371 0.026357
v -0.671540 -0.234972 0.040043
v -0.752739 -0.179222 0.051559
v -0.806683 -0.096772 0.059209
v -0.825568 0.000000 0.061888
v -0.825568 0.000000 0.061888
v -0.806683 0.096772 0.059209
v -0.752739 0.179222 0.051559
v -0.671540 0.234972 0.040043
v -0.575037 0.255371 0.026357
v -0.477742 0.236900 0.012558
v -0.394632 0.181948 0.000771
v -0.376378 0.139679 0.066845
v -0.372007 0.080512 0.116814
v -0.382312 0.163586 -0.000976
v -0.369918 0.000000 0.140690
v -0.369918 -0.000000 0.140690
v -0.372007 -0.080512 0.116813
v -0.376378 -0.139679 0.066845
v -0.382312 -0.163586 -0.000976
v -0.394633 -0.181948 0.000771
v -0.477742 -0.236900 0.012558
v -0.584346 -0.105238 -0.070567
v -0.649740 -0.179652 -0.001178
v -0.624227 -0.097227 -0.064962
v -0.712212 -0.137500 0.007602
v -0.658037 -0.074414 -0.060210
v -0.753954 -0.074414 0.013468
v -0.395970 0.000000 0.010827
v -0.680627 -0.040273 -0.057035
v -0.768612 0.000000 0.015528
v -0.688560 0.000000 -0.055920
v -0.753954 0.074415 0.013468
v -0.680627 0.040273 -0.057035
v -0.712212 0.137500 0.007602
v -0.658037 0.074414 -0.060210
v -0.649740 0.179652 -0.001178
v -0.624227 0.097227 -0.064962
v -0.576050 0.194454 -0.011534
v -0.584346 0.105238 -0.070567
v -0.587260 0.000000 -0.091296
v -0.502359 0.179652 -0.021891
v -0.544465 0.097227 -0.076172
v -0.439888 0.137500 -0.030671
v -0.510656 0.074414 -0.080923
v -0.488065 0.040273 -0.084098
v -0.480132 -0.000000 -0.085213
v -0.488065 -0.040273 -0.084098
v -0.439888 -0.137500 -0.030671
v -0.510656 -0.074414 -0.080923
v -0.502360 -0.179652 -0.021891
v -0.544465 -0.097227 -0.076172
v -0.576050 -0.194454 -0.011534
v -0.569401 -0.226375 0.035773
v -0.655220 -0.209316 0.048117
v -0.728085 -0.160316 0.058597
v -0.776829 -0.086803 0.065609
v -0.793956 0.000000 0.068072
v -0.793956 0.000000 0.068072
v -0.776828 0.086803 0.065609
v -0.728085 0.160316 0.058597
v -0.655220 0.209316 0.048117
v -0.569401 0.226375 0.035773
v -0.483724 0.208970 0.023450
v -0.411201 0.159827 0.013018
v -0.395970 0.136739 0.010827
v -0.429841 0.122316 -0.032083
v -0.458597 0.051462 -0.068511
v -0.466645 0.000000 -0.078707
v -0.466645 -0.000000 -0.078707
v -0.458597 -0.051462 -0.068511
v -0.429841 -0.122316 -0.032083
v -0.395970 -0.136739 0.010827
v -0.411201 -0.159827 0.013018
v -0.483724 -0.208971 0.023450
vn 0.3020 -0.0000 0.9533
vn 0.2783 0.3492 0.8948
vn 0.2937 -0.0000 0.9559
vn -0.8728 -0.0000 -0.4881
vn -0.7568 0.0022 -0.6536
vn 0.2741 0.2926 0.9161
vn 0.2883 -0.0000 0.9576
vn 0.9991 0.0139 -0.0410
vn 0.9989 -0.0000 -0.0465
vn 0.9989 -0.0007 -0.0464
vn -0.0991 0.4647 -0.8799
vn -0.0993 0.6214 -0.7772
vn -0.0993 0.6275 -0.7722
vn -0.0000 -1.0000 -0.0000
vn 0.2783 -0.3492 0.8948
vn 0.2498 -0.4905 0.8349
vn 0.2475 -0.5729 0.7814
vn 0.2475 0.5729 0.7814
vn 0.2498 0.4905 0.8349
vn -0.0000 1.0000 -0.0000
vn 0.2741 -0.2926 0.9161
vn -0.1284 -0.1065 -0.9860
vn -0.3008 -0.0006 -0.9537
vn -0.1294 -0.0000 -0.9916
vn -0.0995 -0.6213 -0.7773
vn -0.0992 -0.4630 -0.8808
vn -0.0994 -0.6275 -0.7722
vn -0.1284 0.1063 -0.9860
vn 0.0606 -0.7189 0.6925
vn -0.3209 -0.8567 0.4039
vn 0.0326 -0.9273 0.3729
vn 0.0798 -0.4031 0.9117
vn 0.0872 -0.0000 0.9962
vn -0.0739 -0.3724 0.9251
vn -0.3511 -0.9085 0.2266
vn 0.0238 -0.9808 0.1937
vn -0.2135 -0.6641 0.7165
vn -0.6705 -0.6969 0.2545
vn -0.4458 -0.5083 0.7368
vn -0.6206 -0.6557 0.4301
vn -0.2042 -0.2850 0.9365
vn -0.6010 -0.2751 0.7504
vn -0.8208 -0.3549 0.4476
vn -0.2912 -0.1543 0.9441
vn -0.8847 -0.3777 0.2732
vn -0.8911 -0.0000 0.4537
vn -0.3218 -0.0000 0.9468
vn -0.9557 0.0953 0.2786
vn -0.9557 -0.0953 0.2786
vn -0.6555 -0.0000 0.7552
vn -0.8208 0.3549 0.4476
vn -0.8847 0.3777 0.2732
vn -0.6010 0.2751 0.7504
vn -0.2912 0.1543 0.9441
vn -0.6206 0.6557 0.4301
vn -0.6705 0.6969 0.2545
vn -0.4458 0.5083 0.7368
vn -0.2042 0.2850 0.9365
vn -0.3209 0.8567 0.4039
vn -0.0739 0.3724 0.9251
vn -0.3511 0.9085 0.2266
vn -0.2135 0.6641 0.7165
vn 0.0606 0.7189 0.6925
vn 0.0326 0.9273 0.3729
vn 0.0798 0.4031 0.9117
vn 0.0238 0.9808 0.1937
vn 0.3861 0.8567 0.3420
vn 0.3967 0.9037 0.1611
vn 0.2334 0.3724 0.8982
vn 0.3346 0.6641 0.6685
vn 0.5670 0.5083 0.6482
vn 0.6858 0.6557 0.3158
vn 0.3637 0.2850 0.8868
vn 0.7113 0.6901 0.1336
vn 0.7899 0.3719 0.4876
vn 0.7866 0.5027 0.3585
vn 0.4508 0.1543 0.8792
vn 0.8297 0.5453 0.1196
vn 0.7222 0.2751 0.6346
vn 0.4813 -0.0000 0.8765
vn 0.7767 -0.0000 0.6298
vn 0.8556 -0.2182 0.4694
vn 0.8766 -0.0191 0.4809
vn 0.4508 -0.1543 0.8792
vn 0.7222 -0.2751 0.6346
vn 0.5670 -0.5083 0.6482
vn 0.7866 -0.5027 0.3585
vn 0.7899 -0.3719 0.4876
vn 0.3637 -0.2850 0.8868
vn 0.6858 -0.6557 0.3158
vn 0.8297 -0.5453 0.1196
vn 0.3346 -0.6641 0.6685
vn 0.3861 -0.8567 0.3420
vn 0.2334 -0.3724 0.8982
vn 0.3967 -0.9037 0.1611
vn 0.7113 -0.6901 0.1336
vn 0.9962 -0.0000 -0.0872
vn -0.1404 -0.0000 -0.9901
vn -0.0967 -0.7189 -0.6884
vn -0.2801 -0.3724 -0.8848
vn -0.1274 -0.4031 -0.9063
vn -0.1392 -0.0000 -0.9903
vn -0.3692 -0.6641 -0.6501
vn -0.0777 -0.8315 -0.5501
vn -0.3928 -0.7680 -0.5058
vn -0.6001 -0.5083 -0.6176
vn -0.4096 -0.2850 -0.8666
vn -0.6597 -0.5877 -0.4683
vn -0.4962 -0.1543 -0.8544
vn -0.7544 -0.2751 -0.5960
vn -0.8381 -0.3180 -0.4432
vn -0.8086 -0.0000 -0.5883
vn -0.8979 -0.0789 -0.4331
vn -0.5265 -0.0000 -0.8502
vn -0.4962 0.1543 -0.8544
vn -0.8381 0.3180 -0.4432
vn -0.7544 0.2751 -0.5960
vn -0.4096 0.2850 -0.8666
vn -0.6597 0.5877 -0.4683
vn -0.6001 0.5083 -0.6176
vn -0.2801 0.3724 -0.8848
vn -0.3928 0.7680 -0.5058
vn -0.3692 0.6641 -0.6501
vn -0.1274 0.4031 -0.9063
vn -0.0777 0.8315 -0.5501
vn -0.0967 0.7189 -0.6884
vn 0.1757 0.6641 -0.7267
vn 0.0254 0.3724 -0.9277
vn 0.2374 0.7683 -0.5944
vn 0.1549 0.2850 -0.9459
vn 0.5047 0.5882 -0.6320
vn 0.4066 0.5083 -0.7591
vn 0.2414 0.1543 -0.9581
vn 0.6124 0.4647 -0.6396
vn 0.4714 0.3857 -0.7931
vn 0.3753 0.2535 -0.8916
vn 0.4318 0.1098 -0.8952
vn 0.2718 -0.0000 -0.9624
vn 0.2414 -0.1543 -0.9581
vn 0.4155 -0.2922 -0.8614
vn 0.3753 -0.2535 -0.8916
vn 0.1549 -0.2850 -0.9459
vn 0.4066 -0.5083 -0.7591
vn 0.6124 -0.4647 -0.6396
vn 0.5047 -0.5882 -0.6320
vn 0.1757 -0.6641 -0.7267
vn 0.2374 -0.7683 -0.5944
vn 0.0254 -0.3724 -0.9277
vn 0.7849 -0.0000 -0.6196
vn 0.1424 -0.0000 0.9898
vn -0.3732 0.0426 -0.9268
vn 0.2813 0.3641 0.8879
vn -0.7474 -0.0068 -0.6643
vn -0.7159 0.5111 -0.4757
vn -0.4935 -0.0000 -0.8697
vn -0.7159 -0.5111 -0.4757
vn 0.9991 -0.0139 -0.0410
vn 0.9985 -0.0446 -0.0319
vn 0.9991 -0.0046 -0.0423
vn 0.9989 0.0007 -0.0464
vn 0.9988 -0.0000 -0.0500
vn 0.9991 0.0046 -0.0423
vn 0.9985 0.0446 -0.0319
vn -0.0990 0.4593 -0.8827
vn 0.2813 -0.3641 0.8879
vn -0.3427 -0.0565 -0.9377
vn -0.0991 -0.4577 -0.8836
vn 0.9961 0.0164 -0.0871
vn 0.9961 0.0135 -0.0871
vn -0.1127 -0.0000 -0.9936
vn 0.2891 -0.0000 -0.9573
vn -0.8979 0.0789 -0.4331
vn 0.3879 -0.4506 -0.8041
vn 0.4714 -0.3857 -0.7931
vt -6.910948 -4.818617
vt -5.194860 -1.400944
vt -6.910952 -1.238227
vt 0.652464 0.636274
vt 0.344085 0.635211
vt 0.283264 0.568295
vt -5.197160 1.635911
vt -6.913101 2.255028
vt -5.043492 2.416934
vt -4.697920 3.047551
vt -9.005907 2.479211
vt 0.327189 0.474510
vt 0.283264 0.019927
vt 0.327189 0.014996
vt 5.762614 -0.361263
vt 0.617789 2.249716
vt 3.493650 -0.682632
vt -8.635496 -1.058582
vt -9.324843 2.200772
vt -9.324843 -4.561234
vt -4.527037 -5.038641
vt -4.527036 1.723365
vt -1.954624 0.218528
vt 0.617789 3.730666
vt -1.651175 4.052036
vt -8.637797 1.978273
vt 0.669360 0.014996
vt 0.498275 0.448552
vt 0.498275 0.006478
vt 0.713285 0.019927
vt 0.669360 0.472259
vt 6.572065 -3.218284
vt 4.675340 -4.282648
vt 6.572067 -4.311168
vt 1.211928 -3.101012
vt -0.808585 -2.788097
vt 0.904724 -3.520260
vt 4.594246 -4.912596
vt 6.572065 -5.005221
vt 2.930094 -3.403993
vt 2.362457 -4.178662
vt 2.930093 -4.775386
vt 1.313595 -4.752674
vt 5.120375 -3.196456
vt 3.067373 -4.201431
vt 0.337085 -3.830913
vt 2.736515 4.905136
vt 1.071142 5.828407
vt 1.257906 4.656073
vt -0.404573 -3.985678
vt 1.151685 4.130737
vt 2.681336 4.355554
vt -0.056811 -5.038641
vt -0.579574 4.568612
vt -1.207338 -3.960990
vt -0.749457 4.052036
vt -0.749456 4.052036
vt -1.540126 -4.993026
vt -2.496187 4.656070
vt -2.740518 4.130737
vt -2.910532 -4.622774
vt -1.802117 5.828407
vt -1.948996 -3.760611
vt -4.200145 4.905136
vt -4.527036 4.355554
vt -3.959395 -3.984252
vt -2.516637 -3.415046
vt 9.116265 5.956383
vt 8.330616 4.808029
vt 9.938584 4.889247
vt -2.823841 -2.976904
vt 10.075864 4.315292
vt 8.411712 4.178082
vt -4.527035 -3.174671
vt 6.433890 5.872394
vt 6.433890 4.779510
vt -2.823841 -2.512887
vt 6.433890 4.085456
vt -4.527036 -2.317281
vt 4.537163 4.808029
vt 4.439843 4.052036
vt -2.516637 -2.093639
vt -3.959397 -1.542611
vt 4.982199 5.894222
vt -2.910533 -0.968598
vt 2.929196 4.889247
vt -1.948997 -1.782986
vt 2.736515 4.083665
vt 9.309845 -1.305037
vt 8.263563 -1.735189
vt 9.465896 -2.328713
vt -1.207339 -1.628222
vt 10.132163 -2.325122
vt 9.951704 -3.134294
vt 10.324843 -3.124367
vt -1.540129 -0.682632
vt -0.404574 -1.652909
vt -0.056813 -0.728247
vt 6.627469 -1.313998
vt 6.627469 -1.451581
vt 6.627470 -1.451581
vt 0.337083 -1.853288
vt 1.313591 -1.098499
vt 5.175778 -1.311669
vt 3.945094 -1.305037
vt 3.789046 -2.328713
vt 4.991374 -1.735191
vt 0.904724 -2.198853
vt 3.122775 -2.325122
vt 3.303239 -3.134294
vt 2.362454 -1.737020
vt 10.076759 -4.201431
vt 8.023756 -3.196455
vt 8.468791 -4.282648
vt 1.211928 -2.636995
vt 8.566112 -5.038641
vt 10.269440 -5.007013
vt 2.930094 -2.546602
vt 6.627470 -3.134294
vt 0.809866 0.502690
vt 0.844633 0.516391
vt 0.948677 0.608812
vt 0.051599 0.608812
vt 0.155644 0.516391
vt 0.190410 0.502690
vt 0.750000 0.250000
vt 0.687500 0.125000
vt 0.750000 0.125000
vt 0.718750 0.000000
vt 0.687500 0.250000
vt 0.750000 0.316933
vt 0.687500 0.317326
vt 0.625000 0.250000
vt 0.625000 0.125000
vt 0.656250 0.000000
vt 0.625000 0.317659
vt 0.562500 0.125000
vt 0.593750 0.000000
vt 0.562500 0.250000
vt 0.562500 0.317882
vt 0.500000 0.250000
vt 0.500000 0.317960
vt 0.500000 0.125000
vt 0.531250 0.000000
vt 0.437500 0.125000
vt 0.468750 0.000000
vt 0.437500 0.317882
vt 0.437500 0.250000
vt 0.406250 0.000000
vt 0.375000 0.125000
vt 0.375000 0.317659
vt 0.375000 0.250000
vt 0.343750 0.000000
vt 0.312500 0.125000
vt 0.312500 0.317326
vt 0.312500 0.250000
vt 0.250000 0.125000
vt 0.281250 0.000000
vt 0.250000 0.316933
vt 0.250000 0.250000
vt 0.187500 0.250000
vt 0.187500 0.125000
vt 0.218750 0.000000
vt 0.187500 0.316541
vt 0.125000 0.125000
vt 0.156250 0.000000
vt 0.125000 0.316210
vt 0.125000 0.250000
vt 0.062500 0.125000
vt 0.093750 0.000000
vt 0.105347 0.316140
vt 0.109957 0.250000
vt 0.062500 0.165965
vt 0.000000 0.142445
vt 0.000000 0.125000
vt 0.031250 0.000000
vt 0.937500 0.125000
vt 1.000000 0.142445
vt 0.937500 0.165966
vt 0.968750 0.000000
vt 1.000000 0.125000
vt 0.875000 0.125000
vt 0.906250 0.000000
vt 0.875000 0.250000
vt 0.894653 0.316140
vt 0.875000 0.316210
vt 0.812500 0.250000
vt 0.812500 0.316541
vt 0.812500 0.125000
vt 0.843750 0.000000
vt 0.781250 0.000000
vt 0.536358 0.639045
vt 0.541031 0.625000
vt 0.500000 0.625000
vt 0.536358 0.610955
vt 0.519664 0.591617
vt 0.500000 0.567967
vt 0.500000 0.563217
vt 0.500000 0.686783
vt 0.500000 0.682033
vt 0.283264 0.500552
vt 0.327189 0.474779
vt -5.194855 -4.981334
vt 0.713285 0.568320
vt 0.713285 0.636087
vt 0.498275 0.635970
vt 0.283264 0.636038
vt -5.043492 3.678166
vt -5.704720 3.840072
vt -8.184955 3.840072
vt -9.005907 3.615889
vt -9.324843 3.047551
vt -8.184955 2.255028
vt -5.704720 2.255028
vt 0.283264 0.500663
vt 5.762613 4.052035
vt -8.635492 -4.638973
vt 0.617788 -0.682632
vt 0.669360 0.472528
vt 0.713285 0.500793
vt 0.327189 0.474779
vt 3.889689 -3.134295
vt 2.202821 6.019033
vt -0.335205 5.761468
vt -3.106269 6.019033
vt 7.885582 5.894222
vt 3.751514 5.956383
vt 8.079160 -1.311669
vt 2.930094 -3.124367
vt 9.254440 -3.134295
vt 0.983649 0.717007
vt 0.500138 0.502690
vt 0.945027 0.824322
vt 0.839471 0.914618
vt 0.683363 0.974606
vt 0.500138 0.995605
vt 0.316913 0.974606
vt 0.160805 0.914618
vt 0.055249 0.824322
vt 0.016627 0.717007
vt 0.000000 0.142445
vt 0.890043 0.250000
vt 0.541031 0.625000
vt 0.500000 0.662320
vt 0.519664 0.658383
vt 0.500000 0.587680
vt 0.500000 0.567872
vt 0.500000 0.581246
vt 0.500000 0.601309
vt 0.500000 0.581379
vt 0.500000 0.668621
vt 0.500000 0.648691
vt 0.500000 0.668754
vt 0.500000 0.682128
vt 0.713141 0.500595
s 1
usemtl Material
f 4/1/1 6/2/2 17/3/3
f 17/3/3 13/7/6 2/8/7
f 22/9/8 18/10/9 11/11/10
f 12/15/14 7/16/14 3/17/14
f 8/18/15 15/19/16 12/20/17
f 6/2/2 9/21/18 14/22/19
f 5/23/20 9/24/20 1/25/20
f 16/26/21 17/3/3 2/8/7
f 8/18/15 4/1/1 17/3/3
f 70/32/29 27/33/30 24/34/31
f 69/35/32 50/36/33 25/37/34
f 24/34/31 72/38/35 71/39/36
f 70/40/29 25/37/34 26/41/37
f 27/33/30 73/42/38 72/38/35
f 25/37/34 29/43/39 26/41/37
f 26/44/37 30/45/40 27/33/30
f 25/37/34 50/36/33 28/46/41
f 30/47/40 32/48/42 33/49/43
f 28/46/41 50/36/33 31/50/44
f 30/47/40 74/51/45 73/52/38
f 29/43/39 31/50/44 32/53/42
f 32/48/42 37/54/46 33/49/43
f 31/50/44 50/36/33 35/55/47
f 37/54/46 76/56/48 75/57/49
f 31/50/44 36/58/50 32/53/42
f 76/56/48 40/59/51 77/60/52
f 35/55/47 39/61/53 36/58/50
f 37/54/46 39/62/53 40/59/51
f 35/55/47 50/36/33 38/63/54
f 77/60/52 43/64/55 78/65/56
f 38/63/54 42/66/57 39/61/53
f 39/62/53 43/64/55 40/59/51
f 38/63/54 50/36/33 41/67/58
f 42/68/57 46/69/59 43/70/55
f 41/67/58 50/36/33 44/71/60
f 78/72/56 46/69/59 79/73/61
f 41/67/58 45/74/62 42/66/57
f 46/69/59 48/75/63 49/76/64
f 44/71/60 50/36/33 47/77/65
f 79/73/61 49/76/64 80/78/66
f 44/71/60 48/79/63 45/74/62
f 80/78/66 53/80/67 81/81/68
f 48/79/63 51/82/69 52/83/70
f 49/76/64 52/84/70 53/80/67
f 47/77/65 50/36/33 51/82/69
f 51/82/69 55/85/71 52/83/70
f 52/84/70 56/86/72 53/80/67
f 51/82/69 50/36/33 54/87/73
f 81/81/68 56/86/72 82/88/74
f 55/89/71 84/90/75 83/91/76
f 54/87/73 50/36/33 57/92/77
f 56/93/72 85/94/78 82/95/74
f 54/87/73 58/96/79 55/85/71
f 57/92/77 50/36/33 59/97/80
f 57/92/77 60/98/81 58/96/79
f 60/99/81 87/100/82 86/101/83
f 60/98/81 61/102/84 62/103/85
f 62/104/85 87/100/82 60/99/81
f 59/97/80 50/36/33 61/102/84
f 64/105/86 89/106/87 88/107/88
f 61/102/84 50/36/33 63/108/89
f 65/109/90 90/110/91 89/106/87
f 61/102/84 64/111/86 62/103/85
f 65/112/90 67/113/92 68/114/93
f 63/108/89 50/36/33 66/115/94
f 65/112/90 92/116/95 91/117/96
f 64/111/86 66/115/94 67/118/92
f 68/114/93 71/39/36 92/116/95
f 67/118/92 69/35/32 70/40/29
f 67/113/92 24/34/31 68/114/93
f 66/115/94 50/36/33 69/35/32
f 34/119/97 83/91/97 84/90/97
f 88/107/97 89/106/97 34/119/97
s 0
f 134/197/150 133/198/150 99/194/150
f 124/199/150 145/200/150 99/194/150
s 1
f 4/1/1 10/203/152 6/2/2
f 17/3/3 6/2/2 13/7/6
f 20/208/157 1/209/158 9/210/159
f 9/210/159 10/211/160 20/208/157
f 10/211/160 4/212/161 18/10/9
f 20/208/157 10/211/160 18/10/9
f 4/212/161 11/11/10 18/10/9
f 11/11/10 12/213/162 22/9/8
f 12/213/162 3/214/163 22/9/8
f 12/15/14 15/216/14 7/16/14
f 12/20/17 11/217/165 8/18/15
f 8/18/15 16/26/21 15/19/16
f 14/22/19 13/7/6 6/2/2
f 6/2/2 10/203/152 9/21/18
f 5/23/20 14/218/20 9/24/20
f 16/26/21 8/18/15 17/3/3
f 8/18/15 11/217/165 4/1/1
f 70/32/29 26/44/37 27/33/30
f 24/34/31 27/33/30 72/38/35
f 70/40/29 69/35/32 25/37/34
f 27/33/30 30/45/40 73/42/38
f 25/37/34 28/46/41 29/43/39
f 26/44/37 29/222/39 30/45/40
f 30/47/40 29/223/39 32/48/42
f 30/47/40 33/49/43 74/51/45
f 29/43/39 28/46/41 31/50/44
f 32/48/42 36/224/50 37/54/46
f 75/57/49 74/51/45 33/49/43
f 33/49/43 37/54/46 75/57/49
f 31/50/44 35/55/47 36/58/50
f 76/56/48 37/54/46 40/59/51
f 35/55/47 38/63/54 39/61/53
f 37/54/46 36/224/50 39/62/53
f 77/60/52 40/59/51 43/64/55
f 38/63/54 41/67/58 42/66/57
f 39/62/53 42/225/57 43/64/55
f 42/68/57 45/226/62 46/69/59
f 78/72/56 43/70/55 46/69/59
f 41/67/58 44/71/60 45/74/62
f 46/69/59 45/226/62 48/75/63
f 79/73/61 46/69/59 49/76/64
f 44/71/60 47/77/65 48/79/63
f 80/78/66 49/76/64 53/80/67
f 48/79/63 47/77/65 51/82/69
f 49/76/64 48/75/63 52/84/70
f 51/82/69 54/87/73 55/85/71
f 52/84/70 55/227/71 56/86/72
f 81/81/68 53/80/67 56/86/72
f 83/91/76 56/93/72 55/89/71
f 55/89/71 58/228/79 84/90/75
f 56/93/72 83/91/76 85/94/78
f 54/87/73 57/92/77 58/96/79
f 57/92/77 59/97/80 60/98/81
f 86/101/83 84/90/75 58/228/79
f 58/228/79 60/99/81 86/101/83
f 60/98/81 59/97/80 61/102/84
f 62/104/85 88/107/88 87/100/82
f 88/107/88 62/104/85 64/105/86
f 64/105/86 65/109/90 89/106/87
f 65/109/90 91/229/96 90/110/91
f 61/102/84 63/108/89 64/111/86
f 65/112/90 64/230/86 67/113/92
f 65/112/90 68/114/93 92/116/95
f 64/111/86 63/108/89 66/115/94
f 68/114/93 24/34/31 71/39/36
f 67/118/92 66/115/94 69/35/32
f 67/113/92 70/32/29 24/34/31
f 84/90/97 86/101/168 34/119/97
f 34/119/97 85/94/97 83/91/97
f 89/106/97 90/110/97 34/119/97
f 34/119/97 86/101/168 87/100/169
f 87/100/169 88/107/97 34/119/97
s 0
f 133/198/150 132/247/150 99/194/150
f 132/247/150 131/248/150 99/194/150
f 131/248/150 130/249/150 99/194/150
f 130/249/150 129/194/150 99/194/150
f 129/194/150 128/194/150 99/194/150
f 99/194/150 136/246/150 135/250/150
f 135/250/150 134/197/150 99/194/150
f 145/200/150 144/251/150 99/194/150
f 144/251/150 143/244/150 99/194/150
f 99/194/150 128/194/150 127/252/150
f 126/253/150 99/194/150 127/252/150
f 126/253/150 125/254/150 99/194/150
f 125/254/150 124/199/150 99/194/150
s 1
usemtl Stradasole530
f 16/4/4 13/5/4 5/6/5
f 23/12/11 1/13/12 20/14/13
f 22/27/22 19/28/23 18/29/24
f 3/30/25 21/31/26 22/27/27
f 19/28/23 20/14/28 18/29/24
f 90/120/98 91/121/98 92/122/98
f 81/123/98 82/124/98 85/125/98
f 5/201/5 23/202/151 19/28/23
f 5/6/5 7/204/153 16/4/4
f 7/204/154 15/205/154 16/4/154
f 16/4/155 2/206/155 13/5/155
f 13/5/156 14/207/156 5/6/156
f 23/12/11 5/215/164 1/13/12
f 22/27/22 21/219/166 19/28/23
f 3/30/25 7/220/167 21/31/26
f 19/28/23 23/221/151 20/14/28
f 92/122/98 71/231/98 34/232/98
f 71/231/98 72/233/98 34/232/98
f 72/233/98 73/234/98 34/232/98
f 73/234/98 74/235/98 34/232/98
f 74/235/98 75/236/170 34/232/98
f 34/232/98 90/120/98 92/122/98
f 85/125/98 34/232/98 81/123/98
f 34/232/98 75/236/170 77/237/98
f 75/236/170 76/236/171 77/237/98
f 77/237/98 78/238/98 34/232/98
f 78/238/98 79/239/98 34/232/98
f 79/239/98 80/240/98 34/232/98
f 80/240/98 81/123/98 34/232/98
f 21/219/166 7/255/153 19/28/23
f 7/255/153 5/201/5 19/28/23
usemtl Glas
f 123/126/99 95/127/100 93/128/101
f 93/128/101 95/127/100 111/129/102
f 94/130/103 124/131/104 125/132/105
f 95/127/100 96/133/106 97/134/107
f 95/127/100 97/134/107 111/135/102
f 96/133/106 125/132/105 126/136/108
f 97/134/107 100/137/109 111/138/102
f 98/139/110 126/136/108 127/140/111
f 97/134/107 98/139/110 100/137/109
f 101/141/112 127/140/111 128/142/113
f 100/137/109 101/141/112 102/143/114
f 100/137/109 102/143/114 111/144/102
f 101/141/112 104/145/115 102/143/114
f 111/146/102 102/143/114 104/145/115
f 101/141/112 130/147/116 103/148/117
f 111/149/102 104/145/115 106/150/118
f 103/148/117 131/151/119 105/152/120
f 104/145/115 105/152/120 106/150/118
f 111/153/102 106/150/118 108/154/121
f 132/155/122 105/152/120 131/151/119
f 106/150/118 107/156/123 108/154/121
f 107/156/123 110/157/124 108/154/121
f 111/158/102 108/154/121 110/157/124
f 107/156/123 133/159/125 109/160/126
f 110/157/124 112/161/127 113/162/128
f 113/162/128 111/163/102 110/157/124
f 109/160/126 134/164/129 112/161/127
f 115/165/130 111/166/102 113/162/128
f 112/161/127 135/167/131 114/168/132
f 113/162/128 114/168/132 115/165/130
f 116/169/133 111/170/102 115/165/130
f 114/168/132 136/171/134 137/172/135
f 115/165/130 137/172/135 138/173/136
f 116/169/133 138/173/136 139/174/137
f 117/175/138 111/176/102 116/169/133
f 118/177/139 140/178/140 141/179/141
f 118/177/139 111/180/102 117/181/138
f 120/182/142 111/183/102 118/177/139
f 119/184/143 143/185/144 144/186/145
f 120/182/142 118/177/139 141/179/141
f 121/187/146 144/186/145 145/188/147
f 120/182/142 121/187/146 122/189/148
f 122/189/148 111/190/102 120/182/142
f 121/187/146 93/128/101 122/189/148
f 122/189/148 93/128/101 111/191/102
f 123/126/99 145/188/147 124/131/104
s 0
f 141/192/149 140/193/149 99/194/149
f 99/194/149 138/195/149 137/196/149
s 1
f 123/126/99 94/130/103 95/127/100
f 94/130/103 123/126/99 124/131/104
f 95/127/100 94/130/103 96/133/106
f 96/133/106 94/130/103 125/132/105
f 98/139/110 96/133/106 126/136/108
f 97/134/107 96/133/106 98/139/110
f 128/142/113 129/142/172 101/141/112
f 101/141/112 98/139/110 127/140/111
f 100/137/109 98/139/110 101/141/112
f 101/141/112 103/148/117 104/145/115
f 101/141/112 129/142/172 130/147/116
f 103/148/117 130/147/116 131/151/119
f 104/145/115 103/148/117 105/152/120
f 132/155/122 107/156/123 105/152/120
f 106/150/118 105/152/120 107/156/123
f 107/156/123 109/160/126 110/157/124
f 107/156/123 132/155/122 133/159/125
f 110/157/124 109/160/126 112/161/127
f 109/160/126 133/159/125 134/164/129
f 112/161/127 134/164/129 135/167/131
f 113/162/128 112/161/127 114/168/132
f 114/168/132 135/167/131 136/171/134
f 138/173/136 116/169/133 115/165/130
f 115/165/130 114/168/132 137/172/135
f 140/241/140 117/175/138 139/174/173
f 117/175/138 116/169/133 139/174/137
f 118/177/139 117/181/138 140/178/140
f 119/184/143 142/242/174 143/185/144
f 141/179/141 142/242/174 120/182/142
f 142/242/174 119/184/143 120/182/142
f 121/187/146 119/184/143 144/186/145
f 120/182/142 119/184/143 121/187/146
f 121/187/146 123/126/99 93/128/101
f 123/126/99 121/187/146 145/188/147
s 0
f 140/193/149 139/243/149 99/194/149
f 99/194/149 143/244/149 142/245/149
f 142/245/149 141/192/149 99/194/149
f 137/196/149 136/246/149 99/194/149
f 99/194/149 139/243/149 138/195/149
