# Blender v3.5.1 OBJ File: 'Stradasole_400.blend'
# www.blender.org
mtllib Stradasole_400.mtl
o Stradasole_400_Cube.003
v 0.051082 0.092986 -0.041086
v -0.370788 0.000000 0.160550
v 0.051082 -0.092986 -0.041086
v 0.055434 0.000000 0.054506
v -0.309080 0.092986 -0.000684
v -0.196576 0.066683 0.114720
v -0.309080 -0.092986 -0.000684
v -0.196576 -0.066683 0.114720
v 0.053942 0.092986 0.028131
v 0.054790 0.066683 0.047143
v 0.054790 -0.066683 0.047143
v 0.053942 -0.092986 0.028131
v -0.424683 0.066683 0.165793
v -0.414923 0.092986 0.155036
v -0.414923 -0.092986 0.155036
v -0.424683 -0.066683 0.165793
v -0.195932 0.000000 0.122083
v 0.049049 0.000000 -0.064329
v -0.273467 0.000000 -0.022239
v 0.049747 0.073990 -0.056351
v -0.286342 -0.073990 -0.013074
v 0.049747 -0.073990 -0.056351
v -0.288194 0.073990 -0.012912
v -0.460900 -0.197215 0.067748
v -0.483287 -0.075471 0.170539
v -0.512407 -0.139452 0.141771
v -0.536084 -0.182203 0.074325
v -0.509688 -0.057763 0.172849
v -0.561190 -0.106732 0.146039
v -0.599821 -0.139452 0.079902
v -0.527329 -0.031261 0.174392
v -0.593786 -0.057763 0.148891
v -0.642410 -0.075471 0.083628
v -0.309129 0.000000 -0.000789
v -0.533523 0.000000 0.174934
v -0.605232 0.000000 0.149892
v -0.657365 0.000000 0.084936
v -0.527329 0.031261 0.174392
v -0.593786 0.057763 0.148891
v -0.642410 0.075471 0.083628
v -0.509688 0.057763 0.172849
v -0.561190 0.106732 0.146039
v -0.599821 0.139452 0.079902
v -0.483287 0.075471 0.170539
v -0.512407 0.139452 0.141771
v -0.536083 0.182203 0.074325
v -0.452145 0.081689 0.167814
v -0.454864 0.150942 0.136737
v -0.460900 0.197215 0.067748
v -0.450729 0.000000 0.184001
v -0.421003 0.075471 0.165090
v -0.397320 0.139452 0.131702
v -0.385716 0.182203 0.061170
v -0.394602 0.057763 0.162780
v -0.348538 0.106732 0.127435
v -0.321978 0.139452 0.055593
v -0.376961 0.031261 0.161237
v -0.315942 0.057763 0.124583
v -0.370766 -0.000000 0.160695
v -0.304496 -0.000000 0.123581
v -0.376961 -0.031261 0.161237
v -0.315942 -0.057763 0.124583
v -0.394602 -0.057763 0.162780
v -0.348538 -0.106732 0.127435
v -0.321978 -0.139452 0.055593
v -0.421003 -0.075471 0.165090
v -0.397321 -0.139452 0.131702
v -0.385716 -0.182203 0.061170
v -0.452145 -0.081689 0.167814
v -0.454864 -0.150942 0.136737
v -0.464962 -0.206487 0.021311
v -0.542993 -0.189993 0.032378
v -0.608648 -0.144915 0.041689
v -0.652266 -0.078248 0.047875
v -0.667536 0.000000 0.050041
v -0.667536 0.000000 0.050041
v -0.652266 0.078248 0.047875
v -0.608648 0.144915 0.041689
v -0.542992 0.189993 0.032378
v -0.464962 0.206487 0.021311
v -0.386292 0.191552 0.010154
v -0.319091 0.147119 0.000624
v -0.304331 0.112941 0.054050
v -0.300796 0.065100 0.094453
v -0.309129 0.132272 -0.000789
v -0.299107 0.000000 0.113759
v -0.299107 -0.000000 0.113759
v -0.300796 -0.065101 0.094453
v -0.304331 -0.112941 0.054050
v -0.309129 -0.132272 -0.000789
v -0.319091 -0.147119 0.000624
v -0.386292 -0.191552 0.010154
v -0.476313 -0.085093 -0.084263
v -0.527298 -0.145263 -0.014706
v -0.508560 -0.078616 -0.079731
v -0.577811 -0.111179 -0.007606
v -0.535897 -0.060170 -0.075889
v -0.611563 -0.060170 -0.002863
v -0.320173 0.000000 0.008755
v -0.554163 -0.032564 -0.073322
v -0.623415 0.000000 -0.001197
v -0.560578 0.000000 -0.072421
v -0.611563 0.060170 -0.002863
v -0.554163 0.032564 -0.073322
v -0.577811 0.111179 -0.007606
v -0.535897 0.060170 -0.075889
v -0.527298 0.145263 -0.014706
v -0.508559 0.078616 -0.079731
v -0.467714 0.157231 -0.023080
v -0.476313 0.085093 -0.084263
v -0.479332 0.000000 -0.105748
v -0.408130 0.145263 -0.031454
v -0.444066 0.078616 -0.088795
v -0.369279 0.111179 -0.037533
v -0.416728 0.060170 -0.092637
v -0.415105 0.032564 -0.093748
v -0.414312 -0.000000 -0.094158
v -0.415105 -0.032564 -0.093748
v -0.369279 -0.111179 -0.037532
v -0.416728 -0.060170 -0.092637
v -0.408130 -0.145263 -0.031454
v -0.444066 -0.078616 -0.088795
v -0.467714 -0.157231 -0.023080
v -0.460405 -0.183042 0.028925
v -0.529796 -0.169248 0.038906
v -0.588713 -0.129628 0.047381
v -0.628126 -0.070187 0.053050
v -0.641975 0.000000 0.055042
v -0.641975 0.000000 0.055042
v -0.628126 0.070187 0.053050
v -0.588713 0.129628 0.047381
v -0.529796 0.169248 0.038906
v -0.460405 0.183042 0.028925
v -0.391128 0.168969 0.018961
v -0.332488 0.129233 0.010526
v -0.320173 0.110564 0.008755
v -0.361155 0.098902 -0.038674
v -0.394030 0.041611 -0.076442
v -0.403143 0.000000 -0.087020
v -0.403143 -0.000000 -0.087020
v -0.394030 -0.041611 -0.076442
v -0.361155 -0.098902 -0.038674
v -0.320173 -0.110564 0.008755
v -0.332488 -0.129233 0.010526
v -0.391129 -0.168969 0.018961
vt -6.910948 -4.818617
vt -5.194860 -1.400944
vt -6.910952 -1.238227
vt -6.913101 2.255028
vt -5.197160 1.635911
vt -5.043492 2.416934
vt -4.697920 3.047551
vt -9.005907 2.479211
vt 5.762614 -0.361263
vt 0.617789 2.249716
vt 3.493650 -0.682632
vt -8.635496 -1.058582
vt -9.324843 2.200772
vt -9.324843 -4.561234
vt -4.527037 -5.038641
vt -4.527036 1.723365
vt -1.954624 0.218528
vt 0.617789 3.730666
vt -1.651175 4.052036
vt -8.637797 1.978273
vt 6.572065 -3.218284
vt 4.675340 -4.282648
vt 6.572067 -4.311168
vt 1.211928 -3.101012
vt -0.808585 -2.788097
vt 0.904724 -3.520260
vt 4.594246 -4.912596
vt 6.572065 -5.005221
vt 2.930094 -3.403993
vt 2.362457 -4.178662
vt 2.930093 -4.775386
vt 1.313595 -4.752674
vt 5.120375 -3.196456
vt 3.067373 -4.201431
vt 0.337085 -3.830913
vt 2.736515 4.905136
vt 1.071142 5.828407
vt 1.257906 4.656073
vt -0.404573 -3.985678
vt 1.151685 4.130737
vt 2.681336 4.355554
vt -0.056811 -5.038641
vt -0.579574 4.568612
vt -1.207338 -3.960990
vt -0.749457 4.052036
vt -0.749456 4.052036
vt -1.540126 -4.993026
vt -2.496187 4.656070
vt -2.740518 4.130737
vt -1.948996 -3.760611
vt -2.910532 -4.622774
vt -1.802117 5.828407
vt -4.200145 4.905136
vt -4.527036 4.355554
vt -3.959395 -3.984252
vt -2.516637 -3.415046
vt 9.116265 5.956383
vt 8.330616 4.808029
vt 9.938584 4.889247
vt -2.823841 -2.976904
vt 10.075864 4.315292
vt 8.411712 4.178082
vt -4.527035 -3.174671
vt 6.433890 5.872394
vt 6.433890 4.779510
vt -2.823841 -2.512887
vt 6.433890 4.085456
vt -4.527036 -2.317281
vt 4.537163 4.808029
vt 4.439843 4.052036
vt -3.959397 -1.542611
vt 4.982199 5.894222
vt -2.516637 -2.093639
vt -2.910533 -0.968598
vt 2.929196 4.889247
vt -1.948997 -1.782986
vt 2.736515 4.083665
vt 9.309845 -1.305037
vt 8.263563 -1.735189
vt 9.465896 -2.328713
vt -1.207339 -1.628222
vt 10.132163 -2.325122
vt 9.951704 -3.134294
vt 10.324843 -3.124367
vt -1.540129 -0.682632
vt -0.404574 -1.652909
vt -0.056813 -0.728247
vt 6.627469 -1.313998
vt 6.627469 -1.451581
vt 6.627470 -1.451581
vt 0.337083 -1.853288
vt 1.313591 -1.098499
vt 5.175778 -1.311669
vt 3.945094 -1.305037
vt 3.789046 -2.328713
vt 4.991374 -1.735191
vt 0.904724 -2.198853
vt 3.122775 -2.325122
vt 3.303239 -3.134294
vt 2.362454 -1.737020
vt 10.076759 -4.201431
vt 8.023756 -3.196455
vt 8.468791 -4.282648
vt 1.211928 -2.636995
vt 8.566112 -5.038641
vt 10.269440 -5.007013
vt 2.930094 -2.546602
vt 6.627470 -3.134294
vt 0.500000 0.567967
vt 0.500000 0.563217
vt 0.500000 0.625000
vt 0.500000 0.686783
vt 0.500000 0.682033
vt -5.194855 -4.981334
vt -5.043492 3.678166
vt -5.704720 3.840072
vt -8.184955 3.840072
vt -9.005907 3.615889
vt -9.324843 3.047551
vt -8.184955 2.255028
vt -5.704720 2.255028
vt 5.762613 4.052035
vt -8.635492 -4.638973
vt 0.617788 -0.682632
vt 3.889689 -3.134295
vt 2.202821 6.019033
vt -0.335205 5.761468
vt -3.106269 6.019033
vt 7.885582 5.894222
vt 3.751514 5.956383
vt 8.079160 -1.311669
vt 2.930094 -3.124367
vt 9.254440 -3.134295
vt 0.500000 0.567872
vt 0.500000 0.581246
vt 0.500000 0.601309
vt 0.500000 0.625000
vt 0.500000 0.625000
vt 0.500000 0.587680
vt 0.500000 0.581379
vt 0.500000 0.668621
vt 0.500000 0.662320
vt 0.500000 0.648691
vt 0.500000 0.668754
vt 0.500000 0.682128
vt 0.498275 0.635970
vt 0.283264 0.636038
vt 0.283264 0.568295
vt 0.327189 0.474510
vt 0.283264 0.019927
vt 0.327189 0.014996
vt 0.669360 0.014996
vt 0.498275 0.448552
vt 0.498275 0.006478
vt 0.713285 0.019927
vt 0.669360 0.472259
vt 0.809866 0.502690
vt 0.844633 0.516391
vt 0.948677 0.608812
vt 0.051599 0.608812
vt 0.155644 0.516391
vt 0.190410 0.502690
vt 0.283264 0.500552
vt 0.327189 0.474779
vt 0.713285 0.568320
vt 0.713285 0.636087
vt 0.652464 0.636274
vt 0.344085 0.635211
vt 0.283264 0.500663
vt 0.669360 0.472528
vt 0.713285 0.500793
vt 0.983649 0.717007
vt 0.500138 0.502690
vt 0.945027 0.824322
vt 0.839471 0.914618
vt 0.683363 0.974606
vt 0.500138 0.995605
vt 0.316913 0.974606
vt 0.500138 0.995605
vt 0.160805 0.914618
vt 0.055249 0.824322
vt 0.016627 0.717007
vt 0.713141 0.500595
vt 0.750000 0.250000
vt 0.687500 0.125000
vt 0.750000 0.125000
vt 0.718750 0.000000
vt 0.687500 0.250000
vt 0.750000 0.316933
vt 0.687500 0.317326
vt 0.625000 0.125000
vt 0.656250 0.000000
vt 0.625000 0.250000
vt 0.625000 0.317659
vt 0.562500 0.125000
vt 0.593750 0.000000
vt 0.562500 0.250000
vt 0.562500 0.317882
vt 0.500000 0.250000
vt 0.500000 0.317960
vt 0.500000 0.125000
vt 0.531250 0.000000
vt 0.437500 0.250000
vt 0.437500 0.125000
vt 0.468750 0.000000
vt 0.437500 0.317882
vt 0.406250 0.000000
vt 0.375000 0.125000
vt 0.375000 0.317659
vt 0.375000 0.250000
vt 0.343750 0.000000
vt 0.312500 0.125000
vt 0.312500 0.317326
vt 0.312500 0.250000
vt 0.250000 0.250000
vt 0.250000 0.125000
vt 0.281250 0.000000
vt 0.250000 0.316933
vt 0.187500 0.250000
vt 0.187500 0.125000
vt 0.218750 0.000000
vt 0.187500 0.316541
vt 0.125000 0.125000
vt 0.156250 0.000000
vt 0.125000 0.250000
vt 0.125000 0.316210
vt 0.062500 0.125000
vt 0.093750 0.000000
vt 0.109957 0.250000
vt 0.105347 0.316140
vt 0.062500 0.165965
vt 0.000000 0.142445
vt 0.000000 0.125000
vt 0.031250 0.000000
vt 0.937500 0.125000
vt 1.000000 0.142445
vt 0.937500 0.165966
vt 0.968750 0.000000
vt 1.000000 0.125000
vt 0.875000 0.125000
vt 0.906250 0.000000
vt 0.890043 0.250000
vt 0.875000 0.316210
vt 0.875000 0.250000
vt 0.812500 0.316541
vt 0.812500 0.250000
vt 0.812500 0.125000
vt 0.843750 0.000000
vt 0.781250 0.000000
vt 0.536358 0.639045
vt 0.541031 0.625000
vt 0.536358 0.610955
vt 0.519664 0.591617
vt 0.500000 0.317960
vt 0.000000 0.142445
vt 0.894653 0.316140
vt 0.541031 0.625000
vt 0.519664 0.658383
vn 0.2596 0.0000 0.9657
vn 0.2327 0.3421 0.9104
vn 0.2371 0.0000 0.9715
vn 0.2179 -0.0000 0.9760
vn 0.2133 0.2157 0.9529
vn 0.9988 0.0126 -0.0469
vn 0.9987 0.0000 -0.0507
vn 0.9987 0.0004 -0.0510
vn 0.0000 -1.0000 0.0000
vn 0.2327 -0.3421 0.9104
vn 0.2093 -0.3230 0.9230
vn 0.2123 -0.5762 0.7893
vn 0.2123 0.5762 0.7893
vn 0.2093 0.3230 0.9230
vn 0.0000 1.0000 0.0000
vn 0.2133 -0.2157 0.9529
vn 0.0484 -0.8315 0.5535
vn -0.3209 -0.8567 0.4039
vn 0.0326 -0.9273 0.3729
vn 0.0826 -0.3176 0.9446
vn 0.0872 -0.0000 0.9962
vn -0.0384 -0.2934 0.9552
vn -0.3511 -0.9085 0.2266
vn 0.0238 -0.9808 0.1937
vn 0.0795 -0.4107 0.9083
vn -0.0771 -0.3795 0.9220
vn -0.6705 -0.6969 0.2545
vn -0.2099 -0.2904 0.9336
vn -0.2686 -0.7682 0.5812
vn -0.6206 -0.6557 0.4301
vn -0.1411 -0.2246 0.9642
vn -0.7168 -0.3182 0.6204
vn -0.8208 -0.3549 0.4476
vn -0.2096 -0.1215 0.9702
vn -0.8847 -0.3777 0.2732
vn -0.2985 -0.1572 0.9414
vn -0.8911 0.0000 0.4537
vn -0.2337 0.0000 0.9723
vn -0.9557 0.0953 0.2786
vn -0.9557 -0.0953 0.2786
vn -0.3297 0.0000 0.9441
vn -0.8208 0.3549 0.4476
vn -0.8847 0.3777 0.2732
vn -0.2096 0.1215 0.9702
vn -0.2985 0.1572 0.9414
vn -0.7168 0.3182 0.6204
vn -0.6206 0.6557 0.4301
vn -0.6705 0.6969 0.2545
vn -0.2099 0.2904 0.9336
vn -0.1411 0.2246 0.9642
vn -0.5373 0.5879 0.6047
vn -0.3209 0.8567 0.4039
vn -0.0384 0.2934 0.9552
vn -0.3511 0.9085 0.2266
vn -0.0771 0.3795 0.9220
vn 0.0484 0.8315 0.5535
vn 0.0326 0.9273 0.3729
vn 0.0826 0.3176 0.9446
vn 0.0238 0.9808 0.1937
vn 0.0795 0.4107 0.9083
vn 0.3861 0.8567 0.3420
vn 0.3967 0.9037 0.1611
vn 0.2360 0.3795 0.8946
vn 0.3654 0.7682 0.5257
vn 0.2037 0.2934 0.9340
vn 0.3688 0.2904 0.8830
vn 0.6858 0.6557 0.3158
vn 0.3064 0.2246 0.9251
vn 0.7113 0.6901 0.1336
vn 0.6341 0.5879 0.5022
vn 0.7899 0.3719 0.4876
vn 0.7866 0.5027 0.3585
vn 0.3749 0.1215 0.9191
vn 0.8297 0.5453 0.1196
vn 0.4575 0.1572 0.8752
vn 0.3990 -0.0000 0.9169
vn 0.4886 -0.0000 0.8725
vn 0.8650 0.1632 0.4745
vn 0.8091 0.3852 0.4439
vn 0.8479 0.2544 0.4652
vn 0.3749 -0.1215 0.9191
vn 0.4575 -0.1572 0.8752
vn 0.8137 -0.3182 0.4865
vn 0.8650 -0.1632 0.4745
vn 0.6341 -0.5879 0.5022
vn 0.7866 -0.5027 0.3585
vn 0.7899 -0.3719 0.4876
vn 0.3064 -0.2246 0.9251
vn 0.6858 -0.6557 0.3158
vn 0.8297 -0.5453 0.1196
vn 0.3688 -0.2904 0.8830
vn 0.3654 -0.7682 0.5257
vn 0.3861 -0.8567 0.3420
vn 0.2037 -0.2934 0.9340
vn 0.3967 -0.9037 0.1611
vn 0.7113 -0.6901 0.1336
vn 0.2360 -0.3795 0.8946
vn 0.9962 0.0000 -0.0872
vn 0.1424 0.0000 0.9898
vn 0.2417 0.3649 0.8991
vn 0.9988 -0.0126 -0.0469
vn 0.9985 -0.0370 -0.0413
vn 0.9988 -0.0066 -0.0481
vn 0.9987 -0.0004 -0.0510
vn 0.9986 -0.0000 -0.0537
vn 0.9988 0.0066 -0.0481
vn 0.9985 0.0370 -0.0413
vn 0.2417 -0.3649 0.8991
vn -0.5373 -0.5879 0.6047
vn -0.7799 0.0000 0.6259
vn -0.2686 0.7682 0.5812
vn 0.8137 0.3182 0.4865
vn 0.9496 -0.3022 -0.0831
vn 0.9673 -0.2391 -0.0846
vn -0.8645 0.0000 -0.5027
vn -0.7609 -0.3918 -0.5172
vn -0.8972 -0.1343 -0.4208
vn -0.0991 0.4647 -0.8799
vn -0.0993 0.6214 -0.7772
vn -0.0993 0.6275 -0.7722
vn -0.1284 -0.1065 -0.9860
vn -0.3008 -0.0006 -0.9537
vn -0.1294 -0.0000 -0.9916
vn -0.0995 -0.6213 -0.7773
vn -0.0992 -0.4630 -0.8808
vn -0.0994 -0.6275 -0.7722
vn -0.1284 0.1063 -0.9860
vn -0.1404 -0.0000 -0.9901
vn -0.5074 0.0054 -0.8617
vn -0.3732 0.0426 -0.9268
vn -0.8972 0.1343 -0.4208
vn -0.7609 0.3918 -0.5172
vn -0.3719 0.2298 -0.8994
vn -0.3719 -0.2298 -0.8994
vn -0.0990 0.4593 -0.8827
vn -0.3427 -0.0565 -0.9377
vn -0.0991 -0.4577 -0.8836
vn -0.8000 0.0000 -0.6000
vn -0.4855 -0.0167 -0.8741
vn -0.0836 -0.7993 -0.5951
vn -0.3048 -0.4459 -0.8416
vn -0.1219 -0.4826 -0.8673
vn -0.1200 0.0000 -0.9928
vn -0.3864 -0.7383 -0.5528
vn -0.0615 -0.8974 -0.4369
vn -0.4015 -0.8288 -0.3896
vn -0.4598 -0.3413 -0.8198
vn -0.6431 -0.5650 -0.5169
vn -0.6896 -0.6342 -0.3496
vn -0.5634 -0.1847 -0.8053
vn -0.8145 -0.3057 -0.4930
vn -0.8821 -0.3432 -0.3228
vn -0.8747 0.0000 -0.4846
vn -0.9461 -0.0857 -0.3122
vn -0.5998 0.0000 -0.8001
vn -0.8145 0.3057 -0.4930
vn -0.5634 0.1847 -0.8053
vn -0.8821 0.3432 -0.3228
vn -0.4598 0.3413 -0.8198
vn -0.6896 0.6342 -0.3496
vn -0.6431 0.5650 -0.5169
vn -0.3048 0.4459 -0.8416
vn -0.4015 0.8288 -0.3896
vn -0.3864 0.7383 -0.5528
vn -0.0836 0.7993 -0.5951
vn -0.1219 0.4826 -0.8673
vn -0.0615 0.8974 -0.4369
vn 0.2643 0.7223 -0.6391
vn 0.0715 0.4491 -0.8906
vn 0.2911 0.8102 -0.5088
vn 0.3418 0.2677 -0.9008
vn 0.4722 0.5410 -0.6959
vn 0.5221 0.5859 -0.6198
vn 0.3993 0.0506 -0.9154
vn 0.6571 0.2467 -0.7123
vn 0.7037 0.2426 -0.6677
vn 0.6880 0.0541 -0.7237
vn 0.6619 0.0123 -0.7495
vn 0.3660 0.0000 -0.9306
vn 0.3993 -0.0506 -0.9154
vn 0.6407 -0.0118 -0.7677
vn 0.6880 -0.0541 -0.7237
vn 0.3418 -0.2677 -0.9008
vn 0.6571 -0.2467 -0.7123
vn 0.5221 -0.5859 -0.6198
vn 0.4722 -0.5410 -0.6959
vn 0.2911 -0.8102 -0.5088
vn 0.2643 -0.7223 -0.6391
vn 0.0715 -0.4491 -0.8906
vn 0.7559 -0.0000 -0.6547
vn -0.9461 0.0857 -0.3122
vn 0.7037 -0.2426 -0.6677
usemtl Material.001
s 1
f 4/1/1 6/2/2 17/3/3
f 2/4/4 6/2/2 13/5/5
f 22/6/6 18/7/7 11/8/8
f 12/9/9 7/10/9 3/11/9
f 8/12/10 15/13/11 12/14/12
f 6/2/2 9/15/13 14/16/14
f 5/17/15 9/18/15 1/19/15
f 8/12/10 2/4/4 16/20/16
f 8/12/10 4/1/1 17/3/3
f 70/21/17 27/22/18 24/23/19
f 69/24/20 50/25/21 25/26/22
f 24/23/19 72/27/23 71/28/24
f 70/29/25 25/26/22 26/30/26
f 27/22/18 73/31/27 72/27/23
f 25/26/22 29/32/28 26/30/26
f 26/33/29 30/34/30 27/22/18
f 25/26/22 50/25/21 28/35/31
f 30/36/30 32/37/32 33/38/33
f 28/35/31 50/25/21 31/39/34
f 30/36/30 74/40/35 73/41/27
f 29/32/28 31/39/34 32/42/36
f 32/37/32 37/43/37 33/38/33
f 31/39/34 50/25/21 35/44/38
f 37/43/37 76/45/39 75/46/40
f 31/39/34 36/47/41 32/42/36
f 76/45/39 40/48/42 77/49/43
f 36/47/41 38/50/44 39/51/45
f 37/43/37 39/52/46 40/48/42
f 35/44/38 50/25/21 38/50/44
f 77/49/43 43/53/47 78/54/48
f 38/50/44 42/55/49 39/51/45
f 39/52/46 43/53/47 40/48/42
f 38/50/44 50/25/21 41/56/50
f 42/57/51 46/58/52 43/59/47
f 41/56/50 50/25/21 44/60/53
f 78/61/48 46/58/52 79/62/54
f 41/56/50 45/63/55 42/55/49
f 46/58/52 48/64/56 49/65/57
f 44/60/53 50/25/21 47/66/58
f 79/62/54 49/65/57 80/67/59
f 44/60/53 48/68/60 45/63/55
f 80/67/59 53/69/61 81/70/62
f 47/66/58 52/71/63 48/68/60
f 49/65/57 52/72/64 53/69/61
f 47/66/58 50/25/21 51/73/65
f 51/73/65 55/74/66 52/71/63
f 52/72/64 56/75/67 53/69/61
f 51/73/65 50/25/21 54/76/68
f 81/70/62 56/75/67 82/77/69
f 55/78/70 84/79/71 83/80/72
f 54/76/68 50/25/21 57/81/73
f 56/82/67 85/83/74 82/84/69
f 54/76/68 58/85/75 55/74/66
f 57/81/73 50/25/21 59/86/76
f 57/81/73 60/87/77 58/85/75
f 60/88/78 87/89/79 86/90/80
f 60/87/77 61/91/81 62/92/82
f 62/93/83 87/89/84 60/88/84
f 59/86/76 50/25/21 61/91/81
f 64/94/85 89/95/86 88/96/87
f 61/91/81 50/25/21 63/97/88
f 65/98/89 90/99/90 89/95/86
f 62/92/82 63/97/88 64/100/91
f 65/101/89 67/102/92 68/103/93
f 63/97/88 50/25/21 66/104/94
f 65/101/89 92/105/95 91/106/96
f 64/100/91 66/104/94 67/107/97
f 68/103/93 71/28/24 92/105/95
f 67/107/97 69/24/20 70/29/25
f 67/102/92 24/23/19 68/103/93
f 66/104/94 50/25/21 69/24/20
f 34/108/98 83/80/98 84/79/98
f 88/96/98 89/95/98 34/108/98
f 134/109/99 133/110/99 99/111/99
f 124/112/99 145/113/99 99/111/99
f 4/1/1 10/114/100 6/2/2
f 2/4/4 17/3/3 6/2/2
f 20/115/101 1/116/102 9/117/103
f 9/117/103 10/118/104 20/115/101
f 10/118/104 4/119/105 18/7/7
f 20/115/101 10/118/104 18/7/7
f 4/119/105 11/8/8 18/7/7
f 11/8/8 12/120/106 22/6/6
f 12/120/106 3/121/107 22/6/6
f 12/9/9 15/122/9 7/10/9
f 12/14/12 11/123/108 8/12/10
f 8/12/10 16/20/16 15/13/11
f 14/16/14 13/5/5 6/2/2
f 6/2/2 10/114/100 9/15/13
f 5/17/15 14/124/15 9/18/15
f 8/12/10 17/3/3 2/4/4
f 8/12/10 11/123/108 4/1/1
f 70/21/17 26/33/29 27/22/18
f 24/23/19 27/22/18 72/27/23
f 70/29/25 69/24/20 25/26/22
f 27/22/18 30/34/30 73/31/27
f 25/26/22 28/35/31 29/32/28
f 26/33/29 29/125/109 30/34/30
f 30/36/30 29/126/109 32/37/32
f 30/36/30 33/38/33 74/40/35
f 29/32/28 28/35/31 31/39/34
f 32/37/32 36/127/110 37/43/37
f 75/46/40 74/40/35 33/38/33
f 33/38/33 37/43/37 75/46/40
f 31/39/34 35/44/38 36/47/41
f 76/45/39 37/43/37 40/48/42
f 36/47/41 35/44/38 38/50/44
f 37/43/37 36/127/110 39/52/46
f 77/49/43 40/48/42 43/53/47
f 38/50/44 41/56/50 42/55/49
f 39/52/46 42/128/51 43/53/47
f 42/57/51 45/129/111 46/58/52
f 78/61/48 43/59/47 46/58/52
f 41/56/50 44/60/53 45/63/55
f 46/58/52 45/129/111 48/64/56
f 79/62/54 46/58/52 49/65/57
f 44/60/53 47/66/58 48/68/60
f 80/67/59 49/65/57 53/69/61
f 47/66/58 51/73/65 52/71/63
f 49/65/57 48/64/56 52/72/64
f 51/73/65 54/76/68 55/74/66
f 52/72/64 55/130/70 56/75/67
f 81/70/62 53/69/61 56/75/67
f 83/80/72 56/82/67 55/78/70
f 55/78/70 58/131/112 84/79/71
f 56/82/67 83/80/72 85/83/74
f 54/76/68 57/81/73 58/85/75
f 57/81/73 59/86/76 60/87/77
f 86/90/80 84/79/71 58/131/112
f 58/131/112 60/88/78 86/90/80
f 60/87/77 59/86/76 61/91/81
f 62/93/83 88/96/87 87/89/84
f 88/96/87 62/93/83 64/94/85
f 64/94/85 65/98/89 89/95/86
f 65/98/89 91/132/96 90/99/90
f 62/92/82 61/91/81 63/97/88
f 65/101/89 64/133/85 67/102/92
f 65/101/89 68/103/93 92/105/95
f 64/100/91 63/97/88 66/104/94
f 68/103/93 24/23/19 71/28/24
f 67/107/97 66/104/94 69/24/20
f 67/102/92 70/21/17 24/23/19
f 84/79/98 86/90/113 34/108/98
f 34/108/98 85/83/98 83/80/98
f 89/95/98 90/99/98 34/108/98
f 34/108/98 86/90/113 87/89/114
f 87/89/114 88/96/98 34/108/98
f 133/110/99 132/134/99 99/111/99
f 132/134/99 131/135/99 99/111/99
f 131/135/99 130/136/99 99/111/99
f 130/136/99 129/137/99 99/111/99
f 129/137/99 128/138/99 99/111/99
f 99/111/99 136/139/99 135/140/99
f 135/140/99 134/109/99 99/111/99
f 145/113/99 144/141/99 99/111/99
f 144/141/99 143/142/99 99/111/99
f 99/111/99 128/138/99 127/143/99
f 126/144/99 99/111/99 127/143/99
f 126/144/99 125/145/99 99/111/99
f 125/145/99 124/112/99 99/111/99
usemtl Stradasole530.001
f 2/146/115 14/147/116 5/148/117
f 23/149/118 1/150/119 20/151/120
f 22/152/121 19/153/122 18/154/123
f 3/155/124 21/156/125 22/152/126
f 19/153/122 20/151/127 18/154/123
f 90/157/128 91/158/128 92/159/128
f 81/160/128 82/161/128 85/162/128
f 5/163/129 23/164/130 19/153/122
f 5/148/117 7/165/131 2/146/115
f 7/165/131 15/166/132 2/146/115
f 15/166/133 16/167/133 2/146/133
f 2/146/134 13/168/134 14/147/134
f 23/149/118 5/169/135 1/150/119
f 22/152/121 21/170/136 19/153/122
f 3/155/124 7/171/137 21/156/125
f 19/153/122 23/164/130 20/151/127
f 92/159/128 71/172/128 34/173/128
f 71/172/128 72/174/128 34/173/128
f 72/174/128 73/175/128 34/173/128
f 73/175/128 74/176/128 34/173/128
f 74/176/128 75/177/128 34/173/128
f 34/173/128 90/157/128 92/159/128
f 85/162/128 34/173/128 81/160/128
f 34/173/128 75/177/128 77/178/128
f 75/177/138 76/179/138 77/178/138
f 77/178/128 78/180/128 34/173/128
f 78/180/128 79/181/128 34/173/128
f 79/181/128 80/182/128 34/173/128
f 80/182/128 81/160/128 34/173/128
f 21/170/136 7/183/139 19/153/122
f 7/183/139 5/163/129 19/153/122
usemtl Glas
f 123/184/140 95/185/141 93/186/142
f 93/186/142 95/185/141 111/187/143
f 94/188/144 124/189/145 125/190/146
f 94/188/144 97/191/147 95/185/141
f 95/185/141 97/191/147 111/192/143
f 96/193/148 125/190/146 126/194/149
f 97/191/147 100/195/150 111/196/143
f 98/197/151 126/194/149 127/198/152
f 97/191/147 98/197/151 100/195/150
f 101/199/153 127/198/152 128/200/154
f 98/197/151 102/201/155 100/195/150
f 100/195/150 102/201/155 111/202/143
f 102/201/155 103/203/156 104/204/157
f 111/205/143 102/201/155 104/204/157
f 101/199/153 130/206/158 103/203/156
f 111/207/143 104/204/157 106/208/159
f 103/203/156 131/209/160 105/210/161
f 103/203/156 106/208/159 104/204/157
f 111/211/143 106/208/159 108/212/162
f 132/213/163 105/210/161 131/209/160
f 106/208/159 107/214/164 108/212/162
f 108/212/162 109/215/165 110/216/166
f 111/217/143 108/212/162 110/216/166
f 107/214/164 133/218/167 109/215/165
f 110/216/166 112/219/168 113/220/169
f 113/220/169 111/221/143 110/216/166
f 109/215/165 134/222/170 112/219/168
f 115/223/171 111/224/143 113/220/169
f 114/225/172 134/222/170 135/226/173
f 113/220/169 114/225/172 115/223/171
f 116/227/174 111/228/143 115/223/171
f 137/229/175 135/226/173 136/230/176
f 115/223/171 137/229/175 138/231/177
f 116/227/174 138/231/177 139/232/178
f 117/233/179 111/234/143 116/227/174
f 118/235/180 140/236/181 141/237/182
f 118/235/180 111/238/143 117/239/179
f 120/240/183 111/241/143 118/235/180
f 142/242/184 144/243/185 119/244/186
f 120/240/183 118/235/180 141/237/182
f 119/244/186 145/245/187 121/246/188
f 119/244/186 122/247/189 120/240/183
f 122/247/189 111/248/143 120/240/183
f 121/246/188 93/186/142 122/247/189
f 122/247/189 93/186/142 111/249/143
f 123/184/140 145/245/187 124/189/145
f 141/250/182 140/251/181 99/111/190
f 99/111/190 138/252/177 137/253/175
f 123/184/140 94/188/144 95/185/141
f 94/188/144 123/184/140 124/189/145
f 94/188/144 96/193/148 97/191/147
f 96/193/148 94/188/144 125/190/146
f 98/197/151 96/193/148 126/194/149
f 97/191/147 96/193/148 98/197/151
f 128/200/154 129/254/191 101/199/153
f 101/199/153 98/197/151 127/198/152
f 98/197/151 101/199/153 102/201/155
f 102/201/155 101/199/153 103/203/156
f 101/199/153 129/254/191 130/206/158
f 103/203/156 130/206/158 131/209/160
f 103/203/156 105/210/161 106/208/159
f 132/213/163 107/214/164 105/210/161
f 106/208/159 105/210/161 107/214/164
f 108/212/162 107/214/164 109/215/165
f 107/214/164 132/213/163 133/218/167
f 110/216/166 109/215/165 112/219/168
f 109/215/165 133/218/167 134/222/170
f 114/225/172 112/219/168 134/222/170
f 113/220/169 112/219/168 114/225/172
f 137/229/175 114/225/172 135/226/173
f 138/231/177 116/227/174 115/223/171
f 115/223/171 114/225/172 137/229/175
f 140/255/181 117/233/179 139/232/178
f 117/233/179 116/227/174 139/232/178
f 118/235/180 117/239/179 140/236/181
f 142/242/184 143/256/192 144/243/185
f 141/237/182 142/242/184 120/240/183
f 142/242/184 119/244/186 120/240/183
f 119/244/186 144/243/185 145/245/187
f 119/244/186 121/246/188 122/247/189
f 121/246/188 123/184/140 93/186/142
f 123/184/140 121/246/188 145/245/187
f 140/251/181 139/257/178 99/111/190
f 99/111/190 143/142/192 142/258/184
f 142/258/184 141/250/182 99/111/190
f 137/253/175 136/139/176 99/111/190
f 99/111/190 139/257/178 138/252/177
