# Blender 4.0.2
# www.blender.org
mtllib Streetlight_10_Mini.mtl
o BezierCurve.001
v -0.239058 0.000000 0.022178
v -0.225436 0.000000 0.020944
v -0.214468 0.000000 0.018389
v -0.205034 0.000000 0.014831
v -0.196018 -0.000000 0.010590
v -0.186300 -0.000000 0.005985
v -0.073498 -0.000000 -0.060452
v -0.038783 -0.000000 -0.072035
v -0.006981 -0.000000 -0.069920
v 0.019186 -0.000000 -0.056637
v 0.036997 -0.000000 -0.034718
v 0.043731 -0.000000 -0.006690
v 0.044501 -0.000000 0.034132
v 0.043114 -0.000000 0.043837
v -0.134533 -0.084077 0.028769
v -0.571548 0.000000 0.021782
v -0.248110 0.074213 0.031471
v -0.239058 -0.085958 0.021610
v -0.556701 0.074213 0.031471
v -0.134606 -0.081402 0.029767
v -0.214468 -0.085292 0.017880
v -0.560831 0.073340 0.031471
v -0.563855 0.070953 0.031471
v -0.205034 -0.084667 0.014378
v -0.196018 -0.083921 0.010202
v -0.564962 0.067693 0.031471
v -0.047080 -0.082049 0.033847
v -0.564962 -0.067693 0.031471
v -0.186300 -0.083112 0.005669
v -0.563855 -0.070953 0.031471
v -0.560831 -0.073340 0.031471
v -0.073498 -0.067864 -0.059734
v -0.556701 -0.074213 0.031471
v -0.038783 -0.065209 -0.071136
v -0.248110 -0.074213 0.031471
v -0.006981 -0.065735 -0.069054
v -0.243980 -0.073340 0.031471
v 0.019186 -0.068806 -0.055978
v -0.240956 -0.070953 0.031471
v 0.036997 -0.073946 -0.034400
v 0.043731 -0.080542 -0.006809
v -0.239849 -0.067693 0.031471
v 0.038199 -0.000000 0.065860
v -0.239849 0.067693 0.031471
v -0.240956 0.070953 0.031471
v 0.040450 -0.000000 0.063892
v -0.550888 0.000000 0.063358
v -0.243980 0.073340 0.031471
v -0.548169 0.000000 0.064599
v -0.568249 0.000000 0.042199
v -0.566971 0.000000 0.044921
v 0.042720 -0.086598 0.022210
v 0.041102 -0.083601 0.041980
v 0.043114 -0.080940 0.043498
v 0.040974 -0.083203 0.043577
v 0.040492 -0.065590 0.061153
v 0.038199 -0.064620 0.063156
v 0.038085 -0.066373 0.062949
v -0.548169 -0.061655 0.062290
v -0.550938 -0.062171 0.061076
v -0.547598 -0.063375 0.062135
v -0.564581 -0.078229 0.043663
v -0.566933 -0.076188 0.043633
v -0.568258 -0.077262 0.040929
v -0.565765 -0.079227 0.042197
v -0.569278 -0.081699 0.021225
v -0.571548 -0.079584 0.021235
v -0.193918 -0.080749 0.041290
v -0.193915 -0.079644 0.044060
v -0.223320 -0.085654 0.019911
v -0.219369 -0.085712 0.020177
v -0.217567 -0.085766 0.020449
v -0.225436 -0.084993 0.020401
v -0.226301 -0.084731 0.020480
v -0.231232 -0.085833 0.020913
v -0.225933 -0.084907 0.020446
v -0.223651 -0.085458 0.021580
v -0.047098 -0.083627 0.034437
v -0.047061 -0.083816 0.033187
v -0.086476 -0.083405 0.032627
v -0.076273 -0.083657 0.031804
v 0.040444 -0.084800 0.033960
v 0.041756 -0.084812 0.033991
v 0.041637 -0.084591 0.035445
v -0.134535 -0.084112 0.028804
v -0.134669 -0.083667 0.030611
v -0.131415 -0.084100 0.028915
v 0.042340 -0.083926 0.034896
v 0.042169 -0.084104 0.034962
v -0.134533 0.084077 0.028769
v -0.239058 0.085958 0.021610
v -0.134606 0.081402 0.029767
v -0.214468 0.085292 0.017880
v -0.205034 0.084667 0.014378
v -0.196018 0.083921 0.010202
v -0.047080 0.082049 0.033847
v -0.186300 0.083112 0.005669
v -0.073498 0.067864 -0.059734
v -0.038783 0.065209 -0.071136
v -0.006981 0.065735 -0.069054
v 0.019186 0.068806 -0.055978
v 0.036997 0.073945 -0.034400
v 0.043731 0.080542 -0.006809
v 0.042720 0.086598 0.022210
v 0.041102 0.083601 0.041980
v 0.043114 0.080940 0.043498
v 0.040974 0.083203 0.043577
v 0.040492 0.065590 0.061153
v 0.038199 0.064620 0.063156
v 0.038085 0.066373 0.062949
v -0.548169 0.061655 0.062290
v -0.550938 0.062171 0.061076
v -0.547598 0.063375 0.062135
v -0.564581 0.078229 0.043663
v -0.566933 0.076188 0.043633
v -0.568258 0.077262 0.040929
v -0.565765 0.079227 0.042197
v -0.569278 0.081699 0.021225
v -0.571548 0.079584 0.021235
v -0.193918 0.080749 0.041290
v -0.193915 0.079644 0.044060
v -0.223320 0.085654 0.019911
v -0.219369 0.085712 0.020177
v -0.217567 0.085766 0.020449
v -0.225436 0.084993 0.020401
v -0.226301 0.084731 0.020480
v -0.231232 0.085833 0.020913
v -0.225933 0.084907 0.020446
v -0.223651 0.085458 0.021580
v -0.047098 0.083627 0.034437
v -0.047061 0.083816 0.033187
v -0.086476 0.083405 0.032627
v -0.076273 0.083657 0.031804
v 0.040444 0.084800 0.033960
v 0.041756 0.084812 0.033991
v 0.041637 0.084591 0.035445
v -0.134535 0.084112 0.028804
v -0.134669 0.083667 0.030611
v -0.131415 0.084100 0.028915
v 0.042340 0.083926 0.034896
v 0.042169 0.084104 0.034962
v -0.564962 0.000000 0.021796
v -0.239849 0.000000 0.022176
v -0.239849 -0.067693 0.021729
v -0.248110 -0.074213 0.021669
v -0.243980 -0.073340 0.021684
v -0.240956 -0.070953 0.021705
v -0.563855 -0.070953 0.021311
v -0.564962 -0.067693 0.021331
v -0.560831 -0.073340 0.021301
v -0.556701 -0.074213 0.021304
v -0.248110 0.074213 0.021668
v -0.243980 0.073340 0.021683
v -0.240956 0.070953 0.021705
v -0.239849 0.067693 0.021729
v -0.556701 0.074213 0.021302
v -0.560831 0.073340 0.021300
v -0.563855 0.070953 0.021310
v -0.564962 0.067693 0.021330
vn -0.4267 -0.0000 -0.9044
vn -0.4608 0.0037 -0.8875
vn -0.4219 0.0045 -0.9066
vn -0.0019 -0.9830 -0.1838
vn -0.0020 -0.9853 -0.1711
vn -0.4663 -0.0000 -0.8846
vn -0.4168 -0.0073 -0.9090
vn 0.3476 -0.0000 0.9376
vn -0.2132 -0.0928 0.9726
vn 0.3424 -0.0797 0.9362
vn -0.4132 -0.0000 -0.9106
vn -0.1296 -0.0124 -0.9915
vn -0.8348 -0.0000 0.5505
vn -0.5404 -0.2042 0.8163
vn -0.5952 -0.0000 0.8036
vn 0.2643 -0.0000 -0.9645
vn -0.1272 -0.0000 -0.9919
vn -0.1588 -0.0000 -0.9873
vn -0.0891 0.0064 -0.9960
vn -0.0105 -0.3272 -0.9449
vn -0.9870 -0.0000 0.1604
vn -0.8728 -0.3639 0.3253
vn -0.9550 -0.0000 0.2966
vn 0.6267 -0.0000 -0.7793
vn 0.2693 -0.0114 -0.9630
vn -0.2849 0.0059 -0.9586
vn -0.2238 0.0062 -0.9746
vn -0.0020 -0.9835 -0.1809
vn 0.8958 -0.0000 -0.4445
vn 0.6380 -0.0059 -0.7700
vn -0.2902 -0.0001 -0.9570
vn -0.3834 0.0052 -0.9236
vn 0.0264 -0.9806 0.1945
vn 0.0021 -0.9687 0.2482
vn 0.0322 -0.9820 0.1860
vn 0.9919 -0.0000 -0.1273
vn 0.9071 -0.0012 -0.4209
vn -0.3893 -0.0000 -0.9211
vn -0.0050 -0.9719 0.2354
vn -0.0119 -0.9883 0.1521
vn -0.0187 -0.8926 0.4505
vn 0.3893 -0.8982 0.2042
vn -0.0121 -0.9882 0.1525
vn -0.0124 -0.9888 0.1489
vn -0.3606 -0.8288 0.4278
vn -0.3879 -0.9056 0.1716
vn -0.1393 -0.4563 0.8788
vn -0.0101 -0.8906 0.4546
vn 0.3475 -0.8266 0.4426
vn 0.2953 -0.4402 0.8480
vn 0.9981 -0.0000 0.0611
vn 0.8888 -0.3695 0.2710
vn 0.9983 -0.0555 0.0187
vn -0.0057 -0.9525 0.3045
vn -0.0437 0.0063 -0.9990
vn 0.0017 0.0070 -1.0000
vn 0.0014 0.0087 -1.0000
vn -0.0005 -0.9729 -0.2311
vn 0.0004 -0.9728 -0.2318
vn -0.0012 -0.9731 -0.2304
vn 0.0024 -0.9724 -0.2333
vn 0.0015 -0.9725 -0.2329
vn -0.0020 -0.9837 -0.1799
vn 0.9956 -0.0102 -0.0933
vn -0.0047 -0.9710 0.2391
vn -0.0134 -0.9787 -0.2047
vn 0.8340 -0.2141 0.5085
vn -0.7137 -0.2769 0.6434
vn -0.2313 -0.6811 0.6948
vn 0.7416 -0.6517 0.1595
vn 0.8772 -0.0000 0.4800
vn -0.2125 -0.0000 0.9772
vn 0.9904 -0.0000 0.1379
vn 0.0014 -0.9744 -0.2248
vn 0.0856 -0.7236 -0.6849
vn 0.0743 -0.3517 -0.9331
vn -0.0562 0.7071 0.7049
vn -0.0848 0.7067 0.7024
vn -0.0565 0.7071 0.7049
vn -0.0515 -0.6625 0.7473
vn -0.0666 -0.3519 0.9337
vn -0.0794 -0.3840 0.9199
vn 0.0410 -0.3499 -0.9359
vn 0.0738 -0.3501 -0.9338
vn 0.0222 -0.3511 -0.9361
vn -0.0277 0.7069 0.7068
vn -0.0462 -0.3501 0.9356
vn -0.0294 -0.3520 0.9356
vn -0.0670 -0.3501 0.9343
vn 0.0028 -0.4596 -0.8881
vn 0.0036 -0.3500 -0.9367
vn -0.0193 -0.8764 0.4811
vn -0.4608 -0.0037 -0.8875
vn -0.0019 0.9830 -0.1838
vn -0.0119 0.9883 0.1521
vn -0.4168 0.0073 -0.9090
vn -0.2132 0.0928 0.9726
vn -0.1296 0.0124 -0.9915
vn -0.5404 0.2042 0.8163
vn -0.0098 0.3272 -0.9449
vn -0.0441 -0.0000 -0.9990
vn -0.0764 0.0490 -0.9959
vn -0.8728 0.3639 0.3253
vn 0.2693 0.0114 -0.9630
vn -0.2239 -0.0060 -0.9746
vn -0.0020 0.9835 -0.1809
vn 0.6380 0.0059 -0.7700
vn -0.3834 -0.0052 -0.9236
vn 0.0264 0.9806 0.1945
vn 0.0021 0.9687 0.2482
vn -0.0057 0.9525 0.3045
vn 0.9071 0.0012 -0.4209
vn -0.4219 -0.0045 -0.9066
vn -0.0124 0.9888 0.1490
vn -0.0124 0.9888 0.1489
vn -0.3879 0.9056 0.1716
vn -0.3606 0.8288 0.4278
vn -0.0101 0.8906 0.4546
vn -0.1393 0.4563 0.8788
vn 0.3475 0.8266 0.4426
vn 0.2953 0.4402 0.8480
vn 0.8888 0.3695 0.2710
vn 0.0016 -0.0069 -1.0000
vn -0.0436 -0.0064 -0.9990
vn 0.0015 -0.0062 -1.0000
vn -0.0005 0.9729 -0.2311
vn -0.0012 0.9731 -0.2304
vn 0.0004 0.9728 -0.2318
vn 0.0024 0.9724 -0.2333
vn 0.0015 0.9725 -0.2329
vn -0.0020 0.9837 -0.1799
vn 0.9956 0.0102 -0.0933
vn -0.0047 0.9710 0.2391
vn -0.0121 0.9882 0.1525
vn -0.0134 0.9787 -0.2047
vn 0.3893 0.8982 0.2042
vn 0.8340 0.2141 0.5085
vn 0.3424 0.0797 0.9362
vn -0.7137 0.2769 0.6434
vn -0.2313 0.6811 0.6948
vn 0.7416 0.6517 0.1595
vn 0.9983 0.0555 0.0187
vn -0.8943 0.4018 0.1968
vn 0.0014 0.9744 -0.2248
vn 0.0967 0.7046 -0.7030
vn 0.0711 0.3517 -0.9334
vn -0.0562 -0.7071 0.7049
vn -0.0848 -0.7067 0.7024
vn -0.0666 0.3519 0.9337
vn -0.0517 0.6613 0.7483
vn -0.0501 0.6761 0.7351
vn 0.0410 0.3501 -0.9358
vn 0.0241 0.3511 -0.9360
vn 0.0716 0.3501 -0.9340
vn -0.0277 -0.7069 0.7068
vn -0.0565 -0.7071 0.7049
vn -0.0462 0.3501 0.9356
vn -0.0670 0.3501 0.9343
vn -0.0295 0.3519 0.9356
vn 0.0005 0.4602 -0.8878
vn -0.0071 0.6974 -0.7166
vn -0.0230 0.7039 0.7100
vn -0.0292 0.3501 0.9363
vn -0.0000 -0.0000 -1.0000
vn -0.8161 -0.5779 -0.0000
vn -0.4244 -0.9055 -0.0000
vn -0.4237 -0.9058 -0.0000
vn 0.4244 0.9055 -0.0000
vn 0.1041 0.9946 -0.0000
vn 0.4242 0.9056 -0.0000
vn -0.1039 -0.9946 -0.0000
vn 0.1040 -0.9946 -0.0000
vn 0.1041 -0.9946 -0.0000
vn -0.1040 -0.9946 -0.0000
vn 0.1040 0.9946 -0.0000
vn -0.1039 0.9946 -0.0000
vn 0.4244 -0.9055 -0.0000
vn 0.4242 -0.9056 -0.0000
vn -0.1040 0.9946 -0.0000
vn -0.4238 0.9058 -0.0000
vn 0.8163 -0.5776 -0.0000
vn -0.4244 0.9055 -0.0000
vn -0.8161 0.5779 -0.0000
vn 0.8168 -0.5769 -0.0000
vn 0.9865 -0.1636 -0.0000
vn -0.8168 0.5769 -0.0000
vn -0.9865 0.1636 -0.0000
vn 0.9866 0.1629 -0.0000
vn 1.0000 -0.0000 -0.0000
vn -0.9866 0.1629 -0.0000
vn -0.9865 -0.1636 -0.0000
vn -1.0000 -0.0000 -0.0000
vn 0.9865 0.1636 -0.0000
vn 0.8168 0.5769 -0.0000
vn 0.8163 0.5776 -0.0000
vn -0.8168 -0.5769 -0.0000
vn -0.0764 -0.0490 -0.9959
vn -0.1665 0.0063 -0.9860
vn -0.8943 -0.4018 0.1968
vn 0.0020 0.0066 -1.0000
vn 0.0020 -0.0000 -1.0000
vn 0.0012 0.0061 -1.0000
vn 0.0021 0.0069 -1.0000
vn 0.0021 0.0068 -1.0000
vn 0.0015 0.0062 -1.0000
vn -0.0578 -0.7068 0.7050
vn -0.0578 -0.7067 0.7051
vn -0.0818 -0.3501 0.9331
vn 0.0225 -0.3501 -0.9364
vn -0.0291 -0.3501 0.9363
vn 0.0004 -0.7041 -0.7101
vn -0.0231 -0.7070 0.7069
vn -0.0020 0.9853 -0.1711
vn -0.0894 -0.0055 -0.9960
vn -0.1665 -0.0063 -0.9860
vn -0.2847 -0.0057 -0.9586
vn 0.0322 0.9820 0.1860
vn -0.0050 0.9719 0.2354
vn 0.0012 -0.0061 -1.0000
vn 0.0022 -0.0066 -1.0000
vn 0.0020 -0.0069 -1.0000
vn 0.0021 -0.0066 -1.0000
vn 0.0013 -0.0088 -1.0000
vn 0.7415 0.6517 0.1596
vn -0.0791 0.3841 0.9199
vn -0.0818 0.3501 0.9331
vn -0.0578 0.7067 0.7051
vn 0.0239 0.3501 -0.9364
vn 0.0036 0.3500 -0.9367
vn -0.0231 0.7070 0.7069
vn 0.9866 -0.1629 -0.0000
vn -0.9866 -0.1629 -0.0000
vt 0.000000 0.000000
vt 0.031691 0.937514
vt 0.022364 0.750000
vt 0.333333 0.961644
vt 0.333333 0.500000
vt 0.051616 0.477686
vt 0.333333 0.491230
vt 0.045465 0.500000
vt 0.333333 0.750000
vt 0.023571 0.715784
vt 0.516748 0.903876
vt 0.666667 0.897482
vt 0.345214 0.500000
vt 0.333333 0.491230
vt 0.555374 0.579564
vt 0.666667 0.750000
vt 0.977371 0.782933
vt 0.977962 0.750000
vt 0.971334 0.540974
vt 0.975902 0.541737
vt 0.025218 0.692768
vt 0.975531 0.897450
vt 0.666667 0.584888
vt 0.021963 0.996596
vt 0.005885 0.012705
vt 0.978037 0.003404
vt 0.021963 0.994115
vt 0.005885 0.978037
vt 0.005885 0.978037
vt 0.994115 0.021963
vt 1.000000 0.043925
vt 0.994115 0.021963
vt 0.000000 0.956074
vt 0.000000 0.043925
vt 0.000000 0.956075
vt 1.000000 0.956074
vt 0.005885 0.021963
vt 0.005885 0.021963
vt 1.000000 0.956075
vt 0.994115 0.978037
vt 0.021963 0.005885
vt 0.978037 0.994115
vt 0.043925 0.000000
vt 0.978037 0.994115
vt 0.956075 1.000000
vt 0.956075 0.000000
vt 0.500000 0.000000
vt 0.043925 1.000000
vt 0.500000 1.000000
vt 0.956074 0.000000
vt 0.978037 0.005885
vt 0.006033 0.977531
vt 0.032112 0.530152
vt 0.994115 0.012705
vt 1.000000 0.025410
vt 1.000000 0.974590
vt 0.994115 0.987295
vt 0.978037 0.996596
vt 0.956075 1.000000
vt 0.043926 1.000000
vt 0.005885 0.987295
vt 0.000000 0.974590
vt 0.000000 0.025410
vt 0.021963 0.003404
vt 0.043926 0.000000
vt 0.956075 0.000000
vt 0.043925 0.000000
s 1
usemtl Material.002
f 5/1/1 29/1/2 25/1/3
f 71/1/4 21/1/4 72/1/5
f 6/1/6 32/1/7 29/1/2
f 43/1/8 59/1/9 57/1/10
f 7/1/11 34/1/12 32/1/7
f 51/1/13 60/1/14 47/1/15
f 9/1/16 34/1/12 8/1/17
f 2/1/18 76/1/19 74/1/20
f 16/1/21 64/1/22 50/1/23
f 10/1/24 36/1/25 9/1/16
f 2/1/18 21/1/26 70/1/27
s 0
f 21/1/28 24/1/28 52/1/28
s 1
f 11/1/29 38/1/30 10/1/24
f 3/1/31 24/1/32 21/1/26
f 77/1/33 18/1/34 75/1/35
f 12/1/36 40/1/37 11/1/29
f 4/1/38 25/1/3 24/1/32
f 81/1/39 52/1/40 82/1/41
f 53/1/42 80/1/43 78/1/44
f 18/1/34 65/1/45 66/1/46
f 61/1/47 69/1/48 55/1/49
f 58/1/50 61/1/47 55/1/49
f 13/1/51 54/1/52 52/1/53
f 65/1/45 18/1/34 68/1/54
f 18/1/55 67/1/56 151/1/57
f 36/1/58 41/1/59 34/1/60
f 38/1/61 41/1/59 36/1/58
f 40/1/62 41/1/59 38/1/61
f 41/1/59 32/1/60 34/1/60
s 0
f 24/1/63 25/1/63 52/1/63
f 25/1/63 29/1/63 52/1/63
s 1
f 13/1/51 41/1/64 12/1/36
f 87/1/65 72/1/5 81/1/39
f 68/1/54 86/1/65 80/1/43
s 0
f 41/1/66 52/1/66 32/1/66
s 1
f 53/1/42 54/1/52 55/1/49
f 56/1/67 57/1/10 58/1/50
f 59/1/9 60/1/14 61/1/47
f 63/1/68 65/1/45 62/1/69
f 88/1/70 54/1/52 84/1/70
f 54/1/52 58/1/50 55/1/49
f 57/1/10 61/1/47 58/1/50
f 60/1/14 62/1/69 61/1/47
f 64/1/22 66/1/46 65/1/45
f 57/1/10 46/1/71 43/1/8
f 47/1/15 59/1/9 49/1/72
f 50/1/23 63/1/68 51/1/13
f 62/1/69 68/1/54 69/1/48
f 55/1/49 68/1/54 53/1/42
f 14/1/73 56/1/67 54/1/52
s 0
f 29/1/74 32/1/74 52/1/74
s 1
f 5/1/1 97/1/93 6/1/6
f 123/1/94 104/1/95 122/1/94
f 6/1/6 98/1/96 7/1/11
f 43/1/8 111/1/97 49/1/72
f 7/1/11 99/1/98 8/1/17
f 112/1/99 51/1/13 47/1/15
f 99/1/98 9/1/16 8/1/17
f 126/1/100 1/1/101 127/1/102
f 116/1/103 16/1/21 50/1/23
f 100/1/104 10/1/24 9/1/16
f 122/1/105 3/1/31 2/1/18
s 0
f 93/1/106 104/1/106 94/1/106
s 1
f 101/1/107 11/1/29 10/1/24
f 3/1/31 94/1/108 4/1/38
f 129/1/109 91/1/110 120/1/111
f 102/1/112 12/1/36 11/1/29
f 4/1/38 95/1/113 5/1/1
f 134/1/114 104/1/95 131/1/115
f 130/1/115 120/1/111 136/1/115
f 91/1/110 118/1/116 117/1/117
f 121/1/118 113/1/119 107/1/120
f 110/1/121 107/1/120 113/1/119
f 13/1/51 106/1/122 14/1/73
f 117/1/117 120/1/111 91/1/110
f 119/1/123 91/1/124 152/1/125
f 100/1/126 99/1/127 103/1/128
f 101/1/129 100/1/126 103/1/128
f 102/1/130 101/1/129 103/1/128
f 103/1/128 99/1/127 98/1/127
s 0
f 94/1/131 104/1/131 95/1/131
f 95/1/131 104/1/131 97/1/131
s 1
f 103/1/132 13/1/51 12/1/36
f 139/1/133 104/1/95 137/1/133
f 138/1/133 120/1/111 132/1/134
s 0
f 103/1/135 98/1/135 104/1/135
s 1
f 105/1/136 107/1/120 106/1/122
f 108/1/137 110/1/121 109/1/138
f 111/1/97 113/1/119 112/1/99
f 117/1/117 115/1/139 114/1/140
f 140/1/141 106/1/122 104/1/142
f 106/1/122 110/1/121 108/1/137
f 109/1/138 113/1/119 111/1/97
f 112/1/99 114/1/140 115/1/139
f 116/1/103 118/1/116 119/1/143
f 46/1/71 109/1/138 43/1/8
f 47/1/15 111/1/97 112/1/99
f 50/1/23 115/1/139 116/1/103
f 120/1/111 114/1/140 121/1/118
f 107/1/120 120/1/111 121/1/118
f 14/1/73 108/1/137 46/1/71
s 0
f 97/1/144 104/1/144 98/1/144
s 1
f 154/27/165 48/28/166 153/29/167
f 31/30/168 151/31/169 150/32/170
f 152/33/171 19/34/172 156/34/173
f 153/29/167 17/35/174 152/33/171
f 33/31/175 145/36/176 151/31/169
f 156/34/173 22/37/177 157/38/178
f 35/39/179 146/40/180 145/36/176
f 22/37/177 158/41/181 157/38/178
f 37/40/182 147/42/183 146/40/180
f 23/41/184 159/43/185 158/41/181
f 39/44/186 144/45/187 147/42/183
f 28/46/188 142/47/189 159/43/185
f 42/45/190 155/48/191 143/49/192
f 149/50/193 30/51/194 148/51/195
f 155/48/191 45/27/196 154/27/165
f 148/51/195 31/30/168 150/32/170
f 5/1/1 6/1/6 29/1/2
f 71/1/4 70/1/4 21/1/4
f 21/1/4 52/1/40 72/1/5
f 6/1/6 7/1/11 32/1/7
f 43/1/8 49/1/72 59/1/9
f 7/1/11 8/1/17 34/1/12
f 51/1/13 63/1/68 60/1/14
f 9/1/16 36/1/25 34/1/12
f 74/1/20 75/1/197 18/1/55
f 18/1/55 1/1/101 2/1/18
f 2/1/18 73/1/198 76/1/19
f 74/1/20 18/1/55 2/1/18
f 16/1/21 67/1/199 64/1/22
f 10/1/24 38/1/30 36/1/25
f 70/1/27 73/1/198 2/1/18
f 2/1/18 3/1/31 21/1/26
f 11/1/29 40/1/37 38/1/30
f 3/1/31 4/1/38 24/1/32
f 77/1/33 68/1/54 18/1/34
f 12/1/36 41/1/64 40/1/37
f 4/1/38 5/1/1 25/1/3
f 82/1/41 79/1/44 81/1/39
f 52/1/40 83/1/92 82/1/41
f 78/1/44 84/1/44 53/1/42
f 53/1/42 68/1/54 80/1/43
f 61/1/47 62/1/69 69/1/48
f 13/1/51 14/1/73 54/1/52
f 144/1/200 143/1/201 1/1/101
f 18/1/55 66/1/202 67/1/56
f 67/1/56 16/1/201 142/1/201
f 67/1/56 142/1/201 149/1/203
f 144/1/200 1/1/101 18/1/55
f 147/1/200 144/1/200 18/1/55
f 67/1/56 149/1/203 148/1/203
f 67/1/56 148/1/203 150/1/204
f 146/1/200 147/1/200 18/1/55
f 145/1/205 146/1/200 18/1/55
f 67/1/56 150/1/204 151/1/57
f 151/1/57 145/1/205 18/1/55
f 13/1/51 52/1/53 41/1/64
f 87/1/65 85/1/65 72/1/5
f 72/1/5 52/1/40 81/1/39
f 68/1/54 77/1/33 86/1/65
f 63/1/68 64/1/22 65/1/45
f 88/1/70 83/1/70 52/1/53
f 54/1/52 53/1/42 84/1/70
f 84/1/70 89/1/70 88/1/70
f 88/1/70 52/1/53 54/1/52
f 54/1/52 56/1/67 58/1/50
f 57/1/10 59/1/9 61/1/47
f 60/1/14 63/1/68 62/1/69
f 64/1/22 67/1/199 66/1/46
f 57/1/10 56/1/67 46/1/71
f 47/1/15 60/1/14 59/1/9
f 50/1/23 64/1/22 63/1/68
f 62/1/69 65/1/45 68/1/54
f 55/1/49 69/1/48 68/1/54
f 14/1/73 46/1/71 56/1/67
f 5/1/1 95/1/113 97/1/93
f 123/1/94 124/1/213 104/1/95
f 104/1/95 93/1/94 122/1/94
f 6/1/6 97/1/93 98/1/96
f 43/1/8 109/1/138 111/1/97
f 7/1/11 98/1/96 99/1/98
f 112/1/99 115/1/139 51/1/13
f 99/1/98 100/1/104 9/1/16
f 126/1/100 128/1/214 125/1/215
f 125/1/215 2/1/18 1/1/101
f 1/1/101 91/1/124 127/1/102
f 126/1/100 125/1/215 1/1/101
f 116/1/103 119/1/143 16/1/21
f 100/1/104 101/1/107 10/1/24
f 2/1/18 125/1/215 122/1/105
f 122/1/105 93/1/216 3/1/31
f 101/1/107 102/1/112 11/1/29
f 3/1/31 93/1/216 94/1/108
f 129/1/109 127/1/217 91/1/110
f 102/1/112 103/1/132 12/1/36
f 4/1/38 94/1/108 95/1/113
f 134/1/114 135/1/115 104/1/95
f 104/1/95 133/1/218 131/1/115
f 130/1/115 132/1/134 120/1/111
f 120/1/111 105/1/136 136/1/115
f 121/1/118 114/1/140 113/1/119
f 13/1/51 104/1/142 106/1/122
f 142/1/201 16/1/201 119/1/123
f 119/1/123 118/1/219 91/1/124
f 91/1/124 1/1/101 143/1/201
f 91/1/124 143/1/201 155/1/220
f 159/1/221 142/1/201 119/1/123
f 158/1/221 159/1/221 119/1/123
f 91/1/124 155/1/220 154/1/222
f 91/1/124 154/1/222 153/1/222
f 157/1/221 158/1/221 119/1/123
f 156/1/223 157/1/221 119/1/123
f 91/1/124 153/1/222 152/1/125
f 152/1/125 156/1/223 119/1/123
f 103/1/132 104/1/142 13/1/51
f 139/1/133 133/1/218 104/1/95
f 104/1/95 124/1/213 137/1/133
f 138/1/133 129/1/109 120/1/111
f 117/1/117 116/1/103 115/1/139
f 140/1/141 141/1/224 136/1/141
f 136/1/141 105/1/136 106/1/122
f 104/1/142 135/1/141 140/1/141
f 140/1/141 136/1/141 106/1/122
f 106/1/122 107/1/120 110/1/121
f 109/1/138 110/1/121 113/1/119
f 112/1/99 113/1/119 114/1/140
f 116/1/103 117/1/117 118/1/116
f 46/1/71 108/1/137 109/1/138
f 47/1/15 49/1/72 111/1/97
f 50/1/23 51/1/13 115/1/139
f 120/1/111 117/1/117 114/1/140
f 107/1/120 105/1/136 120/1/111
f 14/1/73 106/1/122 108/1/137
f 154/27/165 45/27/196 48/28/166
f 31/30/168 33/31/175 151/31/169
f 152/33/171 17/35/174 19/34/172
f 153/29/167 48/28/166 17/35/174
f 33/31/175 35/39/179 145/36/176
f 156/34/173 19/34/172 22/37/177
f 35/39/179 37/40/182 146/40/180
f 22/37/177 23/41/184 158/41/181
f 37/40/182 39/44/186 147/42/183
f 23/41/184 26/67/231 159/43/185
f 39/44/186 42/45/190 144/45/187
f 159/43/185 26/67/231 28/46/188
f 28/46/188 149/50/193 142/47/189
f 143/49/192 144/45/187 42/45/190
f 42/45/190 44/48/232 155/48/191
f 149/50/193 28/46/188 30/51/194
f 155/48/191 44/48/232 45/27/196
f 148/51/195 30/51/194 31/30/168
usemtl Material.003
f 23/24/164 48/25/164 39/26/164
f 39/26/164 37/54/164 35/55/164
f 35/55/164 33/56/164 31/57/164
f 31/57/164 30/58/164 28/59/164
f 28/59/164 26/60/164 23/24/164
f 23/24/164 22/61/164 19/62/164
f 19/62/164 17/63/164 48/25/164
f 48/25/164 45/64/164 44/65/164
f 44/65/164 42/66/164 39/26/164
f 39/26/164 35/55/164 31/57/164
f 31/57/164 28/59/164 23/24/164
f 23/24/164 19/62/164 48/25/164
f 48/25/164 44/65/164 39/26/164
f 39/26/164 31/57/164 23/24/164
usemtl 
f 77/2/75 74/3/20 86/4/76
f 15/5/77 72/6/78 85/7/79
f 71/8/80 20/9/81 76/10/82
f 80/11/83 20/9/84 78/12/85
f 87/13/86 15/5/77 85/14/79
f 81/15/87 27/16/88 15/5/89
f 89/17/90 78/12/85 88/18/91
f 27/16/88 82/19/41 83/20/92
f 129/2/145 92/9/146 126/3/100
f 90/5/147 124/6/148 123/8/148
f 92/9/149 123/8/150 125/21/151
f 132/11/152 96/16/153 138/4/154
f 139/13/155 137/14/156 90/5/147
f 133/15/157 90/5/158 96/16/159
f 141/17/160 96/16/153 136/22/161
f 135/20/162 131/23/163 96/16/159
f 77/2/75 75/52/197 74/3/20
f 74/3/20 20/9/84 86/4/76
f 15/5/77 71/8/78 72/6/78
f 73/21/206 70/53/207 71/8/80
f 71/8/80 15/5/89 20/9/81
f 20/9/81 74/3/208 76/10/82
f 76/10/82 73/21/206 71/8/80
f 80/11/83 86/4/76 20/9/84
f 20/9/84 27/16/209 78/12/85
f 81/15/87 79/23/210 27/16/88
f 27/16/88 20/9/81 15/5/89
f 15/5/89 87/13/87 81/15/87
f 89/17/90 84/22/211 78/12/85
f 78/12/85 27/16/209 88/18/91
f 83/20/92 88/18/212 27/16/88
f 27/16/88 79/23/210 82/19/41
f 129/2/145 138/4/154 92/9/146
f 126/3/100 127/52/102 129/2/145
f 90/5/147 137/7/156 124/6/148
f 128/10/225 126/3/226 92/9/149
f 92/9/149 90/5/158 123/8/150
f 123/8/150 122/53/227 125/21/151
f 125/21/151 128/10/225 92/9/149
f 132/11/152 130/12/228 96/16/153
f 96/16/153 92/9/146 138/4/154
f 133/15/157 139/13/157 90/5/158
f 90/5/158 92/9/149 96/16/159
f 96/16/159 131/23/163 133/15/157
f 141/17/160 140/18/229 96/16/153
f 96/16/153 130/12/228 136/22/161
f 96/16/159 140/18/230 135/20/162
f 135/20/115 134/19/114 131/23/115
o Glas.001
v -0.564962 0.067693 0.025695
v -0.556701 0.074213 0.025695
v -0.563855 0.070953 0.025695
v -0.560831 0.073340 0.025695
v -0.556701 -0.074213 0.025695
v -0.564962 -0.067693 0.025695
v -0.560831 -0.073340 0.025695
v -0.563855 -0.070953 0.025695
v -0.239849 0.067693 0.025695
v -0.248110 0.074213 0.025695
v -0.240956 0.070953 0.025695
v -0.243980 0.073340 0.025695
v -0.239849 -0.067693 0.025695
v -0.248110 -0.074213 0.025695
v -0.240956 -0.070953 0.025695
v -0.243980 -0.073340 0.025695
vn -0.0000 -0.0000 -1.0000
vt 0.994115 0.978037
vt 0.978037 0.005885
vt 0.005885 0.021963
vt 0.000000 0.043925
vt 0.000000 0.956075
vt 0.005885 0.978037
vt 0.021963 0.994115
vt 0.043925 1.000000
vt 0.956075 1.000000
vt 0.978037 0.994115
vt 1.000000 0.956075
vt 1.000000 0.043925
vt 0.994115 0.021963
vt 0.956075 0.000000
vt 0.043925 0.000000
vt 0.021963 0.005885
s 1
usemtl Glas.002
f 175/68/233 167/69/233 163/70/233
f 163/70/233 161/71/233 169/72/233
f 169/72/233 171/73/233 170/74/233
f 170/74/233 168/75/233 172/76/233
f 172/76/233 174/77/233 175/68/233
f 175/68/233 173/78/233 164/79/233
f 164/79/233 166/80/233 167/69/233
f 167/69/233 165/81/233 160/82/233
f 160/82/233 162/83/233 163/70/233
f 163/70/233 169/72/233 170/74/233
f 170/74/233 172/76/233 175/68/233
f 175/68/233 164/79/233 167/69/233
f 167/69/233 160/82/233 163/70/233
f 163/70/233 170/74/233 175/68/233
