# Blender v3.5.1 OBJ File: 'Grossflaeche_Strasse.blend'
# www.blender.org
mtllib Grossflaeche_Strasse.mtl
o Werbeplakat_Rueckseite_Plane.001
v 0.028307 1.789000 3.395173
v 0.028307 1.789000 0.863173
v 0.028307 -1.789000 3.395173
v 0.028307 -1.789000 0.863173
vt 1.000000 1.000000
vt 0.000000 0.000000
vt 0.000000 1.000000
vt 1.000000 0.000000
vn 1.0000 0.0000 0.0000
usemtl beige
s off
f 3/1/1 2/2/1 1/3/1
f 3/1/1 4/4/1 2/2/1
o Werbeplakat_Plane
v -0.039412 1.789000 3.395173
v -0.039412 1.789000 0.863173
v -0.039412 -1.789000 3.395173
v -0.039412 -1.789000 0.863173
vt 0.007511 0.008833
vt 0.999130 0.996728
vt 0.007511 0.998366
vt 0.999130 0.007195
vn -1.0000 0.0000 -0.0000
usemtl Werbeplakat
s off
f 6/5/2 7/6/2 5/7/2
f 6/5/2 8/8/2 7/6/2
o Rahmen.001_BezierCurve
v 0.059879 1.958636 -0.029214
v 0.026940 1.933515 -0.029214
v -0.038040 1.933515 -0.029214
v -0.070979 1.958636 -0.029214
v -0.070979 1.789640 -0.029214
v 0.059879 1.789640 -0.029214
v 0.059879 -1.958636 -0.029214
v 0.026940 -1.933515 -0.029214
v -0.038040 -1.933515 -0.029214
v -0.070979 -1.958636 -0.029214
v -0.070979 -1.789640 -0.029210
v 0.059879 -1.789640 -0.029210
v 0.059879 -1.958636 3.564789
v 0.026940 -1.933515 3.539668
v -0.038040 -1.933515 3.539668
v -0.070979 -1.958636 3.564789
v -0.070979 -1.789640 3.395792
v 0.059879 -1.789640 3.395792
v 0.059879 1.958636 3.564789
v 0.026940 1.933515 3.539668
v -0.038040 1.933515 3.539668
v -0.070979 1.958636 3.564789
v -0.070979 1.789640 3.395792
v 0.059879 1.789640 3.395792
v 0.059879 1.789640 0.753438
v 0.026940 1.789640 0.788964
v -0.038040 1.789640 0.788964
v -0.070979 1.789640 0.753438
v -0.070979 1.789640 0.876888
v 0.059879 1.789640 0.876888
v 0.059879 -1.789640 0.753438
v 0.026940 -1.789640 0.788964
v -0.038040 -1.789640 0.788964
v -0.070979 -1.789640 0.753438
v -0.070979 -1.789640 0.876888
v 0.059879 -1.789640 0.876888
v -0.070979 1.765246 3.395792
v -0.070979 1.765246 3.564789
v -0.070979 1.163553 3.564789
v -0.070979 1.164519 3.395792
vt 0.994980 0.048028
vt 0.000991 0.908432
vt 0.994980 0.950886
vt 0.847225 0.944576
vt 0.847225 0.048028
vt 0.994980 0.048028
vt 0.847225 0.944576
vt 0.994980 0.950886
vt 0.000991 0.908432
vt 0.000991 0.048029
vt 0.000991 0.048029
vt 0.005831 0.049558
vt 0.996884 0.988402
vt 0.996897 0.007229
vt 0.849565 0.982110
vt 0.849578 0.013521
vt 0.434542 0.499941
vt 0.456853 0.499941
vt 0.428302 0.499901
vt 0.005831 0.049558
vt 0.996884 0.789255
vt 0.005831 0.789496
vt 0.434542 0.499673
vt 0.433637 0.499673
vt 0.433637 0.499673
vt 0.002710 0.908471
vt 0.996702 0.048067
vt 0.996702 0.950925
vt 0.848939 0.944614
vt 0.848939 0.048067
vt 0.848939 0.944614
vt 0.996702 0.048067
vt 0.996702 0.950925
vt 0.002710 0.908471
vt 0.002710 0.048067
vt 0.002710 0.048067
vt 0.843395 0.627279
vt 0.630701 0.363892
vt 0.630701 0.627279
vt 0.691912 0.363892
vt 0.691912 0.627279
vt 0.691912 0.627279
vt 0.630701 0.363892
vt 0.630701 0.627279
vt 0.843395 0.363892
vt 0.843395 0.627279
vt 0.843395 0.363892
vt 0.996884 0.939963
vt 0.005831 0.946073
vt 0.005831 0.939963
vt 0.847225 0.048028
vt 0.005831 0.946073
vt 0.572630 0.499941
vt 0.571698 0.499901
vt 0.427371 0.499941
vt 0.996897 0.007229
vt 0.566363 0.499673
vt 0.456818 0.499673
vt 0.566363 0.499673
vt 0.848939 0.048067
vt 0.691912 0.363892
vt 0.996884 0.988402
vt 0.381968 0.000000
vt 0.377385 0.922900
vt 0.377385 0.000000
vt 0.363636 0.000000
vt 0.368219 1.000000
vt 0.363636 1.000000
vt 0.372802 0.922900
vt 0.377385 0.000000
vt 0.377385 0.922900
vt 0.368219 0.925589
vt 0.372802 0.000000
vt 0.372802 0.925589
vt 0.381968 0.922900
vt 0.368219 0.000000
vt 0.372802 0.000000
vt 0.368219 0.000000
vt 0.968544 0.016000
vt 0.028435 0.985728
vt 0.028435 0.016000
vt 0.970056 0.985728
vn 1.0000 -0.0000 -0.0000
vn -0.6064 -0.7951 0.0000
vn 0.6064 -0.7951 0.0000
vn -1.0000 0.0000 -0.0000
vn 0.0000 1.0000 0.0000
vn -0.6064 0.0000 0.7952
vn -0.6064 0.0000 0.7951
vn 0.6064 0.0000 0.7951
vn -0.0000 0.0000 -1.0000
vn -0.6064 0.7951 -0.0000
vn 0.6064 0.7951 0.0000
vn 0.0000 -1.0000 -0.0000
vn -0.7333 0.0000 -0.6799
vn 0.7333 0.0000 -0.6799
vn 0.0000 0.0000 1.0000
usemtl Rahmen
s 1
f 15/9/3 26/10/3 21/11/3
f 15/9/4 22/12/4 16/13/4
f 18/14/5 23/15/5 24/16/5
f 18/14/6 25/17/6 19/18/6
f 19/18/7 26/10/7 20/19/7
f 26/20/3 27/21/3 21/22/3
f 21/22/8 28/23/9 22/24/8
f 46/25/10 47/26/10 29/27/10
f 25/28/6 47/29/6 48/30/6
f 45/31/11 31/32/11 32/33/11
f 32/34/3 9/35/3 27/36/3
f 28/37/12 9/35/12 10/38/12
f 29/39/13 12/40/13 30/41/13
f 31/42/6 12/40/6 13/43/6
f 31/42/14 14/44/14 32/34/14
f 38/45/3 39/46/3 33/47/3
f 33/47/15 40/48/15 34/49/15
f 35/50/16 42/51/16 36/52/16
f 36/52/6 43/53/6 37/54/6
f 37/54/17 44/55/17 38/45/17
f 46/56/6 31/57/6 45/58/6
f 15/9/3 20/19/3 26/10/3
f 15/9/4 21/11/4 22/12/4
f 18/14/5 17/59/5 23/15/5
f 18/14/6 24/16/6 25/17/6
f 19/18/7 25/17/7 26/10/7
f 26/20/3 32/60/3 27/21/3
f 21/22/8 27/21/9 28/23/9
f 47/26/10 24/61/10 23/62/10
f 23/62/10 29/27/10 47/26/10
f 29/27/10 30/63/10 46/25/10
f 25/28/6 24/64/6 47/29/6
f 32/33/11 26/65/11 48/66/11
f 26/65/11 25/67/11 48/66/11
f 48/66/11 45/31/11 32/33/11
f 32/34/3 14/44/3 9/35/3
f 28/37/12 27/36/12 9/35/12
f 29/39/13 11/68/13 12/40/13
f 31/42/6 30/41/6 12/40/6
f 31/42/14 13/43/14 14/44/14
f 38/45/3 44/55/3 39/46/3
f 33/47/15 39/46/15 40/48/15
f 35/50/16 41/69/16 42/51/16
f 36/52/6 42/51/6 43/53/6
f 37/54/17 43/53/17 44/55/17
f 46/56/6 30/70/6 31/57/6
usemtl Tiefschwarz
f 16/71/14 23/72/14 17/73/14
f 23/74/17 28/75/17 29/76/17
f 28/77/7 11/78/7 29/79/7
f 34/80/11 41/81/11 35/82/11
f 16/71/14 22/83/14 23/72/14
f 23/74/17 22/84/17 28/75/17
f 28/77/7 10/85/7 11/78/7
f 34/80/11 40/86/11 41/81/11
usemtl Stroeer
f 48/87/6 46/88/6 45/89/6
f 48/87/6 47/90/6 46/88/6
