# Blender v3.5.1 OBJ File: 'Grossflaeche_Strasse.blend'
# www.blender.org
mtllib Grossflaeche_Strasse.mtl
o Werbeplakat_Rueckseite_Plane.001
v 0.028307 1.789000 3.395173
v 0.028307 1.789000 0.863173
v 0.028307 -1.789000 3.395173
v 0.028307 -1.789000 0.863173
vt 0.000000 1.000000
vt 1.000000 1.000000
vt 1.000000 0.000000
vt 0.000000 0.000000
vn 1.0000 0.0000 0.0000
usemtl beige
s off
f 1/1/1 3/2/1 4/3/1 2/4/1
o Werbeplakat_Plane
v -0.039412 1.789000 3.395173
v -0.039412 1.789000 0.863173
v -0.039412 -1.789000 3.395173
v -0.039412 -1.789000 0.863173
vt 0.007511 0.998366
vt 0.007511 0.008833
vt 0.999130 0.007195
vt 0.999130 0.996728
vn -1.0000 0.0000 -0.0000
usemtl Werbeplakat
s off
f 5/5/2 6/6/2 8/7/2 7/8/2
o Rahmen.001_BezierCurve
v 0.059879 1.958636 -0.029214
v 0.026940 1.933515 -0.029214
v -0.038040 1.933515 -0.029214
v -0.070979 1.958636 -0.029214
v -0.070979 1.789640 -0.029214
v 0.059879 1.789640 -0.029214
v 0.059879 -1.958636 -0.029214
v 0.026940 -1.933515 -0.029214
v -0.038040 -1.933515 -0.029214
v -0.070979 -1.958636 -0.029214
v -0.070979 -1.789640 -0.029210
v 0.059879 -1.789640 -0.029210
v 0.059879 -1.958636 3.564789
v 0.026940 -1.933515 3.539668
v -0.038040 -1.933515 3.539668
v -0.070979 -1.958636 3.564789
v -0.070979 -1.789640 3.395792
v 0.059879 -1.789640 3.395792
v 0.059879 1.958636 3.564789
v 0.026940 1.933515 3.539668
v -0.038040 1.933515 3.539668
v -0.070979 1.958636 3.564789
v -0.070979 1.789640 3.395792
v 0.059879 1.789640 3.395792
v 0.059879 1.789640 0.753438
v 0.026940 1.789640 0.788964
v -0.038040 1.789640 0.788964
v -0.070979 1.789640 0.753438
v -0.070979 1.789640 0.876888
v 0.059879 1.789640 0.876888
v 0.059879 -1.789640 0.753438
v 0.026940 -1.789640 0.788964
v -0.038040 -1.789640 0.788964
v -0.070979 -1.789640 0.753438
v -0.070979 -1.789640 0.876888
v 0.059879 -1.789640 0.876888
v -0.070979 1.765246 3.395792
v -0.070979 1.765246 3.564789
v -0.070979 1.163553 3.564789
v -0.070979 1.164519 3.395792
vt 0.994980 0.033314
vt 0.000991 0.033315
vt 0.000991 0.950832
vt 0.994980 0.996105
vt 0.847225 0.033314
vt 0.847225 0.989375
vt 0.994980 0.033314
vt 0.847225 0.033314
vt 0.847225 0.989375
vt 0.994980 0.996105
vt 0.000991 0.033315
vt 0.000991 0.950832
vt 0.996897 -0.010194
vt 0.005831 0.034946
vt 0.005831 0.990972
vt 0.996884 1.036111
vt 0.849578 -0.003483
vt 0.849565 1.029401
vt 0.572630 0.515225
vt 0.571698 0.515183
vt 0.428302 0.515183
vt 0.427371 0.515225
vt 0.434542 0.515225
vt 0.456853 0.515225
vt 0.005831 0.034946
vt 0.996897 -0.010194
vt 0.996884 0.823744
vt 0.005831 0.824002
vt 0.566363 0.514940
vt 0.566363 0.514940
vt 0.456818 0.514940
vt 0.434542 0.514940
vt 0.433637 0.514940
vt 0.433637 0.514940
vt 0.996702 0.996146
vt 0.002710 0.950874
vt 0.002710 0.033355
vt 0.996702 0.033355
vt 0.848939 0.989416
vt 0.848939 0.033355
vt 0.996702 0.996146
vt 0.848939 0.989416
vt 0.848939 0.033355
vt 0.996702 0.033355
vt 0.002710 0.950874
vt 0.002710 0.033355
vt 0.630701 0.651016
vt 0.843395 0.651016
vt 0.843395 0.370146
vt 0.630701 0.370146
vt 0.691912 0.651016
vt 0.691912 0.370146
vt 0.630701 0.651016
vt 0.691912 0.651016
vt 0.691912 0.370146
vt 0.630701 0.370146
vt 0.843395 0.651016
vt 0.843395 0.370146
vt 0.005831 0.984456
vt 0.996884 0.984456
vt 0.996884 1.036111
vt 0.005831 0.990972
vt 0.847225 -38.775917
vt 0.847225 -38.775917
vt 0.847225 39.537430
vt 0.847225 39.537430
vt 0.849577 -41.790073
vt 0.849577 -41.790073
vt 0.849565 42.816025
vt 0.849565 42.816025
vt 0.848939 39.540806
vt 0.848939 39.540806
vt 0.848939 -38.772530
vt 0.848939 -38.772530
vt 0.691912 11.821610
vt 0.691912 11.821610
vt 0.691912 -11.185178
vt 0.691912 -11.185178
vt 0.968544 0.016000
vt 0.970056 0.985728
vt 0.028435 0.985728
vt 0.028435 0.016000
vn 1.0000 -0.0000 -0.0000
vn -0.6064 -0.7951 0.0000
vn 0.6064 -0.7951 0.0000
vn -1.0000 0.0000 -0.0000
vn 0.0000 1.0000 0.0000
vn -0.6064 0.0000 0.7951
vn 0.6064 -0.0000 0.7951
vn 0.0000 0.0000 -1.0000
vn -0.6064 0.7951 -0.0000
vn 0.6064 0.7951 0.0000
vn 0.0000 -1.0000 -0.0000
vn -0.7333 0.0000 -0.6799
vn 0.7333 0.0000 -0.6799
vn 0.0000 0.0000 1.0000
usemtl Rahmen
s 1
f 15/9/3 20/10/3 26/11/3 21/12/3
f 16/13/4 15/9/4 21/12/4 22/14/4
f 18/15/5 17/16/5 23/17/5 24/18/5
f 19/19/6 18/15/6 24/18/6 25/20/6
f 20/10/7 19/19/7 25/20/7 26/11/7
f 21/21/3 26/22/3 32/23/3 27/24/3
f 22/25/8 21/21/8 27/24/8 28/26/8
f 24/27/9 23/28/9 29/29/9 30/30/9 46/31/9 47/32/9
f 25/33/6 24/34/6 47/35/6 48/36/6
f 26/37/10 25/38/10 48/39/10 45/40/10 31/41/10 32/42/10
f 27/43/3 32/44/3 14/45/3 9/46/3
f 28/47/11 27/43/11 9/46/11 10/48/11
f 30/49/12 29/50/12 11/51/12 12/52/12
f 31/53/6 30/49/6 12/52/6 13/54/6
f 32/44/13 31/53/13 13/54/13 14/45/13
f 33/55/3 38/56/3 44/57/3 39/58/3
f 34/59/14 33/55/14 39/58/14 40/60/14
f 36/61/15 35/62/15 41/63/15 42/64/15
f 37/65/6 36/61/6 42/64/6 43/66/6
f 38/56/16 37/65/16 43/66/16 44/57/16
f 45/67/6 46/68/6 30/69/6 31/70/6
usemtl Tiefschwarz
f 17/71/13 16/72/13 22/73/13 23/74/13
f 23/75/16 22/76/16 28/77/16 29/78/16
f 29/79/7 28/80/7 10/81/7 11/82/7
f 35/83/10 34/84/10 40/85/10 41/86/10
usemtl Stroeer
f 48/87/6 47/88/6 46/89/6 45/90/6
