# Blender v3.5.1 OBJ File: 'Grossvitrine_Megalight_Qualitaetsstandort.blend'
# www.blender.org
mtllib Grossvitrine_Megalight_Qualitaetsstandort.mtl
o Werbewand.001_BezierCurve
v -0.315816 2.496355 5.302755
v -0.196063 2.532572 5.338973
v -0.116441 2.532639 5.339039
v -0.094348 2.507651 5.314052
v -0.094348 2.339291 5.145691
v -0.300918 2.339963 5.146363
v -0.314579 2.423441 5.229841
v -0.315815 2.496355 2.533741
v -0.196062 2.532572 2.497524
v -0.116440 2.532639 2.497458
v -0.094347 2.507651 2.522445
v -0.094347 2.339291 2.690805
v -0.300917 2.339963 2.690133
v -0.314578 2.423441 2.606655
v -0.315815 -1.243670 2.533741
v -0.196062 -1.279887 2.497524
v -0.116440 -1.279954 2.497458
v -0.094347 -1.254966 2.522445
v -0.094347 -1.086606 2.690805
v -0.300917 -1.087278 2.690133
v -0.314578 -1.170756 2.606655
v -0.315816 -1.243670 5.302755
v -0.196063 -1.279887 5.338973
v -0.116441 -1.279954 5.339039
v -0.094348 -1.254966 5.314052
v -0.094348 -1.086606 5.145691
v -0.300918 -1.087278 5.146363
v -0.314579 -1.170756 5.229841
v 0.315816 2.496355 5.302755
v 0.196063 2.532572 5.338973
v 0.116441 2.532639 5.339039
v 0.094348 2.507651 5.314052
v 0.094348 2.339291 5.145691
v 0.300918 2.339963 5.146363
v 0.314579 2.423441 5.229841
v 0.315815 2.496355 2.533741
v 0.196062 2.532572 2.497524
v 0.116440 2.532639 2.497458
v 0.094347 2.507651 2.522445
v 0.094347 2.339291 2.690805
v 0.300917 2.339963 2.690133
v 0.314578 2.423441 2.606655
v 0.315815 -1.243670 2.533741
v 0.196062 -1.279887 2.497524
v 0.116440 -1.279954 2.497458
v 0.094347 -1.254966 2.522445
v 0.094347 -1.086606 2.690805
v 0.300917 -1.087278 2.690133
v 0.314578 -1.170756 2.606655
v 0.315816 -1.243670 5.302755
v 0.196063 -1.279887 5.338973
v 0.116441 -1.279954 5.339039
v 0.094348 -1.254966 5.314052
v 0.094348 -1.086606 5.145691
v 0.300918 -1.087278 5.146363
v 0.314579 -1.170756 5.229841
vt 0.000000 0.142857
vt 0.250000 0.142857
vt 0.250000 0.000000
vt 0.000000 0.000000
vt 0.000000 0.285714
vt 0.250000 0.285714
vt 0.000000 0.428571
vt 0.250000 0.428571
vt 0.000000 0.571429
vt 0.250000 0.571429
vt 0.000000 0.714286
vt 0.250000 0.714286
vt 0.500000 0.142857
vt 0.500000 0.000000
vt 0.500000 0.285714
vt 0.500000 0.428571
vt 0.500000 0.571429
vt 0.500000 0.714286
vt 0.750000 0.142857
vt 0.750000 0.000000
vt 0.750000 0.285714
vt 0.750000 0.428571
vt 0.750000 0.571429
vt 0.750000 0.714286
vt 1.000000 0.142857
vt 1.000000 0.000000
vt 1.000000 0.285714
vt 1.000000 0.428571
vt 1.000000 0.571429
vt 1.000000 0.714286
vt 0.000000 0.142857
vt 0.000000 0.000000
vt 0.250000 0.000000
vt 0.250000 0.142857
vt 0.000000 0.285714
vt 0.250000 0.285714
vt 0.000000 0.428571
vt 0.250000 0.428571
vt 0.000000 0.571429
vt 0.250000 0.571429
vt 0.000000 0.714286
vt 0.250000 0.714286
vt 0.500000 0.000000
vt 0.500000 0.142857
vt 0.500000 0.285714
vt 0.500000 0.428571
vt 0.500000 0.571429
vt 0.500000 0.714286
vt 0.750000 0.000000
vt 0.750000 0.142857
vt 0.750000 0.285714
vt 0.750000 0.428571
vt 0.750000 0.571429
vt 0.750000 0.714286
vt 1.000000 0.000000
vt 1.000000 0.142857
vt 1.000000 0.285714
vt 1.000000 0.428571
vt 1.000000 0.571429
vt 1.000000 0.714286
vt 0.842229 0.001678
vt 0.155265 0.466205
vt 0.136687 0.001678
vt 0.823651 0.466205
vt 0.176536 0.998039
vt 0.967803 0.005504
vt 0.043474 0.465032
vt 0.949425 0.465032
vt 0.928383 0.991146
vt 0.136687 0.003108
vt 0.823651 0.467635
vt 0.842229 0.003108
vt 0.155265 0.467635
vt 0.802381 0.999469
vt 0.967803 0.003356
vt 0.043474 0.462885
vt 0.025096 0.003356
vt 0.949425 0.462885
vt 0.064516 0.988986
vt 0.155265 0.466205
vt 0.842229 0.001678
vt 0.136687 0.001678
vt 0.176536 0.998039
vt 0.823651 0.466205
vt 0.949425 0.465032
vt 0.025096 0.005504
vt 0.967803 0.005504
vt 0.928383 0.991146
vt 0.043474 0.465032
vt 0.823651 0.467635
vt 0.136687 0.003108
vt 0.842229 0.003108
vt 0.802381 0.999469
vt 0.155265 0.467635
vt 0.043474 0.462885
vt 0.967803 0.003356
vt 0.025096 0.003356
vt 0.064516 0.988986
vt 0.949425 0.462885
vt 0.802381 0.998039
vt 0.025096 0.005504
vt 0.064516 0.991146
vt 0.176536 0.999469
vt 0.928383 0.988986
vt 0.802381 0.998039
vt 0.064516 0.991146
vt 0.176536 0.999469
vt 0.928383 0.988986
vn -0.2895 0.9572 -0.0000
vn -0.0008 1.0000 0.0000
vn 0.7492 0.6624 0.0000
vn 1.0000 0.0000 0.0000
vn -0.0033 -1.0000 0.0000
vn -0.2895 0.0000 -0.9572
vn -0.0008 0.0000 -1.0000
vn 0.7492 -0.0000 -0.6624
vn -0.0033 0.0000 1.0000
vn -0.2895 -0.9572 -0.0000
vn -0.0008 -1.0000 -0.0000
vn 0.7492 -0.6624 0.0000
vn -0.0033 1.0000 0.0000
vn -0.2895 0.0000 0.9572
vn -0.0008 0.0000 1.0000
vn 0.7492 -0.0000 0.6624
vn -0.0033 0.0000 -1.0000
vn 0.2895 0.9572 0.0000
vn 0.0008 1.0000 0.0000
vn -0.7492 0.6624 0.0000
vn -1.0000 0.0000 0.0000
vn 0.0033 -1.0000 0.0000
vn 0.2895 -0.0000 -0.9572
vn 0.0008 -0.0000 -1.0000
vn -0.7492 0.0000 -0.6624
vn 0.0033 0.0000 1.0000
vn 0.2895 -0.9572 0.0000
vn 0.0008 -1.0000 -0.0000
vn -0.7492 -0.6624 0.0000
vn 0.0033 1.0000 0.0000
vn 0.2895 -0.0000 0.9572
vn 0.0008 -0.0000 1.0000
vn -0.7492 0.0000 0.6624
vn 0.0033 -0.0000 -1.0000
vn -0.9999 -0.0170 -0.0000
vn -0.9869 -0.1615 -0.0000
vn -0.9999 0.0000 0.0170
vn -0.9869 0.0000 0.1615
vn -0.9999 0.0170 -0.0000
vn -0.9869 0.1615 -0.0000
vn -0.9999 0.0000 -0.0170
vn -0.9869 0.0000 -0.1615
vn 0.9999 -0.0170 -0.0000
vn 0.9869 -0.1615 -0.0000
vn 0.9999 -0.0000 0.0170
vn 0.9869 -0.0000 0.1615
vn 0.9999 0.0170 -0.0000
vn 0.9869 0.1615 -0.0000
vn 0.9999 0.0000 -0.0170
vn 0.9869 0.0000 -0.1615
usemtl Weissaluminium
s off
f 2/1/1 9/2/1 8/3/1 1/4/1
f 3/5/2 10/6/2 9/2/2 2/1/2
f 4/7/3 11/8/3 10/6/3 3/5/3
f 5/9/4 12/10/4 11/8/4 4/7/4
f 6/11/5 13/12/5 12/10/5 5/9/5
f 9/2/6 16/13/6 15/14/6 8/3/6
f 10/6/7 17/15/7 16/13/7 9/2/7
f 11/8/8 18/16/8 17/15/8 10/6/8
f 12/10/4 19/17/4 18/16/4 11/8/4
f 13/12/9 20/18/9 19/17/9 12/10/9
f 16/13/10 23/19/10 22/20/10 15/14/10
f 17/15/11 24/21/11 23/19/11 16/13/11
f 18/16/12 25/22/12 24/21/12 17/15/12
f 19/17/4 26/23/4 25/22/4 18/16/4
f 20/18/13 27/24/13 26/23/13 19/17/13
f 23/19/14 2/25/14 1/26/14 22/20/14
f 24/21/15 3/27/15 2/25/15 23/19/15
f 25/22/16 4/28/16 3/27/16 24/21/16
f 26/23/4 5/29/4 4/28/4 25/22/4
f 27/24/17 6/30/17 5/29/17 26/23/17
f 30/31/18 29/32/18 36/33/18 37/34/18
f 31/35/19 30/31/19 37/34/19 38/36/19
f 32/37/20 31/35/20 38/36/20 39/38/20
f 33/39/21 32/37/21 39/38/21 40/40/21
f 34/41/22 33/39/22 40/40/22 41/42/22
f 37/34/23 36/33/23 43/43/23 44/44/23
f 38/36/24 37/34/24 44/44/24 45/45/24
f 39/38/25 38/36/25 45/45/25 46/46/25
f 40/40/21 39/38/21 46/46/21 47/47/21
f 41/42/26 40/40/26 47/47/26 48/48/26
f 44/44/27 43/43/27 50/49/27 51/50/27
f 45/45/28 44/44/28 51/50/28 52/51/28
f 46/46/29 45/45/29 52/51/29 53/52/29
f 47/47/21 46/46/21 53/52/21 54/53/21
f 48/48/30 47/47/30 54/53/30 55/54/30
f 51/50/31 50/49/31 29/55/31 30/56/31
f 52/51/32 51/50/32 30/56/32 31/57/32
f 53/52/33 52/51/33 31/57/33 32/58/33
f 54/53/21 53/52/21 32/58/21 33/59/21
f 55/54/34 54/53/34 33/59/34 34/60/34
usemtl Rahmen_Front
f 8/61/35 7/62/35 1/63/35
f 14/64/36 6/65/36 7/62/36
f 8/66/37 21/67/37 14/68/37
f 21/67/38 13/69/38 14/68/38
f 22/70/39 21/71/39 15/72/39
f 28/73/40 20/74/40 21/71/40
f 1/75/41 28/76/41 22/77/41
f 7/78/42 27/79/42 28/76/42
f 35/80/43 36/81/43 29/82/43
f 34/83/44 42/84/44 35/80/44
f 42/85/45 43/86/45 36/87/45
f 41/88/46 49/89/46 42/85/46
f 49/90/47 50/91/47 43/92/47
f 48/93/48 56/94/48 49/90/48
f 56/95/49 29/96/49 50/97/49
f 55/98/50 35/99/50 56/95/50
f 8/61/35 14/64/35 7/62/35
f 14/64/36 13/100/36 6/65/36
f 8/66/37 15/101/37 21/67/37
f 21/67/38 20/102/38 13/69/38
f 22/70/39 28/73/39 21/71/39
f 28/73/40 27/103/40 20/74/40
f 1/75/41 7/78/41 28/76/41
f 7/78/42 6/104/42 27/79/42
f 35/80/43 42/84/43 36/81/43
f 34/83/44 41/105/44 42/84/44
f 42/85/45 49/89/45 43/86/45
f 41/88/46 48/106/46 49/89/46
f 49/90/47 56/94/47 50/91/47
f 48/93/48 55/107/48 56/94/48
f 56/95/49 35/99/49 29/96/49
f 55/98/50 34/108/50 35/99/50
o Werbeplaket_Cube.001
v -0.299242 2.346875 2.676581
v -0.299242 2.346875 5.148827
v 0.299242 2.346875 2.676581
v 0.299242 2.346875 5.148827
v -0.299242 -1.088104 2.676581
v -0.299242 -1.088104 5.148827
v 0.299242 -1.088104 2.676581
v 0.299242 -1.088104 5.148827
vt 0.987618 0.996698
vt 0.011893 0.005092
vt 0.987618 0.005092
vt 0.987618 0.996698
vt 0.011893 0.005092
vt 0.987618 0.005092
vt 0.011893 0.996698
vt 0.011893 0.996698
vn 1.0000 -0.0000 0.0000
vn -1.0000 0.0000 0.0000
usemtl Werbeplakat
s off
f 60/109/51 63/110/51 59/111/51
f 62/112/52 57/113/52 61/114/52
f 60/109/51 64/115/51 63/110/51
f 62/112/52 58/116/52 57/113/52
o Wandseite_Cube.003
v -0.299242 2.484294 2.547029
v -0.299242 2.484294 5.278380
v 0.299242 2.484294 2.547029
v 0.299242 2.484294 5.278380
v -0.299242 -1.225523 2.547029
v -0.299242 -1.225523 5.278380
v 0.299242 -1.225523 2.547029
v 0.299242 -1.225523 5.278380
vt 0.625000 0.000000
vt 0.375000 0.250000
vt 0.375000 0.000000
vt 0.625000 0.500000
vt 0.375000 0.750000
vt 0.375000 0.500000
vt 0.125000 0.750000
vt 0.125000 0.500000
vt 0.875000 0.500000
vt 0.625000 0.750000
vt 0.625000 0.250000
vt 0.875000 0.750000
vn 0.0000 1.0000 0.0000
vn 0.0000 -1.0000 0.0000
vn 0.0000 0.0000 -1.0000
vn 0.0000 0.0000 1.0000
usemtl Tiefschwarz.001
s off
f 66/117/53 67/118/53 65/119/53
f 72/120/54 69/121/54 71/122/54
f 71/122/55 65/123/55 67/124/55
f 68/125/56 70/126/56 72/120/56
f 66/117/53 68/127/53 67/118/53
f 72/120/54 70/126/54 69/121/54
f 71/122/55 69/121/55 65/123/55
f 68/125/56 66/128/56 70/126/56
o Standfuss_innen.001_Cube.002
v 0.078024 -0.183659 2.438197
v 0.078024 -0.183659 2.560161
v -0.078024 -0.183659 2.438197
v -0.078024 -0.183659 2.560161
v 0.078024 0.183659 2.438197
v 0.078024 0.183659 2.560161
v -0.078024 0.183659 2.438197
v -0.078024 0.183659 2.560161
vt 0.625000 0.000000
vt 0.375000 0.250000
vt 0.375000 0.000000
vt 0.625000 0.250000
vt 0.375000 0.500000
vt 0.625000 0.500000
vt 0.375000 0.750000
vt 0.625000 0.750000
vt 0.375000 1.000000
vt 0.125000 0.750000
vt 0.125000 0.500000
vt 0.875000 0.500000
vt 0.625000 1.000000
vt 0.875000 0.750000
vn -0.0000 -1.0000 0.0000
vn -1.0000 0.0000 0.0000
vn 0.0000 1.0000 0.0000
vn 1.0000 -0.0000 0.0000
vn 0.0000 0.0000 -1.0000
vn -0.0000 0.0000 1.0000
usemtl Tiefschwarz.001
s off
f 74/129/57 75/130/57 73/131/57
f 76/132/58 79/133/58 75/130/58
f 80/134/59 77/135/59 79/133/59
f 78/136/60 73/137/60 77/135/60
f 79/133/61 73/138/61 75/139/61
f 76/140/62 78/136/62 80/134/62
f 74/129/57 76/132/57 75/130/57
f 76/132/58 80/134/58 79/133/58
f 80/134/59 78/136/59 77/135/59
f 78/136/60 74/141/60 73/137/60
f 79/133/61 77/135/61 73/138/61
f 76/140/62 74/142/62 78/136/62
o Standfuss_innen_Cube.006
v 0.139283 -0.264504 -0.005623
v 0.139283 -0.264504 2.444114
v -0.139284 -0.264504 -0.005623
v -0.139284 -0.264504 2.444114
v 0.139284 0.264504 -0.005623
v 0.139284 0.264504 2.444114
v -0.139283 0.264504 -0.005623
v -0.139283 0.264504 2.444114
vt 0.625000 0.000000
vt 0.375000 0.250000
vt 0.375000 0.000000
vt 0.625000 0.250000
vt 0.375000 0.500000
vt 0.625000 0.500000
vt 0.375000 0.750000
vt 0.625000 0.750000
vt 0.375000 1.000000
vt 0.875000 0.500000
vt 0.625000 1.000000
vt 0.875000 0.750000
vn -0.0000 -1.0000 0.0000
vn -1.0000 0.0000 0.0000
vn 0.0000 1.0000 0.0000
vn 1.0000 -0.0000 0.0000
vn -0.0000 0.0000 1.0000
usemtl Tiefschwarz.001
s off
f 82/143/63 83/144/63 81/145/63
f 84/146/64 87/147/64 83/144/64
f 88/148/65 85/149/65 87/147/65
f 86/150/66 81/151/66 85/149/66
f 84/152/67 86/150/67 88/148/67
f 82/143/63 84/146/63 83/144/63
f 84/146/64 88/148/64 87/147/64
f 88/148/65 86/150/65 85/149/65
f 86/150/66 82/153/66 81/151/66
f 84/152/67 82/154/67 86/150/67
o Standfuss_aussen.001_Cube.007
v 0.170125 -0.289625 -0.005622
v 0.170125 -0.289625 2.444955
v 0.099275 -0.289625 -0.005622
v 0.099275 -0.289625 2.444955
v 0.170125 0.289625 -0.005622
v 0.170125 0.289625 2.444955
v 0.099275 0.289625 -0.005622
v 0.099275 0.289625 2.444955
v 0.290873 -0.124748 -0.005622
v 0.290873 -0.124748 2.128610
v 0.290873 0.124748 -0.005622
v 0.290873 0.124748 2.128610
v -0.170125 -0.289625 -0.005622
v -0.170125 -0.289625 2.444955
v -0.099275 -0.289625 -0.005622
v -0.099275 -0.289625 2.444955
v -0.170125 0.289625 -0.005622
v -0.170125 0.289625 2.444955
v -0.099275 0.289625 -0.005622
v -0.099275 0.289625 2.444955
v -0.290873 -0.124748 -0.005622
v -0.290873 -0.124748 2.128610
v -0.290873 0.124748 -0.005622
v -0.290873 0.124748 2.128610
v 0.170125 0.289625 2.128610
v -0.170125 0.289625 2.128554
v 0.290873 0.124748 1.379268
v 0.170125 0.289625 1.379268
v -0.290873 0.124748 1.379036
v -0.170125 0.289625 1.379036
vt 1.000000 0.000000
vt 1.000000 1.000000
vt 1.000000 1.000000
vt 1.000000 0.000000
vt 0.000000 0.000000
vt 0.000000 1.000000
vt 0.000000 1.000000
vt 0.000000 0.870910
vt 0.000000 0.565128
vt 0.000000 0.000000
vt 0.284639 0.565128
vt 0.284639 0.000000
vt 0.715360 0.000000
vt 0.715360 0.870910
vt 0.284639 0.870910
vt 0.999999 0.000000
vt 0.999999 0.000000
vt 0.999999 1.000000
vt 0.999999 1.000000
vt 0.000000 0.000000
vt 0.000000 1.000000
vt 0.000000 0.000000
vt 0.000000 0.565034
vt 0.000000 0.870887
vt 0.000000 1.000000
vt 0.284638 0.000000
vt 0.284638 0.565034
vt 0.715360 0.870910
vt 0.715360 0.000000
vt 0.284638 0.870910
vt 0.969794 0.010647
vt 0.959725 0.648607
vt 0.954277 0.993797
vt 0.036166 0.995566
vt 0.047978 0.003781
vt 0.054276 0.003892
vt 0.966923 0.010818
vt 0.956579 0.993779
vt 0.032039 0.996031
vt 0.039849 0.647577
vt 0.087731 -0.082599
vt 0.931981 0.977068
vt 0.087731 0.977069
vt 0.087455 0.001687
vt 0.931916 1.061356
vt 0.087456 1.061355
vt 0.931981 -0.082600
vt 0.931981 0.001688
vn -0.0000 -1.0000 0.0000
vn 0.0000 1.0000 0.0000
vn 0.8068 0.5908 0.0000
vn 0.0000 0.0000 1.0000
vn 0.8068 -0.5908 0.0000
vn 0.9343 -0.0000 0.3566
vn 1.0000 -0.0000 0.0000
vn -0.8068 0.5908 0.0000
vn -0.8068 -0.5908 0.0000
vn -0.9343 0.0000 0.3566
vn -1.0000 0.0000 0.0000
usemtl Weissaluminium
s off
f 89/155/68 90/156/68 92/157/68 91/158/68
f 95/159/69 96/160/69 94/161/69 113/162/69 116/163/69 93/164/69
f 93/164/70 116/163/70 115/165/70 99/166/70
f 96/160/71 92/157/71 90/156/71 94/161/71
f 90/156/72 89/155/72 97/167/72 98/168/72
f 94/161/73 90/156/73 98/168/73 100/169/73
f 101/170/68 103/171/68 104/172/68 102/173/68
f 103/171/74 107/174/74 108/175/74 104/172/74
f 107/174/69 105/176/69 118/177/69 114/178/69 106/179/69 108/175/69
f 105/176/75 111/180/75 117/181/75 118/177/75
f 108/175/71 106/179/71 102/173/71 104/172/71
f 102/173/76 110/182/76 109/183/76 101/170/76
f 106/179/77 112/184/77 110/182/77 102/173/77
f 100/169/70 113/162/70 94/161/70
f 114/178/75 112/184/75 106/179/75
f 91/158/78 92/157/78 96/160/78 95/159/78
usemtl Frontgitter
f 99/185/74 115/186/74 100/187/74 98/188/74 97/189/74
f 111/190/78 109/191/78 110/192/78 112/193/78 117/194/78
usemtl Stroeer_Schrift
f 116/195/70 100/196/70 115/197/70
f 117/198/75 114/199/75 118/200/75
f 116/195/70 113/201/70 100/196/70
f 117/198/75 112/202/75 114/199/75
