# Blender v3.5.1 OBJ File: 'Werbetafel_eckig.blend'
# www.blender.org
mtllib Werbetafel_eckig.mtl
o Würfel.Werbefenster_2_Würfel.006
v -0.096731 0.550000 0.621064
v -0.096731 0.550000 2.142987
v -0.035000 0.550000 0.621064
v -0.035000 0.550000 2.142987
v -0.096731 -0.550000 0.621064
v -0.096731 -0.550000 2.142987
v -0.035000 -0.550000 0.621064
v -0.035000 -0.550000 2.142987
vt 0.625000 0.000000
vt 0.375000 0.250000
vt 0.375000 0.000000
vt 0.933304 0.271289
vt 0.099528 0.874385
vt 0.975605 0.862682
vt 0.625000 0.500000
vt 0.375000 0.750000
vt 0.375000 0.500000
vt 0.125000 0.500000
vt 0.125000 0.750000
vt 0.875000 0.500000
vt 0.625000 0.750000
vt 0.625000 0.250000
vt 0.217014 0.678332
vt 0.875000 0.750000
vt 0.985970 0.869537
vt 0.015063 0.277020
vt 0.977828 0.261675
vt 0.015280 0.857538
vn 0.0000 1.0000 0.0000
vn 1.0000 0.0000 0.0000
vn -0.0000 -1.0000 -0.0000
vn 0.0000 0.0000 -1.0000
vn 0.0000 0.0000 1.0000
vn -1.0000 -0.0000 0.0000
usemtl Material.dunkel
s off
f 2/1/1 3/2/1 1/3/1
f 4/4/2 7/5/2 3/6/2
f 8/7/3 5/8/3 7/9/3
f 3/10/4 5/8/4 1/11/4
f 4/12/5 6/13/5 8/7/5
f 2/1/1 4/14/1 3/2/1
f 4/4/2 8/15/2 7/5/2
f 8/7/3 6/13/3 5/8/3
f 3/10/4 7/9/4 5/8/4
f 4/12/5 2/16/5 6/13/5
usemtl MaterialTourist_Information_1
f 6/17/6 1/18/6 5/19/6
f 6/17/6 2/20/6 1/18/6
o Würfel.Werbefenster_1_Würfel.001
v 0.096731 -0.550000 0.621064
v 0.096731 -0.550000 2.142987
v 0.035000 -0.550000 0.621064
v 0.035000 -0.550000 2.142987
v 0.096731 0.550000 0.621064
v 0.096731 0.550000 2.142987
v 0.035000 0.550000 0.621064
v 0.035000 0.550000 2.142987
vt 0.625000 0.000000
vt 0.375000 0.250000
vt 0.375000 0.000000
vt 0.215998 0.254073
vt 0.737399 0.701500
vt 0.711209 0.229261
vt 0.625000 0.500000
vt 0.375000 0.750000
vt 0.375000 0.500000
vt 0.125000 0.750000
vt 0.125000 0.500000
vt 0.875000 0.500000
vt 0.625000 0.750000
vt 0.625000 0.250000
vt 0.218588 0.731350
vt 0.875000 0.750000
vt 0.996346 0.866523
vt 0.017137 0.266381
vt 0.979608 0.266235
vt 0.013784 0.870635
vn 0.0000 -1.0000 0.0000
vn -1.0000 0.0000 0.0000
vn 0.0000 1.0000 0.0000
vn 0.0000 0.0000 -1.0000
vn -0.0000 0.0000 1.0000
vn 1.0000 0.0000 0.0000
usemtl Material.dunkel
s off
f 10/21/7 11/22/7 9/23/7
f 12/24/8 15/25/8 11/26/8
f 16/27/9 13/28/9 15/29/9
f 15/29/10 9/30/10 11/31/10
f 12/32/11 14/33/11 16/27/11
f 10/21/7 12/34/7 11/22/7
f 12/24/8 16/35/8 15/25/8
f 16/27/9 14/33/9 13/28/9
f 15/29/10 13/28/10 9/30/10
f 12/32/11 10/36/11 14/33/11
usemtl Material.Tourist_Information_2
f 14/37/12 9/38/12 13/39/12
f 14/37/12 10/40/12 9/38/12
o Würfel.Tourist_Information_2_Würfel.005
v -0.096731 0.550000 2.198623
v -0.096731 0.550000 2.521343
v -0.035000 0.550000 2.198623
v -0.035000 0.550000 2.521343
v -0.096731 -0.550000 2.198623
v -0.096731 -0.550000 2.521343
v -0.035000 -0.550000 2.198623
v -0.035000 -0.550000 2.521343
vt 0.625000 0.000000
vt 0.375000 0.250000
vt 0.375000 0.000000
vt 0.114751 0.260620
vt 0.204563 0.731547
vt 0.202247 0.255758
vt 0.625000 0.500000
vt 0.375000 0.750000
vt 0.375000 0.500000
vt 0.125000 0.500000
vt 0.125000 0.750000
vt 0.875000 0.500000
vt 0.625000 0.750000
vt 0.625000 0.250000
vt 0.112211 0.738269
vt 0.875000 0.750000
vt 0.990603 0.994320
vt 0.015995 0.872623
vt 0.985816 0.885980
vt 0.019846 0.975733
vn 0.0000 1.0000 0.0000
vn 1.0000 0.0000 0.0000
vn -0.0000 -1.0000 0.0000
vn 0.0000 0.0000 -1.0000
vn 0.0000 0.0000 1.0000
vn -1.0000 -0.0000 0.0000
usemtl Material.dunkel
s off
f 18/41/13 19/42/13 17/43/13
f 20/44/14 23/45/14 19/46/14
f 24/47/15 21/48/15 23/49/15
f 19/50/16 21/48/16 17/51/16
f 20/52/17 22/53/17 24/47/17
f 18/41/13 20/54/13 19/42/13
f 20/44/14 24/55/14 23/45/14
f 24/47/15 22/53/15 21/48/15
f 19/50/16 23/49/16 21/48/16
f 20/52/17 18/56/17 22/53/17
usemtl MaterialTourist_Information_1
f 22/57/18 17/58/18 21/59/18
f 22/57/18 18/60/18 17/58/18
o Würfel.Tourist_Information_1_Würfel.003
v 0.096731 -0.550000 2.198623
v 0.096731 -0.550000 2.521343
v 0.035000 -0.550000 2.198623
v 0.035000 -0.550000 2.521343
v 0.096731 0.550000 2.198623
v 0.096731 0.550000 2.521343
v 0.035000 0.550000 2.198623
v 0.035000 0.550000 2.521343
vt 0.625000 0.000000
vt 0.375000 0.250000
vt 0.375000 0.000000
vt 0.114751 0.260620
vt 0.204563 0.731547
vt 0.202247 0.255758
vt 0.625000 0.500000
vt 0.375000 0.750000
vt 0.375000 0.500000
vt 0.125000 0.750000
vt 0.125000 0.500000
vt 0.875000 0.500000
vt 0.625000 0.750000
vt 0.625000 0.250000
vt 0.112211 0.738269
vt 0.875000 0.750000
vt 0.995114 0.990212
vt 0.013304 0.886336
vt 0.995185 0.882998
vt 0.009463 0.994334
vn 0.0000 -1.0000 0.0000
vn -1.0000 0.0000 0.0000
vn 0.0000 1.0000 0.0000
vn 0.0000 0.0000 -1.0000
vn 0.0000 0.0000 1.0000
vn 1.0000 -0.0000 0.0000
usemtl Material.dunkel
s off
f 26/61/19 27/62/19 25/63/19
f 28/64/20 31/65/20 27/66/20
f 32/67/21 29/68/21 31/69/21
f 31/69/22 25/70/22 27/71/22
f 28/72/23 30/73/23 32/67/23
f 26/61/19 28/74/19 27/62/19
f 28/64/20 32/75/20 31/65/20
f 32/67/21 30/73/21 29/68/21
f 31/69/22 29/68/22 25/70/22
f 28/72/23 26/76/23 30/73/23
usemtl Material.Tourist_Information_2
f 30/77/24 25/78/24 29/79/24
f 30/77/24 26/80/24 25/78/24
o Würfel_Fuss_1_Würfel
v 0.086594 0.308543 0.000000
v 0.000000 -0.308543 0.511545
v 0.086594 0.308543 0.606290
v -0.035000 -0.486887 0.667954
v -0.086594 0.308543 0.000000
v -0.035000 -0.486887 2.468116
v -0.086594 0.308543 0.606290
v 0.086594 -0.308543 0.000000
v 0.035000 -0.486887 0.667954
v 0.086594 -0.308543 0.606290
v 0.035000 -0.486887 2.468116
v -0.000000 0.308543 0.511544
v -0.086594 -0.308543 0.000000
v -0.086594 -0.308543 0.606290
v -0.035000 0.486887 0.667954
v -0.035000 0.486887 2.468116
v 0.035000 0.486887 0.667954
v 0.035000 0.486887 2.468116
v -0.035000 -0.308543 0.667954
v 0.035000 -0.308543 0.667954
v 0.035000 0.308543 0.667954
v -0.035000 0.308543 0.667954
v 0.035000 -0.308543 0.606290
v -0.035000 -0.308543 0.606290
v -0.035000 0.308543 0.606290
v 0.035000 0.308543 0.606290
vt 0.375000 0.000000
vt 0.375000 0.250000
vt 0.484065 0.175523
vt 0.375000 0.500000
vt 0.375000 0.750000
vt 0.484065 0.574477
vt 0.125000 0.750000
vt 0.125000 0.500000
vt 0.875000 0.500000
vt 0.625000 0.574477
vt 0.875000 0.574477
vt 0.625000 0.750000
vt 0.875000 0.675523
vt 0.625000 0.675523
vt 0.536592 0.500000
vt 0.511894 0.750000
vt 0.536592 0.750000
vt 0.511894 1.000000
vt 0.375000 0.250000
vt 0.625000 0.000000
vt 0.375000 0.000000
vt 0.625000 0.500000
vt 0.625000 0.250000
vt 0.375000 0.750000
vt 0.375000 0.500000
vt 0.625000 0.750000
vt 0.375000 1.000000
vt 0.625000 1.000000
vt 0.125000 0.750000
vt 0.170787 0.500000
vt 0.125000 0.500000
vt 0.329213 0.500000
vt 0.329213 0.750000
vt 0.875000 0.500000
vt 0.625000 0.074477
vt 0.625000 0.000000
vt 0.484065 0.074477
vt 0.625000 0.250000
vt 0.625000 0.175523
vt 0.550523 0.175523
vt 0.625000 0.500000
vt 0.484065 0.675523
vt 0.875000 0.750000
vt 0.375000 0.250000
vt 0.536592 0.250000
vt 0.536592 0.000000
vt 0.511894 0.500000
vt 0.511894 0.250000
vt 0.439553 0.750000
vt 0.375000 1.000000
vt 0.536592 1.000000
vt 0.170787 0.750000
vt 0.875000 0.750000
vt 0.753594 0.005548
vt 0.213784 0.259857
vt 0.210522 0.020587
vt 0.753560 0.005548
vt 0.213730 0.259857
vt 0.210656 0.020587
vt 0.757172 0.250865
vt 0.757185 0.250865
vn 0.0000 1.0000 0.0000
vn 0.0000 -1.0000 0.0000
vn 0.0000 0.0000 -1.0000
vn 0.0000 0.0000 1.0000
vn -1.0000 -0.0000 0.0000
vn 1.0000 0.0000 0.0000
vn 0.1804 0.0000 -0.9836
vn 0.0874 0.0000 -0.9962
vn -0.4806 0.0000 -0.8769
usemtl Material.dunkel
s off
f 33/81/25 37/82/25 44/83/25
f 45/84/26 40/85/26 34/86/26
f 33/87/27 45/84/27 37/88/27
f 39/89/28 56/90/28 57/91/28
f 42/92/28 58/93/28 55/94/28
f 53/95/25 57/96/25 54/97/25
f 54/97/29 57/96/29 56/98/29
f 41/99/26 38/100/26 36/101/26
f 41/99/30 50/102/30 43/103/30
f 47/104/25 50/102/25 49/105/25
f 48/106/29 36/107/29 38/108/29
f 36/109/27 52/110/27 41/111/27
f 53/112/27 54/113/27 47/104/27
f 48/106/28 43/114/28 50/102/28
f 58/115/25 35/116/25 44/117/25
f 35/116/25 33/81/25 44/117/25
f 37/82/25 39/118/25 44/83/25
f 39/118/25 57/119/25 44/120/25
f 56/90/26 46/121/26 34/86/26
f 46/121/26 45/84/26 34/86/26
f 40/85/26 42/92/26 34/122/26
f 42/92/26 55/94/26 34/122/26
f 33/87/27 40/85/27 45/84/27
f 39/89/28 46/121/28 56/90/28
f 42/92/28 35/123/28 58/93/28
f 34/124/26 52/125/26 51/126/26
f 58/127/30 53/95/30 55/128/30
f 53/95/30 52/125/30 55/128/30
f 52/125/26 34/124/26 55/128/26
f 53/95/25 58/127/25 57/96/25
f 44/129/25 57/96/25 58/127/25
f 34/130/26 51/131/26 56/98/26
f 51/131/29 54/97/29 56/98/29
f 41/99/26 43/103/26 38/100/26
f 41/99/30 49/105/30 50/102/30
f 47/104/25 48/106/25 50/102/25
f 48/106/29 47/104/29 36/107/29
f 36/109/27 51/132/27 52/110/27
f 51/132/27 36/109/27 54/113/27
f 36/109/31 47/104/31 54/113/31
f 49/105/32 41/111/32 52/110/32
f 49/105/33 52/110/33 53/112/33
f 49/105/27 53/112/27 47/104/27
f 48/106/28 38/133/28 43/114/28
usemtl Material_JCDecaux
f 45/134/29 39/135/29 37/136/29
f 33/137/30 42/138/30 40/139/30
f 45/134/29 46/140/29 39/135/29
f 33/137/30 35/141/30 42/138/30
