# Blender v3.5.1 OBJ File: 'Werbetafel_eckig.blend'
# www.blender.org
mtllib Werbetafel_eckig.mtl
o Würfel.Werbefenster_2_Würfel.006
v -0.096731 0.550000 0.621064
v -0.096731 0.550000 2.142987
v -0.035000 0.550000 0.621064
v -0.035000 0.550000 2.142987
v -0.096731 -0.550000 0.621064
v -0.096731 -0.550000 2.142987
v -0.035000 -0.550000 0.621064
v -0.035000 -0.550000 2.142987
vt 0.375000 0.000000
vt 0.625000 0.000000
vt 0.625000 0.250000
vt 0.375000 0.250000
vt 0.659831 0.257739
vt 0.214280 0.255636
vt 0.217014 0.678332
vt 0.660665 0.670896
vt 0.375000 0.500000
vt 0.625000 0.500000
vt 0.625000 0.750000
vt 0.375000 0.750000
vt 0.125000 0.500000
vt 0.125000 0.750000
vt 0.875000 0.500000
vt 0.875000 0.750000
vt 0.737367 0.701581
vt 0.218067 0.731362
vt 0.215601 0.253814
vt 0.711794 0.229348
vn 0.0000 1.0000 0.0000
vn 1.0000 0.0000 0.0000
vn -0.0000 -1.0000 -0.0000
vn 0.0000 0.0000 -1.0000
vn 0.0000 0.0000 1.0000
vn -1.0000 -0.0000 0.0000
usemtl Material.dunkel
s off
f 1/1/1 2/2/1 4/3/1 3/4/1
f 3/5/2 4/6/2 8/7/2 7/8/2
f 7/9/3 8/10/3 6/11/3 5/12/3
f 3/13/4 7/9/4 5/12/4 1/14/4
f 8/10/5 4/15/5 2/16/5 6/11/5
usemtl MaterialTourist_Information_1
f 5/17/6 6/18/6 2/19/6 1/20/6
o Würfel.Werbefenster_1_Würfel.001
v 0.096731 -0.550000 0.621064
v 0.096731 -0.550000 2.142987
v 0.035000 -0.550000 0.621064
v 0.035000 -0.550000 2.142987
v 0.096731 0.550000 0.621064
v 0.096731 0.550000 2.142987
v 0.035000 0.550000 0.621064
v 0.035000 0.550000 2.142987
vt 0.375000 0.000000
vt 0.625000 0.000000
vt 0.625000 0.250000
vt 0.375000 0.250000
vt 0.711209 0.229261
vt 0.215998 0.254073
vt 0.218588 0.731350
vt 0.737399 0.701500
vt 0.375000 0.500000
vt 0.625000 0.500000
vt 0.625000 0.750000
vt 0.375000 0.750000
vt 0.125000 0.500000
vt 0.125000 0.750000
vt 0.875000 0.500000
vt 0.875000 0.750000
vt 0.661124 0.672152
vt 0.216728 0.678515
vt 0.214226 0.256114
vt 0.660176 0.257877
vn 0.0000 -1.0000 0.0000
vn -1.0000 0.0000 -0.0000
vn 0.0000 1.0000 0.0000
vn 0.0000 0.0000 -1.0000
vn -0.0000 0.0000 1.0000
vn 1.0000 0.0000 0.0000
usemtl Material.dunkel
s off
f 9/21/7 10/22/7 12/23/7 11/24/7
f 11/25/8 12/26/8 16/27/8 15/28/8
f 15/29/9 16/30/9 14/31/9 13/32/9
f 11/33/10 15/29/10 13/32/10 9/34/10
f 16/30/11 12/35/11 10/36/11 14/31/11
usemtl Material.Tourist_Information_2
f 13/37/12 14/38/12 10/39/12 9/40/12
o Würfel.Tourist_Information_2_Würfel.005
v -0.096731 0.550000 2.198623
v -0.096731 0.550000 2.521343
v -0.035000 0.550000 2.198623
v -0.035000 0.550000 2.521343
v -0.096731 -0.550000 2.198623
v -0.096731 -0.550000 2.521343
v -0.035000 -0.550000 2.198623
v -0.035000 -0.550000 2.521343
vt 0.375000 0.000000
vt 0.625000 0.000000
vt 0.625000 0.250000
vt 0.375000 0.250000
vt 0.202247 0.255758
vt 0.114751 0.260620
vt 0.112211 0.738269
vt 0.204563 0.731547
vt 0.375000 0.500000
vt 0.625000 0.500000
vt 0.625000 0.750000
vt 0.375000 0.750000
vt 0.125000 0.500000
vt 0.125000 0.750000
vt 0.875000 0.500000
vt 0.875000 0.750000
vt 0.204403 0.731818
vt 0.112087 0.738424
vt 0.114844 0.260695
vt 0.202693 0.254433
vn 0.0000 1.0000 0.0000
vn 1.0000 0.0000 0.0000
vn -0.0000 -1.0000 0.0000
vn 0.0000 0.0000 -1.0000
vn 0.0000 0.0000 1.0000
vn -1.0000 -0.0000 0.0000
usemtl Material.dunkel
s off
f 17/41/13 18/42/13 20/43/13 19/44/13
f 19/45/14 20/46/14 24/47/14 23/48/14
f 23/49/15 24/50/15 22/51/15 21/52/15
f 19/53/16 23/49/16 21/52/16 17/54/16
f 24/50/17 20/55/17 18/56/17 22/51/17
usemtl MaterialTourist_Information_1
f 21/57/18 22/58/18 18/59/18 17/60/18
o Würfel.Tourist_Information_1_Würfel.003
v 0.096731 -0.550000 2.198623
v 0.096731 -0.550000 2.521343
v 0.035000 -0.550000 2.198623
v 0.035000 -0.550000 2.521343
v 0.096731 0.550000 2.198623
v 0.096731 0.550000 2.521343
v 0.035000 0.550000 2.198623
v 0.035000 0.550000 2.521343
vt 0.375000 0.000000
vt 0.625000 0.000000
vt 0.625000 0.250000
vt 0.375000 0.250000
vt 0.202247 0.255758
vt 0.114751 0.260620
vt 0.112211 0.738269
vt 0.204563 0.731547
vt 0.375000 0.500000
vt 0.625000 0.500000
vt 0.625000 0.750000
vt 0.375000 0.750000
vt 0.125000 0.500000
vt 0.125000 0.750000
vt 0.875000 0.500000
vt 0.875000 0.750000
vt 0.204744 0.677892
vt 0.125274 0.678075
vt 0.122756 0.253841
vt 0.202260 0.255541
vn 0.0000 -1.0000 0.0000
vn -1.0000 0.0000 0.0000
vn 0.0000 1.0000 0.0000
vn 0.0000 0.0000 -1.0000
vn 0.0000 0.0000 1.0000
vn 1.0000 -0.0000 0.0000
usemtl Material.dunkel
s off
f 25/61/19 26/62/19 28/63/19 27/64/19
f 27/65/20 28/66/20 32/67/20 31/68/20
f 31/69/21 32/70/21 30/71/21 29/72/21
f 27/73/22 31/69/22 29/72/22 25/74/22
f 32/70/23 28/75/23 26/76/23 30/71/23
usemtl Material.Tourist_Information_2
f 29/77/24 30/78/24 26/79/24 25/80/24
o Würfel_Fuss_1_Würfel
v 0.086594 0.308543 0.000000
v -0.035000 -0.308543 0.264500
v 0.086594 0.308543 0.606290
v -0.035000 -0.486887 0.667954
v -0.086594 0.308543 0.000000
v -0.035000 -0.486887 2.468116
v -0.086594 0.308543 0.606290
v 0.035000 -0.308543 0.264501
v 0.086594 -0.308543 0.000000
v 0.035000 -0.486887 0.667954
v 0.086594 -0.308543 0.606290
v 0.035000 -0.486887 2.468116
v -0.035000 0.308543 0.264500
v -0.086594 -0.308543 0.000000
v -0.086594 -0.308543 0.606290
v -0.035000 0.486887 0.667954
v -0.035000 0.486887 2.468116
v 0.035000 0.308543 0.264501
v 0.035000 0.486887 0.667954
v 0.035000 0.486887 2.468116
v -0.035000 -0.308543 0.667954
v 0.035000 -0.308543 0.667954
v 0.035000 0.308543 0.667954
v -0.035000 0.308543 0.667954
v -0.035000 -0.308543 0.264500
v 0.035000 -0.308543 0.606290
v -0.035000 -0.308543 0.606290
v 0.035000 -0.308543 0.264501
v -0.035000 0.308543 0.606290
v 0.035000 0.308543 0.606290
v -0.035000 0.308543 0.425672
v -0.017603 0.308543 0.364770
vt 0.625000 0.000000
vt 0.375000 0.000000
vt 0.375000 0.250000
vt 0.625000 0.250000
vt 0.625000 0.175523
vt 0.550523 0.175523
vt 0.484065 0.175523
vt 0.484065 0.074477
vt 0.625000 0.074477
vt 0.625000 0.500000
vt 0.375000 0.500000
vt 0.375000 0.750000
vt 0.625000 0.750000
vt 0.625000 0.675523
vt 0.484065 0.675523
vt 0.484065 0.574477
vt 0.625000 0.574477
vt 0.125000 0.500000
vt 0.125000 0.750000
vt 0.875000 0.574477
vt 0.875000 0.500000
vt 0.875000 0.750000
vt 0.875000 0.675523
vt 0.375000 0.000000
vt 0.375000 0.250000
vt 0.536592 0.250000
vt 0.536592 0.000000
vt 0.536592 0.500000
vt 0.375000 0.250000
vt 0.511894 0.250000
vt 0.511894 0.500000
vt 0.536592 0.750000
vt 0.511894 0.750000
vt 0.375000 0.500000
vt 0.375000 0.750000
vt 0.415160 0.687868
vt 0.439553 0.750000
vt 0.375000 1.000000
vt 0.536592 1.000000
vt 0.511894 1.000000
vt 0.375000 1.000000
vt 0.125000 0.500000
vt 0.125000 0.500000
vt 0.125000 0.750000
vt 0.125000 0.750000
vt 0.375000 0.000000
vt 0.375000 0.250000
vt 0.625000 0.250000
vt 0.625000 0.000000
vt 0.375000 0.500000
vt 0.625000 0.500000
vt 0.375000 0.750000
vt 0.625000 0.750000
vt 0.625000 1.000000
vt 0.375000 1.000000
vt 0.125000 0.500000
vt 0.125000 0.750000
vt 0.170787 0.750000
vt 0.170787 0.500000
vt 0.329213 0.500000
vt 0.329213 0.750000
vt 0.875000 0.750000
vt 0.875000 0.500000
vt 0.933532 0.315367
vt 0.953834 0.580959
vt 0.743961 0.592489
vt 0.728675 0.326438
vt 0.933464 0.314830
vt 0.953051 0.579921
vt 0.743799 0.592782
vt 0.729035 0.326378
vn 0.0000 1.0000 0.0000
vn 0.0000 -1.0000 0.0000
vn 0.0000 0.0000 -1.0000
vn 0.0000 0.0000 1.0000
vn 1.0000 0.0000 0.0000
vn -1.0000 -0.0000 -0.0000
usemtl Material.dunkel
s off
f 35/81/25 33/82/25 37/83/25 39/84/25 61/85/25 63/86/25 45/87/25 50/88/25 62/89/25
f 47/90/26 46/91/26 41/92/26 43/93/26 58/94/26 60/95/26 57/96/26 59/97/26
f 37/98/27 33/99/27 41/92/27 46/91/27
f 61/100/28 39/101/28 47/90/28 59/97/28
f 58/94/28 43/93/28 35/102/28 62/103/28
f 34/104/26 40/105/26 54/106/26 53/107/26
f 55/108/29 54/106/29 40/105/29 60/109/29 58/110/29 62/111/29
f 56/112/25 55/108/25 62/111/25 61/113/25
f 61/113/25 62/111/25 50/114/25 45/115/25 64/116/25 63/117/25
f 63/117/25 64/116/25 45/115/25
f 34/118/30 53/119/30 56/112/30 61/113/30 59/120/30 57/121/30
f 60/122/27 40/123/27 34/124/27 57/125/27
f 36/126/26 42/127/26 44/128/26 38/129/26
f 44/128/29 42/127/29 51/130/29 52/131/29
f 51/130/25 48/132/25 49/133/25 52/131/25
f 38/134/30 49/133/30 48/132/30 36/135/30
f 42/136/27 36/137/27 53/138/27 54/139/27
f 36/137/27 48/132/27 51/130/27 42/136/27 54/139/27 55/140/27 56/141/27 53/138/27
f 52/131/28 49/133/28 38/142/28 44/143/28
usemtl Material_JCDecaux
f 37/144/30 46/145/30 47/146/30 39/147/30
f 41/148/29 33/149/29 35/150/29 43/151/29
