# Blender 4.0.2
# www.blender.org
mtllib Albstadt_3500.mtl
o Mast_3,5m_Albstadt.002
v 0.000000 0.000000 3.499667
v 0.000000 0.038000 3.500333
v 0.000000 0.038000 1.018542
v 0.000000 0.055000 1.003014
v 0.000000 0.055000 0.000000
v 0.000000 0.000000 3.499667
v -0.014542 0.035107 3.500333
v -0.014542 0.035107 1.018542
v -0.021048 0.050813 1.003014
v -0.021048 0.050813 0.000000
v 0.000000 0.000000 3.499667
v -0.026870 0.026870 3.500333
v -0.026870 0.026870 1.018542
v -0.038891 0.038891 1.003014
v -0.038891 0.038891 0.000000
v 0.000000 0.000000 3.499667
v -0.035107 0.014542 3.500333
v -0.035107 0.014542 1.018542
v -0.050813 0.021048 1.003014
v -0.050813 0.021048 0.000000
v 0.000000 0.000000 3.499667
v -0.038000 0.000000 3.500333
v -0.038000 0.000000 1.018542
v -0.055000 0.000000 1.003014
v -0.055000 0.000000 0.000000
v 0.000000 0.000000 3.499667
v -0.035107 -0.014542 3.500333
v -0.035107 -0.014542 1.018542
v -0.050813 -0.021048 1.003014
v -0.050813 -0.021048 0.000000
v 0.000000 0.000000 3.499667
v -0.026870 -0.026870 3.500333
v -0.026870 -0.026870 1.018542
v -0.038891 -0.038891 1.003014
v -0.038891 -0.038891 0.000000
v 0.000000 0.000000 3.499667
v -0.014542 -0.035107 3.500333
v -0.014542 -0.035107 1.018542
v -0.021048 -0.050813 1.003014
v -0.021048 -0.050813 0.000000
v 0.000000 0.000000 3.499667
v 0.000000 -0.038000 3.500333
v 0.000000 -0.038000 1.018542
v 0.000000 -0.055000 1.003014
v 0.000000 -0.055000 0.000000
v 0.000000 0.000000 3.499667
v 0.014542 -0.035107 3.500333
v 0.014542 -0.035107 1.018542
v 0.021048 -0.050813 1.003014
v 0.021048 -0.050813 0.000000
v 0.000000 0.000000 3.499667
v 0.026870 -0.026870 3.500333
v 0.026870 -0.026870 1.018542
v 0.038891 -0.038891 1.003014
v 0.038891 -0.038891 0.000000
v 0.000000 0.000000 3.499667
v 0.035107 -0.014542 3.500333
v 0.035107 -0.014542 1.018542
v 0.050813 -0.021048 1.003014
v 0.050813 -0.021048 0.000000
v 0.000000 0.000000 3.499667
v 0.038000 0.000000 3.500333
v 0.038000 0.000000 1.018542
v 0.055000 0.000000 1.003014
v 0.055000 0.000000 0.000000
v 0.000000 0.000000 3.499667
v 0.035107 0.014542 3.500333
v 0.035107 0.014542 1.018542
v 0.050813 0.021048 1.003014
v 0.050813 0.021048 0.000000
v 0.000000 0.000000 3.499667
v 0.026870 0.026870 3.500333
v 0.026870 0.026870 1.018542
v 0.038891 0.038891 1.003014
v 0.038891 0.038891 0.000000
v 0.000000 0.000000 3.499667
v 0.014542 0.035107 3.500333
v 0.014542 0.035107 1.018542
v 0.021048 0.050813 1.003014
v 0.021048 0.050813 0.000000
vn 0.0004 -0.0019 1.0000
vn -0.2836 0.6845 0.6716
vn 0.0011 -0.0017 1.0000
vn -0.5239 0.5239 0.6716
vn 0.0017 -0.0011 1.0000
vn -0.6845 0.2835 0.6716
vn 0.0019 -0.0004 1.0000
vn -0.7410 -0.0000 0.6715
vn 0.0019 0.0004 1.0000
vn -0.6845 -0.2835 0.6716
vn 0.0017 0.0011 1.0000
vn -0.5239 -0.5239 0.6716
vn 0.0011 0.0017 1.0000
vn -0.2836 -0.6845 0.6716
vn 0.0004 0.0019 1.0000
vn -0.0000 -0.7410 0.6715
vn -0.0004 0.0019 1.0000
vn 0.2836 -0.6845 0.6716
vn -0.0011 0.0017 1.0000
vn 0.5239 -0.5239 0.6716
vn -0.0017 0.0011 1.0000
vn 0.6845 -0.2835 0.6716
vn -0.0019 0.0004 1.0000
vn 0.7410 -0.0000 0.6715
vn -0.0019 -0.0004 1.0000
vn 0.6845 0.2835 0.6716
vn -0.0017 -0.0011 1.0000
vn 0.5239 0.5239 0.6716
vn -0.0011 -0.0017 1.0000
vn 0.2836 0.6845 0.6716
vn -0.0004 -0.0019 1.0000
vn -0.0000 0.7410 0.6715
vn -0.0000 0.9060 0.4232
vn -0.3467 0.8371 0.4232
vn -0.6407 0.6407 0.4232
vn -0.8371 0.3467 0.4232
vn -0.9060 -0.0000 0.4232
vn -0.8371 -0.3467 0.4232
vn -0.6407 -0.6407 0.4232
vn -0.3467 -0.8371 0.4232
vn -0.0000 -0.9060 0.4232
vn 0.3467 -0.8371 0.4232
vn 0.6407 -0.6407 0.4232
vn 0.8371 -0.3467 0.4232
vn 0.9060 -0.0000 0.4232
vn 0.8371 0.3467 0.4232
vn 0.6407 0.6407 0.4232
vn 0.3467 0.8371 0.4232
vn -0.0000 0.9225 0.3861
vn -0.3530 0.8523 0.3861
vn -0.6523 0.6523 0.3861
vn -0.9225 -0.0000 0.3861
vn -0.8523 -0.3530 0.3861
vn -0.6523 -0.6523 0.3861
vn -0.0000 -0.9225 0.3861
vn 0.3530 -0.8523 0.3861
vn 0.6523 -0.6523 0.3861
vn 0.8523 -0.3530 0.3861
vn 0.9225 -0.0000 0.3861
vn 0.8523 0.3530 0.3861
vn 0.6523 0.6523 0.3861
vn -0.0000 1.0000 -0.0000
vn -0.3827 0.9239 -0.0000
vn -0.7071 0.7071 -0.0000
vn -0.8523 0.3530 0.3861
vn -0.9239 0.3827 -0.0000
vn -1.0000 -0.0000 -0.0000
vn -0.9239 -0.3827 -0.0000
vn -0.7071 -0.7071 -0.0000
vn -0.3530 -0.8523 0.3861
vn -0.3827 -0.9239 -0.0000
vn -0.0000 -1.0000 -0.0000
vn 0.3827 -0.9239 -0.0000
vn 0.7071 -0.7071 -0.0000
vn 0.9239 -0.3827 -0.0000
vn 1.0000 -0.0000 -0.0000
vn 0.9239 0.3827 -0.0000
vn 0.7071 0.7071 -0.0000
vn 0.3530 0.8523 0.3861
vn 0.3827 0.9239 -0.0000
vt 0.000000 3.499667
vt 0.062500 3.500333
vt 0.062500 3.499667
vt 0.125000 3.500333
vt 0.125000 3.499667
vt 0.187500 3.500333
vt 0.187500 3.499667
vt 0.250000 3.500333
vt 0.250000 3.499667
vt 0.312500 3.500333
vt 0.312500 3.499667
vt 0.375000 3.500333
vt 0.375000 3.499667
vt 0.437500 3.500333
vt 0.437500 3.499667
vt 0.500000 3.500333
vt 0.500000 3.499667
vt 0.562500 3.500333
vt 0.562500 3.499667
vt 0.625000 3.500333
vt 0.625000 3.499667
vt 0.687500 3.500333
vt 0.687500 3.499667
vt 0.750000 3.500333
vt 0.750000 3.499667
vt 0.812500 3.500333
vt 0.812500 3.499667
vt 0.875000 3.500333
vt 0.875000 3.499667
vt 0.937500 3.500333
vt 0.937500 3.499667
vt 1.000000 3.500333
vt 1.000000 3.499667
vt 0.000000 1.018542
vt 0.000000 3.500333
vt 0.062500 1.018542
vt 0.125000 1.018542
vt 0.187500 1.018542
vt 0.250000 1.018542
vt 0.312500 1.018542
vt 0.375000 1.018542
vt 0.437500 1.018542
vt 0.500000 1.018542
vt 0.562500 1.018542
vt 0.625000 1.018542
vt 0.687500 1.018542
vt 0.750000 1.018542
vt 0.812500 1.018542
vt 0.875000 1.018542
vt 0.937500 1.018542
vt 0.000000 1.003014
vt 0.062500 1.003014
vt 0.125000 1.003014
vt 0.250000 1.003014
vt 0.312500 1.003014
vt 0.375000 1.003014
vt 0.500000 1.003014
vt 0.562500 1.003014
vt 0.625000 1.003014
vt 0.687500 1.003014
vt 0.750000 1.003014
vt 0.812500 1.003014
vt 0.875000 1.003014
vt 1.000000 1.003014
vt 1.000000 1.018542
vt 0.000000 0.000000
vt 0.062500 0.000000
vt 0.125000 0.000000
vt 0.187500 1.003014
vt 0.187500 0.000000
vt 0.250000 0.000000
vt 0.312500 0.000000
vt 0.375000 0.000000
vt 0.437500 1.003014
vt 0.437500 0.000000
vt 0.500000 0.000000
vt 0.562500 0.000000
vt 0.625000 0.000000
vt 0.687500 0.000000
vt 0.750000 0.000000
vt 0.812500 0.000000
vt 0.875000 0.000000
vt 0.937500 1.003014
vt 0.937500 0.000000
vt 1.000000 0.000000
s 1
usemtl moosgruen.001
f 1/1/1 7/2/2 6/3/3
f 6/3/3 12/4/4 11/5/5
f 11/5/5 17/6/6 16/7/7
f 16/7/7 22/8/8 21/9/9
f 21/9/9 27/10/10 26/11/11
f 26/11/11 32/12/12 31/13/13
f 31/13/13 37/14/14 36/15/15
f 36/15/15 42/16/16 41/17/17
f 41/17/17 47/18/18 46/19/19
f 46/19/19 52/20/20 51/21/21
f 51/21/21 57/22/22 56/23/23
f 56/23/23 62/24/24 61/25/25
f 61/25/25 67/26/26 66/27/27
f 66/27/27 72/28/28 71/29/29
f 71/29/29 77/30/30 76/31/31
f 76/31/31 2/32/32 1/33/1
f 3/34/33 7/2/2 2/35/32
f 8/36/34 12/4/4 7/2/2
f 13/37/35 17/6/6 12/4/4
f 18/38/36 22/8/8 17/6/6
f 23/39/37 27/10/10 22/8/8
f 28/40/38 32/12/12 27/10/10
f 33/41/39 37/14/14 32/12/12
f 38/42/40 42/16/16 37/14/14
f 43/43/41 47/18/18 42/16/16
f 48/44/42 52/20/20 47/18/18
f 53/45/43 57/22/22 52/20/20
f 58/46/44 62/24/24 57/22/22
f 63/47/45 67/26/26 62/24/24
f 68/48/46 72/28/28 67/26/26
f 73/49/47 77/30/30 72/28/28
f 78/50/48 2/32/32 77/30/30
f 4/51/49 8/36/34 3/34/33
f 9/52/50 13/37/35 8/36/34
f 14/53/51 18/38/36 13/37/35
f 18/38/36 24/54/52 23/39/37
f 23/39/37 29/55/53 28/40/38
f 29/55/53 33/41/39 28/40/38
f 34/56/54 38/42/40 33/41/39
f 38/42/40 44/57/55 43/43/41
f 44/57/55 48/44/42 43/43/41
f 49/58/56 53/45/43 48/44/42
f 54/59/57 58/46/44 53/45/43
f 59/60/58 63/47/45 58/46/44
f 64/61/59 68/48/46 63/47/45
f 69/62/60 73/49/47 68/48/46
f 74/63/61 78/50/48 73/49/47
f 78/50/48 4/64/49 3/65/33
f 5/66/62 9/52/50 4/51/49
f 10/67/63 14/53/51 9/52/50
f 15/68/64 19/69/65 14/53/51
f 20/70/66 24/54/52 19/69/65
f 25/71/67 29/55/53 24/54/52
f 30/72/68 34/56/54 29/55/53
f 35/73/69 39/74/70 34/56/54
f 40/75/71 44/57/55 39/74/70
f 45/76/72 49/58/56 44/57/55
f 50/77/73 54/59/57 49/58/56
f 55/78/74 59/60/58 54/59/57
f 60/79/75 64/61/59 59/60/58
f 65/80/76 69/62/60 64/61/59
f 70/81/77 74/63/61 69/62/60
f 75/82/78 79/83/79 74/63/61
f 80/84/80 4/64/49 79/83/79
f 1/1/1 2/35/32 7/2/2
f 6/3/3 7/2/2 12/4/4
f 11/5/5 12/4/4 17/6/6
f 16/7/7 17/6/6 22/8/8
f 21/9/9 22/8/8 27/10/10
f 26/11/11 27/10/10 32/12/12
f 31/13/13 32/12/12 37/14/14
f 36/15/15 37/14/14 42/16/16
f 41/17/17 42/16/16 47/18/18
f 46/19/19 47/18/18 52/20/20
f 51/21/21 52/20/20 57/22/22
f 56/23/23 57/22/22 62/24/24
f 61/25/25 62/24/24 67/26/26
f 66/27/27 67/26/26 72/28/28
f 71/29/29 72/28/28 77/30/30
f 76/31/31 77/30/30 2/32/32
f 3/34/33 8/36/34 7/2/2
f 8/36/34 13/37/35 12/4/4
f 13/37/35 18/38/36 17/6/6
f 18/38/36 23/39/37 22/8/8
f 23/39/37 28/40/38 27/10/10
f 28/40/38 33/41/39 32/12/12
f 33/41/39 38/42/40 37/14/14
f 38/42/40 43/43/41 42/16/16
f 43/43/41 48/44/42 47/18/18
f 48/44/42 53/45/43 52/20/20
f 53/45/43 58/46/44 57/22/22
f 58/46/44 63/47/45 62/24/24
f 63/47/45 68/48/46 67/26/26
f 68/48/46 73/49/47 72/28/28
f 73/49/47 78/50/48 77/30/30
f 78/50/48 3/65/33 2/32/32
f 4/51/49 9/52/50 8/36/34
f 9/52/50 14/53/51 13/37/35
f 14/53/51 19/69/65 18/38/36
f 18/38/36 19/69/65 24/54/52
f 23/39/37 24/54/52 29/55/53
f 29/55/53 34/56/54 33/41/39
f 34/56/54 39/74/70 38/42/40
f 38/42/40 39/74/70 44/57/55
f 44/57/55 49/58/56 48/44/42
f 49/58/56 54/59/57 53/45/43
f 54/59/57 59/60/58 58/46/44
f 59/60/58 64/61/59 63/47/45
f 64/61/59 69/62/60 68/48/46
f 69/62/60 74/63/61 73/49/47
f 74/63/61 79/83/79 78/50/48
f 78/50/48 79/83/79 4/64/49
f 5/66/62 10/67/63 9/52/50
f 10/67/63 15/68/64 14/53/51
f 15/68/64 20/70/66 19/69/65
f 20/70/66 25/71/67 24/54/52
f 25/71/67 30/72/68 29/55/53
f 30/72/68 35/73/69 34/56/54
f 35/73/69 40/75/71 39/74/70
f 40/75/71 45/76/72 44/57/55
f 45/76/72 50/77/73 49/58/56
f 50/77/73 55/78/74 54/59/57
f 55/78/74 60/79/75 59/60/58
f 60/79/75 65/80/76 64/61/59
f 65/80/76 70/81/77 69/62/60
f 70/81/77 75/82/78 74/63/61
f 75/82/78 80/84/80 79/83/79
f 80/84/80 5/85/62 4/64/49
