# Blender 4.0.2
# www.blender.org
mtllib Basket_4000.mtl
o Mast_4,0m_Metalogalva.001
v 0.000000 0.000000 4.000000
v 0.000000 -0.038000 4.000000
v 0.000000 -0.058000 0.000000
v 0.000000 0.000000 4.000000
v 0.014542 -0.035107 4.000000
v 0.022196 -0.053585 0.000000
v 0.000000 0.000000 4.000000
v 0.026870 -0.026870 4.000000
v 0.041012 -0.041012 0.000000
v 0.000000 0.000000 4.000000
v 0.035107 -0.014542 4.000000
v 0.053585 -0.022196 0.000000
v 0.000000 0.000000 4.000000
v 0.038000 0.000000 4.000000
v 0.058000 0.000000 0.000000
v 0.000000 0.000000 4.000000
v 0.035107 0.014542 4.000000
v 0.053585 0.022196 0.000000
v 0.000000 0.000000 4.000000
v 0.026870 0.026870 4.000000
v 0.041012 0.041012 0.000000
v 0.000000 0.000000 4.000000
v 0.014542 0.035107 4.000000
v 0.022196 0.053585 0.000000
v 0.000000 0.000000 4.000000
v 0.000000 0.038000 4.000000
v 0.000000 0.058000 0.000000
v 0.000000 0.000000 4.000000
v -0.014542 0.035107 4.000000
v -0.022196 0.053585 0.000000
v 0.000000 0.000000 4.000000
v -0.026870 0.026870 4.000000
v -0.041012 0.041012 0.000000
v 0.000000 0.000000 4.000000
v -0.035107 0.014542 4.000000
v -0.053585 0.022196 0.000000
v 0.000000 0.000000 4.000000
v -0.038000 0.000000 4.000000
v -0.058000 0.000000 0.000000
v 0.000000 0.000000 4.000000
v -0.035107 -0.014542 4.000000
v -0.053585 -0.022196 0.000000
v 0.000000 0.000000 4.000000
v -0.026870 -0.026870 4.000000
v -0.041012 -0.041012 0.000000
v 0.000000 0.000000 4.000000
v -0.014542 -0.035107 4.000000
v -0.022196 -0.053585 0.000000
vn -0.0000 -0.7446 0.6676
vn -0.0000 -0.0000 1.0000
vn 0.2849 -0.6879 0.6676
vn 0.5265 -0.5265 0.6676
vn 0.6879 -0.2849 0.6676
vn 0.7446 -0.0000 0.6676
vn 0.6879 0.2849 0.6676
vn 0.5265 0.5265 0.6676
vn 0.2849 0.6879 0.6676
vn -0.0000 0.7446 0.6676
vn -0.2849 0.6879 0.6676
vn -0.5265 0.5265 0.6676
vn -0.6879 0.2849 0.6676
vn -0.7446 -0.0000 0.6676
vn -0.6879 -0.2849 0.6676
vn -0.5265 -0.5265 0.6676
vn -0.2849 -0.6879 0.6676
vn -0.0000 -1.0000 0.0050
vn 0.3827 -0.9239 0.0050
vn 0.7071 -0.7071 0.0050
vn 0.9239 -0.3827 0.0050
vn 1.0000 -0.0000 0.0050
vn 0.9239 0.3827 0.0050
vn 0.3827 0.9239 0.0050
vn -0.3827 0.9239 0.0050
vn -0.7071 0.7071 0.0050
vn -0.9239 0.3827 0.0050
vn -1.0000 -0.0000 0.0050
vn -0.9239 -0.3827 0.0050
vn -0.7071 -0.7071 0.0050
vn 0.7071 0.7071 0.0050
vn -0.0000 1.0000 0.0050
vn -0.3827 -0.9239 0.0050
vt 0.000000 10.000000
vt 0.062500 10.000000
vt 0.125000 10.000000
vt 0.187500 10.000000
vt 0.250000 10.000000
vt 0.312500 10.000000
vt 0.375000 10.000000
vt 0.437500 10.000000
vt 0.500000 10.000000
vt 0.562500 10.000000
vt 0.625000 10.000000
vt 0.687500 10.000000
vt 0.750000 10.000000
vt 0.812500 10.000000
vt 0.875000 10.000000
vt 0.937500 10.000000
vt 1.000000 10.000000
vt 0.000000 -6.000000
vt 0.062500 -6.000000
vt 0.125000 -6.000000
vt 0.187500 -6.000000
vt 0.250000 -6.000000
vt 0.312500 -6.000000
vt 0.437500 -6.000000
vt 0.562500 -6.000000
vt 0.625000 -6.000000
vt 0.687500 -6.000000
vt 0.750000 -6.000000
vt 0.812500 -6.000000
vt 0.875000 -6.000000
vt 1.000000 -6.000000
vt 0.375000 -6.000000
vt 0.500000 -6.000000
vt 0.937500 -6.000000
s 1
usemtl dunkelgrau
f 2/1/1 4/2/2 1/1/2
f 5/2/3 7/3/2 4/2/2
f 8/3/4 10/4/2 7/3/2
f 11/4/5 13/5/2 10/4/2
f 14/5/6 16/6/2 13/5/2
f 17/6/7 19/7/2 16/6/2
f 20/7/8 22/8/2 19/7/2
f 23/8/9 25/9/2 22/8/2
f 26/9/10 28/10/2 25/9/2
f 29/10/11 31/11/2 28/10/2
f 32/11/12 34/12/2 31/11/2
f 35/12/13 37/13/2 34/12/2
f 38/13/14 40/14/2 37/13/2
f 41/14/15 43/15/2 40/14/2
f 44/15/16 46/16/2 43/15/2
f 47/16/17 1/17/2 46/16/2
f 3/18/18 5/2/3 2/1/1
f 6/19/19 8/3/4 5/2/3
f 9/20/20 11/4/5 8/3/4
f 12/21/21 14/5/6 11/4/5
f 15/22/22 17/6/7 14/5/6
f 18/23/23 20/7/8 17/6/7
f 20/7/8 24/24/24 23/8/9
f 24/24/24 26/9/10 23/8/9
f 26/9/10 30/25/25 29/10/11
f 29/10/11 33/26/26 32/11/12
f 33/26/26 35/12/13 32/11/12
f 36/27/27 38/13/14 35/12/13
f 39/28/28 41/14/15 38/13/14
f 42/29/29 44/15/16 41/14/15
f 45/30/30 47/16/17 44/15/16
f 47/16/17 3/31/18 2/17/1
f 2/1/1 5/2/3 4/2/2
f 5/2/3 8/3/4 7/3/2
f 8/3/4 11/4/5 10/4/2
f 11/4/5 14/5/6 13/5/2
f 14/5/6 17/6/7 16/6/2
f 17/6/7 20/7/8 19/7/2
f 20/7/8 23/8/9 22/8/2
f 23/8/9 26/9/10 25/9/2
f 26/9/10 29/10/11 28/10/2
f 29/10/11 32/11/12 31/11/2
f 32/11/12 35/12/13 34/12/2
f 35/12/13 38/13/14 37/13/2
f 38/13/14 41/14/15 40/14/2
f 41/14/15 44/15/16 43/15/2
f 44/15/16 47/16/17 46/16/2
f 47/16/17 2/17/1 1/17/2
f 3/18/18 6/19/19 5/2/3
f 6/19/19 9/20/20 8/3/4
f 9/20/20 12/21/21 11/4/5
f 12/21/21 15/22/22 14/5/6
f 15/22/22 18/23/23 17/6/7
f 18/23/23 21/32/31 20/7/8
f 20/7/8 21/32/31 24/24/24
f 24/24/24 27/33/32 26/9/10
f 26/9/10 27/33/32 30/25/25
f 29/10/11 30/25/25 33/26/26
f 33/26/26 36/27/27 35/12/13
f 36/27/27 39/28/28 38/13/14
f 39/28/28 42/29/29 41/14/15
f 42/29/29 45/30/30 44/15/16
f 45/30/30 48/34/33 47/16/17
f 47/16/17 48/34/33 3/31/18
