# Blender v3.5.0 OBJ File: 'Beton_8000.blend'
# www.blender.org
mtllib Beton_8000.mtl
o Mast_8,0m_Beton.001
v 0.000000 0.000000 8.000000
v 0.000000 -0.070000 8.000000
v 0.000000 -0.143000 0.000000
v 0.000000 0.000000 8.000000
v 0.026788 -0.064672 8.000000
v 0.054724 -0.132115 0.000000
v 0.000000 0.000000 8.000000
v 0.049497 -0.049497 8.000000
v 0.101116 -0.101116 0.000000
v 0.000000 0.000000 8.000000
v 0.064672 -0.026788 8.000000
v 0.132115 -0.054724 0.000000
v 0.000000 0.000000 8.000000
v 0.070000 0.000000 8.000000
v 0.143000 0.000000 0.000000
v 0.000000 0.000000 8.000000
v 0.064672 0.026788 8.000000
v 0.132115 0.054724 0.000000
v 0.000000 0.000000 8.000000
v 0.049497 0.049497 8.000000
v 0.101116 0.101116 0.000000
v 0.000000 0.000000 8.000000
v 0.026788 0.064672 8.000000
v 0.054724 0.132115 0.000000
v 0.000000 0.000000 8.000000
v 0.000000 0.070000 8.000000
v 0.000000 0.143000 0.000000
v 0.000000 0.000000 8.000000
v -0.026788 0.064672 8.000000
v -0.054724 0.132115 0.000000
v 0.000000 0.000000 8.000000
v -0.049497 0.049497 8.000000
v -0.101116 0.101116 0.000000
v 0.000000 0.000000 8.000000
v -0.064672 0.026788 8.000000
v -0.132115 0.054724 0.000000
v 0.000000 0.000000 8.000000
v -0.070000 0.000000 8.000000
v -0.143000 0.000000 0.000000
v 0.000000 0.000000 8.000000
v -0.064672 -0.026788 8.000000
v -0.132115 -0.054724 0.000000
v 0.000000 0.000000 8.000000
v -0.049497 -0.049497 8.000000
v -0.101116 -0.101116 0.000000
v 0.000000 0.000000 8.000000
v -0.026788 -0.064672 8.000000
v -0.054724 -0.132115 0.000000
vt 0.676208 5.156374
vt 0.812500 5.156374
vt 0.676208 5.156374
vt 0.875000 5.156374
vt 0.676208 5.156374
vt 0.937500 5.156374
vt 0.676208 5.156374
vt 1.000000 5.156374
vt 0.676208 5.156374
vt 1.062500 5.156374
vt 0.676208 5.156374
vt 1.125000 5.156374
vt 0.676208 5.156374
vt 0.187500 5.156374
vt 0.676208 5.156374
vt 0.250000 5.156374
vt 0.676208 5.156374
vt 0.312500 5.156374
vt 0.676208 5.156374
vt 0.375000 5.156374
vt 0.676208 5.156374
vt 0.437501 5.156374
vt 0.676208 5.156374
vt 0.500000 5.156374
vt 0.676208 5.156374
vt 0.562500 5.156374
vt 0.676208 5.156374
vt 0.625000 5.156374
vt 0.676208 5.156374
vt 0.687500 5.156374
vt 0.676208 5.156374
vt 0.750000 5.156374
vt 0.750000 -6.156374
vt 0.812500 -6.156374
vt 0.875001 -6.156374
vt 0.937501 -6.156374
vt 1.000001 -6.156374
vt 0.062500 -6.156374
vt 0.125000 5.156374
vt 0.062500 5.156374
vt 0.125000 -6.156374
vt 0.187500 -6.156374
vt 0.250000 -6.156374
vt 0.374999 -6.156374
vt 0.437499 -6.156374
vt 0.499999 -6.156374
vt 0.562500 -6.156374
vt 0.625000 -6.156374
vt 0.687500 -6.156374
vt 1.062500 -6.156374
vt 0.312500 -6.156374
vn 0.0000 0.0000 1.0000
vn 0.2844 -0.6866 0.6691
vn 0.5255 -0.5255 0.6691
vn 0.6866 -0.2844 0.6691
vn 0.7432 0.0000 0.6691
vn 0.6866 0.2844 0.6691
vn 0.5255 0.5255 0.6691
vn 0.2844 0.6866 0.6691
vn -0.0000 0.7432 0.6691
vn -0.2844 0.6866 0.6691
vn -0.5255 0.5255 0.6691
vn -0.6866 0.2844 0.6691
vn -0.7432 -0.0000 0.6691
vn -0.6866 -0.2844 0.6691
vn -0.5255 -0.5255 0.6691
vn -0.2844 -0.6866 0.6691
vn 0.0000 -0.7432 0.6691
vn -0.0000 -1.0000 0.0091
vn 0.3827 -0.9238 0.0091
vn 0.7071 -0.7071 0.0091
vn 0.9238 -0.3827 0.0091
vn 1.0000 -0.0000 0.0091
vn 0.9238 0.3827 0.0091
vn 0.7071 0.7071 0.0091
vn 0.3827 0.9238 0.0091
vn 0.0000 1.0000 0.0091
vn -0.7071 0.7071 0.0091
vn -0.9238 0.3827 0.0091
vn -1.0000 0.0000 0.0091
vn -0.9238 -0.3827 0.0091
vn -0.7071 -0.7071 0.0091
vn -0.3827 -0.9238 0.0091
vn -0.3827 0.9238 0.0091
usemtl Spannbeton.003
s 1
f 1/1/1 5/2/2 4/3/1
f 4/3/1 8/4/3 7/5/1
f 7/5/1 11/6/4 10/7/1
f 10/7/1 14/8/5 13/9/1
f 13/9/1 17/10/6 16/11/1
f 16/11/1 20/12/7 19/13/1
f 19/13/1 23/14/8 22/15/1
f 22/15/1 26/16/9 25/17/1
f 25/17/1 29/18/10 28/19/1
f 28/19/1 32/20/11 31/21/1
f 31/21/1 35/22/12 34/23/1
f 34/23/1 38/24/13 37/25/1
f 37/25/1 41/26/14 40/27/1
f 40/27/1 44/28/15 43/29/1
f 43/29/1 47/30/16 46/31/1
f 46/31/1 2/32/17 1/1/1
f 3/33/18 5/2/2 2/32/17
f 6/34/19 8/4/3 5/2/2
f 9/35/20 11/6/4 8/4/3
f 12/36/21 14/8/5 11/6/4
f 15/37/22 17/10/6 14/8/5
f 18/38/23 20/39/7 17/40/6
f 21/41/24 23/14/8 20/39/7
f 24/42/25 26/16/9 23/14/8
f 27/43/26 29/18/10 26/16/9
f 29/18/10 33/44/27 32/20/11
f 33/44/27 35/22/12 32/20/11
f 36/45/28 38/24/13 35/22/12
f 39/46/29 41/26/14 38/24/13
f 42/47/30 44/28/15 41/26/14
f 45/48/31 47/30/16 44/28/15
f 48/49/32 2/32/17 47/30/16
f 1/1/1 2/32/17 5/2/2
f 4/3/1 5/2/2 8/4/3
f 7/5/1 8/4/3 11/6/4
f 10/7/1 11/6/4 14/8/5
f 13/9/1 14/8/5 17/10/6
f 16/11/1 17/10/6 20/12/7
f 19/13/1 20/12/7 23/14/8
f 22/15/1 23/14/8 26/16/9
f 25/17/1 26/16/9 29/18/10
f 28/19/1 29/18/10 32/20/11
f 31/21/1 32/20/11 35/22/12
f 34/23/1 35/22/12 38/24/13
f 37/25/1 38/24/13 41/26/14
f 40/27/1 41/26/14 44/28/15
f 43/29/1 44/28/15 47/30/16
f 46/31/1 47/30/16 2/32/17
f 3/33/18 6/34/19 5/2/2
f 6/34/19 9/35/20 8/4/3
f 9/35/20 12/36/21 11/6/4
f 12/36/21 15/37/22 14/8/5
f 15/37/22 18/50/23 17/10/6
f 18/38/23 21/41/24 20/39/7
f 21/41/24 24/42/25 23/14/8
f 24/42/25 27/43/26 26/16/9
f 27/43/26 30/51/33 29/18/10
f 29/18/10 30/51/33 33/44/27
f 33/44/27 36/45/28 35/22/12
f 36/45/28 39/46/29 38/24/13
f 39/46/29 42/47/30 41/26/14
f 42/47/30 45/48/31 44/28/15
f 45/48/31 48/49/32 47/30/16
f 48/49/32 3/33/18 2/32/17
