# Blender 4.0.2
# www.blender.org
mtllib Beton_6300.mtl
o Mast_6,3m_Beton.001
v 0.000000 0.000000 6.300000
v 0.000000 -0.070000 6.300000
v 0.000000 -0.128500 0.000000
v 0.000000 0.000000 6.300000
v 0.026788 -0.064672 6.300000
v 0.049175 -0.118719 0.000000
v 0.000000 0.000000 6.300000
v 0.049497 -0.049497 6.300000
v 0.090863 -0.090863 0.000000
v 0.000000 0.000000 6.300000
v 0.064672 -0.026788 6.300000
v 0.118719 -0.049175 0.000000
v 0.000000 0.000000 6.300000
v 0.070000 0.000000 6.300000
v 0.128500 0.000000 0.000000
v 0.000000 0.000000 6.300000
v 0.064672 0.026788 6.300000
v 0.118719 0.049175 0.000000
v 0.000000 0.000000 6.300000
v 0.049497 0.049497 6.300000
v 0.090863 0.090863 0.000000
v 0.000000 0.000000 6.300000
v 0.026788 0.064672 6.300000
v 0.049175 0.118719 0.000000
v 0.000000 0.000000 6.300000
v 0.000000 0.070000 6.300000
v 0.000000 0.128500 0.000000
v 0.000000 0.000000 6.300000
v -0.026788 0.064672 6.300000
v -0.049175 0.118719 0.000000
v 0.000000 0.000000 6.300000
v -0.049497 0.049497 6.300000
v -0.090863 0.090863 0.000000
v 0.000000 0.000000 6.300000
v -0.064672 0.026788 6.300000
v -0.118719 0.049175 0.000000
v 0.000000 0.000000 6.300000
v -0.070000 0.000000 6.300000
v -0.128500 0.000000 0.000000
v 0.000000 0.000000 6.300000
v -0.064672 -0.026788 6.300000
v -0.118719 -0.049175 0.000000
v 0.000000 0.000000 6.300000
v -0.049497 -0.049497 6.300000
v -0.090863 -0.090863 0.000000
v 0.000000 0.000000 6.300000
v -0.026788 -0.064672 6.300000
v -0.049175 -0.118719 0.000000
vn -0.0000 -0.0000 1.0000
vn 0.2844 -0.6865 0.6692
vn 0.5255 -0.5255 0.6692
vn 0.6865 -0.2844 0.6692
vn 0.7431 -0.0000 0.6691
vn 0.6865 0.2844 0.6692
vn 0.5255 0.5255 0.6692
vn 0.2844 0.6865 0.6692
vn -0.0000 0.7431 0.6691
vn -0.2844 0.6865 0.6692
vn -0.5255 0.5255 0.6692
vn -0.6865 0.2844 0.6692
vn -0.7431 -0.0000 0.6691
vn -0.6865 -0.2844 0.6692
vn -0.5255 -0.5255 0.6692
vn -0.2844 -0.6865 0.6692
vn -0.0000 -0.7431 0.6691
vn -0.0000 -1.0000 0.0093
vn 0.3827 -0.9238 0.0093
vn 0.7071 -0.7071 0.0093
vn 0.9238 -0.3827 0.0093
vn 1.0000 -0.0000 0.0093
vn 0.9238 0.3827 0.0093
vn 0.7071 0.7071 0.0093
vn 0.3827 0.9238 0.0093
vn -0.3827 0.9238 0.0093
vn -0.7071 0.7071 0.0093
vn -0.9238 0.3827 0.0093
vn -1.0000 -0.0000 0.0093
vn -0.7071 -0.7071 0.0093
vn -0.3827 -0.9238 0.0093
vn -0.0000 1.0000 0.0093
vn -0.9238 -0.3827 0.0093
vt 0.366705 0.497529
vt 0.294366 0.672170
vt 0.233040 0.631193
vt 0.192064 0.569867
vt 0.177675 0.497529
vt 0.192064 0.425190
vt 0.233040 0.363864
vt 0.294366 0.322888
vt 0.366705 0.308499
vt 0.439044 0.322888
vt 0.500369 0.363864
vt 0.541346 0.425190
vt 0.555735 0.497529
vt 0.541346 0.569867
vt 0.500369 0.631193
vt 0.439044 0.672170
vt 0.366705 0.686559
vt 0.000000 0.000000
vt 0.062500 6.300000
vt 0.000000 6.300000
vt 0.062500 0.000000
vt 0.125000 6.300000
vt 0.125000 0.000000
vt 0.187500 6.300000
vt 0.187500 0.000000
vt 0.250000 6.300000
vt 0.250000 0.000000
vt 0.312500 6.300000
vt 0.312500 0.000000
vt 0.375000 6.300000
vt 0.375000 0.000000
vt 0.437500 6.300000
vt 0.437500 0.000000
vt 0.500000 6.300000
vt 0.562500 0.000000
vt 0.562500 6.300000
vt 0.625000 6.300000
vt 0.625000 0.000000
vt 0.687500 6.300000
vt 0.687500 0.000000
vt 0.750000 6.300000
vt 0.750000 0.000000
vt 0.812500 6.300000
vt 0.875000 0.000000
vt 0.875000 6.300000
vt 0.937500 0.000000
vt 0.937500 6.300000
vt 1.000000 6.300000
vt 0.500000 0.000000
vt 0.812500 0.000000
vt 1.000000 0.000000
s 1
usemtl Spannbeton.001
f 1/1/1 5/2/2 4/1/1
f 4/1/1 8/3/3 7/1/1
f 7/1/1 11/4/4 10/1/1
f 10/1/1 14/5/5 13/1/1
f 13/1/1 17/6/6 16/1/1
f 16/1/1 20/7/7 19/1/1
f 19/1/1 23/8/8 22/1/1
f 22/1/1 26/9/9 25/1/1
f 25/1/1 29/10/10 28/1/1
f 28/1/1 32/11/11 31/1/1
f 31/1/1 35/12/12 34/1/1
f 34/1/1 38/13/13 37/1/1
f 37/1/1 41/14/14 40/1/1
f 40/1/1 44/15/15 43/1/1
f 43/1/1 47/16/16 46/1/1
f 46/1/1 2/17/17 1/1/1
f 3/18/18 5/19/2 2/20/17
f 6/21/19 8/22/3 5/19/2
f 9/23/20 11/24/4 8/22/3
f 12/25/21 14/26/5 11/24/4
f 15/27/22 17/28/6 14/26/5
f 18/29/23 20/30/7 17/28/6
f 21/31/24 23/32/8 20/30/7
f 24/33/25 26/34/9 23/32/8
f 26/34/9 30/35/26 29/36/10
f 30/35/26 32/37/11 29/36/10
f 33/38/27 35/39/12 32/37/11
f 36/40/28 38/41/13 35/39/12
f 39/42/29 41/43/14 38/41/13
f 41/43/14 45/44/30 44/45/15
f 44/45/15 48/46/31 47/47/16
f 48/46/31 2/48/17 47/47/16
f 1/1/1 2/17/17 5/2/2
f 4/1/1 5/2/2 8/3/3
f 7/1/1 8/3/3 11/4/4
f 10/1/1 11/4/4 14/5/5
f 13/1/1 14/5/5 17/6/6
f 16/1/1 17/6/6 20/7/7
f 19/1/1 20/7/7 23/8/8
f 22/1/1 23/8/8 26/9/9
f 25/1/1 26/9/9 29/10/10
f 28/1/1 29/10/10 32/11/11
f 31/1/1 32/11/11 35/12/12
f 34/1/1 35/12/12 38/13/13
f 37/1/1 38/13/13 41/14/14
f 40/1/1 41/14/14 44/15/15
f 43/1/1 44/15/15 47/16/16
f 46/1/1 47/16/16 2/17/17
f 3/18/18 6/21/19 5/19/2
f 6/21/19 9/23/20 8/22/3
f 9/23/20 12/25/21 11/24/4
f 12/25/21 15/27/22 14/26/5
f 15/27/22 18/29/23 17/28/6
f 18/29/23 21/31/24 20/30/7
f 21/31/24 24/33/25 23/32/8
f 24/33/25 27/49/32 26/34/9
f 26/34/9 27/49/32 30/35/26
f 30/35/26 33/38/27 32/37/11
f 33/38/27 36/40/28 35/39/12
f 36/40/28 39/42/29 38/41/13
f 39/42/29 42/50/33 41/43/14
f 41/43/14 42/50/33 45/44/30
f 44/45/15 45/44/30 48/46/31
f 48/46/31 3/51/18 2/48/17
