# Blender v3.5.1 OBJ File: 'Beton_6300.blend'
# www.blender.org
mtllib Beton_6300.mtl
o Mast_6,3m_Beton.001
v 0.000000 0.000000 6.300000
v 0.000000 -0.070000 6.300000
v 0.000000 -0.128500 0.000000
v 0.000000 0.000000 6.300000
v 0.026788 -0.064672 6.300000
v 0.049175 -0.118719 0.000000
v 0.000000 0.000000 6.300000
v 0.049497 -0.049497 6.300000
v 0.090863 -0.090863 0.000000
v 0.000000 0.000000 6.300000
v 0.064672 -0.026788 6.300000
v 0.118719 -0.049175 0.000000
v 0.000000 0.000000 6.300000
v 0.070000 0.000000 6.300000
v 0.128500 0.000000 0.000000
v 0.000000 0.000000 6.300000
v 0.064672 0.026788 6.300000
v 0.118719 0.049175 0.000000
v 0.000000 0.000000 6.300000
v 0.049497 0.049497 6.300000
v 0.090863 0.090863 0.000000
v 0.000000 0.000000 6.300000
v 0.026788 0.064672 6.300000
v 0.049175 0.118719 0.000000
v 0.000000 0.000000 6.300000
v 0.000000 0.070000 6.300000
v 0.000000 0.128500 0.000000
v 0.000000 0.000000 6.300000
v -0.026788 0.064672 6.300000
v -0.049175 0.118719 0.000000
v 0.000000 0.000000 6.300000
v -0.049497 0.049497 6.300000
v -0.090863 0.090863 0.000000
v 0.000000 0.000000 6.300000
v -0.064672 0.026788 6.300000
v -0.118719 0.049175 0.000000
v 0.000000 0.000000 6.300000
v -0.070000 0.000000 6.300000
v -0.128500 0.000000 0.000000
v 0.000000 0.000000 6.300000
v -0.064672 -0.026788 6.300000
v -0.118719 -0.049175 0.000000
v 0.000000 0.000000 6.300000
v -0.049497 -0.049497 6.300000
v -0.090863 -0.090863 0.000000
v 0.000000 0.000000 6.300000
v -0.026788 -0.064672 6.300000
v -0.049175 -0.118719 0.000000
vt 0.366705 0.497529
vt 0.294366 0.672170
vt 0.366705 0.497529
vt 0.233040 0.631193
vt 0.366705 0.497529
vt 0.192064 0.569867
vt 0.366705 0.497529
vt 0.177675 0.497529
vt 0.366705 0.497529
vt 0.192064 0.425190
vt 0.366705 0.497529
vt 0.233040 0.363864
vt 0.366705 0.497529
vt 0.294366 0.322888
vt 0.366705 0.497529
vt 0.366705 0.308499
vt 0.366705 0.497529
vt 0.439044 0.322888
vt 0.366705 0.497529
vt 0.500369 0.363864
vt 0.366705 0.497529
vt 0.541346 0.425190
vt 0.366705 0.497529
vt 0.555735 0.497529
vt 0.366705 0.497529
vt 0.541346 0.569867
vt 0.366705 0.497529
vt 0.500369 0.631193
vt 0.366705 0.497529
vt 0.439044 0.672170
vt 0.366705 0.497529
vt 0.366705 0.686559
vt 0.000000 0.000000
vt 0.062500 6.300000
vt 0.000000 6.300000
vt 0.062500 0.000000
vt 0.125000 6.300000
vt 0.125000 0.000000
vt 0.187500 6.300000
vt 0.187500 0.000000
vt 0.250000 6.300000
vt 0.250000 0.000000
vt 0.312500 6.300000
vt 0.312500 0.000000
vt 0.375000 6.300000
vt 0.375000 0.000000
vt 0.437500 6.300000
vt 0.437500 0.000000
vt 0.500000 6.300000
vt 0.562500 0.000000
vt 0.562500 6.300000
vt 0.625000 6.300000
vt 0.625000 0.000000
vt 0.687500 6.300000
vt 0.687500 0.000000
vt 0.750000 6.300000
vt 0.750000 0.000000
vt 0.812500 6.300000
vt 0.875000 0.000000
vt 0.875000 6.300000
vt 0.937500 0.000000
vt 0.937500 6.300000
vt 1.000000 6.300000
vt 0.500000 0.000000
vt 0.812500 0.000000
vt 1.000000 0.000000
vn -0.0000 0.0000 1.0000
vn 0.2844 -0.6865 0.6692
vn 0.5255 -0.5255 0.6692
vn 0.6865 -0.2844 0.6692
vn 0.7431 0.0000 0.6691
vn 0.6865 0.2844 0.6692
vn 0.5255 0.5255 0.6692
vn 0.2844 0.6865 0.6692
vn -0.0000 0.7431 0.6691
vn -0.2844 0.6865 0.6692
vn -0.5255 0.5255 0.6692
vn -0.6865 0.2844 0.6692
vn -0.7431 -0.0000 0.6691
vn -0.6865 -0.2844 0.6692
vn -0.5255 -0.5255 0.6692
vn -0.2844 -0.6865 0.6692
vn 0.0000 -0.7431 0.6691
vn -0.0000 -1.0000 0.0093
vn 0.3827 -0.9238 0.0093
vn 0.7071 -0.7071 0.0093
vn 0.9238 -0.3827 0.0093
vn 1.0000 -0.0000 0.0093
vn 0.9238 0.3827 0.0093
vn 0.7071 0.7071 0.0093
vn 0.3827 0.9238 0.0093
vn -0.3827 0.9238 0.0093
vn -0.7071 0.7071 0.0093
vn -0.9238 0.3827 0.0093
vn -1.0000 0.0000 0.0093
vn -0.7071 -0.7071 0.0093
vn -0.3827 -0.9238 0.0093
vn 0.0000 1.0000 0.0093
vn -0.9238 -0.3827 0.0093
usemtl Spannbeton.001
s 1
f 1/1/1 5/2/2 4/3/1
f 4/3/1 8/4/3 7/5/1
f 7/5/1 11/6/4 10/7/1
f 10/7/1 14/8/5 13/9/1
f 13/9/1 17/10/6 16/11/1
f 16/11/1 20/12/7 19/13/1
f 19/13/1 23/14/8 22/15/1
f 22/15/1 26/16/9 25/17/1
f 25/17/1 29/18/10 28/19/1
f 28/19/1 32/20/11 31/21/1
f 31/21/1 35/22/12 34/23/1
f 34/23/1 38/24/13 37/25/1
f 37/25/1 41/26/14 40/27/1
f 40/27/1 44/28/15 43/29/1
f 43/29/1 47/30/16 46/31/1
f 46/31/1 2/32/17 1/1/1
f 3/33/18 5/34/2 2/35/17
f 6/36/19 8/37/3 5/34/2
f 9/38/20 11/39/4 8/37/3
f 12/40/21 14/41/5 11/39/4
f 15/42/22 17/43/6 14/41/5
f 18/44/23 20/45/7 17/43/6
f 21/46/24 23/47/8 20/45/7
f 24/48/25 26/49/9 23/47/8
f 26/49/9 30/50/26 29/51/10
f 30/50/26 32/52/11 29/51/10
f 33/53/27 35/54/12 32/52/11
f 36/55/28 38/56/13 35/54/12
f 39/57/29 41/58/14 38/56/13
f 41/58/14 45/59/30 44/60/15
f 44/60/15 48/61/31 47/62/16
f 48/61/31 2/63/17 47/62/16
f 1/1/1 2/32/17 5/2/2
f 4/3/1 5/2/2 8/4/3
f 7/5/1 8/4/3 11/6/4
f 10/7/1 11/6/4 14/8/5
f 13/9/1 14/8/5 17/10/6
f 16/11/1 17/10/6 20/12/7
f 19/13/1 20/12/7 23/14/8
f 22/15/1 23/14/8 26/16/9
f 25/17/1 26/16/9 29/18/10
f 28/19/1 29/18/10 32/20/11
f 31/21/1 32/20/11 35/22/12
f 34/23/1 35/22/12 38/24/13
f 37/25/1 38/24/13 41/26/14
f 40/27/1 41/26/14 44/28/15
f 43/29/1 44/28/15 47/30/16
f 46/31/1 47/30/16 2/32/17
f 3/33/18 6/36/19 5/34/2
f 6/36/19 9/38/20 8/37/3
f 9/38/20 12/40/21 11/39/4
f 12/40/21 15/42/22 14/41/5
f 15/42/22 18/44/23 17/43/6
f 18/44/23 21/46/24 20/45/7
f 21/46/24 24/48/25 23/47/8
f 24/48/25 27/64/32 26/49/9
f 26/49/9 27/64/32 30/50/26
f 30/50/26 33/53/27 32/52/11
f 33/53/27 36/55/28 35/54/12
f 36/55/28 39/57/29 38/56/13
f 39/57/29 42/65/33 41/58/14
f 41/58/14 42/65/33 45/59/30
f 44/60/15 45/59/30 48/61/31
f 48/61/31 3/66/18 2/63/17
