# Blender 4.0.2
# www.blender.org
mtllib Beton_8000.mtl
o Mast_8,0m_Beton.001
v 0.000000 0.000000 8.000000
v 0.000000 -0.070000 8.000000
v 0.000000 -0.143000 0.000000
v 0.000000 0.000000 8.000000
v 0.026788 -0.064672 8.000000
v 0.054724 -0.132115 0.000000
v 0.000000 0.000000 8.000000
v 0.049497 -0.049497 8.000000
v 0.101116 -0.101116 0.000000
v 0.000000 0.000000 8.000000
v 0.064672 -0.026788 8.000000
v 0.132115 -0.054724 0.000000
v 0.000000 0.000000 8.000000
v 0.070000 0.000000 8.000000
v 0.143000 0.000000 0.000000
v 0.000000 0.000000 8.000000
v 0.064672 0.026788 8.000000
v 0.132115 0.054724 0.000000
v 0.000000 0.000000 8.000000
v 0.049497 0.049497 8.000000
v 0.101116 0.101116 0.000000
v 0.000000 0.000000 8.000000
v 0.026788 0.064672 8.000000
v 0.054724 0.132115 0.000000
v 0.000000 0.000000 8.000000
v 0.000000 0.070000 8.000000
v 0.000000 0.143000 0.000000
v 0.000000 0.000000 8.000000
v -0.026788 0.064672 8.000000
v -0.054724 0.132115 0.000000
v 0.000000 0.000000 8.000000
v -0.049497 0.049497 8.000000
v -0.101116 0.101116 0.000000
v 0.000000 0.000000 8.000000
v -0.064672 0.026788 8.000000
v -0.132115 0.054724 0.000000
v 0.000000 0.000000 8.000000
v -0.070000 0.000000 8.000000
v -0.143000 0.000000 0.000000
v 0.000000 0.000000 8.000000
v -0.064672 -0.026788 8.000000
v -0.132115 -0.054724 0.000000
v 0.000000 0.000000 8.000000
v -0.049497 -0.049497 8.000000
v -0.101116 -0.101116 0.000000
v 0.000000 0.000000 8.000000
v -0.026788 -0.064672 8.000000
v -0.054724 -0.132115 0.000000
vn -0.0000 -0.0000 1.0000
vn 0.2844 -0.6866 0.6691
vn 0.5255 -0.5255 0.6691
vn 0.6866 -0.2844 0.6691
vn 0.7432 -0.0000 0.6691
vn 0.6866 0.2844 0.6691
vn 0.5255 0.5255 0.6691
vn 0.2844 0.6866 0.6691
vn -0.0000 0.7432 0.6691
vn -0.2844 0.6866 0.6691
vn -0.5255 0.5255 0.6691
vn -0.6866 0.2844 0.6691
vn -0.7432 -0.0000 0.6691
vn -0.6866 -0.2844 0.6691
vn -0.5255 -0.5255 0.6691
vn -0.2844 -0.6866 0.6691
vn -0.0000 -0.7432 0.6691
vn -0.0000 -1.0000 0.0091
vn 0.3827 -0.9238 0.0091
vn 0.7071 -0.7071 0.0091
vn 0.9238 -0.3827 0.0091
vn 1.0000 -0.0000 0.0091
vn 0.9238 0.3827 0.0091
vn 0.7071 0.7071 0.0091
vn 0.3827 0.9238 0.0091
vn -0.0000 1.0000 0.0091
vn -0.7071 0.7071 0.0091
vn -0.9238 0.3827 0.0091
vn -1.0000 -0.0000 0.0091
vn -0.9238 -0.3827 0.0091
vn -0.7071 -0.7071 0.0091
vn -0.3827 -0.9238 0.0091
vn -0.3827 0.9238 0.0091
vt 0.676208 5.156374
vt 0.812500 5.156374
vt 0.875000 5.156374
vt 0.937500 5.156374
vt 1.000000 5.156374
vt 1.062500 5.156374
vt 1.125000 5.156374
vt 0.187500 5.156374
vt 0.250000 5.156374
vt 0.312500 5.156374
vt 0.375000 5.156374
vt 0.437501 5.156374
vt 0.500000 5.156374
vt 0.562500 5.156374
vt 0.625000 5.156374
vt 0.687500 5.156374
vt 0.750000 5.156374
vt 0.750000 -6.156374
vt 0.812500 -6.156374
vt 0.875001 -6.156374
vt 0.937501 -6.156374
vt 1.000001 -6.156374
vt 0.062500 -6.156374
vt 0.125000 5.156374
vt 0.062500 5.156374
vt 0.125000 -6.156374
vt 0.187500 -6.156374
vt 0.250000 -6.156374
vt 0.374999 -6.156374
vt 0.437499 -6.156374
vt 0.499999 -6.156374
vt 0.562500 -6.156374
vt 0.625000 -6.156374
vt 0.687500 -6.156374
vt 1.062500 -6.156374
vt 0.312500 -6.156374
s 1
usemtl Spannbeton.003
f 1/1/1 5/2/2 4/1/1
f 4/1/1 8/3/3 7/1/1
f 7/1/1 11/4/4 10/1/1
f 10/1/1 14/5/5 13/1/1
f 13/1/1 17/6/6 16/1/1
f 16/1/1 20/7/7 19/1/1
f 19/1/1 23/8/8 22/1/1
f 22/1/1 26/9/9 25/1/1
f 25/1/1 29/10/10 28/1/1
f 28/1/1 32/11/11 31/1/1
f 31/1/1 35/12/12 34/1/1
f 34/1/1 38/13/13 37/1/1
f 37/1/1 41/14/14 40/1/1
f 40/1/1 44/15/15 43/1/1
f 43/1/1 47/16/16 46/1/1
f 46/1/1 2/17/17 1/1/1
f 3/18/18 5/2/2 2/17/17
f 6/19/19 8/3/3 5/2/2
f 9/20/20 11/4/4 8/3/3
f 12/21/21 14/5/5 11/4/4
f 15/22/22 17/6/6 14/5/5
f 18/23/23 20/24/7 17/25/6
f 21/26/24 23/8/8 20/24/7
f 24/27/25 26/9/9 23/8/8
f 27/28/26 29/10/10 26/9/9
f 29/10/10 33/29/27 32/11/11
f 33/29/27 35/12/12 32/11/11
f 36/30/28 38/13/13 35/12/12
f 39/31/29 41/14/14 38/13/13
f 42/32/30 44/15/15 41/14/14
f 45/33/31 47/16/16 44/15/15
f 48/34/32 2/17/17 47/16/16
f 1/1/1 2/17/17 5/2/2
f 4/1/1 5/2/2 8/3/3
f 7/1/1 8/3/3 11/4/4
f 10/1/1 11/4/4 14/5/5
f 13/1/1 14/5/5 17/6/6
f 16/1/1 17/6/6 20/7/7
f 19/1/1 20/7/7 23/8/8
f 22/1/1 23/8/8 26/9/9
f 25/1/1 26/9/9 29/10/10
f 28/1/1 29/10/10 32/11/11
f 31/1/1 32/11/11 35/12/12
f 34/1/1 35/12/12 38/13/13
f 37/1/1 38/13/13 41/14/14
f 40/1/1 41/14/14 44/15/15
f 43/1/1 44/15/15 47/16/16
f 46/1/1 47/16/16 2/17/17
f 3/18/18 6/19/19 5/2/2
f 6/19/19 9/20/20 8/3/3
f 9/20/20 12/21/21 11/4/4
f 12/21/21 15/22/22 14/5/5
f 15/22/22 18/35/23 17/6/6
f 18/23/23 21/26/24 20/24/7
f 21/26/24 24/27/25 23/8/8
f 24/27/25 27/28/26 26/9/9
f 27/28/26 30/36/33 29/10/10
f 29/10/10 30/36/33 33/29/27
f 33/29/27 36/30/28 35/12/12
f 36/30/28 39/31/29 38/13/13
f 39/31/29 42/32/30 41/14/14
f 42/32/30 45/33/31 44/15/15
f 45/33/31 48/34/32 47/16/16
f 48/34/32 3/18/18 2/17/17
