# Blender v3.6.3 OBJ File: 'Große Glocke_6000.blend'
# www.blender.org
mtllib Große Glocke_6000.mtl
o große_Mastkugel
v 0.000000 -0.069291 6.029837
v 0.000000 -0.075000 6.000000
v 0.000000 -0.069291 5.970163
v 0.000000 -0.028701 5.927968
v -0.010983 -0.026517 6.072032
v -0.020295 -0.048996 6.055131
v -0.026517 -0.064017 6.029837
v -0.028701 -0.069291 6.000000
v -0.026517 -0.064017 5.970163
v -0.020295 -0.048996 5.944869
v -0.010983 -0.026517 5.927968
v -0.020295 -0.020295 6.072032
v -0.037500 -0.037500 6.055131
v -0.048996 -0.048996 6.029837
v -0.053033 -0.053033 6.000000
v -0.048996 -0.048996 5.970163
v -0.037500 -0.037500 5.944869
v -0.020295 -0.020295 5.927968
v -0.026517 -0.010983 6.072032
v -0.048996 -0.020295 6.055131
v -0.064017 -0.026516 6.029837
v -0.069291 -0.028701 6.000000
v -0.064017 -0.026516 5.970163
v -0.048996 -0.020295 5.944869
v -0.026517 -0.010983 5.927968
v -0.028701 0.000000 6.072032
v -0.053033 0.000000 6.055131
v -0.069291 0.000000 6.029837
v -0.075000 0.000000 6.000000
v -0.069291 0.000000 5.970163
v -0.053033 0.000000 5.944869
v -0.028701 0.000000 5.927968
v -0.026517 0.010984 6.072032
v -0.048996 0.020295 6.055131
v -0.064016 0.026517 6.029837
v -0.069291 0.028701 6.000000
v -0.064016 0.026517 5.970163
v -0.048996 0.020295 5.944869
v -0.026517 0.010984 5.927968
v -0.020295 0.020295 6.072032
v -0.037500 0.037500 6.055131
v -0.048996 0.048996 6.029837
v -0.053033 0.053033 6.000000
v -0.048996 0.048996 5.970163
v -0.037500 0.037500 5.944869
v -0.020295 0.020295 5.927968
v -0.010983 0.026517 6.072032
v -0.020295 0.048996 6.055131
v -0.026516 0.064016 6.029837
v -0.028701 0.069291 6.000000
v -0.026516 0.064016 5.970163
v -0.020295 0.048996 5.944869
v -0.010983 0.026517 5.927968
v 0.000000 0.028701 6.072032
v 0.000000 0.053033 6.055131
v 0.000000 0.069291 6.029837
v 0.000000 0.075000 6.000000
v 0.000000 0.069291 5.970163
v 0.000000 0.053033 5.944869
v 0.000000 0.028701 5.927968
v 0.000000 0.000000 6.077968
v 0.010984 0.026516 6.072032
v 0.020295 0.048996 6.055131
v 0.026517 0.064016 6.029837
v 0.028701 0.069291 6.000000
v 0.026517 0.064016 5.970163
v 0.020295 0.048996 5.944869
v 0.010984 0.026516 5.927968
v 0.020295 0.020295 6.072032
v 0.037500 0.037500 6.055131
v 0.048996 0.048996 6.029837
v 0.053033 0.053033 6.000000
v 0.048996 0.048996 5.970163
v 0.037500 0.037500 5.944869
v 0.020295 0.020295 5.927968
v 0.026517 0.010983 6.072032
v 0.048996 0.020295 6.055131
v 0.064016 0.026516 6.029837
v 0.069291 0.028701 6.000000
v 0.064016 0.026516 5.970163
v 0.048996 0.020295 5.944869
v 0.026517 0.010983 5.927968
v 0.028701 0.000000 6.072032
v 0.053033 0.000000 6.055131
v 0.069291 0.000000 6.029837
v 0.075000 0.000000 6.000000
v 0.069291 0.000000 5.970163
v 0.053033 0.000000 5.944869
v 0.028701 0.000000 5.927968
v 0.026516 -0.010984 6.072032
v 0.048996 -0.020295 6.055131
v 0.064016 -0.026517 6.029837
v 0.069291 -0.028701 6.000000
v 0.064016 -0.026517 5.970163
v 0.048996 -0.020295 5.944869
v 0.026516 -0.010984 5.927968
v 0.020295 -0.020295 6.072032
v 0.037500 -0.037500 6.055131
v 0.048996 -0.048996 6.029837
v 0.053033 -0.053033 6.000000
v 0.048996 -0.048996 5.970163
v 0.037500 -0.037500 5.944869
v 0.020295 -0.020295 5.927968
v 0.010983 -0.026517 6.072032
v 0.020295 -0.048996 6.055131
v 0.026516 -0.064016 6.029837
v 0.028701 -0.069291 6.000000
v 0.026516 -0.064016 5.970163
v 0.020295 -0.048996 5.944869
v 0.010983 -0.026517 5.927968
v 0.000000 -0.028701 6.072032
v 0.000000 -0.053033 6.055131
v 0.000000 -0.053033 5.944869
vt 1.000000 0.457096
vt 0.937500 0.337266
vt 1.000000 0.337266
vt 1.000000 0.716366
vt 0.937500 0.583180
vt 1.000000 0.583180
vt 1.000000 0.856138
vt 1.060827 1.000000
vt 0.937500 0.856138
vt 1.000000 0.222219
vt 0.937500 0.222219
vt 0.937500 0.457096
vt 0.937500 0.716366
vt 0.937500 0.110331
vt 1.000000 0.110331
vt 0.875000 0.222219
vt 0.875000 0.457096
vt 0.875000 0.716366
vt 0.875000 0.110331
vt 0.875000 0.337266
vt 0.875000 0.583180
vt 0.875000 0.856138
vt 0.812500 0.716366
vt 0.812500 0.110331
vt 0.812500 0.457096
vt 0.812500 0.337266
vt 0.812500 0.583180
vt 0.812500 0.856138
vt 0.812500 0.222219
vt 0.750000 0.110331
vt 0.750000 0.457096
vt 0.750000 0.337266
vt 0.750000 0.583180
vt 0.750000 0.856138
vt 0.750000 0.222219
vt 0.750000 0.716366
vt 0.687500 0.856138
vt 0.687500 0.222219
vt 0.687500 0.457096
vt 0.687500 0.716366
vt 0.687500 0.110331
vt 0.687500 0.337266
vt 0.687500 0.583180
vt 0.625000 0.222219
vt 0.625000 0.457097
vt 0.625000 0.716366
vt 0.625000 0.110331
vt 0.625000 0.337266
vt 0.625000 0.583180
vt 0.625000 0.856138
vt 0.562500 0.222219
vt 0.562500 0.110331
vt 0.562500 0.457097
vt 0.562500 0.337266
vt 0.562500 0.716366
vt 0.562500 0.583180
vt 0.562500 0.856138
vt 0.500000 0.337266
vt 0.500000 0.583180
vt 0.500000 0.856138
vt 0.500000 0.222219
vt 0.500000 0.457097
vt 0.500000 0.716366
vt 0.500000 0.110331
vt 0.437500 0.222219
vt 0.437500 0.457097
vt 0.437500 0.716366
vt 0.437500 0.110331
vt 0.437500 0.337266
vt 0.437500 0.583180
vt 0.060827 1.000000
vt 0.437500 0.856138
vt 0.375000 0.457097
vt 0.375000 0.856138
vt 0.375000 0.716366
vt 0.375000 0.110331
vt 0.375000 0.337266
vt 0.375000 0.583180
vt 0.375000 0.222219
vt 0.312500 0.110331
vt 0.312500 0.457097
vt 0.312500 0.337266
vt 0.312500 0.583180
vt 0.312500 0.856138
vt 0.312500 0.222219
vt 0.312500 0.716366
vt 0.250000 0.716366
vt 0.250000 0.583180
vt 0.250000 0.856138
vt 0.250000 0.222219
vt 0.250000 0.457097
vt 0.250000 0.110331
vt 0.250000 0.337266
vt 0.187500 0.222219
vt 0.187500 0.457097
vt 0.187500 0.856138
vt 0.187500 0.716366
vt 0.187500 0.110331
vt 0.187500 0.337266
vt 0.187500 0.583180
vt 0.125000 0.716366
vt 0.125000 0.110331
vt 0.125000 0.457097
vt 0.125000 0.337266
vt 0.125000 0.583180
vt 0.125000 0.856138
vt 0.125000 0.222219
vt 0.062500 0.110331
vt 0.062500 0.337266
vt 0.062500 0.583180
vt 0.062500 0.856138
vt 0.062500 0.222219
vt 0.062500 0.457096
vt 0.062500 0.716366
vt 1.062500 0.856138
vt 1.062500 0.337266
vt 1.062500 0.222219
vt 0.000000 0.583180
vt 0.000000 0.457096
vt 1.062500 0.716366
vt 1.062500 0.110331
vt 0.000000 0.337266
vt 1.062500 0.583180
vn 0.0000 -1.0000 0.0000
vn -0.3567 -0.8612 -0.3620
vn 0.0000 -0.9322 -0.3621
vn 0.0000 -0.7321 0.6812
vn -0.3567 -0.8612 0.3621
vn 0.0000 -0.9322 0.3621
vn 0.0000 -0.4162 0.9093
vn 0.0000 0.0000 1.0000
vn -0.1593 -0.3845 0.9093
vn -0.0000 -0.7322 -0.6811
vn -0.2802 -0.6765 -0.6811
vn -0.3827 -0.9239 -0.0000
vn -0.2802 -0.6764 0.6812
vn -0.2183 -0.5271 -0.8213
vn -0.0000 -0.5705 -0.8213
vn -0.5177 -0.5177 -0.6812
vn -0.7071 -0.7071 -0.0000
vn -0.5177 -0.5177 0.6812
vn -0.4034 -0.4034 -0.8213
vn -0.6591 -0.6591 -0.3621
vn -0.6591 -0.6591 0.3621
vn -0.2944 -0.2944 0.9092
vn -0.6765 -0.2802 0.6811
vn -0.5271 -0.2183 -0.8213
vn -0.9239 -0.3827 -0.0000
vn -0.8612 -0.3567 -0.3621
vn -0.8612 -0.3567 0.3621
vn -0.3846 -0.1593 0.9092
vn -0.6764 -0.2802 -0.6812
vn -0.5705 -0.0000 -0.8213
vn -1.0000 0.0000 -0.0000
vn -0.9322 -0.0000 -0.3620
vn -0.9321 0.0000 0.3621
vn -0.4162 0.0000 0.9093
vn -0.7322 0.0000 -0.6811
vn -0.7322 0.0000 0.6811
vn -0.3846 0.1593 0.9092
vn -0.6765 0.2802 -0.6811
vn -0.9239 0.3827 -0.0000
vn -0.6765 0.2802 0.6811
vn -0.5271 0.2183 -0.8213
vn -0.8612 0.3567 -0.3621
vn -0.8612 0.3567 0.3621
vn -0.5177 0.5177 -0.6812
vn -0.7071 0.7071 -0.0000
vn -0.5177 0.5177 0.6812
vn -0.4034 0.4034 -0.8213
vn -0.6591 0.6591 -0.3620
vn -0.6591 0.6591 0.3620
vn -0.2944 0.2944 0.9092
vn -0.2802 0.6765 -0.6811
vn -0.2183 0.5271 -0.8213
vn -0.3827 0.9239 0.0000
vn -0.3567 0.8612 -0.3621
vn -0.2802 0.6765 0.6811
vn -0.3567 0.8612 0.3621
vn -0.1593 0.3845 0.9093
vn 0.0000 0.9322 -0.3621
vn -0.0000 0.9322 0.3621
vn 0.0000 0.4161 0.9093
vn 0.0000 0.7322 -0.6811
vn -0.0000 1.0000 0.0000
vn 0.0000 0.7322 0.6811
vn 0.0000 0.5705 -0.8213
vn 0.2802 0.6765 -0.6811
vn 0.3827 0.9239 -0.0000
vn 0.2802 0.6765 0.6811
vn 0.2183 0.5271 -0.8213
vn 0.3567 0.8612 -0.3620
vn 0.3567 0.8612 0.3621
vn 0.1593 0.3845 0.9093
vn 0.7071 0.7071 -0.0000
vn 0.2944 0.2944 0.9092
vn 0.5177 0.5177 0.6812
vn 0.4034 0.4034 -0.8213
vn 0.6592 0.6592 -0.3620
vn 0.6591 0.6591 0.3620
vn 0.5177 0.5177 -0.6812
vn 0.5271 0.2183 -0.8213
vn 0.9239 0.3827 -0.0000
vn 0.8612 0.3567 -0.3621
vn 0.8612 0.3567 0.3621
vn 0.3846 0.1593 0.9092
vn 0.6765 0.2802 -0.6811
vn 0.6764 0.2802 0.6811
vn 0.7322 -0.0000 0.6811
vn 0.9322 -0.0000 0.3620
vn 0.4163 -0.0000 0.9092
vn 0.7322 0.0000 -0.6811
vn 1.0000 0.0000 -0.0000
vn 0.5705 -0.0000 -0.8213
vn 0.9322 -0.0000 -0.3620
vn 0.6764 -0.2802 -0.6811
vn 0.9239 -0.3827 -0.0000
vn 0.3845 -0.1593 0.9093
vn 0.6765 -0.2802 0.6811
vn 0.5271 -0.2183 -0.8213
vn 0.8612 -0.3567 -0.3621
vn 0.8612 -0.3567 0.3621
vn 0.5177 -0.5177 0.6812
vn 0.4034 -0.4034 -0.8213
vn 0.7071 -0.7071 -0.0000
vn 0.6591 -0.6591 -0.3621
vn 0.6592 -0.6592 0.3620
vn 0.2944 -0.2944 0.9092
vn 0.5177 -0.5177 -0.6812
vn 0.2183 -0.5271 -0.8213
vn 0.3567 -0.8612 -0.3621
vn 0.3567 -0.8612 0.3621
vn 0.1593 -0.3845 0.9093
vn 0.2802 -0.6765 -0.6811
vn 0.3827 -0.9239 -0.0000
vn 0.2802 -0.6764 0.6811
usemtl dunkelgrau.015
s 1
f 2/1/1 9/2/2 3/3/3
f 112/4/4 7/5/5 1/6/6
f 111/7/7 61/8/8 5/9/9
f 113/10/10 9/2/2 10/11/11
f 1/6/6 8/12/12 2/1/1
f 112/4/4 5/9/9 6/13/13
f 113/10/10 11/14/14 4/15/15
f 9/2/2 17/16/16 10/11/11
f 7/5/5 15/17/17 8/12/12
f 5/9/9 13/18/18 6/13/13
f 11/14/14 17/16/16 18/19/19
f 8/12/12 16/20/20 9/2/2
f 6/13/13 14/21/21 7/5/5
f 5/9/9 61/8/8 12/22/22
f 12/22/22 20/23/23 13/18/18
f 17/16/16 25/24/24 18/19/19
f 16/20/20 22/25/25 23/26/26
f 13/18/18 21/27/27 14/21/21
f 12/22/22 61/8/8 19/28/28
f 17/16/16 23/26/26 24/29/29
f 14/21/21 22/25/25 15/17/17
f 24/29/29 32/30/30 25/24/24
f 23/26/26 29/31/31 30/32/32
f 20/23/23 28/33/33 21/27/27
f 19/28/28 61/8/8 26/34/34
f 23/26/26 31/35/35 24/29/29
f 21/27/27 29/31/31 22/25/25
f 19/28/28 27/36/36 20/23/23
f 26/34/34 61/8/8 33/37/37
f 30/32/32 38/38/38 31/35/35
f 28/33/33 36/39/39 29/31/31
f 26/34/34 34/40/40 27/36/36
f 32/30/30 38/38/38 39/41/41
f 29/31/31 37/42/42 30/32/32
f 28/33/33 34/40/40 35/43/43
f 37/42/42 45/44/44 38/38/38
f 35/43/43 43/45/45 36/39/39
f 33/37/37 41/46/46 34/40/40
f 38/38/38 46/47/47 39/41/41
f 36/39/39 44/48/48 37/42/42
f 34/40/40 42/49/49 35/43/43
f 33/37/37 61/8/8 40/50/50
f 46/47/47 52/51/51 53/52/52
f 44/48/48 50/53/53 51/54/54
f 42/49/49 48/55/55 49/56/56
f 40/50/50 61/8/8 47/57/57
f 45/44/44 51/54/54 52/51/51
f 42/49/49 50/53/53 43/45/45
f 40/50/50 48/55/55 41/46/46
f 50/53/53 58/58/58 51/54/54
f 48/55/55 56/59/59 49/56/56
f 47/57/57 61/8/8 54/60/60
f 51/54/54 59/61/61 52/51/51
f 49/56/56 57/62/62 50/53/53
f 47/57/57 55/63/63 48/55/55
f 52/51/51 60/64/64 53/52/52
f 58/58/58 67/65/65 59/61/61
f 56/59/59 65/66/66 57/62/62
f 54/60/60 63/67/67 55/63/63
f 59/61/61 68/68/68 60/64/64
f 57/62/62 66/69/69 58/58/58
f 56/59/59 63/67/67 64/70/70
f 54/60/60 61/71/8 62/72/71
f 64/70/70 72/73/72 65/66/66
f 63/67/67 69/74/73 70/75/74
f 67/65/65 75/76/75 68/68/68
f 65/66/66 73/77/76 66/69/69
f 64/70/70 70/75/74 71/78/77
f 62/72/71 61/71/8 69/74/73
f 66/69/69 74/79/78 67/65/65
f 74/79/78 82/80/79 75/76/75
f 73/77/76 79/81/80 80/82/81
f 70/75/74 78/83/82 71/78/77
f 69/74/73 61/71/8 76/84/83
f 73/77/76 81/85/84 74/79/78
f 71/78/77 79/81/80 72/73/72
f 69/74/73 77/86/85 70/75/74
f 78/83/82 84/87/86 85/88/87
f 76/84/83 61/71/8 83/89/88
f 80/82/81 88/90/89 81/85/84
f 78/83/82 86/91/90 79/81/80
f 76/84/83 84/87/86 77/86/85
f 81/85/84 89/92/91 82/80/79
f 80/82/81 86/91/90 87/93/92
f 87/93/92 95/94/93 88/90/89
f 85/88/87 93/95/94 86/91/90
f 84/87/86 90/96/95 91/97/96
f 89/92/91 95/94/93 96/98/97
f 86/91/90 94/99/98 87/93/92
f 84/87/86 92/100/99 85/88/87
f 83/89/88 61/71/8 90/96/95
f 90/96/95 98/101/100 91/97/96
f 95/94/93 103/102/101 96/98/97
f 94/99/98 100/103/102 101/104/103
f 91/97/96 99/105/104 92/100/99
f 90/96/95 61/71/8 97/106/105
f 94/99/98 102/107/106 95/94/93
f 92/100/99 100/103/102 93/95/94
f 102/107/106 110/108/107 103/102/101
f 100/103/102 108/109/108 101/104/103
f 98/101/100 106/110/109 99/105/104
f 97/106/105 61/71/8 104/111/110
f 102/107/106 108/109/108 109/112/111
f 99/105/104 107/113/112 100/103/102
f 98/101/100 104/111/110 105/114/113
f 104/115/110 61/8/8 111/7/7
f 108/116/108 113/10/10 109/117/111
f 107/113/112 1/118/6 2/119/1
f 104/115/110 112/4/4 105/120/113
f 109/117/111 4/15/15 110/121/107
f 107/113/112 3/122/3 108/109/108
f 105/120/113 1/6/6 106/123/109
f 2/1/1 8/12/12 9/2/2
f 112/4/4 6/13/13 7/5/5
f 113/10/10 3/3/3 9/2/2
f 1/6/6 7/5/5 8/12/12
f 112/4/4 111/7/7 5/9/9
f 113/10/10 10/11/11 11/14/14
f 9/2/2 16/20/20 17/16/16
f 7/5/5 14/21/21 15/17/17
f 5/9/9 12/22/22 13/18/18
f 11/14/14 10/11/11 17/16/16
f 8/12/12 15/17/17 16/20/20
f 6/13/13 13/18/18 14/21/21
f 12/22/22 19/28/28 20/23/23
f 17/16/16 24/29/29 25/24/24
f 16/20/20 15/17/17 22/25/25
f 13/18/18 20/23/23 21/27/27
f 17/16/16 16/20/20 23/26/26
f 14/21/21 21/27/27 22/25/25
f 24/29/29 31/35/35 32/30/30
f 23/26/26 22/25/25 29/31/31
f 20/23/23 27/36/36 28/33/33
f 23/26/26 30/32/32 31/35/35
f 21/27/27 28/33/33 29/31/31
f 19/28/28 26/34/34 27/36/36
f 30/32/32 37/42/42 38/38/38
f 28/33/33 35/43/43 36/39/39
f 26/34/34 33/37/37 34/40/40
f 32/30/30 31/35/35 38/38/38
f 29/31/31 36/39/39 37/42/42
f 28/33/33 27/36/36 34/40/40
f 37/42/42 44/48/48 45/44/44
f 35/43/43 42/49/49 43/45/45
f 33/37/37 40/50/50 41/46/46
f 38/38/38 45/44/44 46/47/47
f 36/39/39 43/45/45 44/48/48
f 34/40/40 41/46/46 42/49/49
f 46/47/47 45/44/44 52/51/51
f 44/48/48 43/45/45 50/53/53
f 42/49/49 41/46/46 48/55/55
f 45/44/44 44/48/48 51/54/54
f 42/49/49 49/56/56 50/53/53
f 40/50/50 47/57/57 48/55/55
f 50/53/53 57/62/62 58/58/58
f 48/55/55 55/63/63 56/59/59
f 51/54/54 58/58/58 59/61/61
f 49/56/56 56/59/59 57/62/62
f 47/57/57 54/60/60 55/63/63
f 52/51/51 59/61/61 60/64/64
f 58/58/58 66/69/69 67/65/65
f 56/59/59 64/70/70 65/66/66
f 54/60/60 62/72/71 63/67/67
f 59/61/61 67/65/65 68/68/68
f 57/62/62 65/66/66 66/69/69
f 56/59/59 55/63/63 63/67/67
f 64/70/70 71/78/77 72/73/72
f 63/67/67 62/72/71 69/74/73
f 67/65/65 74/79/78 75/76/75
f 65/66/66 72/73/72 73/77/76
f 64/70/70 63/67/67 70/75/74
f 66/69/69 73/77/76 74/79/78
f 74/79/78 81/85/84 82/80/79
f 73/77/76 72/73/72 79/81/80
f 70/75/74 77/86/85 78/83/82
f 73/77/76 80/82/81 81/85/84
f 71/78/77 78/83/82 79/81/80
f 69/74/73 76/84/83 77/86/85
f 78/83/82 77/86/85 84/87/86
f 80/82/81 87/93/92 88/90/89
f 78/83/82 85/88/87 86/91/90
f 76/84/83 83/89/88 84/87/86
f 81/85/84 88/90/89 89/92/91
f 80/82/81 79/81/80 86/91/90
f 87/93/92 94/99/98 95/94/93
f 85/88/87 92/100/99 93/95/94
f 84/87/86 83/89/88 90/96/95
f 89/92/91 88/90/89 95/94/93
f 86/91/90 93/95/94 94/99/98
f 84/87/86 91/97/96 92/100/99
f 90/96/95 97/106/105 98/101/100
f 95/94/93 102/107/106 103/102/101
f 94/99/98 93/95/94 100/103/102
f 91/97/96 98/101/100 99/105/104
f 94/99/98 101/104/103 102/107/106
f 92/100/99 99/105/104 100/103/102
f 102/107/106 109/112/111 110/108/107
f 100/103/102 107/113/112 108/109/108
f 98/101/100 105/114/113 106/110/109
f 102/107/106 101/104/103 108/109/108
f 99/105/104 106/110/109 107/113/112
f 98/101/100 97/106/105 104/111/110
f 108/116/108 3/3/3 113/10/10
f 107/113/112 106/110/109 1/118/6
f 104/115/110 111/7/7 112/4/4
f 109/117/111 113/10/10 4/15/15
f 107/113/112 2/119/1 3/122/3
f 105/120/113 112/4/4 1/6/6
o Mast_6,0m_Metalogalva
v 0.000000 -0.038000 6.000000
v 0.000000 -0.068000 0.000000
v 0.014542 -0.035107 6.000000
v 0.026022 -0.062824 0.000000
v 0.026870 -0.026870 6.000000
v 0.048083 -0.048083 0.000000
v 0.035107 -0.014542 6.000000
v 0.062824 -0.026022 0.000000
v 0.038000 0.000000 6.000000
v 0.068000 0.000000 0.000000
v 0.035107 0.014542 6.000000
v 0.062824 0.026022 0.000000
v 0.026870 0.026870 6.000000
v 0.048083 0.048083 0.000000
v 0.014542 0.035107 6.000000
v 0.026022 0.062824 0.000000
v 0.000000 0.038000 6.000000
v 0.000000 0.068000 0.000000
v -0.014542 0.035107 6.000000
v -0.026022 0.062824 0.000000
v -0.026870 0.026870 6.000000
v -0.048083 0.048083 0.000000
v -0.035107 0.014542 6.000000
v -0.062824 0.026022 0.000000
v -0.038000 0.000000 6.000000
v -0.068000 0.000000 0.000000
v -0.035107 -0.014542 6.000000
v -0.062824 -0.026022 0.000000
v -0.026870 -0.026870 6.000000
v -0.048083 -0.048083 0.000000
v -0.014542 -0.035107 6.000000
v -0.026022 -0.062824 0.000000
vt 0.000000 0.000000
vt 0.062500 6.000000
vt 0.000000 6.000000
vt 0.062500 0.000000
vt 0.125000 6.000000
vt 0.125000 0.000000
vt 0.187500 6.000000
vt 0.187500 0.000000
vt 0.250000 6.000000
vt 0.250000 0.000000
vt 0.312500 6.000000
vt 0.312500 0.000000
vt 0.375000 6.000000
vt 0.375000 0.000000
vt 0.437500 6.000000
vt 0.437500 0.000000
vt 0.500000 6.000000
vt 0.500000 0.000000
vt 0.562500 6.000000
vt 0.562500 0.000000
vt 0.625000 6.000000
vt 0.625000 0.000000
vt 0.687500 6.000000
vt 0.687500 0.000000
vt 0.750000 6.000000
vt 0.750000 0.000000
vt 0.812500 6.000000
vt 0.812500 0.000000
vt 0.875000 6.000000
vt 0.875000 0.000000
vt 0.937500 6.000000
vt 0.937500 0.000000
vt 1.000000 6.000000
vt 1.000000 0.000000
vn -0.0000 -1.0000 0.0050
vn 0.3827 -0.9239 0.0050
vn 0.7071 -0.7071 0.0050
vn 0.9239 -0.3827 0.0050
vn 1.0000 0.0000 0.0050
vn 0.9239 0.3827 0.0050
vn 0.7071 0.7071 0.0050
vn 0.3827 0.9239 0.0050
vn -0.0000 1.0000 0.0050
vn -0.3827 0.9239 0.0050
vn -0.7071 0.7071 0.0050
vn -0.9239 0.3827 0.0050
vn -1.0000 -0.0000 0.0050
vn -0.9239 -0.3827 0.0050
vn -0.7071 -0.7071 0.0050
vn -0.3827 -0.9239 0.0050
usemtl dunkelgrau.016
s 1
f 115/124/114 116/125/115 114/126/114
f 117/127/115 118/128/116 116/125/115
f 119/129/116 120/130/117 118/128/116
f 121/131/117 122/132/118 120/130/117
f 123/133/118 124/134/119 122/132/118
f 125/135/119 126/136/120 124/134/119
f 127/137/120 128/138/121 126/136/120
f 129/139/121 130/140/122 128/138/121
f 131/141/122 132/142/123 130/140/122
f 133/143/123 134/144/124 132/142/123
f 135/145/124 136/146/125 134/144/124
f 137/147/125 138/148/126 136/146/125
f 139/149/126 140/150/127 138/148/126
f 141/151/127 142/152/128 140/150/127
f 143/153/128 144/154/129 142/152/128
f 145/155/129 114/156/114 144/154/129
f 115/124/114 117/127/115 116/125/115
f 117/127/115 119/129/116 118/128/116
f 119/129/116 121/131/117 120/130/117
f 121/131/117 123/133/118 122/132/118
f 123/133/118 125/135/119 124/134/119
f 125/135/119 127/137/120 126/136/120
f 127/137/120 129/139/121 128/138/121
f 129/139/121 131/141/122 130/140/122
f 131/141/122 133/143/123 132/142/123
f 133/143/123 135/145/124 134/144/124
f 135/145/124 137/147/125 136/146/125
f 137/147/125 139/149/126 138/148/126
f 139/149/126 141/151/127 140/150/127
f 141/151/127 143/153/128 142/152/128
f 143/153/128 145/155/129 144/154/129
f 145/155/129 115/157/114 114/156/114
