# Blender v3.6.4 OBJ File: 'Histo_4500.blend'
# www.blender.org
mtllib Histo_4500.mtl
o Mast.001_BezierCurve.002
v 0.000000 -0.057000 -0.001041
v 0.000000 -0.057000 1.098588
v 0.000000 -0.054074 1.127233
v 0.000000 -0.047993 1.148154
v 0.000000 -0.038000 1.167596
v 0.000000 -0.038000 3.767760
v 0.000000 -0.034497 3.775740
v 0.000000 -0.027248 3.782693
v 0.000000 -0.020000 3.789646
v 0.021813 -0.052661 -0.001041
v 0.021813 -0.052661 1.098588
v 0.020693 -0.049958 1.127233
v 0.018366 -0.044340 1.148154
v 0.014542 -0.035107 1.167596
v 0.014542 -0.035107 3.567760
v 0.013201 -0.031871 3.575740
v 0.010427 -0.025174 3.582693
v 0.007654 -0.018478 3.589645
v 0.040305 -0.040305 -0.001041
v 0.040305 -0.040305 1.098588
v 0.038236 -0.038236 1.127233
v 0.033936 -0.033936 1.148154
v 0.026870 -0.026870 1.167596
v 0.026870 -0.026870 3.567760
v 0.024393 -0.024393 3.575740
v 0.019267 -0.019267 3.582693
v 0.014142 -0.014142 3.589645
v 0.052661 -0.021813 -0.001041
v 0.052661 -0.021813 1.098588
v 0.049958 -0.020693 1.127233
v 0.044340 -0.018366 1.148154
v 0.035107 -0.014542 1.167596
v 0.035107 -0.014542 3.567760
v 0.031871 -0.013201 3.575740
v 0.025174 -0.010427 3.582693
v 0.018478 -0.007654 3.589645
v 0.057000 0.000000 -0.001041
v 0.057000 0.000000 1.098588
v 0.054074 0.000000 1.127233
v 0.047993 0.000000 1.148154
v 0.038000 0.000000 1.167596
v 0.038000 0.000000 3.567760
v 0.034497 0.000000 3.575740
v 0.027248 0.000000 3.582693
v 0.020000 0.000000 3.589645
v 0.052661 0.021813 -0.001041
v 0.052661 0.021813 1.098588
v 0.049958 0.020693 1.127233
v 0.044340 0.018366 1.148154
v 0.035107 0.014542 1.167596
v 0.035107 0.014542 3.567760
v 0.031871 0.013201 3.575740
v 0.025174 0.010427 3.582693
v 0.018478 0.007654 3.589645
v 0.040305 0.040305 -0.001041
v 0.040305 0.040305 1.098588
v 0.038236 0.038236 1.127233
v 0.033936 0.033936 1.148154
v 0.026870 0.026870 1.167596
v 0.026870 0.026870 3.567760
v 0.024393 0.024393 3.575740
v 0.019267 0.019267 3.582693
v 0.014142 0.014142 3.589645
v 0.021813 0.052661 -0.001041
v 0.021813 0.052661 1.098588
v 0.020693 0.049958 1.127233
v 0.018366 0.044340 1.148154
v 0.014542 0.035107 1.167596
v 0.014542 0.035107 3.567760
v 0.013201 0.031871 3.575740
v 0.010427 0.025174 3.582693
v 0.007654 0.018478 3.589645
v -0.000000 0.057000 -0.001041
v -0.000000 0.057000 1.098588
v -0.000000 0.054074 1.127233
v -0.000000 0.047993 1.148154
v -0.000000 0.038000 1.167596
v -0.000000 0.038000 3.767760
v -0.000000 0.034497 3.775740
v -0.000000 0.027248 3.782693
v -0.000000 0.020000 3.789646
v -0.021813 0.052661 -0.001041
v -0.021813 0.052661 1.098588
v -0.020693 0.049958 1.127233
v -0.018366 0.044340 1.148154
v -0.014542 0.035107 1.167596
v -0.014542 0.035107 3.767760
v -0.013201 0.031871 3.775740
v -0.010427 0.025174 3.782693
v -0.007654 0.018478 3.789646
v -0.040305 0.040305 -0.001041
v -0.040305 0.040305 1.098588
v -0.038236 0.038236 1.127233
v -0.033936 0.033936 1.148154
v -0.026870 0.026870 1.167596
v -0.026870 0.026870 3.767760
v -0.024393 0.024393 3.775740
v -0.019267 0.019267 3.782693
v -0.014142 0.014142 3.789646
v -0.052661 0.021813 -0.001041
v -0.052661 0.021813 1.098588
v -0.049958 0.020693 1.127233
v -0.044340 0.018366 1.148154
v -0.035107 0.014542 1.167596
v -0.035107 0.014542 3.767760
v -0.031871 0.013201 3.775740
v -0.025174 0.010427 3.782693
v -0.018478 0.007654 3.789646
v -0.057000 -0.000000 -0.001041
v -0.057000 -0.000000 1.098588
v -0.054074 -0.000000 1.127233
v -0.047993 -0.000000 1.148154
v -0.038000 -0.000000 1.167596
v -0.038000 -0.000000 3.767760
v -0.034497 -0.000000 3.775740
v -0.027248 -0.000000 3.782693
v -0.020000 -0.000000 3.789646
v -0.052661 -0.021813 -0.001041
v -0.052661 -0.021813 1.098588
v -0.049958 -0.020693 1.127233
v -0.044340 -0.018366 1.148154
v -0.035107 -0.014542 1.167596
v -0.035107 -0.014542 3.767760
v -0.031871 -0.013201 3.775740
v -0.025174 -0.010427 3.782693
v -0.018478 -0.007654 3.789646
v -0.040305 -0.040305 -0.001041
v -0.040305 -0.040305 1.098588
v -0.038236 -0.038236 1.127233
v -0.033936 -0.033936 1.148154
v -0.026870 -0.026870 1.167596
v -0.026870 -0.026870 3.767760
v -0.024393 -0.024393 3.775740
v -0.019267 -0.019267 3.782693
v -0.014142 -0.014142 3.789646
v -0.021813 -0.052661 -0.001041
v -0.021813 -0.052661 1.098588
v -0.020693 -0.049958 1.127233
v -0.018366 -0.044340 1.148154
v -0.014542 -0.035107 1.167596
v -0.014542 -0.035107 3.767760
v -0.013201 -0.031871 3.775740
v -0.010427 -0.025174 3.782693
v -0.007654 -0.018478 3.789646
vt 0.000000 -3.893917
vt 0.000000 -4.993545
vt 0.062500 -4.993545
vt 0.062500 -3.893917
vt 0.125000 -4.993545
vt 0.125000 -3.893917
vt 0.187500 -4.993545
vt 0.187500 -3.893917
vt 0.250000 -4.993545
vt 0.250000 -3.893917
vt 0.312500 -4.993545
vt 0.312500 -3.893917
vt 0.375000 -4.993545
vt 0.375000 -3.893917
vt 0.437500 -4.993545
vt 0.437500 -3.893917
vt 0.500000 -4.993545
vt 0.500000 -3.893917
vt 0.562500 -4.993545
vt 0.562500 -3.893917
vt 0.625000 -4.993545
vt 0.625000 -3.893917
vt 0.687500 -4.993545
vt 0.687500 -3.893917
vt 0.750000 -4.993545
vt 0.750000 -3.893917
vt 0.812500 -4.993545
vt 0.812500 -3.893917
vt 0.875000 -4.993545
vt 0.875000 -3.893917
vt 0.937500 -4.993545
vt 0.937500 -3.893917
vt 1.000000 -4.993545
vt 0.000000 -3.865272
vt 0.062500 -3.865272
vt 0.125000 -3.865272
vt 0.250000 -3.865272
vt 0.312500 -3.865272
vt 0.375000 -3.865272
vt 0.437500 -3.865272
vt 0.500000 -3.865272
vt 0.625000 -3.865272
vt 0.687500 -3.865272
vt 0.750000 -3.865272
vt 0.875000 -3.865272
vt 0.937500 -3.865272
vt 1.000000 -3.893917
vt 0.000000 -3.844351
vt 0.062500 -3.844351
vt 0.187500 -3.865272
vt 0.187500 -3.844351
vt 0.250000 -3.844351
vt 0.312500 -3.844351
vt 0.437500 -3.844351
vt 0.500000 -3.844351
vt 0.562500 -3.865272
vt 0.562500 -3.844351
vt 0.625000 -3.844351
vt 0.687500 -3.844351
vt 0.812500 -3.865272
vt 0.812500 -3.844351
vt 0.875000 -3.844351
vt 0.937500 -3.844351
vt 1.000000 -3.865272
vt 0.000000 -3.824908
vt 0.062500 -3.824908
vt 0.125000 -3.844351
vt 0.125000 -3.824908
vt 0.250000 -3.824908
vt 0.312500 -3.824908
vt 0.375000 -3.844351
vt 0.375000 -3.824908
vt 0.437500 -3.824908
vt 0.500000 -3.824908
vt 0.562500 -3.824908
vt 0.687500 -3.824908
vt 0.750000 -3.844351
vt 0.750000 -3.824908
vt 0.812500 -3.824908
vt 0.875000 -3.824908
vt 1.000000 -3.844351
vt 1.000000 -3.824908
vt 0.000000 -0.424742
vt 0.062500 -0.424742
vt 0.125000 -0.424742
vt 0.187500 -3.824908
vt 0.187500 -0.424742
vt 0.250000 -0.424742
vt 0.312500 -0.424742
vt 0.375000 -0.424742
vt 0.437500 -0.424742
vt 0.500000 -0.424742
vt 0.562500 -0.424742
vt 0.625000 -3.824908
vt 0.625000 -0.424742
vt 0.687500 -0.424742
vt 0.750000 -0.424742
vt 0.812500 -0.424742
vt 0.875000 -0.424742
vt 0.937500 -3.824908
vt 0.937500 -0.424742
vt 0.000000 -0.416762
vt 0.062500 -0.416762
vt 0.125000 -0.416762
vt 0.187500 -0.416762
vt 0.250000 -0.416762
vt 0.375000 -0.416762
vt 0.437500 -0.416762
vt 0.562500 -0.416762
vt 0.625000 -0.416762
vt 0.687500 -0.416762
vt 0.750000 -0.416762
vt 0.812500 -0.416762
vt 0.875000 -0.416762
vt 0.937500 -0.416762
vt 1.000000 -0.424742
vt 0.000000 -0.409809
vt 0.062500 -0.409809
vt 0.125000 -0.409809
vt 0.250000 -0.409809
vt 0.312500 -0.416762
vt 0.312500 -0.409809
vt 0.437500 -0.409809
vt 0.500000 -0.416762
vt 0.500000 -0.409809
vt 0.562500 -0.409809
vt 0.625000 -0.409809
vt 0.687500 -0.409809
vt 0.750000 -0.409809
vt 0.812500 -0.409809
vt 0.875000 -0.409809
vt 0.937500 -0.409809
vt 1.000000 -0.416762
vt 0.000000 -0.402857
vt 0.062500 -0.402857
vt 0.125000 -0.402857
vt 0.187500 -0.409809
vt 0.187500 -0.402857
vt 0.250000 -0.402857
vt 0.312500 -0.402857
vt 0.375000 -0.409809
vt 0.375000 -0.402857
vt 0.437500 -0.402857
vt 0.500000 -0.402857
vt 0.562500 -0.402857
vt 0.687500 -0.402857
vt 0.750000 -0.402857
vt 0.812500 -0.402857
vt 0.875000 -0.402857
vt 0.937500 -0.402857
vt 1.000000 -0.409809
vt 0.625000 -0.402857
vt 1.000000 -0.402857
vn 0.0000 -0.9987 0.0506
vn 0.0000 -1.0000 0.0000
vn 0.3827 -0.9239 0.0000
vn 0.3822 -0.9227 0.0506
vn 0.7071 -0.7071 0.0000
vn 0.7062 -0.7062 0.0506
vn 0.9239 -0.3827 0.0000
vn 0.9227 -0.3822 0.0506
vn 1.0000 0.0000 0.0000
vn 0.9987 -0.0000 0.0506
vn 0.9239 0.3827 0.0000
vn 0.9227 0.3822 0.0506
vn 0.7071 0.7071 0.0000
vn 0.7062 0.7062 0.0506
vn 0.3827 0.9239 0.0000
vn 0.3822 0.9227 0.0506
vn -0.0000 1.0000 0.0000
vn -0.0000 0.9987 0.0506
vn -0.3827 0.9239 0.0000
vn -0.3822 0.9227 0.0506
vn -0.7071 0.7071 0.0000
vn -0.7062 0.7062 0.0506
vn -0.9239 0.3827 0.0000
vn -0.9227 0.3822 0.0506
vn -1.0000 -0.0000 0.0000
vn -0.9987 -0.0000 0.0506
vn -0.9239 -0.3827 0.0000
vn -0.9227 -0.3822 0.0506
vn -0.7071 -0.7071 0.0000
vn -0.7062 -0.7062 0.0506
vn -0.3827 -0.9239 0.0000
vn -0.3822 -0.9227 0.0506
vn 0.0000 -0.9820 0.1891
vn 0.3758 -0.9072 0.1891
vn 0.6944 -0.6944 0.1891
vn 0.9820 -0.0000 0.1891
vn 0.9072 0.3758 0.1891
vn 0.6944 0.6944 0.1891
vn 0.3758 0.9072 0.1891
vn -0.0000 0.9820 0.1891
vn -0.6944 0.6944 0.1891
vn -0.9072 0.3758 0.1891
vn -0.9820 -0.0000 0.1891
vn -0.6944 -0.6944 0.1891
vn -0.3758 -0.9072 0.1891
vn -0.0000 -0.9307 0.3658
vn 0.3562 -0.8599 0.3658
vn 0.9072 -0.3758 0.1891
vn 0.8599 -0.3562 0.3658
vn 0.9307 0.0000 0.3658
vn 0.8599 0.3562 0.3658
vn 0.3562 0.8599 0.3658
vn -0.0000 0.9307 0.3658
vn -0.3758 0.9072 0.1891
vn -0.3562 0.8599 0.3658
vn -0.6581 0.6581 0.3658
vn -0.8599 0.3562 0.3658
vn -0.9072 -0.3758 0.1891
vn -0.8599 -0.3562 0.3658
vn -0.6581 -0.6581 0.3658
vn -0.3562 -0.8599 0.3658
vn -0.0000 -0.8894 0.4571
vn 0.3404 -0.8217 0.4571
vn 0.6581 -0.6581 0.3658
vn 0.6289 -0.6289 0.4571
vn 0.8894 0.0000 0.4571
vn 0.8217 0.3404 0.4571
vn 0.6581 0.6581 0.3658
vn 0.6289 0.6289 0.4571
vn 0.3404 0.8217 0.4571
vn 0.0000 0.8894 0.4571
vn -0.3404 0.8217 0.4571
vn -0.8217 0.3404 0.4571
vn -0.9307 -0.0000 0.3658
vn -0.8894 0.0000 0.4571
vn -0.8217 -0.3404 0.4571
vn -0.6289 -0.6289 0.4571
vn -0.1824 -0.9642 0.1924
vn 0.3769 -0.9209 0.0996
vn 0.6928 -0.6928 0.2004
vn 0.9051 -0.3749 0.2004
vn 0.9797 0.0000 0.2004
vn 0.9051 0.3749 0.2004
vn 0.6928 0.6928 0.2004
vn 0.3769 0.9209 0.0996
vn -0.1824 0.9642 0.1924
vn -0.3749 0.9051 0.2004
vn -0.6928 0.6928 0.2004
vn -0.9051 0.3749 0.2004
vn -0.9797 -0.0000 0.2004
vn -0.9051 -0.3749 0.2004
vn -0.6928 -0.6928 0.2004
vn -0.3749 -0.9051 0.2004
vn 0.9950 -0.0750 0.0657
vn 0.9850 -0.1579 0.0693
vn 0.9732 0.2198 0.0674
vn 0.4624 -0.6921 0.5542
vn 0.5850 -0.5850 0.5617
vn 0.7644 -0.3166 0.5617
vn 0.8273 0.0000 0.5617
vn 0.5850 0.5850 0.5617
vn 0.9731 -0.2182 0.0739
vn 0.9726 -0.2206 0.0739
vn 0.9879 0.1418 0.0634
vn -0.3166 0.7644 0.5617
vn -0.5850 0.5850 0.5617
vn -0.7644 0.3166 0.5617
vn -0.8273 0.0000 0.5617
vn -0.7644 -0.3166 0.5617
vn -0.5850 -0.5850 0.5617
vn -0.3166 -0.7644 0.5617
vn 0.9973 -0.0484 0.0549
vn 0.9649 0.2549 0.0640
vn 0.3885 -0.5814 0.7149
vn 0.4895 -0.4895 0.7217
vn 0.6922 -0.0000 0.7217
vn 0.7644 0.3166 0.5617
vn 0.6395 0.2649 0.7217
vn 0.4624 0.6921 0.5542
vn 0.3885 0.5814 0.7149
vn 0.9449 -0.3212 0.0629
vn 0.9444 -0.3221 0.0666
vn 0.9977 0.0435 0.0518
vn -0.1364 0.6858 0.7149
vn -0.1624 0.8164 0.5542
vn -0.2649 0.6395 0.7217
vn -0.4895 0.4895 0.7217
vn -0.6395 0.2649 0.7217
vn -0.6922 -0.0000 0.7217
vn -0.6395 -0.2649 0.7217
vn -0.4895 -0.4895 0.7217
vn -0.2649 -0.6395 0.7217
vn -0.1624 -0.8164 0.5542
vn 0.9982 -0.0326 0.0511
vn 0.9412 0.3342 0.0491
vn 0.3884 -0.5814 0.7149
vn 0.6395 -0.2649 0.7217
vn 0.6396 -0.2649 0.7217
vn 0.6396 0.2649 0.7217
vn 0.4895 0.4895 0.7217
vn 0.9427 -0.3295 0.0523
vn 0.9985 0.0354 0.0417
vn -0.6396 0.2649 0.7217
vn -0.1364 -0.6858 0.7149
vn 0.8217 -0.3404 0.4571
vn -0.6289 0.6289 0.4571
vn -0.3404 -0.8217 0.4571
vn 0.9875 0.1442 0.0633
vn 0.9367 0.3480 0.0385
vn 0.3884 0.5814 0.7149
vn 0.9986 0.0364 0.0379
usemtl Schwarz
s 1
f 2/1/1 1/2/2 10/3/3
f 11/4/4 10/3/3 19/5/5
f 20/6/6 19/5/5 28/7/7
f 29/8/8 28/7/7 37/9/9
f 38/10/10 37/9/9 46/11/11
f 47/12/12 46/11/11 55/13/13
f 56/14/14 55/13/13 64/15/15
f 65/16/16 64/15/15 73/17/17
f 74/18/18 73/17/17 82/19/19
f 83/20/20 82/19/19 91/21/21
f 92/22/22 91/21/21 100/23/23
f 101/24/24 100/23/23 109/25/25
f 110/26/26 109/25/25 118/27/27
f 119/28/28 118/27/27 127/29/29
f 128/30/30 127/29/29 136/31/31
f 137/32/32 136/31/31 1/33/2
f 3/34/33 2/1/1 11/4/4
f 12/35/34 11/4/4 20/6/6
f 21/36/35 20/6/6 29/8/8
f 29/8/8 38/10/10 39/37/36
f 38/10/10 47/12/12 48/38/37
f 48/38/37 47/12/12 56/14/14
f 57/39/38 56/14/14 65/16/16
f 66/40/39 65/16/16 74/18/18
f 75/41/40 74/18/18 83/20/20
f 83/20/20 92/22/22 93/42/41
f 93/42/41 92/22/22 101/24/24
f 102/43/42 101/24/24 110/26/26
f 111/44/43 110/26/26 119/28/28
f 119/28/28 128/30/30 129/45/44
f 129/45/44 128/30/30 137/32/32
f 138/46/45 137/32/32 2/47/1
f 4/48/46 3/34/33 12/35/34
f 13/49/47 12/35/34 21/36/35
f 21/36/35 30/50/48 31/51/49
f 31/51/49 30/50/48 39/37/36
f 40/52/50 39/37/36 48/38/37
f 49/53/51 48/38/37 57/39/38
f 57/39/38 66/40/39 67/54/52
f 67/54/52 66/40/39 75/41/40
f 76/55/53 75/41/40 84/56/54
f 85/57/55 84/56/54 93/42/41
f 94/58/56 93/42/41 102/43/42
f 103/59/57 102/43/42 111/44/43
f 111/44/43 120/60/58 121/61/59
f 121/61/59 120/60/58 129/45/44
f 130/62/60 129/45/44 138/46/45
f 139/63/61 138/46/45 3/64/33
f 5/65/62 4/48/46 13/49/47
f 14/66/63 13/49/47 22/67/64
f 23/68/65 22/67/64 31/51/49
f 31/51/49 40/52/50 41/69/66
f 41/69/66 40/52/50 49/53/51
f 50/70/67 49/53/51 58/71/68
f 59/72/69 58/71/68 67/54/52
f 68/73/70 67/54/52 76/55/53
f 77/74/71 76/55/53 85/57/55
f 86/75/72 85/57/55 94/58/56
f 94/58/56 103/59/57 104/76/73
f 104/76/73 103/59/57 112/77/74
f 113/78/75 112/77/74 121/61/59
f 122/79/76 121/61/59 130/62/60
f 131/80/77 130/62/60 139/63/61
f 139/63/61 4/81/46 5/82/62
f 6/83/78 5/65/2 14/66/3
f 15/84/79 14/66/3 23/68/5
f 24/85/80 23/68/5 32/86/7
f 33/87/81 32/86/7 41/69/9
f 42/88/82 41/69/9 50/70/11
f 51/89/83 50/70/11 59/72/13
f 60/90/84 59/72/13 68/73/15
f 69/91/85 68/73/15 77/74/17
f 78/92/86 77/74/17 86/75/19
f 87/93/87 86/75/19 95/94/21
f 96/95/88 95/94/21 104/76/23
f 105/96/89 104/76/23 113/78/25
f 114/97/90 113/78/25 122/79/27
f 123/98/91 122/79/27 131/80/29
f 132/99/92 131/80/29 140/100/31
f 141/101/93 140/100/31 5/82/2
f 7/102/94 6/83/95 15/84/96
f 16/103/97 15/84/79 24/85/80
f 25/104/98 24/85/80 33/87/81
f 34/105/99 33/87/81 42/88/82
f 43/106/100 42/88/82 51/89/83
f 51/89/83 60/90/84 61/107/101
f 61/107/101 60/90/84 69/91/85
f 70/108/102 69/91/103 78/92/104
f 78/92/86 87/93/87 88/109/105
f 87/93/87 96/95/88 97/110/106
f 97/110/106 96/95/88 105/96/89
f 106/111/107 105/96/89 114/97/90
f 115/112/108 114/97/90 123/98/91
f 124/113/109 123/98/91 132/99/92
f 133/114/110 132/99/92 141/101/93
f 142/115/111 141/101/93 6/116/78
f 8/117/112 7/102/94 16/103/113
f 17/118/114 16/103/97 25/104/98
f 26/119/115 25/104/98 34/105/99
f 34/105/99 43/106/100 44/120/116
f 44/120/116 43/106/100 52/121/117
f 53/122/118 52/121/117 61/107/101
f 61/107/101 70/108/119 71/123/120
f 71/123/121 70/108/122 79/124/123
f 80/125/124 79/124/125 88/109/105
f 89/126/126 88/109/105 97/110/106
f 98/127/127 97/110/106 106/111/107
f 107/128/128 106/111/107 115/112/108
f 116/129/129 115/112/108 124/113/109
f 125/130/130 124/113/109 133/114/110
f 134/131/131 133/114/110 142/115/111
f 143/132/132 142/115/111 7/133/133
f 9/134/134 8/117/112 17/118/135
f 18/135/136 17/118/114 26/119/115
f 27/136/115 26/119/115 35/137/137
f 36/138/138 35/137/137 44/120/116
f 45/139/116 44/120/116 53/122/118
f 54/140/139 53/122/118 62/141/140
f 63/142/140 62/141/140 71/123/120
f 72/143/141 71/123/121 80/125/142
f 81/144/124 80/125/124 89/126/126
f 90/145/126 89/126/126 98/127/127
f 98/127/127 107/128/128 108/146/143
f 108/146/143 107/128/128 116/129/129
f 117/147/129 116/129/129 125/130/130
f 126/148/130 125/130/130 134/131/131
f 135/149/131 134/131/131 143/132/132
f 144/150/132 143/132/132 8/151/144
f 2/1/1 10/3/3 11/4/4
f 11/4/4 19/5/5 20/6/6
f 20/6/6 28/7/7 29/8/8
f 29/8/8 37/9/9 38/10/10
f 38/10/10 46/11/11 47/12/12
f 47/12/12 55/13/13 56/14/14
f 56/14/14 64/15/15 65/16/16
f 65/16/16 73/17/17 74/18/18
f 74/18/18 82/19/19 83/20/20
f 83/20/20 91/21/21 92/22/22
f 92/22/22 100/23/23 101/24/24
f 101/24/24 109/25/25 110/26/26
f 110/26/26 118/27/27 119/28/28
f 119/28/28 127/29/29 128/30/30
f 128/30/30 136/31/31 137/32/32
f 137/32/32 1/33/2 2/47/1
f 3/34/33 11/4/4 12/35/34
f 12/35/34 20/6/6 21/36/35
f 21/36/35 29/8/8 30/50/48
f 29/8/8 39/37/36 30/50/48
f 38/10/10 48/38/37 39/37/36
f 48/38/37 56/14/14 57/39/38
f 57/39/38 65/16/16 66/40/39
f 66/40/39 74/18/18 75/41/40
f 75/41/40 83/20/20 84/56/54
f 83/20/20 93/42/41 84/56/54
f 93/42/41 101/24/24 102/43/42
f 102/43/42 110/26/26 111/44/43
f 111/44/43 119/28/28 120/60/58
f 119/28/28 129/45/44 120/60/58
f 129/45/44 137/32/32 138/46/45
f 138/46/45 2/47/1 3/64/33
f 4/48/46 12/35/34 13/49/47
f 13/49/47 21/36/35 22/67/64
f 21/36/35 31/51/49 22/67/64
f 31/51/49 39/37/36 40/52/50
f 40/52/50 48/38/37 49/53/51
f 49/53/51 57/39/38 58/71/68
f 57/39/38 67/54/52 58/71/68
f 67/54/52 75/41/40 76/55/53
f 76/55/53 84/56/54 85/57/55
f 85/57/55 93/42/41 94/58/56
f 94/58/56 102/43/42 103/59/57
f 103/59/57 111/44/43 112/77/74
f 111/44/43 121/61/59 112/77/74
f 121/61/59 129/45/44 130/62/60
f 130/62/60 138/46/45 139/63/61
f 139/63/61 3/64/33 4/81/46
f 5/65/62 13/49/47 14/66/63
f 14/66/63 22/67/64 23/68/65
f 23/68/65 31/51/49 32/86/145
f 31/51/49 41/69/66 32/86/145
f 41/69/66 49/53/51 50/70/67
f 50/70/67 58/71/68 59/72/69
f 59/72/69 67/54/52 68/73/70
f 68/73/70 76/55/53 77/74/71
f 77/74/71 85/57/55 86/75/72
f 86/75/72 94/58/56 95/94/146
f 94/58/56 104/76/73 95/94/146
f 104/76/73 112/77/74 113/78/75
f 113/78/75 121/61/59 122/79/76
f 122/79/76 130/62/60 131/80/77
f 131/80/77 139/63/61 140/100/147
f 139/63/61 5/82/62 140/100/147
f 6/83/78 14/66/3 15/84/79
f 15/84/79 23/68/5 24/85/80
f 24/85/80 32/86/7 33/87/81
f 33/87/81 41/69/9 42/88/82
f 42/88/82 50/70/11 51/89/83
f 51/89/83 59/72/13 60/90/84
f 60/90/84 68/73/15 69/91/85
f 69/91/85 77/74/17 78/92/86
f 78/92/86 86/75/19 87/93/87
f 87/93/87 95/94/21 96/95/88
f 96/95/88 104/76/23 105/96/89
f 105/96/89 113/78/25 114/97/90
f 114/97/90 122/79/27 123/98/91
f 123/98/91 131/80/29 132/99/92
f 132/99/92 140/100/31 141/101/93
f 141/101/93 5/82/2 6/116/78
f 7/102/94 15/84/96 16/103/113
f 16/103/97 24/85/80 25/104/98
f 25/104/98 33/87/81 34/105/99
f 34/105/99 42/88/82 43/106/100
f 43/106/100 51/89/83 52/121/117
f 51/89/83 61/107/101 52/121/117
f 61/107/101 69/91/85 70/108/119
f 70/108/102 78/92/104 79/124/148
f 78/92/86 88/109/105 79/124/125
f 87/93/87 97/110/106 88/109/105
f 97/110/106 105/96/89 106/111/107
f 106/111/107 114/97/90 115/112/108
f 115/112/108 123/98/91 124/113/109
f 124/113/109 132/99/92 133/114/110
f 133/114/110 141/101/93 142/115/111
f 142/115/111 6/116/78 7/133/133
f 8/117/112 16/103/113 17/118/135
f 17/118/114 25/104/98 26/119/115
f 26/119/115 34/105/99 35/137/137
f 34/105/99 44/120/116 35/137/137
f 44/120/116 52/121/117 53/122/118
f 53/122/118 61/107/101 62/141/140
f 61/107/101 71/123/120 62/141/140
f 71/123/121 79/124/123 80/125/142
f 80/125/124 88/109/105 89/126/126
f 89/126/126 97/110/106 98/127/127
f 98/127/127 106/111/107 107/128/128
f 107/128/128 115/112/108 116/129/129
f 116/129/129 124/113/109 125/130/130
f 125/130/130 133/114/110 134/131/131
f 134/131/131 142/115/111 143/132/132
f 143/132/132 7/133/133 8/151/144
f 9/134/134 17/118/135 18/135/149
f 18/135/136 26/119/115 27/136/115
f 27/136/115 35/137/137 36/138/138
f 36/138/138 44/120/116 45/139/116
f 45/139/116 53/122/118 54/140/139
f 54/140/139 62/141/140 63/142/140
f 63/142/140 71/123/120 72/143/150
f 72/143/141 80/125/142 81/144/151
f 81/144/124 89/126/126 90/145/126
f 90/145/126 98/127/127 99/152/127
f 98/127/127 108/146/143 99/152/127
f 108/146/143 116/129/129 117/147/129
f 117/147/129 125/130/130 126/148/130
f 126/148/130 134/131/131 135/149/131
f 135/149/131 143/132/132 144/150/132
f 144/150/132 8/151/144 9/153/144
