# Blender 4.0.2
# www.blender.org
mtllib Stahl_3400.mtl
o Mast_3,5m_Metalogalva.001
v 0.000000 0.000000 3.400000
v 0.000000 -0.038000 3.400000
v 0.000000 -0.058000 0.000000
v 0.000000 0.000000 3.400000
v 0.014542 -0.035107 3.400000
v 0.022196 -0.053585 0.000000
v 0.000000 0.000000 3.400000
v 0.026870 -0.026870 3.400000
v 0.041012 -0.041012 0.000000
v 0.000000 0.000000 3.400000
v 0.035107 -0.014542 3.400000
v 0.053585 -0.022196 0.000000
v 0.000000 0.000000 3.400000
v 0.038000 0.000000 3.400000
v 0.058000 0.000000 0.000000
v 0.000000 0.000000 3.400000
v 0.035107 0.014542 3.400000
v 0.053585 0.022196 0.000000
v 0.000000 0.000000 3.400000
v 0.026870 0.026870 3.400000
v 0.041012 0.041012 0.000000
v 0.000000 0.000000 3.400000
v 0.014542 0.035107 3.400000
v 0.022196 0.053585 0.000000
v 0.000000 0.000000 3.400000
v 0.000000 0.038000 3.400000
v 0.000000 0.058000 0.000000
v 0.000000 0.000000 3.400000
v -0.014542 0.035107 3.400000
v -0.022196 0.053585 0.000000
v 0.000000 0.000000 3.400000
v -0.026870 0.026870 3.400000
v -0.041012 0.041012 0.000000
v 0.000000 0.000000 3.400000
v -0.035107 0.014542 3.400000
v -0.053585 0.022196 0.000000
v 0.000000 0.000000 3.400000
v -0.038000 0.000000 3.400000
v -0.058000 0.000000 0.000000
v 0.000000 0.000000 3.400000
v -0.035107 -0.014542 3.400000
v -0.053585 -0.022196 0.000000
v 0.000000 0.000000 3.400000
v -0.026870 -0.026870 3.400000
v -0.041012 -0.041012 0.000000
v 0.000000 0.000000 3.400000
v -0.014542 -0.035107 3.400000
v -0.022196 -0.053585 0.000000
vn -0.0000 -0.0000 1.0000
vn 0.2848 -0.6876 0.6679
vn 0.5263 -0.5263 0.6679
vn 0.6876 -0.2848 0.6679
vn 0.7443 -0.0000 0.6679
vn 0.6876 0.2848 0.6679
vn 0.5263 0.5263 0.6679
vn 0.2848 0.6876 0.6679
vn -0.0000 0.7443 0.6679
vn -0.2848 0.6876 0.6679
vn -0.5263 0.5263 0.6679
vn -0.6876 0.2848 0.6679
vn -0.7443 -0.0000 0.6679
vn -0.6876 -0.2848 0.6679
vn -0.5263 -0.5263 0.6679
vn -0.2848 -0.6876 0.6679
vn -0.0000 -0.7443 0.6679
vn -0.0000 -1.0000 0.0059
vn 0.3827 -0.9239 0.0059
vn 0.7071 -0.7071 0.0059
vn 0.9239 -0.3827 0.0059
vn 1.0000 -0.0000 0.0059
vn 0.9239 0.3827 0.0059
vn 0.7071 0.7071 0.0059
vn 0.3827 0.9239 0.0059
vn -0.0000 1.0000 0.0059
vn -0.3827 0.9239 0.0059
vn -0.7071 0.7071 0.0059
vn -0.9239 0.3827 0.0059
vn -1.0000 -0.0000 0.0059
vn -0.9239 -0.3827 0.0059
vn -0.7071 -0.7071 0.0059
vn -0.3827 -0.9239 0.0059
vt 0.000000 8.845284
vt 0.062500 8.845284
vt 0.125000 8.845284
vt 0.187500 8.845284
vt 0.250000 8.845284
vt 0.312500 8.845284
vt 0.375000 8.845284
vt 0.437500 8.845284
vt 0.500000 8.845284
vt 0.562500 8.845284
vt 0.625000 8.845284
vt 0.687500 8.845284
vt 0.750000 8.845284
vt 0.812500 8.845284
vt 0.875000 8.845284
vt 0.937500 8.845284
vt 1.000000 8.845284
vt 0.000000 -5.345284
vt 0.062500 -5.345284
vt 0.125000 -5.345284
vt 0.187500 -5.345284
vt 0.250000 -5.345284
vt 0.312500 -5.345284
vt 0.375000 -5.345284
vt 0.437500 -5.345284
vt 0.500000 -5.345284
vt 0.562500 -5.345284
vt 0.625000 -5.345284
vt 0.687500 -5.345284
vt 0.750000 -5.345284
vt 0.812500 -5.345284
vt 0.875000 -5.345284
vt 0.937500 -5.345284
vt 1.000000 -5.345284
s 1
usemtl galvanized_metall.013
f 1/1/1 5/2/2 4/2/1
f 4/2/1 8/3/3 7/3/1
f 7/3/1 11/4/4 10/4/1
f 10/4/1 14/5/5 13/5/1
f 13/5/1 17/6/6 16/6/1
f 16/6/1 20/7/7 19/7/1
f 19/7/1 23/8/8 22/8/1
f 22/8/1 26/9/9 25/9/1
f 25/9/1 29/10/10 28/10/1
f 28/10/1 32/11/11 31/11/1
f 31/11/1 35/12/12 34/12/1
f 34/12/1 38/13/13 37/13/1
f 37/13/1 41/14/14 40/14/1
f 40/14/1 44/15/15 43/15/1
f 43/15/1 47/16/16 46/16/1
f 46/16/1 2/17/17 1/17/1
f 3/18/18 5/2/2 2/1/17
f 6/19/19 8/3/3 5/2/2
f 9/20/20 11/4/4 8/3/3
f 12/21/21 14/5/5 11/4/4
f 15/22/22 17/6/6 14/5/5
f 18/23/23 20/7/7 17/6/6
f 21/24/24 23/8/8 20/7/7
f 24/25/25 26/9/9 23/8/8
f 27/26/26 29/10/10 26/9/9
f 30/27/27 32/11/11 29/10/10
f 33/28/28 35/12/12 32/11/11
f 36/29/29 38/13/13 35/12/12
f 39/30/30 41/14/14 38/13/13
f 42/31/31 44/15/15 41/14/14
f 45/32/32 47/16/16 44/15/15
f 48/33/33 2/17/17 47/16/16
f 1/1/1 2/1/17 5/2/2
f 4/2/1 5/2/2 8/3/3
f 7/3/1 8/3/3 11/4/4
f 10/4/1 11/4/4 14/5/5
f 13/5/1 14/5/5 17/6/6
f 16/6/1 17/6/6 20/7/7
f 19/7/1 20/7/7 23/8/8
f 22/8/1 23/8/8 26/9/9
f 25/9/1 26/9/9 29/10/10
f 28/10/1 29/10/10 32/11/11
f 31/11/1 32/11/11 35/12/12
f 34/12/1 35/12/12 38/13/13
f 37/13/1 38/13/13 41/14/14
f 40/14/1 41/14/14 44/15/15
f 43/15/1 44/15/15 47/16/16
f 46/16/1 47/16/16 2/17/17
f 3/18/18 6/19/19 5/2/2
f 6/19/19 9/20/20 8/3/3
f 9/20/20 12/21/21 11/4/4
f 12/21/21 15/22/22 14/5/5
f 15/22/22 18/23/23 17/6/6
f 18/23/23 21/24/24 20/7/7
f 21/24/24 24/25/25 23/8/8
f 24/25/25 27/26/26 26/9/9
f 27/26/26 30/27/27 29/10/10
f 30/27/27 33/28/28 32/11/11
f 33/28/28 36/29/29 35/12/12
f 36/29/29 39/30/30 38/13/13
f 39/30/30 42/31/31 41/14/14
f 42/31/31 45/32/32 44/15/15
f 45/32/32 48/33/33 47/16/16
f 48/33/33 3/34/18 2/17/17
