# Blender v3.6.3 OBJ File: 'Stahl_3200.blend'
# www.blender.org
mtllib Stahl_3200.mtl
o Mast_3,2m_Metalogalva.002
v 0.000000 0.000000 3.200000
v 0.000000 -0.038000 3.200000
v 0.000000 -0.058000 0.000000
v 0.014542 -0.035107 3.200000
v 0.022196 -0.053585 0.000000
v 0.026870 -0.026870 3.200000
v 0.041012 -0.041012 0.000000
v 0.035107 -0.014542 3.200000
v 0.053585 -0.022196 0.000000
v 0.038000 0.000000 3.200000
v 0.058000 0.000000 0.000000
v 0.035107 0.014542 3.200000
v 0.053585 0.022196 0.000000
v 0.026870 0.026870 3.200000
v 0.041012 0.041012 0.000000
v 0.014542 0.035107 3.200000
v 0.022196 0.053585 0.000000
v 0.000000 0.038000 3.200000
v 0.000000 0.058000 0.000000
v -0.014542 0.035107 3.200000
v -0.022196 0.053585 0.000000
v -0.026870 0.026870 3.200000
v -0.041012 0.041012 0.000000
v -0.035107 0.014542 3.200000
v -0.053585 0.022196 0.000000
v -0.038000 0.000000 3.200000
v -0.058000 0.000000 0.000000
v -0.035107 -0.014542 3.200000
v -0.053585 -0.022196 0.000000
v -0.026870 -0.026870 3.200000
v -0.041012 -0.041012 0.000000
v -0.014542 -0.035107 3.200000
v -0.022196 -0.053585 0.000000
vt 0.000000 7.639608
vt 0.000000 7.639608
vt 0.062500 7.639608
vt 0.062500 7.639608
vt 0.125000 7.639608
vt 0.125000 7.639608
vt 0.187500 7.639608
vt 0.187500 7.639608
vt 0.250000 7.639608
vt 0.250000 7.639608
vt 0.312500 7.639608
vt 0.312500 7.639608
vt 0.375000 7.639608
vt 0.375000 7.639608
vt 0.437500 7.639608
vt 0.437500 7.639608
vt 0.500000 7.639608
vt 0.500000 7.639608
vt 0.562500 7.639608
vt 0.562500 7.639608
vt 0.625000 7.639608
vt 0.625000 7.639608
vt 0.687500 7.639608
vt 0.687500 7.639608
vt 0.750000 7.639608
vt 0.750000 7.639608
vt 0.812500 7.639608
vt 0.812500 7.639608
vt 0.875000 7.639608
vt 0.875000 7.639608
vt 0.937500 7.639608
vt 0.937500 7.639608
vt 1.000000 7.639608
vt 0.000000 -4.639608
vt 0.062500 -4.639608
vt 0.125000 -4.639608
vt 0.187500 -4.639608
vt 0.250000 -4.639608
vt 0.312500 -4.639608
vt 0.375000 -4.639608
vt 0.437500 -4.639608
vt 0.500000 -4.639608
vt 0.562500 -4.639608
vt 0.625000 -4.639608
vt 0.687500 -4.639608
vt 0.750000 -4.639608
vt 0.812500 -4.639608
vt 0.875000 -4.639608
vt 0.937500 -4.639608
vt 1.000000 -4.639608
vn 0.0000 0.0000 1.0000
vn -0.0000 -0.7441 0.6680
vn 0.2848 -0.6875 0.6680
vn 0.5262 -0.5262 0.6680
vn 0.6875 -0.2848 0.6680
vn 0.7441 0.0000 0.6680
vn 0.6875 0.2848 0.6680
vn 0.5262 0.5262 0.6680
vn 0.2848 0.6875 0.6680
vn 0.0000 0.7441 0.6680
vn -0.2848 0.6875 0.6680
vn -0.5262 0.5262 0.6680
vn -0.6875 0.2848 0.6680
vn -0.7441 -0.0000 0.6680
vn -0.6875 -0.2848 0.6680
vn -0.5262 -0.5262 0.6680
vn -0.2848 -0.6875 0.6680
vn 0.0000 -1.0000 0.0062
vn 0.3827 -0.9239 0.0062
vn 0.7071 -0.7071 0.0062
vn 0.9239 -0.3827 0.0062
vn 1.0000 0.0000 0.0062
vn 0.9239 0.3827 0.0062
vn 0.7071 0.7071 0.0062
vn 0.3827 0.9239 0.0062
vn -0.0000 1.0000 0.0062
vn -0.3827 0.9239 0.0062
vn -0.7071 0.7071 0.0062
vn -0.9239 0.3827 0.0062
vn -1.0000 -0.0000 0.0062
vn -0.9239 -0.3827 0.0062
vn -0.7071 -0.7071 0.0062
vn -0.3827 -0.9239 0.0062
usemtl galvanized_metall.008
s 1
f 1/1/1 2/2/2 4/3/3
f 1/4/1 4/3/3 6/5/4
f 1/6/1 6/5/4 8/7/5
f 1/8/1 8/7/5 10/9/6
f 1/10/1 10/9/6 12/11/7
f 1/12/1 12/11/7 14/13/8
f 1/14/1 14/13/8 16/15/9
f 1/16/1 16/15/9 18/17/10
f 1/18/1 18/17/10 20/19/11
f 1/20/1 20/19/11 22/21/12
f 1/22/1 22/21/12 24/23/13
f 1/24/1 24/23/13 26/25/14
f 1/26/1 26/25/14 28/27/15
f 1/28/1 28/27/15 30/29/16
f 1/30/1 30/29/16 32/31/17
f 1/32/1 32/31/17 2/33/2
f 3/34/18 4/3/3 2/2/2
f 5/35/19 6/5/4 4/3/3
f 7/36/20 8/7/5 6/5/4
f 9/37/21 10/9/6 8/7/5
f 11/38/22 12/11/7 10/9/6
f 13/39/23 14/13/8 12/11/7
f 15/40/24 16/15/9 14/13/8
f 17/41/25 18/17/10 16/15/9
f 19/42/26 20/19/11 18/17/10
f 21/43/27 22/21/12 20/19/11
f 23/44/28 24/23/13 22/21/12
f 25/45/29 26/25/14 24/23/13
f 27/46/30 28/27/15 26/25/14
f 29/47/31 30/29/16 28/27/15
f 31/48/32 32/31/17 30/29/16
f 33/49/33 2/33/2 32/31/17
f 3/34/18 5/35/19 4/3/3
f 5/35/19 7/36/20 6/5/4
f 7/36/20 9/37/21 8/7/5
f 9/37/21 11/38/22 10/9/6
f 11/38/22 13/39/23 12/11/7
f 13/39/23 15/40/24 14/13/8
f 15/40/24 17/41/25 16/15/9
f 17/41/25 19/42/26 18/17/10
f 19/42/26 21/43/27 20/19/11
f 21/43/27 23/44/28 22/21/12
f 23/44/28 25/45/29 24/23/13
f 25/45/29 27/46/30 26/25/14
f 27/46/30 29/47/31 28/27/15
f 29/47/31 31/48/32 30/29/16
f 31/48/32 33/49/33 32/31/17
f 33/49/33 3/50/18 2/33/2
