# Blender v3.5.0 OBJ File: 'Stahl_15000.blend'
# www.blender.org
mtllib Stahl_15000.mtl
o Mast_15,0m_Metalogalva.001_BezierCurve.033
v 0.000000 0.000000 15.000000
v 0.000000 -0.038000 15.000000
v 0.000000 -0.120000 0.000000
v 0.000000 0.000000 15.000000
v 0.014542 -0.035107 15.000000
v 0.045922 -0.110866 0.000000
v 0.000000 0.000000 15.000000
v 0.026870 -0.026870 15.000000
v 0.084853 -0.084853 0.000000
v 0.000000 0.000000 15.000000
v 0.035107 -0.014542 15.000000
v 0.110866 -0.045922 0.000000
v 0.000000 0.000000 15.000000
v 0.038000 0.000000 15.000000
v 0.120000 0.000000 0.000000
v 0.000000 0.000000 15.000000
v 0.035107 0.014542 15.000000
v 0.110866 0.045922 0.000000
v 0.000000 0.000000 15.000000
v 0.026870 0.026870 15.000000
v 0.084853 0.084853 0.000000
v 0.000000 0.000000 15.000000
v 0.014542 0.035107 15.000000
v 0.045922 0.110866 0.000000
v 0.000000 0.000000 15.000000
v -0.000000 0.038000 15.000000
v -0.000000 0.120000 0.000000
v 0.000000 0.000000 15.000000
v -0.014542 0.035107 15.000000
v -0.045922 0.110866 0.000000
v 0.000000 0.000000 15.000000
v -0.026870 0.026870 15.000000
v -0.084853 0.084853 0.000000
v 0.000000 0.000000 15.000000
v -0.035107 0.014542 15.000000
v -0.110866 0.045922 0.000000
v 0.000000 0.000000 15.000000
v -0.038000 -0.000000 15.000000
v -0.120000 -0.000000 0.000000
v 0.000000 0.000000 15.000000
v -0.035107 -0.014542 15.000000
v -0.110866 -0.045922 0.000000
v 0.000000 0.000000 15.000000
v -0.026870 -0.026870 15.000000
v -0.084853 -0.084853 0.000000
v 0.000000 0.000000 15.000000
v -0.014542 -0.035107 15.000000
v -0.045922 -0.110866 0.000000
vt 0.000000 35.287407
vt 0.000000 35.287407
vt 0.062500 35.287407
vt 0.062500 35.287407
vt 0.125000 35.287407
vt 0.125000 35.287407
vt 0.187500 35.287407
vt 0.187500 35.287407
vt 0.250000 35.287407
vt 0.250000 35.287407
vt 0.312500 35.287407
vt 0.312500 35.287407
vt 0.375000 35.287407
vt 0.375000 35.287407
vt 0.437500 35.287407
vt 0.437500 35.287407
vt 0.500000 35.287407
vt 0.500000 35.287407
vt 0.562500 35.287407
vt 0.562500 35.287407
vt 0.625000 35.287407
vt 0.625000 35.287407
vt 0.687500 35.287407
vt 0.687500 35.287407
vt 0.750000 35.287407
vt 0.750000 35.287407
vt 0.812500 35.287407
vt 0.812500 35.287407
vt 0.875000 35.287407
vt 0.875000 35.287407
vt 0.937500 35.287407
vt 0.937500 35.287407
vt 1.000000 35.287407
vt 1.000000 35.287407
vt 0.000000 -20.287409
vt 0.062500 -20.287409
vt 0.125000 -20.287409
vt 0.187500 -20.287409
vt 0.250000 -20.287409
vt 0.312500 -20.287409
vt 0.375000 -20.287409
vt 0.437500 -20.287409
vt 0.500000 -20.287409
vt 0.562500 -20.287409
vt 0.625000 -20.287409
vt 0.687500 -20.287409
vt 0.750000 -20.287409
vt 0.812500 -20.287409
vt 0.875000 -20.287409
vt 0.937500 -20.287409
vt 1.000000 -20.287409
vn 0.0000 0.0000 1.0000
vn 0.0000 -0.7444 0.6677
vn 0.2848 -0.6877 0.6677
vn -0.0001 0.0000 1.0000
vn 0.5264 -0.5264 0.6677
vn 0.6877 -0.2849 0.6677
vn 0.7444 0.0000 0.6677
vn 0.6877 0.2849 0.6677
vn 0.5264 0.5264 0.6677
vn 0.2849 0.6877 0.6677
vn -0.0000 0.7444 0.6677
vn -0.2848 0.6877 0.6677
vn 0.0001 0.0000 1.0000
vn -0.5263 0.5264 0.6677
vn -0.6877 0.2849 0.6677
vn -0.7444 -0.0000 0.6677
vn -0.6877 -0.2849 0.6677
vn -0.5264 -0.5264 0.6677
vn -0.2849 -0.6877 0.6677
vn 0.0000 -1.0000 0.0055
vn 0.3827 -0.9239 0.0055
vn 0.7071 -0.7071 0.0055
vn 0.9239 -0.3827 0.0055
vn 1.0000 0.0000 0.0055
vn 0.9239 0.3827 0.0055
vn 0.7071 0.7071 0.0055
vn 0.3827 0.9239 0.0055
vn -0.0000 1.0000 0.0055
vn -0.3827 0.9239 0.0055
vn -0.7071 0.7071 0.0055
vn -0.9239 0.3827 0.0055
vn -1.0000 -0.0000 0.0055
vn -0.9239 -0.3827 0.0055
vn -0.7071 -0.7071 0.0055
vn -0.3827 -0.9239 0.0055
usemtl galvanized_metall.003
s 1
f 1/1/1 2/2/2 5/3/3 4/4/4
f 4/4/4 5/3/3 8/5/5 7/6/1
f 7/6/1 8/5/5 11/7/6 10/8/1
f 10/8/1 11/7/6 14/9/7 13/10/1
f 13/10/1 14/9/7 17/11/8 16/12/1
f 16/12/1 17/11/8 20/13/9 19/14/1
f 19/14/1 20/13/9 23/15/10 22/16/1
f 22/16/1 23/15/10 26/17/11 25/18/1
f 25/18/1 26/17/11 29/19/12 28/20/13
f 28/20/13 29/19/12 32/21/14 31/22/13
f 31/22/13 32/21/14 35/23/15 34/24/1
f 34/24/1 35/23/15 38/25/16 37/26/1
f 37/26/1 38/25/16 41/27/17 40/28/1
f 40/28/1 41/27/17 44/29/18 43/30/1
f 43/30/1 44/29/18 47/31/19 46/32/1
f 46/32/1 47/31/19 2/33/2 1/34/1
f 2/2/2 3/35/20 6/36/21 5/3/3
f 5/3/3 6/36/21 9/37/22 8/5/5
f 8/5/5 9/37/22 12/38/23 11/7/6
f 11/7/6 12/38/23 15/39/24 14/9/7
f 14/9/7 15/39/24 18/40/25 17/11/8
f 17/11/8 18/40/25 21/41/26 20/13/9
f 20/13/9 21/41/26 24/42/27 23/15/10
f 23/15/10 24/42/27 27/43/28 26/17/11
f 26/17/11 27/43/28 30/44/29 29/19/12
f 29/19/12 30/44/29 33/45/30 32/21/14
f 32/21/14 33/45/30 36/46/31 35/23/15
f 35/23/15 36/46/31 39/47/32 38/25/16
f 38/25/16 39/47/32 42/48/33 41/27/17
f 41/27/17 42/48/33 45/49/34 44/29/18
f 44/29/18 45/49/34 48/50/35 47/31/19
f 47/31/19 48/50/35 3/51/20 2/33/2
