# Blender 4.0.2
# www.blender.org
mtllib Stahl_7300.mtl
o Mast_7,3m_Metalogalva
v 0.000000 0.000000 7.300000
v 0.000000 -0.038000 7.300000
v 0.000000 -0.075500 0.000000
v 0.000000 0.000000 7.300000
v 0.014542 -0.035107 7.300000
v 0.028893 -0.069753 0.000000
v 0.000000 0.000000 7.300000
v 0.026870 -0.026870 7.300000
v 0.053387 -0.053387 0.000000
v 0.000000 0.000000 7.300000
v 0.035107 -0.014542 7.300000
v 0.069753 -0.028893 0.000000
v 0.000000 0.000000 7.300000
v 0.038000 0.000000 7.300000
v 0.075500 0.000000 0.000000
v 0.000000 0.000000 7.300000
v 0.035107 0.014542 7.300000
v 0.069753 0.028893 0.000000
v 0.000000 0.000000 7.300000
v 0.026870 0.026870 7.300000
v 0.053387 0.053387 0.000000
v 0.000000 0.000000 7.300000
v 0.014542 0.035107 7.300000
v 0.028893 0.069753 0.000000
v 0.000000 0.000000 7.300000
v 0.000000 0.038000 7.300000
v 0.000000 0.075500 0.000000
v 0.000000 0.000000 7.300000
v -0.014542 0.035107 7.300000
v -0.028893 0.069753 0.000000
v 0.000000 0.000000 7.300000
v -0.026870 0.026870 7.300000
v -0.053387 0.053387 0.000000
v 0.000000 0.000000 7.300000
v -0.035107 0.014542 7.300000
v -0.069753 0.028893 0.000000
v 0.000000 0.000000 7.300000
v -0.038000 0.000000 7.300000
v -0.075500 0.000000 0.000000
v 0.000000 0.000000 7.300000
v -0.035107 -0.014542 7.300000
v -0.069753 -0.028893 0.000000
v 0.000000 0.000000 7.300000
v -0.026870 -0.026870 7.300000
v -0.053387 -0.053387 0.000000
v 0.000000 0.000000 7.300000
v -0.014542 -0.035107 7.300000
v -0.028893 -0.069753 0.000000
vn -0.0000 -0.0000 1.0000
vn 0.2849 -0.6878 0.6676
vn 0.5264 -0.5264 0.6676
vn 0.6878 -0.2849 0.6676
vn 0.7445 -0.0000 0.6676
vn 0.6878 0.2849 0.6676
vn 0.5264 0.5264 0.6676
vn 0.2849 0.6878 0.6676
vn -0.0000 0.7445 0.6676
vn -0.2849 0.6878 0.6676
vn -0.5264 0.5264 0.6676
vn -0.6878 0.2849 0.6676
vn -0.7445 -0.0000 0.6676
vn -0.6878 -0.2849 0.6676
vn -0.5264 -0.5264 0.6676
vn -0.2849 -0.6878 0.6676
vn -0.0000 -0.7445 0.6676
vn 0.3827 -0.9239 0.0051
vn 0.7071 -0.7071 0.0051
vn 0.9239 -0.3827 0.0051
vn 0.9239 0.3827 0.0051
vn 0.7071 0.7071 0.0051
vn 0.3827 0.9239 0.0051
vn -0.0000 1.0000 0.0051
vn -0.3827 0.9239 0.0051
vn -0.7071 0.7071 0.0051
vn -0.9239 0.3827 0.0051
vn -1.0000 -0.0000 0.0051
vn -0.9239 -0.3827 0.0051
vn -0.7071 -0.7071 0.0051
vn -0.3827 -0.9239 0.0051
vn -0.0000 -1.0000 0.0051
vn 1.0000 -0.0000 0.0051
vt 0.000000 15.028244
vt 0.062500 15.028244
vt 0.125000 15.028244
vt 0.187500 15.028244
vt 0.250000 15.028244
vt 0.312500 15.028244
vt 0.375000 15.028244
vt 0.437500 15.028244
vt 0.500000 15.028244
vt 0.562500 15.028244
vt 0.625000 15.028244
vt 0.687500 15.028244
vt 0.750000 15.028244
vt 0.812500 15.028244
vt 0.875000 15.028244
vt 0.937500 15.028244
vt 1.000000 15.028244
vt 0.062500 -7.528245
vt 0.125000 -7.528245
vt 0.187500 -7.528245
vt 0.312500 -7.528245
vt 0.375000 -7.528245
vt 0.437500 -7.528245
vt 0.500000 -7.528245
vt 0.562500 -7.528245
vt 0.625000 -7.528245
vt 0.687500 -7.528245
vt 0.750000 -7.528245
vt 0.812500 -7.528245
vt 0.875000 -7.528245
vt 0.937500 -7.528245
vt 0.000000 -7.528245
vt 0.250000 -7.528245
vt 1.000000 -7.528245
s 1
usemtl galvanized_metall.014
f 1/1/1 5/2/2 4/2/1
f 4/2/1 8/3/3 7/3/1
f 7/3/1 11/4/4 10/4/1
f 10/4/1 14/5/5 13/5/1
f 13/5/1 17/6/6 16/6/1
f 16/6/1 20/7/7 19/7/1
f 19/7/1 23/8/8 22/8/1
f 22/8/1 26/9/9 25/9/1
f 25/9/1 29/10/10 28/10/1
f 28/10/1 32/11/11 31/11/1
f 31/11/1 35/12/12 34/12/1
f 34/12/1 38/13/13 37/13/1
f 37/13/1 41/14/14 40/14/1
f 40/14/1 44/15/15 43/15/1
f 43/15/1 47/16/16 46/16/1
f 46/16/1 2/17/17 1/17/1
f 2/1/17 6/18/18 5/2/2
f 6/18/18 8/3/3 5/2/2
f 9/19/19 11/4/4 8/3/3
f 12/20/20 14/5/5 11/4/4
f 14/5/5 18/21/21 17/6/6
f 18/21/21 20/7/7 17/6/6
f 21/22/22 23/8/8 20/7/7
f 24/23/23 26/9/9 23/8/8
f 27/24/24 29/10/10 26/9/9
f 30/25/25 32/11/11 29/10/10
f 33/26/26 35/12/12 32/11/11
f 36/27/27 38/13/13 35/12/12
f 39/28/28 41/14/14 38/13/13
f 42/29/29 44/15/15 41/14/14
f 45/30/30 47/16/16 44/15/15
f 48/31/31 2/17/17 47/16/16
f 1/1/1 2/1/17 5/2/2
f 4/2/1 5/2/2 8/3/3
f 7/3/1 8/3/3 11/4/4
f 10/4/1 11/4/4 14/5/5
f 13/5/1 14/5/5 17/6/6
f 16/6/1 17/6/6 20/7/7
f 19/7/1 20/7/7 23/8/8
f 22/8/1 23/8/8 26/9/9
f 25/9/1 26/9/9 29/10/10
f 28/10/1 29/10/10 32/11/11
f 31/11/1 32/11/11 35/12/12
f 34/12/1 35/12/12 38/13/13
f 37/13/1 38/13/13 41/14/14
f 40/14/1 41/14/14 44/15/15
f 43/15/1 44/15/15 47/16/16
f 46/16/1 47/16/16 2/17/17
f 2/1/17 3/32/32 6/18/18
f 6/18/18 9/19/19 8/3/3
f 9/19/19 12/20/20 11/4/4
f 12/20/20 15/33/33 14/5/5
f 14/5/5 15/33/33 18/21/21
f 18/21/21 21/22/22 20/7/7
f 21/22/22 24/23/23 23/8/8
f 24/23/23 27/24/24 26/9/9
f 27/24/24 30/25/25 29/10/10
f 30/25/25 33/26/26 32/11/11
f 33/26/26 36/27/27 35/12/12
f 36/27/27 39/28/28 38/13/13
f 39/28/28 42/29/29 41/14/14
f 42/29/29 45/30/30 44/15/15
f 45/30/30 48/31/31 47/16/16
f 48/31/31 3/34/32 2/17/17
