# Blender v3.5.1 OBJ File: 'Stahl_11000.blend'
# www.blender.org
mtllib Stahl_11000.mtl
o Mast_11,0m_Metalogalva.001
v 0.000000 0.000000 11.000000
v 0.000000 -0.038000 11.000000
v 0.000000 -0.088000 0.000000
v 0.000000 0.000000 11.000000
v 0.014542 -0.035107 11.000000
v 0.033676 -0.081301 0.000000
v 0.000000 0.000000 11.000000
v 0.026870 -0.026870 11.000000
v 0.062225 -0.062225 0.000000
v 0.000000 0.000000 11.000000
v 0.035107 -0.014542 11.000000
v 0.081301 -0.033676 0.000000
v 0.000000 0.000000 11.000000
v 0.038000 0.000000 11.000000
v 0.088000 0.000000 0.000000
v 0.000000 0.000000 11.000000
v 0.035107 0.014542 11.000000
v 0.081301 0.033676 0.000000
v 0.000000 0.000000 11.000000
v 0.026870 0.026870 11.000000
v 0.062225 0.062225 0.000000
v 0.000000 0.000000 11.000000
v 0.014542 0.035107 11.000000
v 0.033676 0.081301 0.000000
v 0.000000 0.000000 11.000000
v 0.000000 0.038000 11.000000
v 0.000000 0.088000 0.000000
v 0.000000 0.000000 11.000000
v -0.014542 0.035107 11.000000
v -0.033676 0.081301 0.000000
v 0.000000 0.000000 11.000000
v -0.026870 0.026870 11.000000
v -0.062225 0.062225 0.000000
v 0.000000 0.000000 11.000000
v -0.035107 0.014542 11.000000
v -0.081301 0.033676 0.000000
v 0.000000 0.000000 11.000000
v -0.038000 0.000000 11.000000
v -0.088000 0.000000 0.000000
v 0.000000 0.000000 11.000000
v -0.035107 -0.014542 11.000000
v -0.081301 -0.033676 0.000000
v 0.000000 0.000000 11.000000
v -0.026870 -0.026870 11.000000
v -0.062225 -0.062225 0.000000
v 0.000000 0.000000 11.000000
v -0.014542 -0.035107 11.000000
v -0.033676 -0.081301 0.000000
vt 0.000000 27.093782
vt 0.062500 27.093782
vt 0.062500 27.093782
vt 0.125000 27.093782
vt 0.125000 27.093782
vt 0.187500 27.093782
vt 0.187500 27.093782
vt 0.250000 27.093782
vt 0.250000 27.093782
vt 0.312500 27.093782
vt 0.312500 27.093782
vt 0.375000 27.093782
vt 0.375000 27.093782
vt 0.437500 27.093782
vt 0.437500 27.093782
vt 0.500000 27.093782
vt 0.500000 27.093782
vt 0.562500 27.093782
vt 0.562500 27.093782
vt 0.625000 27.093782
vt 0.625000 27.093782
vt 0.687500 27.093782
vt 0.687500 27.093782
vt 0.750000 27.093782
vt 0.750000 27.093782
vt 0.812500 27.093782
vt 0.812500 27.093782
vt 0.875000 27.093782
vt 0.875000 27.093782
vt 0.937500 27.093782
vt 0.937500 27.093782
vt 1.000000 27.093782
vt 1.000000 27.093782
vt 0.000000 -16.093782
vt 0.000000 27.093782
vt 0.125000 -16.093782
vt 0.187500 -16.093782
vt 0.250000 -16.093782
vt 0.375000 -16.093782
vt 0.437500 -16.093782
vt 0.500000 -16.093782
vt 0.562500 -16.093782
vt 0.625000 -16.093782
vt 0.687500 -16.093782
vt 0.750000 -16.093782
vt 0.812500 -16.093782
vt 0.875000 -16.093782
vt 0.937500 -16.093782
vt 0.062500 -16.093782
vt 0.312500 -16.093782
vt 1.000000 -16.093782
vn 0.0000 0.0000 1.0000
vn 0.2850 -0.6880 0.6674
vn 0.5266 -0.5266 0.6674
vn 0.6880 -0.2850 0.6674
vn 0.7447 0.0000 0.6674
vn 0.6880 0.2850 0.6674
vn 0.5266 0.5266 0.6674
vn 0.2850 0.6880 0.6674
vn -0.0000 0.7447 0.6674
vn -0.2850 0.6880 0.6674
vn -0.5266 0.5266 0.6674
vn -0.6880 0.2850 0.6674
vn -0.7447 -0.0000 0.6674
vn -0.6880 -0.2850 0.6674
vn -0.5266 -0.5266 0.6674
vn -0.2850 -0.6880 0.6674
vn 0.0000 -0.7447 0.6674
vn -0.0000 -1.0000 0.0045
vn 0.7071 -0.7071 0.0045
vn 0.9239 -0.3827 0.0045
vn 1.0000 -0.0000 0.0045
vn 0.7071 0.7071 0.0045
vn 0.3827 0.9239 0.0045
vn 0.0000 1.0000 0.0045
vn -0.3827 0.9239 0.0045
vn -0.7071 0.7071 0.0045
vn -0.9239 0.3827 0.0045
vn -1.0000 0.0000 0.0045
vn -0.9239 -0.3827 0.0045
vn -0.7071 -0.7071 0.0045
vn -0.3827 -0.9239 0.0045
vn 0.3827 -0.9239 0.0045
vn 0.9239 0.3827 0.0045
usemtl galvanized_metall.020
s 1
f 1/1/1 5/2/2 4/3/1
f 4/3/1 8/4/3 7/5/1
f 7/5/1 11/6/4 10/7/1
f 10/7/1 14/8/5 13/9/1
f 13/9/1 17/10/6 16/11/1
f 16/11/1 20/12/7 19/13/1
f 19/13/1 23/14/8 22/15/1
f 22/15/1 26/16/9 25/17/1
f 25/17/1 29/18/10 28/19/1
f 28/19/1 32/20/11 31/21/1
f 31/21/1 35/22/12 34/23/1
f 34/23/1 38/24/13 37/25/1
f 37/25/1 41/26/14 40/27/1
f 40/27/1 44/28/15 43/29/1
f 43/29/1 47/30/16 46/31/1
f 46/31/1 2/32/17 1/33/1
f 3/34/18 5/2/2 2/35/17
f 5/2/2 9/36/19 8/4/3
f 9/36/19 11/6/4 8/4/3
f 12/37/20 14/8/5 11/6/4
f 15/38/21 17/10/6 14/8/5
f 17/10/6 21/39/22 20/12/7
f 21/39/22 23/14/8 20/12/7
f 24/40/23 26/16/9 23/14/8
f 27/41/24 29/18/10 26/16/9
f 30/42/25 32/20/11 29/18/10
f 33/43/26 35/22/12 32/20/11
f 36/44/27 38/24/13 35/22/12
f 39/45/28 41/26/14 38/24/13
f 42/46/29 44/28/15 41/26/14
f 45/47/30 47/30/16 44/28/15
f 48/48/31 2/32/17 47/30/16
f 1/1/1 2/35/17 5/2/2
f 4/3/1 5/2/2 8/4/3
f 7/5/1 8/4/3 11/6/4
f 10/7/1 11/6/4 14/8/5
f 13/9/1 14/8/5 17/10/6
f 16/11/1 17/10/6 20/12/7
f 19/13/1 20/12/7 23/14/8
f 22/15/1 23/14/8 26/16/9
f 25/17/1 26/16/9 29/18/10
f 28/19/1 29/18/10 32/20/11
f 31/21/1 32/20/11 35/22/12
f 34/23/1 35/22/12 38/24/13
f 37/25/1 38/24/13 41/26/14
f 40/27/1 41/26/14 44/28/15
f 43/29/1 44/28/15 47/30/16
f 46/31/1 47/30/16 2/32/17
f 3/34/18 6/49/32 5/2/2
f 5/2/2 6/49/32 9/36/19
f 9/36/19 12/37/20 11/6/4
f 12/37/20 15/38/21 14/8/5
f 15/38/21 18/50/33 17/10/6
f 17/10/6 18/50/33 21/39/22
f 21/39/22 24/40/23 23/14/8
f 24/40/23 27/41/24 26/16/9
f 27/41/24 30/42/25 29/18/10
f 30/42/25 33/43/26 32/20/11
f 33/43/26 36/44/27 35/22/12
f 36/44/27 39/45/28 38/24/13
f 39/45/28 42/46/29 41/26/14
f 42/46/29 45/47/30 44/28/15
f 45/47/30 48/48/31 47/30/16
f 48/48/31 3/51/18 2/32/17
