# Blender 4.0.2
# www.blender.org
mtllib Stahl_3200.mtl
o Mast_3,2m_Metalogalva.002
v 0.000000 0.000000 3.200000
v 0.000000 -0.038000 3.200000
v 0.000000 -0.058000 0.000000
v 0.014542 -0.035107 3.200000
v 0.022196 -0.053585 0.000000
v 0.026870 -0.026870 3.200000
v 0.041012 -0.041012 0.000000
v 0.035107 -0.014542 3.200000
v 0.053585 -0.022196 0.000000
v 0.038000 0.000000 3.200000
v 0.058000 0.000000 0.000000
v 0.035107 0.014542 3.200000
v 0.053585 0.022196 0.000000
v 0.026870 0.026870 3.200000
v 0.041012 0.041012 0.000000
v 0.014542 0.035107 3.200000
v 0.022196 0.053585 0.000000
v 0.000000 0.038000 3.200000
v 0.000000 0.058000 0.000000
v -0.014542 0.035107 3.200000
v -0.022196 0.053585 0.000000
v -0.026870 0.026870 3.200000
v -0.041012 0.041012 0.000000
v -0.035107 0.014542 3.200000
v -0.053585 0.022196 0.000000
v -0.038000 0.000000 3.200000
v -0.058000 0.000000 0.000000
v -0.035107 -0.014542 3.200000
v -0.053585 -0.022196 0.000000
v -0.026870 -0.026870 3.200000
v -0.041012 -0.041012 0.000000
v -0.014542 -0.035107 3.200000
v -0.022196 -0.053585 0.000000
vn -0.0000 -0.0000 1.0000
vn -0.0000 -0.7441 0.6680
vn 0.2848 -0.6875 0.6680
vn 0.5262 -0.5262 0.6680
vn 0.6875 -0.2848 0.6680
vn 0.7441 -0.0000 0.6680
vn 0.6875 0.2848 0.6680
vn 0.5262 0.5262 0.6680
vn 0.2848 0.6875 0.6680
vn -0.0000 0.7441 0.6680
vn -0.2848 0.6875 0.6680
vn -0.5262 0.5262 0.6680
vn -0.6875 0.2848 0.6680
vn -0.7441 -0.0000 0.6680
vn -0.6875 -0.2848 0.6680
vn -0.5262 -0.5262 0.6680
vn -0.2848 -0.6875 0.6680
vn -0.0000 -1.0000 0.0062
vn 0.3827 -0.9239 0.0062
vn 0.7071 -0.7071 0.0062
vn 0.9239 -0.3827 0.0062
vn 1.0000 -0.0000 0.0062
vn 0.9239 0.3827 0.0062
vn 0.7071 0.7071 0.0062
vn 0.3827 0.9239 0.0062
vn -0.0000 1.0000 0.0062
vn -0.3827 0.9239 0.0062
vn -0.7071 0.7071 0.0062
vn -0.9239 0.3827 0.0062
vn -1.0000 -0.0000 0.0062
vn -0.9239 -0.3827 0.0062
vn -0.7071 -0.7071 0.0062
vn -0.3827 -0.9239 0.0062
vt 0.000000 7.639608
vt 0.062500 7.639608
vt 0.125000 7.639608
vt 0.187500 7.639608
vt 0.250000 7.639608
vt 0.312500 7.639608
vt 0.375000 7.639608
vt 0.437500 7.639608
vt 0.500000 7.639608
vt 0.562500 7.639608
vt 0.625000 7.639608
vt 0.687500 7.639608
vt 0.750000 7.639608
vt 0.812500 7.639608
vt 0.875000 7.639608
vt 0.937500 7.639608
vt 1.000000 7.639608
vt 0.000000 -4.639608
vt 0.062500 -4.639608
vt 0.125000 -4.639608
vt 0.187500 -4.639608
vt 0.250000 -4.639608
vt 0.312500 -4.639608
vt 0.375000 -4.639608
vt 0.437500 -4.639608
vt 0.500000 -4.639608
vt 0.562500 -4.639608
vt 0.625000 -4.639608
vt 0.687500 -4.639608
vt 0.750000 -4.639608
vt 0.812500 -4.639608
vt 0.875000 -4.639608
vt 0.937500 -4.639608
vt 1.000000 -4.639608
s 1
usemtl galvanized_metall.008
f 1/1/1 2/1/2 4/2/3
f 1/2/1 4/2/3 6/3/4
f 1/3/1 6/3/4 8/4/5
f 1/4/1 8/4/5 10/5/6
f 1/5/1 10/5/6 12/6/7
f 1/6/1 12/6/7 14/7/8
f 1/7/1 14/7/8 16/8/9
f 1/8/1 16/8/9 18/9/10
f 1/9/1 18/9/10 20/10/11
f 1/10/1 20/10/11 22/11/12
f 1/11/1 22/11/12 24/12/13
f 1/12/1 24/12/13 26/13/14
f 1/13/1 26/13/14 28/14/15
f 1/14/1 28/14/15 30/15/16
f 1/15/1 30/15/16 32/16/17
f 1/16/1 32/16/17 2/17/2
f 3/18/18 4/2/3 2/1/2
f 5/19/19 6/3/4 4/2/3
f 7/20/20 8/4/5 6/3/4
f 9/21/21 10/5/6 8/4/5
f 11/22/22 12/6/7 10/5/6
f 13/23/23 14/7/8 12/6/7
f 15/24/24 16/8/9 14/7/8
f 17/25/25 18/9/10 16/8/9
f 19/26/26 20/10/11 18/9/10
f 21/27/27 22/11/12 20/10/11
f 23/28/28 24/12/13 22/11/12
f 25/29/29 26/13/14 24/12/13
f 27/30/30 28/14/15 26/13/14
f 29/31/31 30/15/16 28/14/15
f 31/32/32 32/16/17 30/15/16
f 33/33/33 2/17/2 32/16/17
f 3/18/18 5/19/19 4/2/3
f 5/19/19 7/20/20 6/3/4
f 7/20/20 9/21/21 8/4/5
f 9/21/21 11/22/22 10/5/6
f 11/22/22 13/23/23 12/6/7
f 13/23/23 15/24/24 14/7/8
f 15/24/24 17/25/25 16/8/9
f 17/25/25 19/26/26 18/9/10
f 19/26/26 21/27/27 20/10/11
f 21/27/27 23/28/28 22/11/12
f 23/28/28 25/29/29 24/12/13
f 25/29/29 27/30/30 26/13/14
f 27/30/30 29/31/31 28/14/15
f 29/31/31 31/32/32 30/15/16
f 31/32/32 33/33/33 32/16/17
f 33/33/33 3/34/18 2/17/2
