# Blender v3.6.3 OBJ File: 'Stahl_5000.blend'
# www.blender.org
mtllib Stahl_5000.mtl
o Mast_5,0m_Metalogalva.001
v 0.000000 0.000000 5.000000
v 0.000000 -0.038000 5.000000
v 0.000000 -0.063000 0.000000
v 0.000000 0.000000 5.000000
v 0.014542 -0.035107 5.000000
v 0.024109 -0.058204 0.000000
v 0.000000 0.000000 5.000000
v 0.026870 -0.026870 5.000000
v 0.044548 -0.044548 0.000000
v 0.000000 0.000000 5.000000
v 0.035107 -0.014542 5.000000
v 0.058204 -0.024109 0.000000
v 0.000000 0.000000 5.000000
v 0.038000 0.000000 5.000000
v 0.063000 0.000000 0.000000
v 0.000000 0.000000 5.000000
v 0.035107 0.014542 5.000000
v 0.058204 0.024109 0.000000
v 0.000000 0.000000 5.000000
v 0.026870 0.026870 5.000000
v 0.044548 0.044548 0.000000
v 0.000000 0.000000 5.000000
v 0.014542 0.035107 5.000000
v 0.024109 0.058204 0.000000
v 0.000000 0.000000 5.000000
v 0.000000 0.038000 5.000000
v 0.000000 0.063000 0.000000
v 0.000000 0.000000 5.000000
v -0.014542 0.035107 5.000000
v -0.024109 0.058204 0.000000
v 0.000000 0.000000 5.000000
v -0.026870 0.026870 5.000000
v -0.044548 0.044548 0.000000
v 0.000000 0.000000 5.000000
v -0.035107 0.014542 5.000000
v -0.058204 0.024109 0.000000
v 0.000000 0.000000 5.000000
v -0.038000 0.000000 5.000000
v -0.063000 0.000000 0.000000
v 0.000000 0.000000 5.000000
v -0.035107 -0.014542 5.000000
v -0.058204 -0.024109 0.000000
v 0.000000 0.000000 5.000000
v -0.026870 -0.026870 5.000000
v -0.044548 -0.044548 0.000000
v 0.000000 0.000000 5.000000
v -0.014542 -0.035107 5.000000
v -0.024109 -0.058204 0.000000
vt 0.000000 15.266010
vt 0.062500 15.266010
vt 0.062500 15.266010
vt 0.125000 15.266010
vt 0.125000 15.266010
vt 0.187500 15.266010
vt 0.187500 15.266010
vt 0.250000 15.266010
vt 0.250000 15.266010
vt 0.312500 15.266010
vt 0.312500 15.266010
vt 0.375000 15.266010
vt 0.375000 15.266010
vt 0.437500 15.266010
vt 0.437500 15.266010
vt 0.500000 15.266010
vt 0.500000 15.266010
vt 0.562500 15.266010
vt 0.562500 15.266010
vt 0.625000 15.266010
vt 0.625000 15.266010
vt 0.687500 15.266010
vt 0.687500 15.266010
vt 0.750000 15.266010
vt 0.750000 15.266010
vt 0.812500 15.266010
vt 0.812500 15.266010
vt 0.875000 15.266010
vt 0.875000 15.266010
vt 0.937500 15.266010
vt 0.937500 15.266010
vt 1.000000 15.266010
vt 1.000000 15.266010
vt 0.000000 15.266010
vt 0.062500 -10.266010
vt 0.125000 -10.266010
vt 0.250000 -10.266010
vt 0.312500 -10.266010
vt 0.375000 -10.266010
vt 0.437500 -10.266010
vt 0.562500 -10.266010
vt 0.625000 -10.266010
vt 0.687500 -10.266010
vt 0.750000 -10.266010
vt 0.812500 -10.266010
vt 0.875000 -10.266010
vt 0.937500 -10.266010
vt 0.000000 -10.266010
vt 0.187500 -10.266010
vt 0.500000 -10.266010
vt 1.000000 -10.266010
vn 0.0000 0.0000 1.0000
vn 0.2849 -0.6879 0.6676
vn 0.5265 -0.5265 0.6676
vn 0.6879 -0.2849 0.6676
vn 0.7446 0.0000 0.6676
vn 0.6879 0.2849 0.6676
vn 0.5265 0.5265 0.6676
vn 0.2849 0.6879 0.6676
vn 0.0000 0.7446 0.6676
vn -0.2849 0.6879 0.6676
vn -0.5265 0.5265 0.6676
vn -0.6879 0.2849 0.6676
vn -0.7446 0.0000 0.6676
vn -0.6879 -0.2849 0.6676
vn -0.5265 -0.5265 0.6676
vn -0.2849 -0.6879 0.6676
vn -0.0000 -0.7446 0.6676
vn 0.3827 -0.9239 0.0050
vn 0.7071 -0.7071 0.0050
vn 1.0000 0.0000 0.0050
vn 0.9239 0.3827 0.0050
vn 0.7071 0.7071 0.0050
vn 0.3827 0.9239 0.0050
vn -0.3827 0.9239 0.0050
vn -0.7071 0.7071 0.0050
vn -0.9239 0.3827 0.0050
vn -1.0000 -0.0000 0.0050
vn -0.9239 -0.3827 0.0050
vn -0.7071 -0.7071 0.0050
vn -0.3827 -0.9239 0.0050
vn 0.0000 -1.0000 0.0050
vn 0.9239 -0.3827 0.0050
vn 0.0000 1.0000 0.0050
usemtl galvanized_metall.003
s 1
f 1/1/1 5/2/2 4/3/1
f 4/3/1 8/4/3 7/5/1
f 7/5/1 11/6/4 10/7/1
f 10/7/1 14/8/5 13/9/1
f 13/9/1 17/10/6 16/11/1
f 16/11/1 20/12/7 19/13/1
f 19/13/1 23/14/8 22/15/1
f 22/15/1 26/16/9 25/17/1
f 25/17/1 29/18/10 28/19/1
f 28/19/1 32/20/11 31/21/1
f 31/21/1 35/22/12 34/23/1
f 34/23/1 38/24/13 37/25/1
f 37/25/1 41/26/14 40/27/1
f 40/27/1 44/28/15 43/29/1
f 43/29/1 47/30/16 46/31/1
f 46/31/1 2/32/17 1/33/1
f 2/34/17 6/35/18 5/2/2
f 6/35/18 8/4/3 5/2/2
f 9/36/19 11/6/4 8/4/3
f 11/6/4 15/37/20 14/8/5
f 15/37/20 17/10/6 14/8/5
f 18/38/21 20/12/7 17/10/6
f 21/39/22 23/14/8 20/12/7
f 24/40/23 26/16/9 23/14/8
f 26/16/9 30/41/24 29/18/10
f 29/18/10 33/42/25 32/20/11
f 33/42/25 35/22/12 32/20/11
f 36/43/26 38/24/13 35/22/12
f 39/44/27 41/26/14 38/24/13
f 42/45/28 44/28/15 41/26/14
f 45/46/29 47/30/16 44/28/15
f 48/47/30 2/32/17 47/30/16
f 1/1/1 2/34/17 5/2/2
f 4/3/1 5/2/2 8/4/3
f 7/5/1 8/4/3 11/6/4
f 10/7/1 11/6/4 14/8/5
f 13/9/1 14/8/5 17/10/6
f 16/11/1 17/10/6 20/12/7
f 19/13/1 20/12/7 23/14/8
f 22/15/1 23/14/8 26/16/9
f 25/17/1 26/16/9 29/18/10
f 28/19/1 29/18/10 32/20/11
f 31/21/1 32/20/11 35/22/12
f 34/23/1 35/22/12 38/24/13
f 37/25/1 38/24/13 41/26/14
f 40/27/1 41/26/14 44/28/15
f 43/29/1 44/28/15 47/30/16
f 46/31/1 47/30/16 2/32/17
f 2/34/17 3/48/31 6/35/18
f 6/35/18 9/36/19 8/4/3
f 9/36/19 12/49/32 11/6/4
f 11/6/4 12/49/32 15/37/20
f 15/37/20 18/38/21 17/10/6
f 18/38/21 21/39/22 20/12/7
f 21/39/22 24/40/23 23/14/8
f 24/40/23 27/50/33 26/16/9
f 26/16/9 27/50/33 30/41/24
f 29/18/10 30/41/24 33/42/25
f 33/42/25 36/43/26 35/22/12
f 36/43/26 39/44/27 38/24/13
f 39/44/27 42/45/28 41/26/14
f 42/45/28 45/46/29 44/28/15
f 45/46/29 48/47/30 47/30/16
f 48/47/30 3/51/31 2/32/17
