# Blender v3.6.3 OBJ File: 'Stahl_4500.blend'
# www.blender.org
mtllib Stahl_4500.mtl
o Mast_4,5m_Metalogalva.001
v 0.000000 0.000000 4.500000
v 0.000000 -0.038000 4.500000
v 0.000000 -0.060500 0.000000
v 0.000000 0.000000 4.500000
v 0.014542 -0.035107 4.500000
v 0.023152 -0.055895 0.000000
v 0.000000 0.000000 4.500000
v 0.026870 -0.026870 4.500000
v 0.042780 -0.042780 0.000000
v 0.000000 0.000000 4.500000
v 0.035107 -0.014542 4.500000
v 0.055895 -0.023152 0.000000
v 0.000000 0.000000 4.500000
v 0.038000 0.000000 4.500000
v 0.060500 0.000000 0.000000
v 0.000000 0.000000 4.500000
v 0.035107 0.014542 4.500000
v 0.055895 0.023152 0.000000
v 0.000000 0.000000 4.500000
v 0.026870 0.026870 4.500000
v 0.042780 0.042780 0.000000
v 0.000000 0.000000 4.500000
v 0.014542 0.035107 4.500000
v 0.023152 0.055895 0.000000
v 0.000000 0.000000 4.500000
v 0.000000 0.038000 4.500000
v 0.000000 0.060500 0.000000
v 0.000000 0.000000 4.500000
v -0.014542 0.035107 4.500000
v -0.023152 0.055895 0.000000
v 0.000000 0.000000 4.500000
v -0.026870 0.026870 4.500000
v -0.042780 0.042780 0.000000
v 0.000000 0.000000 4.500000
v -0.035107 0.014542 4.500000
v -0.055895 0.023152 0.000000
v 0.000000 0.000000 4.500000
v -0.038000 0.000000 4.500000
v -0.060500 0.000000 0.000000
v 0.000000 0.000000 4.500000
v -0.035107 -0.014542 4.500000
v -0.055895 -0.023152 0.000000
v 0.000000 0.000000 4.500000
v -0.026870 -0.026870 4.500000
v -0.042780 -0.042780 0.000000
v 0.000000 0.000000 4.500000
v -0.014542 -0.035107 4.500000
v -0.023152 -0.055895 0.000000
vt 0.000000 11.198791
vt 0.062500 11.198791
vt 0.062500 11.198791
vt 0.125000 11.198791
vt 0.125000 11.198791
vt 0.187500 11.198791
vt 0.187500 11.198791
vt 0.250000 11.198791
vt 0.250000 11.198791
vt 0.312500 11.198791
vt 0.312500 11.198791
vt 0.375000 11.198791
vt 0.375000 11.198791
vt 0.437500 11.198791
vt 0.437500 11.198791
vt 0.500000 11.198791
vt 0.500000 11.198791
vt 0.562500 11.198791
vt 0.562500 11.198791
vt 0.625000 11.198791
vt 0.625000 11.198791
vt 0.687500 11.198791
vt 0.687500 11.198791
vt 0.750000 11.198791
vt 0.750000 11.198791
vt 0.812500 11.198791
vt 0.812500 11.198791
vt 0.875000 11.198791
vt 0.875000 11.198791
vt 0.937500 11.198791
vt 0.937500 11.198791
vt 1.000000 11.198791
vt 1.000000 11.198791
vt 0.000000 -6.698791
vt 0.000000 11.198791
vt 0.062500 -6.698791
vt 0.125000 -6.698791
vt 0.187500 -6.698791
vt 0.250000 -6.698791
vt 0.312500 -6.698791
vt 0.375000 -6.698791
vt 0.437500 -6.698791
vt 0.500000 -6.698791
vt 0.562500 -6.698791
vt 0.625000 -6.698791
vt 0.687500 -6.698791
vt 0.750000 -6.698791
vt 0.812500 -6.698791
vt 0.875000 -6.698791
vt 0.937500 -6.698791
vt 1.000000 -6.698791
vn -0.0000 0.0000 1.0000
vn 0.2849 -0.6879 0.6676
vn 0.5265 -0.5265 0.6676
vn 0.6879 -0.2849 0.6676
vn 0.7446 -0.0000 0.6676
vn 0.6879 0.2849 0.6676
vn 0.5265 0.5265 0.6676
vn 0.2849 0.6879 0.6676
vn 0.0000 0.7446 0.6676
vn -0.2849 0.6879 0.6676
vn -0.5265 0.5265 0.6676
vn -0.6879 0.2849 0.6676
vn -0.7446 0.0000 0.6676
vn -0.6879 -0.2849 0.6676
vn -0.5265 -0.5265 0.6676
vn -0.2849 -0.6879 0.6676
vn -0.0000 -0.7446 0.6676
vn 0.0000 -1.0000 0.0050
vn 0.3827 -0.9239 0.0050
vn 0.7071 -0.7071 0.0050
vn 0.9239 -0.3827 0.0050
vn 1.0000 0.0000 0.0050
vn 0.9239 0.3827 0.0050
vn 0.7071 0.7071 0.0050
vn 0.3827 0.9239 0.0050
vn -0.0000 1.0000 0.0050
vn -0.3827 0.9239 0.0050
vn -0.7071 0.7071 0.0050
vn -0.9239 0.3827 0.0050
vn -1.0000 -0.0000 0.0050
vn -0.9239 -0.3827 0.0050
vn -0.7071 -0.7071 0.0050
vn -0.3827 -0.9239 0.0050
usemtl galvanized_metall.002
s 1
f 1/1/1 5/2/2 4/3/1
f 4/3/1 8/4/3 7/5/1
f 7/5/1 11/6/4 10/7/1
f 10/7/1 14/8/5 13/9/1
f 13/9/1 17/10/6 16/11/1
f 16/11/1 20/12/7 19/13/1
f 19/13/1 23/14/8 22/15/1
f 22/15/1 26/16/9 25/17/1
f 25/17/1 29/18/10 28/19/1
f 28/19/1 32/20/11 31/21/1
f 31/21/1 35/22/12 34/23/1
f 34/23/1 38/24/13 37/25/1
f 37/25/1 41/26/14 40/27/1
f 40/27/1 44/28/15 43/29/1
f 43/29/1 47/30/16 46/31/1
f 46/31/1 2/32/17 1/33/1
f 3/34/18 5/2/2 2/35/17
f 6/36/19 8/4/3 5/2/2
f 9/37/20 11/6/4 8/4/3
f 12/38/21 14/8/5 11/6/4
f 15/39/22 17/10/6 14/8/5
f 18/40/23 20/12/7 17/10/6
f 21/41/24 23/14/8 20/12/7
f 24/42/25 26/16/9 23/14/8
f 27/43/26 29/18/10 26/16/9
f 30/44/27 32/20/11 29/18/10
f 33/45/28 35/22/12 32/20/11
f 36/46/29 38/24/13 35/22/12
f 39/47/30 41/26/14 38/24/13
f 42/48/31 44/28/15 41/26/14
f 45/49/32 47/30/16 44/28/15
f 48/50/33 2/32/17 47/30/16
f 1/1/1 2/35/17 5/2/2
f 4/3/1 5/2/2 8/4/3
f 7/5/1 8/4/3 11/6/4
f 10/7/1 11/6/4 14/8/5
f 13/9/1 14/8/5 17/10/6
f 16/11/1 17/10/6 20/12/7
f 19/13/1 20/12/7 23/14/8
f 22/15/1 23/14/8 26/16/9
f 25/17/1 26/16/9 29/18/10
f 28/19/1 29/18/10 32/20/11
f 31/21/1 32/20/11 35/22/12
f 34/23/1 35/22/12 38/24/13
f 37/25/1 38/24/13 41/26/14
f 40/27/1 41/26/14 44/28/15
f 43/29/1 44/28/15 47/30/16
f 46/31/1 47/30/16 2/32/17
f 3/34/18 6/36/19 5/2/2
f 6/36/19 9/37/20 8/4/3
f 9/37/20 12/38/21 11/6/4
f 12/38/21 15/39/22 14/8/5
f 15/39/22 18/40/23 17/10/6
f 18/40/23 21/41/24 20/12/7
f 21/41/24 24/42/25 23/14/8
f 24/42/25 27/43/26 26/16/9
f 27/43/26 30/44/27 29/18/10
f 30/44/27 33/45/28 32/20/11
f 33/45/28 36/46/29 35/22/12
f 36/46/29 39/47/30 38/24/13
f 39/47/30 42/48/31 41/26/14
f 42/48/31 45/49/32 44/28/15
f 45/49/32 48/50/33 47/30/16
f 48/50/33 3/51/18 2/32/17
