# Blender v3.5.0 OBJ File: 'Stahl_4000.blend'
# www.blender.org
mtllib Stahl_4000.mtl
o Mast_4,0m_Metalogalva.001_Mast_4,0m_Metalogalva.002
v 0.000000 0.000000 4.000000
v 0.000000 -0.038000 4.000000
v 0.000000 -0.058000 0.000000
v 0.000000 0.000000 4.000000
v 0.014542 -0.035107 4.000000
v 0.022196 -0.053585 0.000000
v 0.000000 0.000000 4.000000
v 0.026870 -0.026870 4.000000
v 0.041012 -0.041012 0.000000
v 0.000000 0.000000 4.000000
v 0.035107 -0.014542 4.000000
v 0.053585 -0.022196 0.000000
v 0.000000 0.000000 4.000000
v 0.038000 0.000000 4.000000
v 0.058000 0.000000 0.000000
v 0.000000 0.000000 4.000000
v 0.035107 0.014542 4.000000
v 0.053585 0.022196 0.000000
v 0.000000 0.000000 4.000000
v 0.026870 0.026870 4.000000
v 0.041012 0.041012 0.000000
v 0.000000 0.000000 4.000000
v 0.014542 0.035107 4.000000
v 0.022196 0.053585 0.000000
v 0.000000 0.000000 4.000000
v 0.000000 0.038000 4.000000
v 0.000000 0.058000 0.000000
v 0.000000 0.000000 4.000000
v -0.014542 0.035107 4.000000
v -0.022196 0.053585 0.000000
v 0.000000 0.000000 4.000000
v -0.026870 0.026870 4.000000
v -0.041012 0.041012 0.000000
v 0.000000 0.000000 4.000000
v -0.035107 0.014542 4.000000
v -0.053585 0.022196 0.000000
v 0.000000 0.000000 4.000000
v -0.038000 0.000000 4.000000
v -0.058000 0.000000 0.000000
v 0.000000 0.000000 4.000000
v -0.035107 -0.014542 4.000000
v -0.053585 -0.022196 0.000000
v 0.000000 0.000000 4.000000
v -0.026870 -0.026870 4.000000
v -0.041012 -0.041012 0.000000
v 0.000000 0.000000 4.000000
v -0.014542 -0.035107 4.000000
v -0.022196 -0.053585 0.000000
vt 0.000000 10.000000
vt 0.062500 10.000000
vt 0.000000 10.000000
vt 0.062500 10.000000
vt 0.125000 10.000000
vt 0.125000 10.000000
vt 0.187500 10.000000
vt 0.187500 10.000000
vt 0.250000 10.000000
vt 0.250000 10.000000
vt 0.312500 10.000000
vt 0.312500 10.000000
vt 0.375000 10.000000
vt 0.375000 10.000000
vt 0.437500 10.000000
vt 0.437500 10.000000
vt 0.500000 10.000000
vt 0.500000 10.000000
vt 0.562500 10.000000
vt 0.562500 10.000000
vt 0.625000 10.000000
vt 0.625000 10.000000
vt 0.687500 10.000000
vt 0.687500 10.000000
vt 0.750000 10.000000
vt 0.750000 10.000000
vt 0.812500 10.000000
vt 0.812500 10.000000
vt 0.875000 10.000000
vt 0.875000 10.000000
vt 0.937500 10.000000
vt 0.937500 10.000000
vt 1.000000 10.000000
vt 0.000000 -6.000000
vt 0.062500 -6.000000
vt 0.125000 -6.000000
vt 0.187500 -6.000000
vt 0.250000 -6.000000
vt 0.312500 -6.000000
vt 0.437500 -6.000000
vt 0.562500 -6.000000
vt 0.625000 -6.000000
vt 0.687500 -6.000000
vt 0.750000 -6.000000
vt 0.812500 -6.000000
vt 0.875000 -6.000000
vt 1.000000 -6.000000
vt 1.000000 10.000000
vt 0.375000 -6.000000
vt 0.500000 -6.000000
vt 0.937500 -6.000000
vn 0.0000 -0.7446 0.6676
vn 0.0000 0.0000 0.1249
vn 0.0000 0.0000 0.1241
vn 0.2849 -0.6879 0.6676
vn 0.0000 0.0000 0.1240
vn 0.5265 -0.5265 0.6676
vn 0.6879 -0.2849 0.6676
vn 0.0000 0.0000 0.1414
vn 0.7446 -0.0000 0.6676
vn 0.6879 0.2849 0.6676
vn 0.5265 0.5265 0.6676
vn 0.2849 0.6879 0.6676
vn 0.0000 0.7446 0.6676
vn -0.2849 0.6879 0.6676
vn -0.5265 0.5265 0.6676
vn -0.6879 0.2849 0.6676
vn -0.7446 0.0000 0.6676
vn -0.6879 -0.2849 0.6676
vn -0.5265 -0.5265 0.6676
vn -0.2849 -0.6879 0.6676
vn 0.0000 -1.0000 0.0050
vn 0.3827 -0.9239 0.0050
vn 0.7071 -0.7071 0.0050
vn 0.9239 -0.3827 0.0050
vn 1.0000 0.0000 0.0050
vn 0.9239 0.3827 0.0050
vn 0.3827 0.9239 0.0050
vn -0.3827 0.9239 0.0050
vn -0.7071 0.7071 0.0050
vn -0.9239 0.3827 0.0050
vn -1.0000 -0.0000 0.0050
vn -0.9239 -0.3827 0.0050
vn -0.7071 -0.7071 0.0050
vn 0.7071 0.7071 0.0050
vn 0.0000 1.0000 0.0050
vn -0.3827 -0.9239 0.0050
usemtl galvanized_metall.001
s 1
f 2/1/1 4/2/2 1/3/3
f 5/4/4 7/5/5 4/2/2
f 8/6/6 10/7/5 7/5/5
f 11/8/7 13/9/8 10/7/5
f 14/10/9 16/11/5 13/9/8
f 17/12/10 19/13/5 16/11/5
f 20/14/11 22/15/5 19/13/5
f 23/16/12 25/17/5 22/15/5
f 26/18/13 28/19/5 25/17/5
f 29/20/14 31/21/5 28/19/5
f 32/22/15 34/23/5 31/21/5
f 35/24/16 37/25/8 34/23/5
f 38/26/17 40/27/5 37/25/8
f 41/28/18 43/29/5 40/27/5
f 44/30/19 46/31/5 43/29/5
f 47/32/20 1/33/3 46/31/5
f 3/34/21 5/4/4 2/1/1
f 6/35/22 8/6/6 5/4/4
f 9/36/23 11/8/7 8/6/6
f 12/37/24 14/10/9 11/8/7
f 15/38/25 17/12/10 14/10/9
f 18/39/26 20/14/11 17/12/10
f 20/14/11 24/40/27 23/16/12
f 24/40/27 26/18/13 23/16/12
f 26/18/13 30/41/28 29/20/14
f 29/20/14 33/42/29 32/22/15
f 33/42/29 35/24/16 32/22/15
f 36/43/30 38/26/17 35/24/16
f 39/44/31 41/28/18 38/26/17
f 42/45/32 44/30/19 41/28/18
f 45/46/33 47/32/20 44/30/19
f 47/32/20 3/47/21 2/48/1
f 2/1/1 5/4/4 4/2/2
f 5/4/4 8/6/6 7/5/5
f 8/6/6 11/8/7 10/7/5
f 11/8/7 14/10/9 13/9/8
f 14/10/9 17/12/10 16/11/5
f 17/12/10 20/14/11 19/13/5
f 20/14/11 23/16/12 22/15/5
f 23/16/12 26/18/13 25/17/5
f 26/18/13 29/20/14 28/19/5
f 29/20/14 32/22/15 31/21/5
f 32/22/15 35/24/16 34/23/5
f 35/24/16 38/26/17 37/25/8
f 38/26/17 41/28/18 40/27/5
f 41/28/18 44/30/19 43/29/5
f 44/30/19 47/32/20 46/31/5
f 47/32/20 2/48/1 1/33/3
f 3/34/21 6/35/22 5/4/4
f 6/35/22 9/36/23 8/6/6
f 9/36/23 12/37/24 11/8/7
f 12/37/24 15/38/25 14/10/9
f 15/38/25 18/39/26 17/12/10
f 18/39/26 21/49/34 20/14/11
f 20/14/11 21/49/34 24/40/27
f 24/40/27 27/50/35 26/18/13
f 26/18/13 27/50/35 30/41/28
f 29/20/14 30/41/28 33/42/29
f 33/42/29 36/43/30 35/24/16
f 36/43/30 39/44/31 38/26/17
f 39/44/31 42/45/32 41/28/18
f 42/45/32 45/46/33 44/30/19
f 45/46/33 48/51/36 47/32/20
f 47/32/20 48/51/36 3/47/21
