# Blender v3.6.3 OBJ File: 'Stahl_14000.blend'
# www.blender.org
mtllib Stahl_14000.mtl
o Mast_14,0m_Metalogalva.001_BezierCurve.032
v 0.000000 0.000000 14.000000
v 0.000000 -0.038000 14.000000
v 0.000000 -0.110000 0.000000
v 0.000000 0.000000 14.000000
v 0.014542 -0.035107 14.000000
v 0.042095 -0.101627 0.000000
v 0.000000 0.000000 14.000000
v 0.026870 -0.026870 14.000000
v 0.077782 -0.077782 0.000000
v 0.000000 0.000000 14.000000
v 0.035107 -0.014542 14.000000
v 0.101627 -0.042095 0.000000
v 0.000000 0.000000 14.000000
v 0.038000 0.000000 14.000000
v 0.110000 0.000000 0.000000
v 0.000000 0.000000 14.000000
v 0.035107 0.014542 14.000000
v 0.101627 0.042095 0.000000
v 0.000000 0.000000 14.000000
v 0.026870 0.026870 14.000000
v 0.077782 0.077782 0.000000
v 0.000000 0.000000 14.000000
v 0.014542 0.035107 14.000000
v 0.042095 0.101627 0.000000
v 0.000000 0.000000 14.000000
v -0.000000 0.038000 14.000000
v -0.000000 0.110000 0.000000
v 0.000000 0.000000 14.000000
v -0.014542 0.035107 14.000000
v -0.042095 0.101627 0.000000
v 0.000000 0.000000 14.000000
v -0.026870 0.026870 14.000000
v -0.077782 0.077782 0.000000
v 0.000000 0.000000 14.000000
v -0.035107 0.014542 14.000000
v -0.101627 0.042095 0.000000
v 0.000000 0.000000 14.000000
v -0.038000 -0.000000 14.000000
v -0.110000 -0.000000 0.000000
v 0.000000 0.000000 14.000000
v -0.035107 -0.014542 14.000000
v -0.101627 -0.042095 0.000000
v 0.000000 0.000000 14.000000
v -0.026870 -0.026870 14.000000
v -0.077782 -0.077782 0.000000
v 0.000000 0.000000 14.000000
v -0.014542 -0.035107 14.000000
v -0.042095 -0.101627 0.000000
vt 0.000000 29.854614
vt 0.062500 29.854614
vt 0.062500 29.854614
vt 0.125000 29.854614
vt 0.125000 29.854614
vt 0.187500 29.854614
vt 0.187500 29.854614
vt 0.250000 29.854614
vt 0.250000 29.854614
vt 0.312500 29.854614
vt 0.312500 29.854614
vt 0.375000 29.854614
vt 0.375000 29.854614
vt 0.437500 29.854614
vt 0.437500 29.854614
vt 0.500000 29.854614
vt 0.500000 29.854614
vt 0.562500 29.854614
vt 0.562500 29.854614
vt 0.625000 29.854614
vt 0.625000 29.854614
vt 0.687500 29.854614
vt 0.687500 29.854614
vt 0.750000 29.854614
vt 0.750000 29.854614
vt 0.812500 29.854614
vt 0.812500 29.854614
vt 0.875000 29.854614
vt 0.875000 29.854614
vt 0.937500 29.854614
vt 0.937500 29.854614
vt 1.000000 29.854614
vt 1.000000 29.854614
vt 0.000000 -15.854614
vt 0.000000 29.854614
vt 0.062500 -15.854614
vt 0.125000 -15.854614
vt 0.250000 -15.854614
vt 0.312500 -15.854614
vt 0.437500 -15.854614
vt 0.500000 -15.854614
vt 0.562500 -15.854614
vt 0.625000 -15.854614
vt 0.687500 -15.854614
vt 0.750000 -15.854614
vt 0.875000 -15.854614
vt 0.937500 -15.854614
vt 0.187500 -15.854614
vt 0.375000 -15.854614
vt 0.812500 -15.854614
vt 1.000000 -15.854614
vn -0.0000 0.0000 1.0000
vn 0.2849 -0.6878 0.6676
vn 0.5264 -0.5264 0.6677
vn 0.6878 -0.2849 0.6676
vn 0.7445 0.0000 0.6676
vn 0.6878 0.2849 0.6677
vn 0.5264 0.5264 0.6677
vn 0.2849 0.6878 0.6676
vn 0.0000 0.7445 0.6676
vn -0.2849 0.6878 0.6676
vn -0.5265 0.5264 0.6676
vn -0.6878 0.2849 0.6677
vn -0.7445 0.0000 0.6676
vn -0.6878 -0.2849 0.6676
vn -0.5264 -0.5264 0.6677
vn -0.2849 -0.6878 0.6676
vn -0.0000 -0.7445 0.6676
vn 0.0000 -1.0000 0.0051
vn 0.3827 -0.9239 0.0051
vn 0.7071 -0.7071 0.0051
vn 1.0000 0.0000 0.0051
vn 0.9239 0.3827 0.0051
vn 0.3827 0.9239 0.0051
vn -0.0000 1.0000 0.0051
vn -0.3827 0.9239 0.0051
vn -0.7071 0.7071 0.0051
vn -0.9239 0.3827 0.0051
vn -1.0000 -0.0000 0.0051
vn -0.7071 -0.7071 0.0051
vn -0.3827 -0.9239 0.0051
vn 0.9239 -0.3827 0.0051
vn 0.7071 0.7071 0.0051
vn -0.9239 -0.3827 0.0051
usemtl galvanized_metall.002
s 1
f 1/1/1 5/2/2 4/3/1
f 4/3/1 8/4/3 7/5/1
f 7/5/1 11/6/4 10/7/1
f 10/7/1 14/8/5 13/9/1
f 13/9/1 17/10/6 16/11/1
f 16/11/1 20/12/7 19/13/1
f 19/13/1 23/14/8 22/15/1
f 22/15/1 26/16/9 25/17/1
f 25/17/1 29/18/10 28/19/1
f 28/19/1 32/20/11 31/21/1
f 31/21/1 35/22/12 34/23/1
f 34/23/1 38/24/13 37/25/1
f 37/25/1 41/26/14 40/27/1
f 40/27/1 44/28/15 43/29/1
f 43/29/1 47/30/16 46/31/1
f 46/31/1 2/32/17 1/33/1
f 3/34/18 5/2/2 2/35/17
f 6/36/19 8/4/3 5/2/2
f 9/37/20 11/6/4 8/4/3
f 11/6/4 15/38/21 14/8/5
f 15/38/21 17/10/6 14/8/5
f 18/39/22 20/12/7 17/10/6
f 20/12/7 24/40/23 23/14/8
f 24/40/23 26/16/9 23/14/8
f 27/41/24 29/18/10 26/16/9
f 30/42/25 32/20/11 29/18/10
f 33/43/26 35/22/12 32/20/11
f 36/44/27 38/24/13 35/22/12
f 39/45/28 41/26/14 38/24/13
f 41/26/14 45/46/29 44/28/15
f 45/46/29 47/30/16 44/28/15
f 48/47/30 2/32/17 47/30/16
f 1/1/1 2/35/17 5/2/2
f 4/3/1 5/2/2 8/4/3
f 7/5/1 8/4/3 11/6/4
f 10/7/1 11/6/4 14/8/5
f 13/9/1 14/8/5 17/10/6
f 16/11/1 17/10/6 20/12/7
f 19/13/1 20/12/7 23/14/8
f 22/15/1 23/14/8 26/16/9
f 25/17/1 26/16/9 29/18/10
f 28/19/1 29/18/10 32/20/11
f 31/21/1 32/20/11 35/22/12
f 34/23/1 35/22/12 38/24/13
f 37/25/1 38/24/13 41/26/14
f 40/27/1 41/26/14 44/28/15
f 43/29/1 44/28/15 47/30/16
f 46/31/1 47/30/16 2/32/17
f 3/34/18 6/36/19 5/2/2
f 6/36/19 9/37/20 8/4/3
f 9/37/20 12/48/31 11/6/4
f 11/6/4 12/48/31 15/38/21
f 15/38/21 18/39/22 17/10/6
f 18/39/22 21/49/32 20/12/7
f 20/12/7 21/49/32 24/40/23
f 24/40/23 27/41/24 26/16/9
f 27/41/24 30/42/25 29/18/10
f 30/42/25 33/43/26 32/20/11
f 33/43/26 36/44/27 35/22/12
f 36/44/27 39/45/28 38/24/13
f 39/45/28 42/50/33 41/26/14
f 41/26/14 42/50/33 45/46/29
f 45/46/29 48/47/30 47/30/16
f 48/47/30 3/51/18 2/32/17
