# Blender 4.0.2
# www.blender.org
mtllib Stahl_12000.mtl
o Mast_12,0m_Metalogalva.002
v 0.000000 0.000000 12.000000
v 0.000000 -0.038000 12.000000
v 0.000000 -0.098000 0.000000
v 0.000000 0.000000 12.000000
v 0.014542 -0.035107 12.000000
v 0.037503 -0.090540 0.000000
v 0.000000 0.000000 12.000000
v 0.026870 -0.026870 12.000000
v 0.069296 -0.069296 0.000000
v 0.000000 0.000000 12.000000
v 0.035107 -0.014542 12.000000
v 0.090540 -0.037503 0.000000
v 0.000000 0.000000 12.000000
v 0.038000 0.000000 12.000000
v 0.098000 0.000000 0.000000
v 0.000000 0.000000 12.000000
v 0.035107 0.014542 12.000000
v 0.090540 0.037503 0.000000
v 0.000000 0.000000 12.000000
v 0.026870 0.026870 12.000000
v 0.069296 0.069296 0.000000
v 0.000000 0.000000 12.000000
v 0.014542 0.035107 12.000000
v 0.037503 0.090540 0.000000
v 0.000000 0.000000 12.000000
v -0.000000 0.038000 12.000000
v -0.000000 0.098000 0.000000
v 0.000000 0.000000 12.000000
v -0.014542 0.035107 12.000000
v -0.037503 0.090540 0.000000
v 0.000000 0.000000 12.000000
v -0.026870 0.026870 12.000000
v -0.069296 0.069296 0.000000
v 0.000000 0.000000 12.000000
v -0.035107 0.014542 12.000000
v -0.090540 0.037503 0.000000
v 0.000000 0.000000 12.000000
v -0.038000 -0.000000 12.000000
v -0.098000 -0.000000 0.000000
v 0.000000 0.000000 12.000000
v -0.035107 -0.014542 12.000000
v -0.090540 -0.037503 0.000000
v 0.000000 0.000000 12.000000
v -0.026870 -0.026870 12.000000
v -0.069296 -0.069296 0.000000
v 0.000000 0.000000 12.000000
v -0.014542 -0.035107 12.000000
v -0.037503 -0.090540 0.000000
vn -0.0000 -0.0000 1.0000
vn 0.2849 -0.6879 0.6676
vn 0.5264 -0.5264 0.6676
vn 0.6879 -0.2849 0.6676
vn 0.7446 -0.0000 0.6676
vn 0.6878 0.2849 0.6676
vn 0.5264 0.5264 0.6676
vn 0.2849 0.6879 0.6676
vn -0.0000 0.7446 0.6676
vn -0.2849 0.6879 0.6676
vn -0.5265 0.5265 0.6676
vn -0.6879 0.2849 0.6676
vn -0.7446 -0.0000 0.6676
vn -0.6879 -0.2849 0.6676
vn -0.5265 -0.5264 0.6676
vn -0.2849 -0.6878 0.6676
vn -0.0000 -0.7446 0.6676
vn -0.0000 -1.0000 0.0050
vn 0.3827 -0.9239 0.0050
vn 0.7071 -0.7071 0.0050
vn 0.9239 -0.3827 0.0050
vn 1.0000 -0.0000 0.0050
vn 0.9239 0.3827 0.0050
vn 0.7071 0.7071 0.0050
vn 0.3827 0.9239 0.0050
vn -0.0000 1.0000 0.0050
vn -0.3827 0.9239 0.0050
vn -0.7071 0.7071 0.0050
vn -0.9239 0.3827 0.0050
vn -1.0000 -0.0000 0.0050
vn -0.9239 -0.3827 0.0050
vn -0.7071 -0.7071 0.0050
vn -0.3827 -0.9239 0.0050
vt 0.754224 -15.477769
vt 0.654357 -15.497634
vt 0.669561 -15.534338
vt 0.697654 -15.562433
vt 0.734359 -15.577635
vt 0.774089 -15.577635
vt 0.810794 -15.562433
vt 0.838887 -15.534338
vt 0.854090 -15.497634
vt 0.854090 -15.457905
vt 0.838887 -15.421200
vt 0.810794 -15.393106
vt 0.774089 -15.377903
vt 0.734359 -15.377903
vt 0.697654 -15.393106
vt 0.669561 -15.421200
vt 0.654357 -15.457905
vt -0.001656 -15.577229
vt 0.157531 16.577463
vt 0.120826 16.577579
vt 0.093004 -15.577530
vt 0.197261 16.577421
vt 0.195464 -15.577635
vt 0.233966 16.577463
vt 0.290125 -15.577532
vt 0.262059 16.577579
vt 0.362576 -15.577433
vt 0.488599 16.577410
vt 0.451894 16.577488
vt 0.457236 -15.577635
vt 0.528328 16.577410
vt 0.559696 -15.577635
vt 0.565033 16.577488
vt -0.365888 -15.577230
vt -0.237276 16.577463
vt -0.265369 16.577579
vt -0.293437 -15.577530
vt -0.200571 16.577421
vt -0.198777 -15.577635
vt -0.160842 16.577463
vt -0.096316 -15.577530
vt -0.124137 16.577579
vt -0.802570 -15.577059
vt -0.640801 16.577490
vt -0.668895 16.577635
vt -0.730120 -15.577433
vt -0.604096 16.577412
vt -0.635459 -15.577635
vt -0.564367 16.577412
vt -0.532999 -15.577635
vt -0.527662 16.577490
vt -0.438338 -15.577433
vt -0.499569 16.577635
vt 0.362576 -15.577230
vt 0.654357 -15.577433
vt -0.001656 -15.577230
vt -0.365888 -15.577059
s 1
usemtl galvanized_metall
f 1/1/1 5/2/2 4/1/1
f 4/1/1 8/3/3 7/1/1
f 7/1/1 11/4/4 10/1/1
f 10/1/1 14/5/5 13/1/1
f 13/1/1 17/6/6 16/1/1
f 16/1/1 20/7/7 19/1/1
f 19/1/1 23/8/8 22/1/1
f 22/1/1 26/9/9 25/1/1
f 25/1/1 29/10/10 28/1/1
f 28/1/1 32/11/11 31/1/1
f 31/1/1 35/12/12 34/1/1
f 34/1/1 38/13/13 37/1/1
f 37/1/1 41/14/14 40/1/1
f 40/1/1 44/15/15 43/1/1
f 43/1/1 47/16/16 46/1/1
f 46/1/1 2/17/17 1/1/1
f 3/18/18 5/19/2 2/20/17
f 6/21/19 8/22/3 5/19/2
f 9/23/20 11/24/4 8/22/3
f 12/25/21 14/26/5 11/24/4
f 15/27/22 17/28/6 14/29/5
f 18/30/23 20/31/7 17/28/6
f 21/32/24 23/33/8 20/31/7
f 24/34/25 26/35/9 23/36/8
f 27/37/26 29/38/10 26/35/9
f 30/39/27 32/40/11 29/38/10
f 33/41/28 35/42/12 32/40/11
f 36/43/29 38/44/13 35/45/12
f 39/46/30 41/47/14 38/44/13
f 42/48/31 44/49/15 41/47/14
f 45/50/32 47/51/16 44/49/15
f 48/52/33 2/53/17 47/51/16
f 1/1/1 2/17/17 5/2/2
f 4/1/1 5/2/2 8/3/3
f 7/1/1 8/3/3 11/4/4
f 10/1/1 11/4/4 14/5/5
f 13/1/1 14/5/5 17/6/6
f 16/1/1 17/6/6 20/7/7
f 19/1/1 20/7/7 23/8/8
f 22/1/1 23/8/8 26/9/9
f 25/1/1 26/9/9 29/10/10
f 28/1/1 29/10/10 32/11/11
f 31/1/1 32/11/11 35/12/12
f 34/1/1 35/12/12 38/13/13
f 37/1/1 38/13/13 41/14/14
f 40/1/1 41/14/14 44/15/15
f 43/1/1 44/15/15 47/16/16
f 46/1/1 47/16/16 2/17/17
f 3/18/18 6/21/19 5/19/2
f 6/21/19 9/23/20 8/22/3
f 9/23/20 12/25/21 11/24/4
f 12/25/21 15/54/22 14/26/5
f 15/27/22 18/30/23 17/28/6
f 18/30/23 21/32/24 20/31/7
f 21/32/24 24/55/25 23/33/8
f 24/34/25 27/37/26 26/35/9
f 27/37/26 30/39/27 29/38/10
f 30/39/27 33/41/28 32/40/11
f 33/41/28 36/56/29 35/42/12
f 36/43/29 39/46/30 38/44/13
f 39/46/30 42/48/31 41/47/14
f 42/48/31 45/50/32 44/49/15
f 45/50/32 48/52/33 47/51/16
f 48/52/33 3/57/18 2/53/17
