# Blender v3.5.0 OBJ File: 'Stahl_12000.blend'
# www.blender.org
mtllib Stahl_12000.mtl
o Mast_12,0m_Metalogalva.002_BezierCurve.031
v 0.000000 0.000000 12.000000
v 0.000000 -0.038000 12.000000
v 0.000000 -0.098000 0.000000
v 0.000000 0.000000 12.000000
v 0.014542 -0.035107 12.000000
v 0.037503 -0.090540 0.000000
v 0.000000 0.000000 12.000000
v 0.026870 -0.026870 12.000000
v 0.069296 -0.069296 0.000000
v 0.000000 0.000000 12.000000
v 0.035107 -0.014542 12.000000
v 0.090540 -0.037503 0.000000
v 0.000000 0.000000 12.000000
v 0.038000 0.000000 12.000000
v 0.098000 0.000000 0.000000
v 0.000000 0.000000 12.000000
v 0.035107 0.014542 12.000000
v 0.090540 0.037503 0.000000
v 0.000000 0.000000 12.000000
v 0.026870 0.026870 12.000000
v 0.069296 0.069296 0.000000
v 0.000000 0.000000 12.000000
v 0.014542 0.035107 12.000000
v 0.037503 0.090540 0.000000
v 0.000000 0.000000 12.000000
v -0.000000 0.038000 12.000000
v -0.000000 0.098000 0.000000
v 0.000000 0.000000 12.000000
v -0.014542 0.035107 12.000000
v -0.037503 0.090540 0.000000
v 0.000000 0.000000 12.000000
v -0.026870 0.026870 12.000000
v -0.069296 0.069296 0.000000
v 0.000000 0.000000 12.000000
v -0.035107 0.014542 12.000000
v -0.090540 0.037503 0.000000
v 0.000000 0.000000 12.000000
v -0.038000 -0.000000 12.000000
v -0.098000 -0.000000 0.000000
v 0.000000 0.000000 12.000000
v -0.035107 -0.014542 12.000000
v -0.090540 -0.037503 0.000000
v 0.000000 0.000000 12.000000
v -0.026870 -0.026870 12.000000
v -0.069296 -0.069296 0.000000
v 0.000000 0.000000 12.000000
v -0.014542 -0.035107 12.000000
v -0.037503 -0.090540 0.000000
vt 0.754224 -15.477769
vt 0.654357 -15.457905
vt 0.654357 -15.497634
vt 0.754224 -15.477769
vt 0.669561 -15.534338
vt 0.754224 -15.477769
vt 0.697654 -15.562433
vt 0.754224 -15.477769
vt 0.734359 -15.577635
vt 0.754224 -15.477769
vt 0.774089 -15.577635
vt 0.754224 -15.477769
vt 0.810794 -15.562433
vt 0.754224 -15.477769
vt 0.838887 -15.534338
vt 0.754224 -15.477769
vt 0.854090 -15.497634
vt 0.754224 -15.477769
vt 0.854090 -15.457905
vt 0.754224 -15.477769
vt 0.838887 -15.421200
vt 0.754224 -15.477769
vt 0.810794 -15.393106
vt 0.754224 -15.477769
vt 0.774089 -15.377903
vt 0.754224 -15.477769
vt 0.734359 -15.377903
vt 0.754224 -15.477769
vt 0.697654 -15.393106
vt 0.754224 -15.477769
vt 0.669561 -15.421200
vt 0.754224 -15.477769
vt 0.120826 16.577579
vt -0.001656 -15.577229
vt 0.093004 -15.577530
vt 0.157531 16.577463
vt 0.195464 -15.577635
vt 0.197261 16.577421
vt 0.290125 -15.577532
vt 0.233966 16.577463
vt 0.362576 -15.577230
vt 0.262059 16.577579
vt 0.451894 16.577488
vt 0.362576 -15.577433
vt 0.457236 -15.577635
vt 0.488599 16.577410
vt 0.559696 -15.577635
vt 0.528328 16.577410
vt 0.654357 -15.577433
vt 0.565033 16.577488
vt -0.265369 16.577579
vt -0.365888 -15.577230
vt -0.293437 -15.577530
vt -0.237276 16.577463
vt -0.198777 -15.577635
vt -0.200571 16.577421
vt -0.096316 -15.577530
vt -0.160842 16.577463
vt -0.001656 -15.577230
vt -0.124137 16.577579
vt -0.668895 16.577635
vt -0.802570 -15.577059
vt -0.730120 -15.577433
vt -0.640801 16.577490
vt -0.635459 -15.577635
vt -0.604096 16.577412
vt -0.532999 -15.577635
vt -0.564367 16.577412
vt -0.438338 -15.577433
vt -0.527662 16.577490
vt -0.365888 -15.577059
vt -0.499569 16.577635
vn 0.0001 0.0000 1.0000
vn 0.0000 -0.7446 0.6676
vn 0.2849 -0.6879 0.6676
vn 0.0000 0.0000 1.0000
vn 0.5265 -0.5265 0.6676
vn 0.6879 -0.2849 0.6676
vn 0.7446 0.0000 0.6676
vn 0.6879 0.2849 0.6676
vn 0.5265 0.5265 0.6676
vn 0.2849 0.6879 0.6676
vn -0.0000 0.7446 0.6676
vn -0.2849 0.6879 0.6676
vn -0.5265 0.5265 0.6676
vn -0.6879 0.2849 0.6676
vn -0.7446 -0.0000 0.6676
vn -0.6879 -0.2849 0.6676
vn -0.5265 -0.5265 0.6676
vn -0.2849 -0.6879 0.6676
vn 0.0000 -1.0000 0.0050
vn 0.3827 -0.9239 0.0050
vn 0.7071 -0.7071 0.0050
vn 0.9239 -0.3827 0.0050
vn 1.0000 0.0000 0.0050
vn 0.9239 0.3827 0.0050
vn 0.7071 0.7071 0.0050
vn 0.3827 0.9239 0.0050
vn -0.0000 1.0000 0.0050
vn -0.3827 0.9239 0.0050
vn -0.7071 0.7071 0.0050
vn -0.9239 0.3827 0.0050
vn -1.0000 -0.0000 0.0050
vn -0.9239 -0.3827 0.0050
vn -0.7071 -0.7071 0.0050
vn -0.3827 -0.9239 0.0050
usemtl galvanized_metall
s 1
f 1/1/1 2/2/2 5/3/3 4/4/4
f 4/4/4 5/3/3 8/5/5 7/6/4
f 7/6/4 8/5/5 11/7/6 10/8/4
f 10/8/4 11/7/6 14/9/7 13/10/4
f 13/10/4 14/9/7 17/11/8 16/12/4
f 16/12/4 17/11/8 20/13/9 19/14/4
f 19/14/4 20/13/9 23/15/10 22/16/4
f 22/16/4 23/15/10 26/17/11 25/18/4
f 25/18/4 26/17/11 29/19/12 28/20/4
f 28/20/4 29/19/12 32/21/13 31/22/4
f 31/22/4 32/21/13 35/23/14 34/24/4
f 34/24/4 35/23/14 38/25/15 37/26/4
f 37/26/4 38/25/15 41/27/16 40/28/4
f 40/28/4 41/27/16 44/29/17 43/30/4
f 43/30/4 44/29/17 47/31/18 46/32/1
f 46/32/1 47/31/18 2/2/2 1/1/1
f 2/33/2 3/34/19 6/35/20 5/36/3
f 5/36/3 6/35/20 9/37/21 8/38/5
f 8/38/5 9/37/21 12/39/22 11/40/6
f 11/40/6 12/39/22 15/41/23 14/42/7
f 14/43/7 15/44/23 18/45/24 17/46/8
f 17/46/8 18/45/24 21/47/25 20/48/9
f 20/48/9 21/47/25 24/49/26 23/50/10
f 23/51/10 24/52/26 27/53/27 26/54/11
f 26/54/11 27/53/27 30/55/28 29/56/12
f 29/56/12 30/55/28 33/57/29 32/58/13
f 32/58/13 33/57/29 36/59/30 35/60/14
f 35/61/14 36/62/30 39/63/31 38/64/15
f 38/64/15 39/63/31 42/65/32 41/66/16
f 41/66/16 42/65/32 45/67/33 44/68/17
f 44/68/17 45/67/33 48/69/34 47/70/18
f 47/70/18 48/69/34 3/71/19 2/72/2
